<svg width="36" height="36" viewBox="0 0 36 36" fill="none" xmlns="http://www.w3.org/2000/svg">
<path d="M17.7479 35.4958C27.5498 35.4958 35.4958 27.5498 35.4958 17.7479C35.4958 7.94601 27.5498 0 17.7479 0C7.94601 0 0 7.94601 0 17.7479C0 27.5498 7.94601 35.4958 17.7479 35.4958Z" fill="#507CBE"/>
<path d="M20.7058 11.388H22.9243V7.83838H20.1143H19.5227C19.5227 7.83838 17.4521 7.83838 16.121 9.46527C16.121 9.46527 15.2336 10.3527 15.2336 12.7191V15.2333H11.9798V18.9308H15.2336V28.3964H19.079V18.9308H22.3327L22.7764 15.2333H19.079V12.8669C19.079 12.5712 19.2269 11.2401 20.7058 11.388Z" fill="white"/>
</svg>
