<svg width="36" height="36" viewBox="0 0 36 36" fill="none" xmlns="http://www.w3.org/2000/svg">
<path d="M18.2437 35.4958C28.0456 35.4958 35.9916 27.5498 35.9916 17.7479C35.9916 7.94601 28.0456 0 18.2437 0C8.44179 0 0.495789 7.94601 0.495789 17.7479C0.495789 27.5498 8.44179 35.4958 18.2437 35.4958Z" fill="url(#paint0_radial_1_284)"/>
<path d="M22.3848 7.39502H14.3983C10.8487 7.39502 7.89072 10.2051 7.89072 13.7547V21.7412C7.89072 25.2908 10.8487 28.1009 14.3983 28.1009H22.3848C25.9344 28.1009 28.8924 25.2908 28.8924 21.7412V13.7547C28.8924 10.2051 25.9344 7.39502 22.3848 7.39502ZM26.8218 21.0017C26.8218 23.8118 24.4554 26.1782 21.6453 26.1782H15.1378C12.3277 26.1782 9.9613 23.8118 9.9613 21.0017V14.4942C9.9613 11.6841 12.3277 9.31771 15.1378 9.31771H21.6453C24.4554 9.31771 26.8218 11.6841 26.8218 14.4942V21.0017ZM18.6874 12.2757C15.5815 12.2757 13.2151 14.6421 13.2151 17.748C13.2151 20.7059 15.7294 23.2202 18.6874 23.2202C21.7932 23.2202 24.1596 20.7059 24.1596 17.748C24.1596 14.79 21.6453 12.2757 18.6874 12.2757ZM18.6874 21.0017C16.9126 21.0017 15.4336 19.5228 15.4336 17.748C15.4336 15.9732 16.9126 14.4942 18.6874 14.4942C20.4621 14.4942 21.9411 15.9732 21.9411 17.748C21.9411 19.5228 20.4621 21.0017 18.6874 21.0017ZM23.7159 13.6068C24.4554 13.6068 25.1949 13.0152 25.1949 12.2757C25.1949 11.5362 24.6033 10.9446 23.7159 10.9446C22.9764 10.9446 22.2369 11.5362 22.2369 12.2757C22.3848 13.0152 22.9764 13.6068 23.7159 13.6068Z" fill="white"/>
<defs>
<radialGradient id="paint0_radial_1_284" cx="0" cy="0" r="1" gradientUnits="userSpaceOnUse" gradientTransform="translate(10.0977 38.0177) rotate(-55.7276) scale(46.0085 45.8791)">
<stop stop-color="#FEDB7F"/>
<stop offset="0.3378" stop-color="#FA6C2A"/>
<stop offset="0.5867" stop-color="#D92D76"/>
<stop offset="1" stop-color="#525DD0"/>
</radialGradient>
</defs>
</svg>
