<svg width="36" height="36" viewBox="0 0 36 36" fill="none" xmlns="http://www.w3.org/2000/svg">
<path d="M18.2437 35.4958C28.0051 35.4958 35.9916 27.5092 35.9916 17.7479C35.9916 7.98656 28.0051 0 18.2437 0C8.4824 0 0.49585 7.98656 0.49585 17.7479C0.49585 27.5092 8.4824 35.4958 18.2437 35.4958Z" fill="#2CA5E0"/>
<path d="M26.0824 11.6843C26.0824 12.128 25.9345 12.7196 25.7866 13.1633C24.8992 17.3045 24.1597 21.4457 23.2723 25.5869C23.1244 25.8827 23.1245 26.0306 22.9766 26.3264C22.8287 26.6222 22.385 26.77 22.0892 26.6221C21.7934 26.4742 21.6455 26.4743 21.4976 26.3264C20.1665 25.2911 18.9833 24.4037 17.6522 23.3684C17.5043 23.2205 17.3564 23.2205 17.3564 23.3684C16.7648 23.96 16.1732 24.5516 15.4337 25.2911C15.1379 25.5869 14.8421 25.5869 14.5463 25.5869C14.2505 25.5869 14.2505 25.439 14.1026 25.2911C13.8068 24.1079 13.3631 22.7768 12.9194 21.4457C12.7715 21.002 12.6236 20.5583 12.4757 20.1146C12.3278 19.9667 12.3278 19.8188 12.1799 19.8188C10.9967 19.523 9.66561 19.0793 8.33451 18.6356C8.18662 18.4877 8.03873 18.4877 7.89084 18.4877C7.59504 18.1919 7.59503 17.8961 7.74293 17.7482C7.89083 17.6003 8.18662 17.4524 8.48242 17.3045C10.1093 16.565 11.8841 15.9734 13.6589 15.2339C17.3564 13.7549 21.0539 12.276 24.8992 10.797H25.0471C25.4908 10.5012 26.0824 10.7969 26.0824 11.6843ZM14.3984 24.4037C14.5463 24.4037 14.5463 24.4037 14.3984 24.4037C14.5463 23.3684 14.6942 22.481 14.6942 21.5936C14.6942 21.2978 14.8421 21.1499 14.99 21.002C17.3564 18.7835 19.8707 16.565 22.2371 14.1986C22.385 14.0507 22.5329 13.9028 22.6808 13.7549C22.8287 13.607 22.8287 13.607 22.8287 13.4591C22.6808 13.3112 22.6807 13.3112 22.5328 13.3112C22.3849 13.3112 22.2371 13.4591 21.9413 13.4591C18.9833 15.3818 16.0253 17.3045 12.9194 19.2272C12.7715 19.3751 12.7715 19.3751 12.7715 19.523C13.0673 20.7062 13.511 21.8894 13.8068 22.9247C14.1026 23.6642 14.2505 24.1079 14.3984 24.4037Z" fill="white"/>
</svg>
