<svg width="36" height="36" viewBox="0 0 36 36" fill="none" xmlns="http://www.w3.org/2000/svg">
<path d="M18.2353 35.4958C27.9967 35.4958 35.9832 27.5092 35.9832 17.7479C35.9832 7.98656 27.9967 0 18.2353 0C8.47398 0 0.487427 7.98656 0.487427 17.7479C0.487427 27.5092 8.47398 35.4958 18.2353 35.4958Z" fill="black"/>
<path d="M35.4832 17.7479C35.4832 27.2331 27.7205 34.9958 18.2353 34.9958C8.75012 34.9958 0.987427 27.2331 0.987427 17.7479C0.987427 8.2627 8.75012 0.5 18.2353 0.5C27.7205 0.5 35.4832 8.2627 35.4832 17.7479Z" stroke="white" stroke-opacity="0.2"/>
<path d="M24.4771 10.2027C24.5778 10.2376 24.6372 10.3265 24.7184 10.3873C24.7909 10.5551 24.9474 10.6435 25.0767 10.7533C25.7692 11.3415 26.5484 11.7578 27.4509 11.9202C27.4609 11.9257 27.4699 11.9325 27.4781 11.9402C27.4717 12.03 27.4599 12.1198 27.4599 12.2096C27.4586 13.0477 27.455 13.8858 27.4627 14.7235C27.4645 14.8922 27.4205 14.9384 27.2472 14.9344C25.4649 14.8908 23.834 14.3733 22.3451 13.3955C22.2816 13.3538 22.2217 13.2481 22.1355 13.3057C22.0739 13.347 22.111 13.4463 22.111 13.5193C22.1097 15.9425 22.1097 18.3662 22.1101 20.7894C22.1101 21.1898 22.1011 21.5899 22.0466 21.9867C21.4054 26.6734 16.4728 29.4304 12.1407 27.522C11.8251 27.3828 11.5226 27.2131 11.2142 27.0576C11.128 26.9896 11.0418 26.922 10.9556 26.8539C10.9429 26.7782 10.9189 26.7165 10.8219 26.7424L10.8232 26.7437C10.8654 26.649 10.7806 26.6086 10.737 26.5564C9.41138 24.9655 8.84266 23.1332 9.11614 21.0864C9.44086 18.6542 10.7389 16.86 12.8963 15.6985C13.8541 15.1829 14.8959 14.9552 15.978 14.9035C15.9853 14.9076 15.9912 14.9135 15.9957 14.9207C15.9912 15.011 15.9825 15.1008 15.9825 15.191C15.9816 16.0283 15.9762 16.8655 15.9862 17.7022C15.9884 17.9063 15.9363 17.934 15.7422 17.89C13.3924 17.3562 11.318 19.3998 11.835 21.7509C12.0464 22.7128 12.5933 23.4439 13.4909 23.8888C13.5226 23.9183 13.5544 23.9473 13.5861 23.9768C14.8582 25.6693 17.1073 25.4702 18.2842 24.4194C19.0466 23.7387 19.3853 22.862 19.3844 21.8393C19.3795 16.8895 19.3844 11.9397 19.3767 6.99037C19.3767 6.75544 19.4411 6.69966 19.667 6.70329C20.4965 6.71644 21.3269 6.70873 22.1569 6.70918C22.1709 6.75953 22.1872 6.80896 22.199 6.85975C22.5197 8.2734 23.2671 9.39588 24.4766 10.2041L24.4771 10.2027Z" fill="#FFFEFF"/>
<path d="M11.2155 27.0578C11.5239 27.2134 11.8264 27.3835 12.142 27.5223C16.4741 29.4307 21.4067 26.6737 22.048 21.987C22.1024 21.5901 22.1115 21.1897 22.1115 20.7896C22.1105 18.3665 22.111 15.9428 22.1124 13.5196C22.1124 13.4466 22.0752 13.3473 22.1369 13.306C22.223 13.2484 22.2829 13.3545 22.3464 13.3958C23.8349 14.3736 25.4657 14.8911 27.2486 14.9346C27.4218 14.9387 27.4653 14.8924 27.464 14.7237C27.4563 13.8856 27.4599 13.0479 27.4613 12.2098C27.4613 12.12 27.4731 12.0302 27.4794 11.9404C27.7932 11.9803 28.1048 12.0443 28.4232 12.0361C28.5556 12.0325 28.5869 12.0915 28.5865 12.2135C28.5833 13.3754 28.5806 14.5378 28.5878 15.6997C28.5892 15.8993 28.4708 15.8711 28.3515 15.868C26.7823 15.8262 25.3174 15.4131 23.9573 14.6289C23.8398 14.5614 23.7247 14.4888 23.6099 14.4162C23.497 14.345 23.3863 14.2711 23.2698 14.1954C23.2135 14.2902 23.2371 14.3741 23.2371 14.4525C23.2344 16.9578 23.2339 19.4631 23.2326 21.9679C23.2303 25.5149 20.6379 28.5236 17.1272 28.9908C14.9444 29.281 13.006 28.6797 11.3533 27.2057C11.3035 27.1613 11.2613 27.1073 11.2159 27.0578H11.2155Z" fill="#E52157"/>
<path d="M22.1578 6.70755C21.3279 6.70755 20.4979 6.71526 19.668 6.70165C19.4421 6.69803 19.3772 6.75381 19.3777 6.98874C19.3854 11.9385 19.3809 16.8883 19.3854 21.8377C19.3863 22.8604 19.0475 23.737 18.2852 24.4178C17.1083 25.4686 14.8592 25.6677 13.5871 23.9751C14.2796 24.2563 14.9876 24.3752 15.7313 24.206C17.1563 23.8817 18.2339 22.5919 18.2434 21.1288C18.2588 18.8194 18.2471 16.5101 18.2471 14.2007C18.2471 11.4687 18.2493 8.73663 18.2421 6.00458C18.2416 5.8014 18.2951 5.75605 18.4933 5.75786C19.6253 5.7683 20.7573 5.76693 21.8893 5.75877C22.0685 5.75741 22.1274 5.80458 22.1161 5.98463C22.1011 6.21683 22.1061 6.45131 22.1782 6.67762C22.171 6.68714 22.1642 6.69667 22.1574 6.70619L22.1578 6.70755Z" fill="#21B6C3"/>
<path d="M15.979 14.9022C14.8964 14.9539 13.8551 15.1816 12.8973 15.6972C10.7399 16.8592 9.44187 18.6533 9.11715 21.0851C8.84367 23.1319 9.41239 24.9642 10.7381 26.5551C10.7816 26.6077 10.8664 26.6481 10.8242 26.7424C10.7163 26.7338 10.6578 26.6454 10.5861 26.5846C8.333 24.6712 7.44363 22.2407 8.13979 19.3772C8.82734 16.5508 10.7127 14.8115 13.5477 14.1317C14.2864 13.9543 15.0411 13.9394 15.7971 14.0142C15.9377 14.0283 15.9962 14.0745 15.9872 14.2237C15.9736 14.4491 15.9808 14.6759 15.979 14.9022Z" fill="#1FB5C2"/>
<path d="M13.4919 23.888C12.5939 23.4431 12.0474 22.712 11.836 21.75C11.319 19.3994 13.3934 17.3554 15.7432 17.8892C15.9373 17.9332 15.9894 17.906 15.9872 17.7014C15.9772 16.8647 15.9826 16.0274 15.9835 15.1902C15.9835 15.1 15.9921 15.0102 15.9967 14.9199C16.291 14.8977 16.584 14.9199 16.8774 14.939C17.0566 14.9508 17.1142 15.0147 17.1124 15.2007C17.1028 16.2492 17.1092 17.2982 17.106 18.3472C17.1056 18.5114 17.1781 18.7273 17.0734 18.8262C16.9754 18.9187 16.7795 18.7885 16.6248 18.7681C14.6243 18.5032 12.9581 19.896 12.8773 21.9142C12.8528 22.5324 13.0202 23.1075 13.3417 23.6372C13.3925 23.7206 13.4415 23.8045 13.4914 23.8884L13.4919 23.888Z" fill="#E52157"/>
<path d="M22.1579 6.70777C22.1647 6.69825 22.1719 6.68872 22.1787 6.6792C22.4645 6.68011 22.7506 6.68646 23.0364 6.68011C23.1733 6.67693 23.2382 6.7055 23.2373 6.86515C23.2309 8.05067 23.6618 9.08153 24.3715 10.0104C24.416 10.0689 24.4827 10.116 24.4777 10.2027C23.2681 9.39492 22.5207 8.27199 22.2005 6.85834C22.1892 6.80755 22.1724 6.75766 22.1583 6.70777H22.1579Z" fill="#E52157"/>
<path d="M27.4514 11.9206C26.5488 11.7583 25.7697 11.3419 25.0771 10.7537C24.9479 10.6439 24.791 10.5555 24.7189 10.3877C25.2395 10.6426 25.7642 10.8861 26.3389 10.9986C26.6427 11.058 26.947 11.1197 27.2572 11.1097C27.4341 11.1043 27.4781 11.1709 27.4654 11.3333C27.45 11.5283 27.4554 11.7247 27.4514 11.9206Z" fill="#1FB5C2"/>
<path d="M10.8233 26.7423C10.9204 26.7165 10.9444 26.7781 10.9571 26.8539C10.9045 26.8262 10.8369 26.8167 10.8233 26.7423Z" fill="#1FB5C2"/>
</svg>
