<svg width="36" height="36" viewBox="0 0 36 36" fill="none" xmlns="http://www.w3.org/2000/svg">
<path d="M17.7396 35.4958C27.5009 35.4958 35.4875 27.5092 35.4875 17.7479C35.4875 7.98656 27.5009 0 17.7396 0C7.97825 0 -0.00830078 7.98656 -0.00830078 17.7479C-0.00830078 27.5092 7.97825 35.4958 17.7396 35.4958Z" fill="#5BB655"/>
<path d="M6.70008 28.3548C6.89999 27.2546 7.09304 26.1887 7.28722 25.1222C7.38289 24.5977 7.48714 24.0743 7.56906 23.5476C7.58567 23.4419 7.54213 23.3097 7.48542 23.2136C6.46865 21.4832 5.93077 19.6179 5.90843 17.6238C5.8775 14.8557 6.73788 12.3708 8.52396 10.2233C10.5535 7.78342 13.1828 6.35547 16.3677 5.99568C22.7736 5.27159 28.3014 9.57059 29.3778 15.3538C30.5377 21.5872 26.371 27.5672 20.0344 28.7517C17.3054 29.2621 14.7059 28.886 12.2302 27.652C12.0967 27.5857 11.9168 27.5559 11.7696 27.5784C10.1691 27.8235 8.57093 28.0832 6.9716 28.3373C6.8977 28.3491 6.82152 28.3475 6.70008 28.3542V28.3548ZM9.06184 26.106C9.1724 26.097 9.22911 26.0976 9.28353 26.0875C10.1915 25.9205 11.0982 25.7451 12.0085 25.5922C12.1586 25.5669 12.3516 25.5967 12.4805 25.6732C14.7076 26.9954 17.0992 27.4199 19.6529 26.951C25.4653 25.8834 29.022 20.0283 27.2222 14.4998C25.6979 9.81964 20.8197 7.00761 15.8332 7.9352C9.13975 9.17987 5.67586 16.6125 9.16954 22.3141C9.56708 22.9629 9.66732 23.5149 9.46569 24.2081C9.28868 24.8153 9.19875 25.4472 9.06184 26.1066V26.106Z" fill="white"/>
<path d="M12.1118 14.7233C12.149 13.6832 12.5672 12.836 13.3863 12.1828C13.6263 11.9911 13.9047 11.9118 14.2158 11.9601C14.2914 11.9719 14.3687 11.9955 14.4426 11.9877C14.9473 11.9343 15.1798 12.1991 15.3184 12.6404C15.5149 13.265 15.7211 13.8895 15.9795 14.4905C16.1616 14.915 16.0488 15.2326 15.7693 15.5384C15.5842 15.7402 15.3923 15.9364 15.193 16.1242C15.0154 16.2917 14.9874 16.4671 15.0985 16.6796C15.9537 18.3111 17.2208 19.5209 18.9255 20.2827C19.1318 20.3749 19.3139 20.3439 19.4703 20.1781C19.7813 19.8481 20.105 19.5288 20.4 19.1859C20.5902 18.9649 20.7935 18.8913 21.0502 19.0279C21.8372 19.4473 22.6243 19.8678 23.3999 20.3074C23.4967 20.3619 23.5815 20.5373 23.5746 20.6515C23.5271 21.4329 23.2767 22.1098 22.5332 22.5331C21.6465 23.0385 20.7448 23.1734 19.7412 22.8653C17.0129 22.0271 14.9455 20.3861 13.4459 18.0199C12.9366 17.2165 12.4131 16.4216 12.2252 15.4726C12.1759 15.2253 12.1496 14.974 12.1123 14.7249L12.1118 14.7233Z" fill="white"/>
</svg>
