<svg width="36" height="36" viewBox="0 0 36 36" fill="none" xmlns="http://www.w3.org/2000/svg">
<path d="M17.7479 35.4958C27.5092 35.4958 35.4958 27.5092 35.4958 17.7479C35.4958 7.98656 27.5092 0 17.7479 0C7.98656 0 0 7.98656 0 17.7479C0 27.5092 7.98656 35.4958 17.7479 35.4958Z" fill="#7C529D"/>
<path d="M27.8051 13.1633C27.2135 11.0927 24.995 9.02216 23.0723 8.57846C19.8185 7.98687 16.4168 7.98687 13.163 8.57846C11.0925 9.02216 8.874 11.0927 8.4303 13.1633C7.8387 15.9734 7.8387 18.7835 8.4303 21.5936C8.874 23.5163 10.9445 25.5869 13.0151 26.1785V28.3969C13.0151 29.1364 14.0504 29.5801 14.4941 28.9885L16.7126 26.6221C17.3042 26.6221 17.7479 26.6221 18.1916 26.6221C19.8185 26.6221 21.4454 26.4743 23.2202 26.1785C25.2908 25.7348 27.5093 23.6642 27.953 21.5936C28.3967 18.7835 28.3967 15.9734 27.8051 13.1633ZM26.0303 21.1499C25.7345 22.481 23.9597 24.1078 22.6286 24.4036C20.8538 24.6994 19.079 24.8474 17.3042 24.8474H17.1563C16.8605 25.1432 15.5294 26.4742 15.5294 26.4742L13.7546 28.249C13.6067 28.3969 13.4589 28.249 13.4589 28.1011V24.4036C13.4589 24.2557 13.4589 24.2557 13.311 24.2557C11.9799 23.9599 10.353 22.3331 9.90929 21.002C9.3177 18.4877 9.3177 15.8255 9.90929 13.3112C10.2051 11.9801 11.9799 10.3533 13.311 10.0575C16.4168 9.46586 19.5227 9.46586 22.4807 10.0575C23.8118 10.3533 25.4387 11.9801 25.8824 13.3112C26.474 15.9734 26.474 18.6356 26.0303 21.1499ZM21.5933 19.8188C21.2975 19.6709 21.0017 19.3751 20.7059 19.2272C20.4101 19.0793 19.9664 19.0793 19.6706 19.2272C19.3748 19.523 19.2269 19.9667 18.7832 19.9667C18.4874 19.9667 18.3395 19.8188 18.0437 19.8188C16.7127 19.2272 15.8252 18.1919 15.3815 16.8608C15.2336 16.7129 15.2336 16.565 15.3815 16.2692C15.5294 16.1213 15.5294 16.1213 15.5294 16.1213C15.6773 15.9734 15.6774 15.9734 15.8253 15.9734C16.1211 15.6776 16.2689 15.2339 16.121 14.7902C15.8252 14.1986 15.3816 13.607 14.9379 13.0154C14.6421 12.7196 14.3463 12.7196 14.1984 12.8675C13.9026 13.0154 13.4588 13.3112 13.163 13.607C12.8672 13.9028 12.5715 14.4944 12.8673 14.9381C13.0152 15.5297 13.311 15.9734 13.4589 16.4171C14.0505 17.4524 14.642 18.4877 15.3815 19.3751C16.8605 21.002 18.4874 21.8894 20.4101 22.7767C20.558 22.9246 20.7059 22.9247 21.0017 22.9247C21.1496 22.7768 21.2975 22.7767 21.5933 22.7767C22.1849 22.4809 22.6286 22.0373 22.7765 21.4457C22.9244 21.1499 22.9244 20.8541 22.6286 20.5583C22.1849 20.2625 21.8891 19.9667 21.5933 19.8188ZM18.0437 11.9801C17.8958 11.9801 20.4101 12.128 18.0437 11.9801V11.9801ZM18.0437 11.9801C17.8958 11.9801 17.8958 11.9801 17.8958 11.9801C17.7479 11.9801 17.6 12.128 17.6 12.2759C17.6 12.4238 17.8958 12.5717 18.0437 12.5717C18.3395 12.5717 18.6353 12.5717 18.7832 12.7196C20.7059 13.0154 22.037 14.6423 22.3328 16.4171C22.4807 16.7129 22.4807 17.1566 22.4807 17.4524C22.4807 17.6003 22.6286 17.7482 22.7765 17.7482C22.9244 17.7482 23.0723 17.6003 23.0723 17.4524C23.0723 17.0087 22.9244 16.565 22.9244 16.2692C22.4807 13.7549 20.4101 12.128 18.0437 11.9801ZM21.1496 16.8608C21.1496 17.0087 21.1496 17.0087 21.1496 17.1566C21.2975 17.4524 21.5933 17.3045 21.7412 17.1566C21.7412 17.0087 21.7412 17.0087 21.7412 17.0087C21.7412 16.8608 21.7412 16.7129 21.7412 16.565C21.7412 16.4171 21.7412 16.4171 21.7412 16.4171C21.5933 15.2339 21.0017 14.3465 19.9664 13.9028C19.3748 13.607 18.9311 13.607 18.3395 13.4591C18.1916 13.4591 18.0437 13.607 18.0437 13.7549C18.0437 13.9028 18.1916 14.0507 18.3395 14.0507C18.4874 14.0507 18.6353 14.0507 18.7832 14.1986C19.079 14.3465 19.3748 14.3465 19.8185 14.4944C20.2622 14.7902 20.7059 15.086 21.0017 15.6776C21.0017 15.8255 21.1496 16.4171 21.1496 16.8608ZM20.2622 16.8608C20.4101 16.8608 20.4101 16.7129 20.4101 16.7129C20.4101 16.7129 20.4101 16.565 20.4101 16.4171C20.2622 15.2339 19.6706 14.7902 18.6353 14.7902C18.4874 14.7902 18.3395 14.9381 18.3395 15.086C18.3395 15.2339 18.4874 15.3818 18.6353 15.3818C18.7832 15.3818 18.9311 15.3818 19.079 15.5297C19.2269 15.5297 19.3748 15.6776 19.3748 15.6776C19.5227 15.8255 19.6706 15.9734 19.8185 16.2692C19.8185 16.4171 19.8185 16.565 19.9664 16.565C19.8185 16.8608 19.9664 16.8608 20.2622 16.8608C20.1143 16.8608 19.9664 16.8608 20.2622 16.8608Z" fill="white"/>
</svg>
