<svg width="36" height="36" viewBox="0 0 36 36" fill="none" xmlns="http://www.w3.org/2000/svg">
<path d="M17.7395 35.4958C27.5414 35.4958 35.4874 27.5498 35.4874 17.7479C35.4874 7.94601 27.5414 0 17.7395 0C7.93758 0 -0.00842285 7.94601 -0.00842285 17.7479C-0.00842285 27.5498 7.93758 35.4958 17.7395 35.4958Z" fill="#F63636"/>
<path d="M26.1697 8.87402H9.01337C5.75959 8.87402 4.4285 11.5362 4.4285 14.6421V20.706C4.4285 23.9597 5.90749 26.6219 9.16127 26.6219H26.0218C29.2756 26.6219 30.4587 23.9597 30.4587 20.8539V14.6421C30.3109 11.5362 29.4235 8.87402 26.1697 8.87402ZM14.7814 21.4455V14.3463L21.8806 17.8959L14.7814 21.4455Z" fill="white"/>
</svg>
