<svg width="21" height="20" viewBox="0 0 21 20" fill="none" xmlns="http://www.w3.org/2000/svg">
<path d="M19.8327 9.58333L16.166 5.58333C16.0827 5.5 15.9993 5.41667 15.916 5.41667C15.8327 5.41667 15.8327 5.5 15.8327 5.66667V14.25C15.8327 14.4167 15.8327 14.5 15.916 14.5833C15.9993 14.5833 16.0827 14.5833 16.166 14.5L19.8327 10.4167C20.0827 10.1667 20.0827 9.83333 19.8327 9.58333ZM11.5827 15V11.6667H8.33268V15H5.83268C5.83268 15 4.99935 15 5.83268 16.25C5.83268 16.25 9.16601 20 9.99935 20C10.8327 20 14.166 16.25 14.166 16.25C14.9993 15.0833 14.166 15.0833 14.166 15.0833L11.5827 15ZM11.5827 5V8.33333H8.33268V5H5.83268C5.83268 5 4.99935 5 5.83268 3.75C5.83268 3.75 9.16601 0 9.99935 0C10.8327 0 14.166 3.75 14.166 3.75C14.9993 4.91667 14.166 4.91667 14.166 4.91667L11.5827 5ZM3.74935 5.5L0.166016 9.58333C-0.000651035 9.83333 -0.000651035 10.1667 0.166016 10.3333L3.74935 14.4167C3.83268 14.5 3.91602 14.5 3.99935 14.5C4.08268 14.5 4.08268 14.4167 4.08268 14.25V5.66667C4.08268 5.5 4.08268 5.41667 3.99935 5.41667C3.99935 5.41667 3.91602 5.41667 3.74935 5.5Z" fill="#FF0000"/>
</svg>
