<svg xmlns="http://www.w3.org/2000/svg" width="24" height="24" viewBox="0 0 24 24" focusable="false" aria-hidden="true" tabindex="-1" class="_2uocW" style="width: 24px; height: 24px;"><g fill="none" fill-rule="evenodd"><path d="M0 0h24v24H0z"></path><path fill="currentColor" d="M10.143 16.284A6.149 6.149 0 014 10.142C4 6.756 6.756 4 10.143 4s6.142 2.756 6.142 6.142a6.149 6.149 0 01-6.142 6.142m11.564 4.01l-5.05-5.052c-.035-.035-.08-.05-.118-.078a8.1 8.1 0 001.746-5.022c0-4.49-3.653-8.142-8.142-8.142C5.653 2 2 5.652 2 10.142c0 4.49 3.653 8.142 8.143 8.142a8.084 8.084 0 005.02-1.746c.03.038.044.083.08.118l5.05 5.051a1 1 0 001.414-1.414"></path></g></svg>