<svg width="76" height="32" viewBox="0 0 76 32" fill="none" xmlns="http://www.w3.org/2000/svg">
<mask id="mask0_8_6369" style="mask-type:luminance" maskUnits="userSpaceOnUse" x="0" y="0" width="76" height="32">
<path d="M0 0.00183105H75.1189V31.9982H0V0.00183105Z" fill="white"/>
</mask>
<g mask="url(#mask0_8_6369)">
<path d="M18.4672 11.9383H9.702V14.5398H15.9182C15.6115 18.1873 12.5763 19.7427 9.71266 19.7427C6.0482 19.7427 2.85123 16.8595 2.85123 12.8182C2.85123 8.88084 5.89888 5.84919 9.72155 5.84919C12.6697 5.84919 14.4072 7.72898 14.4072 7.72898L16.2284 5.84297C16.2284 5.84297 13.8909 3.2406 9.62734 3.2406C4.19952 3.2406 0 7.82319 0 12.7711C0 17.6212 3.95066 22.3495 9.76599 22.3495C14.8819 22.3495 18.6263 18.8459 18.6263 13.6643C18.6263 12.5711 18.4672 11.9383 18.4672 11.9383Z" fill="#4285F4"/>
<path d="M25.6485 10.0558C22.0516 10.0558 19.4741 12.867 19.4741 16.1466C19.4741 19.4743 21.9743 22.3379 25.6903 22.3379C29.0552 22.3379 31.8114 19.7667 31.8114 16.2177C31.8114 12.1507 28.6055 10.0558 25.6485 10.0558ZM25.6841 12.468C27.4528 12.468 29.129 13.898 29.129 16.2017C29.129 18.4575 27.4599 19.9275 25.6761 19.9275C23.7163 19.9275 22.1698 18.3579 22.1698 16.184C22.1698 14.0562 23.6967 12.468 25.6841 12.468Z" fill="#EA4335"/>
<path d="M39.0768 10.0558C35.4808 10.0558 32.9033 12.867 32.9033 16.1466C32.9033 19.4743 35.4035 22.3379 39.1195 22.3379C42.4836 22.3379 45.2397 19.7667 45.2397 16.2177C45.2397 12.1507 42.0338 10.0558 39.0768 10.0558ZM39.1124 12.468C40.8811 12.468 42.5573 13.898 42.5573 16.2017C42.5573 18.4575 40.8891 19.9275 39.1044 19.9275C37.1446 19.9275 35.5981 18.3579 35.5981 16.184C35.5981 14.0562 37.1242 12.468 39.1124 12.468Z" fill="#FBBC05"/>
<path d="M52.2473 10.062C48.9463 10.062 46.3511 12.9532 46.3511 16.1982C46.3511 19.8956 49.3596 22.3468 52.1904 22.3468C53.9413 22.3468 54.8719 21.6518 55.5589 20.8537V22.0651C55.5589 24.1839 54.2719 25.4531 52.3299 25.4531C50.4546 25.4531 49.5134 24.0577 49.1863 23.2667L46.8257 24.2533C47.6638 26.0237 49.349 27.8706 52.3495 27.8706C55.6318 27.8706 58.1337 25.8024 58.1337 21.4669V10.4309H55.5589V11.4707C54.7679 10.6175 53.6845 10.062 52.2473 10.062ZM52.4864 12.4697C54.1049 12.4697 55.766 13.8509 55.766 16.2115C55.766 18.6104 54.1084 19.9329 52.4508 19.9329C50.691 19.9329 49.053 18.5037 49.053 16.2346C49.053 13.8767 50.7541 12.4697 52.4864 12.4697Z" fill="#4285F4"/>
<path d="M69.5841 10.0469C66.4698 10.0469 63.855 12.5248 63.855 16.1804C63.855 20.0493 66.7702 22.3432 69.8827 22.3432C72.4815 22.3432 74.076 20.9212 75.0279 19.6484L72.9046 18.2353C72.3536 19.0903 71.4328 19.9257 69.8961 19.9257C68.1692 19.9257 67.3755 18.981 66.8831 18.0646L75.1186 14.6472L74.692 13.6465C73.8956 11.6849 72.0398 10.0469 69.5841 10.0469ZM69.6908 12.4093C70.8133 12.4093 71.6203 13.0056 71.9634 13.7211L66.4645 16.0195C66.2272 14.2402 67.9132 12.4093 69.6908 12.4093Z" fill="#EA4335"/>
<path d="M59.9287 21.9789H62.6342V3.8761H59.9287V21.9789Z" fill="#34A853"/>
</g>
</svg>
