<?xml version="1.0" encoding="UTF-8" standalone="no"?>
<svg
   version="1.1"
   id="svg6174"
   xml:space="preserve"
   width="40"
   height="40"
   viewBox="0 0 682.66669 682.66669"
   xmlns="http://www.w3.org/2000/svg"
   xmlns:svg="http://www.w3.org/2000/svg">
   <!-- Ваш вміст SVG залишається незмінним -->
   <defs id="defs6178">
      <clipPath clipPathUnits="userSpaceOnUse" id="clipPath6188">
         <path d="M 0,512 H 512 V 0 H 0 Z" id="path6186" />
      </clipPath>
   </defs>
   <g id="g6180" transform="matrix(1.3333333,0,0,-1.3333333,0,682.66667)">
       
         <g id="g6182"><g
         id="g6184"
         clip-path="url(#clipPath6188)"><g
           id="g6190"
           transform="translate(364.125,62.6904)"><path
             d="m 0,0 h 9.343 c 10.318,0 18.683,-8.365 18.683,-18.685 0,-10.318 -8.365,-18.683 -18.683,-18.683 h -117.539 c -5.046,0 -9.93,1.709 -13.935,4.78 -10.563,8.099 -21.741,9.815 -35.326,10.621 V 96.846 c 31.951,36.506 72.44,39.936 69.606,94.487 -0.49,9.439 7.033,17.365 16.485,17.365 7.23,0 13.658,-4.692 15.768,-11.607 8.576,-28.109 10.72,-56.004 -0.601,-84.986 h 85.654 c 10.319,0 18.685,-8.365 18.685,-18.684 0,-10.318 -8.366,-18.684 -18.685,-18.684 H 6.212 23.129 c 10.318,0 18.684,-8.365 18.684,-18.684 0,-10.32 -8.366,-18.685 -18.684,-18.685 H 6.212 16.917 c 10.319,0 18.685,-8.365 18.685,-18.683 C 35.602,8.365 27.236,0 16.917,0 Z"
             style="fill:#ffcebf;fill-opacity:1;fill-rule:nonzero;stroke:none"
             id="path6192" /></g><g
           id="g6194"
           transform="translate(299.2266,254.0215)"><path
             d="m 0,0 c 2.69,-51.779 -33.656,-57.503 -64.678,-89.165 -3.157,-3.223 -4.929,-7.559 -4.929,-12.07 v -112.064 c 13.586,-0.803 24.762,-2.524 35.32,-10.626 4.005,-3.063 8.892,-4.773 13.941,-4.773 h -22.95 c -5.049,0 -9.936,1.71 -13.941,4.773 -10.558,8.102 -21.735,9.823 -35.321,10.626 v 118.814 c 31.947,36.502 72.443,39.932 69.608,94.485 -0.493,9.444 7.034,17.362 16.478,17.362 3.615,0 7.034,-1.171 9.812,-3.202 C 3.937,13.725 4.498,13.242 5.026,12.727 1.71,9.548 -0.264,4.98 0,0"
             style="fill:#ffaf9e;fill-opacity:1;fill-rule:nonzero;stroke:none"
             id="path6196" /></g><g
           id="g6198"
           transform="translate(470.2842,504.4941)"><path
             d="m 0,0 h -428.568 c -9.612,0 -17.404,-7.706 -17.404,-17.212 v -107.542 c 0,-9.507 7.792,-17.213 17.404,-17.213 h 178.639 l 35.645,-54.075 35.644,54.075 H 0 c 9.611,0 17.403,7.706 17.403,17.213 V -17.212 C 17.403,-7.706 9.611,0 0,0"
             style="fill:#eaf6ff;fill-opacity:1;fill-rule:nonzero;stroke:none"
             id="path6200" /></g><g
           id="g6202"
           transform="translate(98.4014,465.4287)"><path
             d="m 0,0 7.531,-15.092 c 0.73,-1.463 2.142,-2.477 3.774,-2.712 l 16.839,-2.42 c 4.111,-0.59 5.752,-5.588 2.778,-8.456 L 18.737,-40.427 c -1.181,-1.138 -1.72,-2.78 -1.441,-4.388 l 2.876,-16.587 c 0.702,-4.05 -3.596,-7.139 -7.273,-5.227 l -15.061,7.832 c -1.46,0.759 -3.204,0.759 -4.665,0 l -15.061,-7.832 c -3.677,-1.912 -7.974,1.177 -7.272,5.227 l 2.876,16.587 c 0.279,1.608 -0.26,3.25 -1.442,4.388 L -39.91,-28.68 c -2.975,2.868 -1.333,7.866 2.777,8.456 l 16.839,2.42 c 1.633,0.235 3.044,1.249 3.774,2.712 L -8.989,0 C -7.15,3.685 -1.838,3.685 0,0"
             style="fill:#ffde5c;fill-opacity:1;fill-rule:nonzero;stroke:none"
             id="path6204" /></g><g
           id="g6206"
           transform="translate(179.4482,465.4287)"><path
             d="m 0,0 7.53,-15.092 c 0.731,-1.463 2.142,-2.477 3.775,-2.712 l 16.839,-2.42 c 4.111,-0.59 5.752,-5.588 2.777,-8.456 L 18.736,-40.427 c -1.18,-1.138 -1.719,-2.78 -1.441,-4.388 l 2.877,-16.587 c 0.702,-4.05 -3.596,-7.139 -7.273,-5.227 l -15.061,7.832 c -1.46,0.759 -3.205,0.759 -4.665,0 l -15.062,-7.832 c -3.676,-1.912 -7.974,1.177 -7.272,5.227 l 2.877,16.587 c 0.278,1.608 -0.261,3.25 -1.442,4.388 l -12.185,11.747 c -2.975,2.868 -1.333,7.866 2.778,8.456 l 16.839,2.42 c 1.633,0.235 3.044,1.249 3.774,2.712 L -8.989,0 C -7.15,3.685 -1.839,3.685 0,0"
             style="fill:#ffde5c;fill-opacity:1;fill-rule:nonzero;stroke:none"
             id="path6208" /></g><g
           id="g6210"
           transform="translate(260.4951,465.4287)"><path
             d="m 0,0 7.53,-15.092 c 0.73,-1.463 2.142,-2.477 3.774,-2.712 l 16.839,-2.42 c 4.111,-0.59 5.753,-5.588 2.778,-8.456 L 18.736,-40.427 c -1.181,-1.138 -1.72,-2.78 -1.441,-4.388 l 2.876,-16.587 c 0.702,-4.05 -3.596,-7.139 -7.273,-5.227 l -15.061,7.832 c -1.46,0.759 -3.204,0.759 -4.664,0 l -15.062,-7.832 c -3.676,-1.912 -7.974,1.177 -7.272,5.227 l 2.876,16.587 c 0.279,1.608 -0.26,3.25 -1.442,4.388 l -12.184,11.747 c -2.975,2.868 -1.333,7.866 2.778,8.456 l 16.839,2.42 c 1.632,0.235 3.044,1.249 3.773,2.712 L -8.99,0 C -7.151,3.685 -1.839,3.685 0,0"
             style="fill:#ffde5c;fill-opacity:1;fill-rule:nonzero;stroke:none"
             id="path6212" /></g><g
           id="g6214"
           transform="translate(341.541,465.4287)"><path
             d="m 0,0 7.53,-15.092 c 0.731,-1.463 2.142,-2.477 3.775,-2.712 l 16.839,-2.42 c 4.111,-0.59 5.752,-5.588 2.778,-8.456 L 18.736,-40.427 c -1.18,-1.138 -1.719,-2.78 -1.441,-4.388 l 2.877,-16.587 c 0.702,-4.05 -3.596,-7.139 -7.273,-5.227 l -15.061,7.832 c -1.46,0.759 -3.205,0.759 -4.665,0 l -15.062,-7.832 c -3.676,-1.912 -7.974,1.177 -7.272,5.227 l 2.877,16.587 c 0.278,1.608 -0.261,3.25 -1.442,4.388 L -39.91,-28.68 c -2.976,2.868 -1.334,7.866 2.777,8.456 l 16.839,2.42 c 1.633,0.235 3.044,1.249 3.774,2.712 L -8.989,0 C -7.15,3.685 -1.839,3.685 0,0"
             style="fill:#ffde5c;fill-opacity:1;fill-rule:nonzero;stroke:none"
             id="path6216" /></g><g
           id="g6218"
           transform="translate(422.5879,465.4287)"><path
             d="m 0,0 7.53,-15.092 c 0.731,-1.463 2.142,-2.477 3.775,-2.712 l 16.839,-2.42 c 4.11,-0.59 5.752,-5.588 2.777,-8.456 L 18.736,-40.427 c -1.181,-1.138 -1.72,-2.78 -1.441,-4.388 l 2.876,-16.587 c 0.702,-4.05 -3.595,-7.139 -7.273,-5.227 l -15.06,7.832 c -1.461,0.759 -3.205,0.759 -4.665,0 l -15.062,-7.832 c -3.676,-1.912 -7.974,1.177 -7.272,5.227 l 2.876,16.587 c 0.279,1.608 -0.26,3.25 -1.442,4.388 l -12.184,11.747 c -2.975,2.868 -1.333,7.866 2.778,8.456 l 16.839,2.42 c 1.632,0.235 3.044,1.249 3.773,2.712 L -8.989,0 C -7.151,3.685 -1.839,3.685 0,0"
             style="fill:#ffde5c;fill-opacity:1;fill-rule:nonzero;stroke:none"
             id="path6220" /></g><g
           id="g6222"
           transform="translate(98.4014,465.4287)"><path
             d="m 0,0 7.531,-15.092 c 0.73,-1.463 2.142,-2.477 3.774,-2.712 l 16.839,-2.42 c 4.111,-0.59 5.752,-5.588 2.778,-8.456 L 18.737,-40.427 c -1.181,-1.138 -1.72,-2.78 -1.441,-4.388 l 2.876,-16.587 c 0.702,-4.05 -3.596,-7.139 -7.273,-5.227 l -15.061,7.832 c -1.46,0.759 -3.204,0.759 -4.665,0 l -15.061,-7.832 c -3.677,-1.912 -7.974,1.177 -7.272,5.227 l 2.876,16.587 c 0.279,1.608 -0.26,3.25 -1.442,4.388 L -39.91,-28.68 c -2.975,2.868 -1.333,7.866 2.777,8.456 l 16.839,2.42 c 1.633,0.235 3.044,1.249 3.774,2.712 L -8.989,0 C -7.15,3.685 -1.838,3.685 0,0 Z"
             style="fill:none;stroke:#000000;stroke-width:15;stroke-linecap:round;stroke-linejoin:round;stroke-miterlimit:10;stroke-dasharray:none;stroke-opacity:1"
             id="path6224" /></g><g
           id="g6226"
           transform="translate(179.4482,465.4287)"><path
             d="m 0,0 7.53,-15.092 c 0.731,-1.463 2.142,-2.477 3.775,-2.712 l 16.839,-2.42 c 4.111,-0.59 5.752,-5.588 2.777,-8.456 L 18.736,-40.427 c -1.18,-1.138 -1.719,-2.78 -1.441,-4.388 l 2.877,-16.587 c 0.702,-4.05 -3.596,-7.139 -7.273,-5.227 l -15.061,7.832 c -1.46,0.759 -3.205,0.759 -4.665,0 l -15.062,-7.832 c -3.676,-1.912 -7.974,1.177 -7.272,5.227 l 2.877,16.587 c 0.278,1.608 -0.261,3.25 -1.442,4.388 l -12.185,11.747 c -2.975,2.868 -1.333,7.866 2.778,8.456 l 16.839,2.42 c 1.633,0.235 3.044,1.249 3.774,2.712 L -8.989,0 C -7.15,3.685 -1.839,3.685 0,0 Z"
             style="fill:none;stroke:#000000;stroke-width:15;stroke-linecap:round;stroke-linejoin:round;stroke-miterlimit:10;stroke-dasharray:none;stroke-opacity:1"
             id="path6228" /></g><g
           id="g6230"
           transform="translate(260.4951,465.4287)"><path
             d="m 0,0 7.53,-15.092 c 0.73,-1.463 2.142,-2.477 3.774,-2.712 l 16.839,-2.42 c 4.111,-0.59 5.753,-5.588 2.778,-8.456 L 18.736,-40.427 c -1.181,-1.138 -1.72,-2.78 -1.441,-4.388 l 2.876,-16.587 c 0.702,-4.05 -3.596,-7.139 -7.273,-5.227 l -15.061,7.832 c -1.46,0.759 -3.204,0.759 -4.664,0 l -15.062,-7.832 c -3.676,-1.912 -7.974,1.177 -7.272,5.227 l 2.876,16.587 c 0.279,1.608 -0.26,3.25 -1.442,4.388 l -12.184,11.747 c -2.975,2.868 -1.333,7.866 2.778,8.456 l 16.839,2.42 c 1.632,0.235 3.044,1.249 3.773,2.712 L -8.99,0 C -7.151,3.685 -1.839,3.685 0,0 Z"
             style="fill:none;stroke:#000000;stroke-width:15;stroke-linecap:round;stroke-linejoin:round;stroke-miterlimit:10;stroke-dasharray:none;stroke-opacity:1"
             id="path6232" /></g><g
           id="g6234"
           transform="translate(341.541,465.4287)"><path
             d="m 0,0 7.53,-15.092 c 0.731,-1.463 2.142,-2.477 3.775,-2.712 l 16.839,-2.42 c 4.111,-0.59 5.752,-5.588 2.778,-8.456 L 18.736,-40.427 c -1.18,-1.138 -1.719,-2.78 -1.441,-4.388 l 2.877,-16.587 c 0.702,-4.05 -3.596,-7.139 -7.273,-5.227 l -15.061,7.832 c -1.46,0.759 -3.205,0.759 -4.665,0 l -15.062,-7.832 c -3.676,-1.912 -7.974,1.177 -7.272,5.227 l 2.877,16.587 c 0.278,1.608 -0.261,3.25 -1.442,4.388 L -39.91,-28.68 c -2.976,2.868 -1.334,7.866 2.777,8.456 l 16.839,2.42 c 1.633,0.235 3.044,1.249 3.774,2.712 L -8.989,0 C -7.15,3.685 -1.839,3.685 0,0 Z"
             style="fill:none;stroke:#000000;stroke-width:15;stroke-linecap:round;stroke-linejoin:round;stroke-miterlimit:10;stroke-dasharray:none;stroke-opacity:1"
             id="path6236" /></g><g
           id="g6238"
           transform="translate(422.5879,465.4287)"><path
             d="m 0,0 7.53,-15.092 c 0.731,-1.463 2.142,-2.477 3.775,-2.712 l 16.839,-2.42 c 4.11,-0.59 5.752,-5.588 2.777,-8.456 L 18.736,-40.427 c -1.181,-1.138 -1.72,-2.78 -1.441,-4.388 l 2.876,-16.587 c 0.702,-4.05 -3.595,-7.139 -7.273,-5.227 l -15.06,7.832 c -1.461,0.759 -3.205,0.759 -4.665,0 l -15.062,-7.832 c -3.676,-1.912 -7.974,1.177 -7.272,5.227 l 2.876,16.587 c 0.279,1.608 -0.26,3.25 -1.442,4.388 l -12.184,11.747 c -2.975,2.868 -1.333,7.866 2.778,8.456 l 16.839,2.42 c 1.632,0.235 3.044,1.249 3.773,2.712 L -8.989,0 C -7.151,3.685 -1.839,3.685 0,0 Z"
             style="fill:none;stroke:#000000;stroke-width:15;stroke-linecap:round;stroke-linejoin:round;stroke-miterlimit:10;stroke-dasharray:none;stroke-opacity:1"
             id="path6240" /></g><g
           id="g6242"
           transform="translate(154.8242,504.5)"><path
             d="m 0,0 h -113.11 c -9.605,0 -17.396,-7.711 -17.396,-17.213 v -107.544 c 0,-9.513 7.791,-17.213 17.396,-17.213 H 65.534 l 35.642,-54.082 35.641,54.082 h 80.487"
             style="fill:none;stroke:#000000;stroke-width:15;stroke-linecap:round;stroke-linejoin:round;stroke-miterlimit:10;stroke-dasharray:none;stroke-opacity:1"
             id="path6244" /></g><g
           id="g6246"
           transform="translate(192.3252,504.5)"><path
             d="m 0,0 h 277.961 c 9.604,0 17.395,-7.711 17.395,-17.213 v -107.544 c 0,-9.513 -7.791,-17.213 -17.395,-17.213 h -60.657"
             style="fill:none;stroke:#000000;stroke-width:15;stroke-linecap:round;stroke-linejoin:round;stroke-miterlimit:10;stroke-dasharray:none;stroke-opacity:1"
             id="path6248" /></g><path
           d="m 170.98,25.322 h 35.688 V 174.846 H 170.98 Z"
           style="fill:#f5fcff;fill-opacity:1;fill-rule:nonzero;stroke:none"
           id="path6250" /><path
           d="m 193.932,25.323 h -22.95 v 149.521 h 22.95 z"
           style="fill:#d8ecfe;fill-opacity:1;fill-rule:nonzero;stroke:none"
           id="path6252" /><path
           d="m 170.98,25.322 h 35.688 V 174.846 H 170.98 Z"
           style="fill:none;stroke:#000000;stroke-width:15;stroke-linecap:round;stroke-linejoin:round;stroke-miterlimit:10;stroke-dasharray:none;stroke-opacity:1"
           id="path6254" /><g
           id="g6256"
           transform="translate(364.125,62.6904)"><path
             d="m 0,0 h 9.343 c 10.318,0 18.683,-8.365 18.683,-18.685 0,-10.318 -8.365,-18.683 -18.683,-18.683 h -117.539 c -5.046,0 -9.93,1.709 -13.935,4.78 -10.563,8.099 -21.741,9.815 -35.326,10.621 V 96.846 c 31.951,36.506 72.44,39.936 69.606,94.487 -0.49,9.439 7.033,17.365 16.485,17.365 7.23,0 13.658,-4.692 15.768,-11.607 8.576,-28.109 10.72,-56.004 -0.601,-84.986 h 85.654 c 10.319,0 18.685,-8.365 18.685,-18.684 0,-10.318 -8.366,-18.684 -18.685,-18.684 H 6.212 23.129 c 10.318,0 18.684,-8.365 18.684,-18.684 0,-10.32 -8.366,-18.685 -18.684,-18.685 H 6.212 16.917 c 10.319,0 18.685,-8.365 18.685,-18.683 C 35.602,8.365 27.236,0 16.917,0 Z"
             style="fill:none;stroke:#000000;stroke-width:15;stroke-linecap:round;stroke-linejoin:round;stroke-miterlimit:10;stroke-dasharray:none;stroke-opacity:1"
             id="path6258" /></g><path
           d="M 99.735,193.538 H 170.98 V 7.5 H 99.735 Z"
           style="fill:#8cbdf9;fill-opacity:1;fill-rule:nonzero;stroke:none"
           id="path6260" /><path
           d="m 122.683,7.503 h -22.95 v 186.033 h 22.95 z"
           style="fill:#73a2da;fill-opacity:1;fill-rule:nonzero;stroke:none"
           id="path6262" /><g
           id="g6264"
           transform="translate(99.7324,64.6484)"><path
             d="M 0,0 V -57.146 H 71.249 V 128.888 H 0 V 37.501"
             style="fill:none;stroke:#000000;stroke-width:15;stroke-linecap:round;stroke-linejoin:round;stroke-miterlimit:10;stroke-dasharray:none;stroke-opacity:1"
             id="path6266" /></g><g
           id="g6268"
           transform="translate(135.3799,141.4707)"><path
             d="m 0,0 v 0 c -4.754,0 -8.606,3.854 -8.606,8.606 0,4.753 3.852,8.607 8.606,8.607 4.753,0 8.605,-3.854 8.605,-8.607 C 8.605,3.854 4.753,0 0,0"
             style="fill:#000000;fill-opacity:1;fill-rule:nonzero;stroke:none"
             id="path6270" /></g></g></g></g>
</svg>