<svg width="18" height="17" viewBox="0 0 18 17" fill="none" xmlns="http://www.w3.org/2000/svg">
<path d="M8.77748 14.7112L4.56034 16.9277C4.45409 16.9834 4.33435 17.0083 4.21467 16.9996C4.09501 16.9909 3.98019 16.9488 3.88319 16.8781C3.7862 16.8075 3.71091 16.7111 3.66584 16.5999C3.62078 16.4887 3.60774 16.367 3.6282 16.2489L4.43434 11.556C4.45202 11.4532 4.44441 11.3476 4.41215 11.2483C4.37989 11.1491 4.32396 11.0592 4.24919 10.9864L0.836907 7.66157C0.750955 7.57785 0.690145 7.47176 0.661358 7.35527C0.632569 7.2388 0.636951 7.11659 0.674009 7.00248C0.711066 6.88836 0.77932 6.7869 0.871046 6.70956C0.962774 6.63221 1.07431 6.58209 1.19305 6.56485L5.90648 5.87957C6.00969 5.86474 6.10773 5.82505 6.19217 5.7639C6.27661 5.70276 6.34492 5.62199 6.3912 5.52857L8.49977 1.25742C8.55294 1.1501 8.63506 1.05978 8.73683 0.996632C8.8386 0.933485 8.95599 0.900024 9.07577 0.900024C9.19553 0.900024 9.31293 0.933485 9.41469 0.996632C9.51647 1.05978 9.59858 1.1501 9.65177 1.25742L11.7616 5.52728C11.8078 5.62053 11.8759 5.7012 11.9601 5.76235C12.0443 5.82348 12.1421 5.86326 12.2451 5.87828L16.9585 6.56357C17.0772 6.58081 17.1888 6.63093 17.2805 6.70827C17.3723 6.78561 17.4404 6.88708 17.4776 7.0012C17.5146 7.11531 17.519 7.23751 17.4902 7.35399C17.4614 7.47047 17.4005 7.57657 17.3147 7.66027L13.9037 10.9851C13.8291 11.0578 13.7733 11.1475 13.741 11.2464C13.7087 11.3454 13.701 11.4508 13.7185 11.5534L14.5247 16.2476C14.5452 16.366 14.5322 16.4878 14.4871 16.5992C14.4421 16.7106 14.3666 16.8071 14.2694 16.8778C14.1722 16.9486 14.0572 16.9906 13.9372 16.9991C13.8174 17.0077 13.6974 16.9825 13.5912 16.9264L9.37534 14.7099C9.28314 14.6614 9.18055 14.6361 9.07641 14.6361C8.97227 14.6361 8.86968 14.6614 8.77748 14.7099V14.7112Z" fill="#FFB400"/>
</svg>
