<svg width="20" height="23" viewBox="0 0 20 23" fill="none" xmlns="http://www.w3.org/2000/svg">
<path d="M3.63957 22.2496C3.3388 22.1556 3.02429 22.0924 2.74016 21.9627C1.59822 21.4396 0.95465 20.3039 1.00249 19.0493C1.05907 17.5643 1.41517 16.1691 2.14652 14.8754C3.13454 13.1276 4.54814 11.8435 6.38398 11.0259C6.50379 10.9727 6.62402 10.9211 6.77087 10.8571C5.01823 9.43324 4.25943 7.62015 4.65172 5.39579C4.88094 4.09752 5.55529 3.02754 6.58824 2.2025C8.85591 0.391076 12.0097 0.691733 13.9017 2.66368C15.0353 3.8451 15.5499 5.26812 15.4143 6.90157C15.2791 8.53377 14.5116 9.8337 13.2082 10.8471C13.4869 10.9752 13.7457 11.0829 13.9945 11.2106C16.2114 12.3446 17.7265 14.0932 18.5319 16.4452C18.868 17.4266 19.0294 18.4451 18.9674 19.4843C18.8855 20.857 17.8192 21.9989 16.4572 22.2097C16.4185 22.2155 16.3823 22.2359 16.3449 22.2496H3.63957Z" stroke="currentColor" stroke-width="1.41561"/>
</svg>
