<svg width="26" height="23" viewBox="0 0 26 23" fill="none" xmlns="http://www.w3.org/2000/svg">
<path d="M25.7995 4.07102C25.6142 4.66522 25.4229 5.25747 25.2456 5.85362C24.4247 8.61501 23.6083 11.3779 22.7894 14.1397C22.636 14.6569 22.4047 14.8222 21.8443 14.8222C17.402 14.8222 12.9596 14.8222 8.51725 14.8222C7.91191 14.8222 7.56153 15.0898 7.56103 15.5514C7.56052 16.0111 7.91393 16.2811 8.51675 16.2811C12.9505 16.2811 17.3843 16.2811 21.8186 16.2811C22.4234 16.2811 22.7748 16.5497 22.7748 17.0108C22.7748 17.4714 22.4229 17.7405 21.8191 17.7405C21.501 17.7405 21.1829 17.7405 20.7998 17.7405C22.2159 18.0998 22.9131 19.0503 22.7339 20.3055C22.5905 21.3101 21.5848 22.1256 20.4999 22.1173C19.3225 22.1085 18.3789 21.2726 18.2597 20.0939C18.1618 19.1249 18.7888 18.0383 20.2045 17.7512H10.1879C10.8043 17.8843 11.3178 18.1763 11.6803 18.6808C12.0407 19.1829 12.1528 19.742 12.0483 20.3464C11.8751 21.3471 10.8386 22.1578 9.77438 22.1158C8.56673 22.0681 7.65897 21.2107 7.56557 20.0296C7.48176 18.9703 8.2941 18.0028 9.46439 17.7405C9.1029 17.7405 8.74141 17.7439 8.37993 17.74C7.31061 17.7274 6.45586 17.1307 6.15496 16.1914C5.83639 15.197 6.28168 14.1388 7.22983 13.6367C7.28739 13.606 7.34393 13.5728 7.41209 13.5348C6.50332 9.58601 5.59607 5.6445 4.68478 1.68643C4.26422 1.68643 3.85426 1.68643 3.4438 1.68643C2.5623 1.68643 1.68029 1.6913 0.798786 1.68448C0.221214 1.68009 -0.149866 1.17753 0.0586454 0.688624C0.181834 0.400543 0.417104 0.233836 0.740221 0.232374C2.2518 0.225549 3.76339 0.223599 5.27497 0.232374C5.69603 0.234811 5.94948 0.468786 6.05045 0.897252C6.22514 1.63866 6.39477 2.38104 6.57198 3.14682H6.89763C12.8596 3.14682 18.8222 3.15024 24.7842 3.14049C25.2517 3.13951 25.5985 3.26089 25.8 3.68204V4.07102H25.7995ZM6.90772 4.61648C7.58072 7.54019 8.25068 10.4503 8.91913 13.354H21.4525C22.3144 10.442 23.1747 7.53531 24.0385 4.61648H6.90772ZM10.5802 19.9506C10.5918 19.5548 10.2575 19.2141 9.84708 19.2029C9.43713 19.1916 9.08422 19.5143 9.07261 19.9106C9.061 20.3064 9.39522 20.6472 9.80568 20.6584C10.2156 20.6696 10.5685 20.3469 10.5802 19.9506ZM21.2627 19.9248C21.2592 19.5275 20.9133 19.1994 20.5024 19.2029C20.0914 19.2063 19.7511 19.5402 19.7547 19.937C19.7582 20.3337 20.104 20.6623 20.515 20.6589C20.926 20.6555 21.2663 20.3216 21.2627 19.9248Z" fill="currentColor"/>
</svg>
