<svg width="14" height="17" viewBox="0 0 14 17" fill="none" xmlns="http://www.w3.org/2000/svg">
<path d="M8.0533 10.7855C8.32093 10.6376 8.58419 10.49 8.84907 10.3453C9.81919 9.81472 10.9646 10.1321 11.5107 11.0903C11.7471 11.5054 11.9738 11.9266 12.1909 12.3522C12.7031 13.356 12.3351 14.4926 11.3364 15.0078C10.8976 15.2343 10.4588 15.4611 10.0147 15.6769C9.0762 16.1332 8.14474 16.0943 7.30365 15.4874C3.84864 12.9943 1.9208 9.60941 1.50746 5.35849C1.45722 4.84114 1.43765 4.32578 1.61959 3.82591C1.85563 3.17834 2.27953 2.69253 2.88401 2.36553C3.31858 2.13052 3.75282 1.89546 4.18979 1.66509C5.15867 1.15433 6.30023 1.50123 6.81946 2.4639C7.03577 2.86509 7.24846 3.26848 7.45796 3.67345C7.95858 4.64104 7.61923 5.77202 6.66938 6.30526C6.42044 6.445 6.16668 6.57578 5.92074 6.72057C5.88221 6.74325 5.84366 6.8276 5.85614 6.86724C6.31175 8.31746 7.0322 9.62068 8.0249 10.7712C8.02807 10.7749 8.03387 10.7763 8.0533 10.7855Z" stroke="black" stroke-width="1.50347"/>
</svg>
