<svg width="20" height="20" viewBox="0 0 20 20" fill="none" xmlns="http://www.w3.org/2000/svg">
<path d="M7.70835 0C7.78675 0.0240631 7.86476 0.0492906 7.94355 0.0721894C8.7388 0.303894 9.28992 1.00561 9.29342 1.83229C9.30118 3.70999 9.30312 5.5873 9.29303 7.46501C9.28759 8.47372 8.47488 9.28721 7.46617 9.29264C5.58847 9.30312 3.71116 9.30157 1.83346 9.29303C0.96563 9.28915 0.237915 8.68175 0.0419164 7.83139C0.0318254 7.78986 0.0139721 7.74949 0 7.70835C0 5.66842 0 3.6281 0 1.58817C0.0139721 1.54703 0.0314373 1.50666 0.0415283 1.46475C0.175428 0.907413 0.490577 0.48398 0.997456 0.218509C1.18181 0.121868 1.39062 0.0714132 1.58817 0C3.6281 0 5.66842 0 7.70835 0ZM8.05688 4.63953C8.05688 3.74221 8.05727 2.84488 8.05688 1.94795C8.05649 1.48609 7.81276 1.24003 7.35556 1.24003C5.5481 1.23964 3.74065 1.23925 1.93359 1.24003C1.48881 1.24003 1.24042 1.48997 1.24003 1.93669C1.23925 3.74415 1.23925 5.5516 1.24003 7.35866C1.24003 7.80888 1.48532 8.05688 1.93165 8.05688C3.7391 8.05766 5.54655 8.05766 7.35362 8.05688C7.81392 8.05688 8.05649 7.81276 8.05688 7.35051C8.05766 6.44698 8.05688 5.54306 8.05688 4.63953Z" fill="white"/>
<path d="M18.2447 0C18.3231 0.0240631 18.4011 0.0492906 18.4799 0.0721894C19.2751 0.303894 19.8263 1.00561 19.8298 1.83268C19.8375 3.71038 19.8395 5.58808 19.8294 7.46578C19.8239 8.47449 19.0108 9.28759 18.0017 9.29303C16.124 9.3035 14.2463 9.30312 12.3686 9.29303C11.3607 9.28759 10.5457 8.47255 10.5402 7.46617C10.5301 5.58847 10.5321 3.71077 10.5398 1.83307C10.5433 0.979214 11.1282 0.263918 11.9638 0.0512312C12.0182 0.037259 12.0713 0.0174652 12.1249 0C14.1648 0 16.2052 0 18.2451 0L18.2447 0ZM11.776 4.62905C11.776 5.54578 11.7748 6.46211 11.7764 7.37884C11.7771 7.80266 12.0279 8.0561 12.4494 8.05649C14.2696 8.05766 16.0899 8.05766 17.9101 8.05649C18.3441 8.05649 18.5928 7.80577 18.5928 7.36875C18.594 5.55509 18.594 3.74104 18.5928 1.92738C18.5928 1.4923 18.3421 1.24003 17.9101 1.23964C16.0965 1.23886 14.2824 1.23886 12.4688 1.23964C12.0248 1.23964 11.7768 1.48997 11.7764 1.93708C11.7756 2.8344 11.7764 3.73173 11.7764 4.62866L11.776 4.62905Z" fill="white"/>
<path d="M0.000388115 12.1243C0.0384234 12.0032 0.0721894 11.8802 0.115658 11.7611C0.376083 11.043 1.05179 10.5435 1.81405 10.54C3.70456 10.5319 5.59545 10.5288 7.48557 10.5408C8.47255 10.5474 9.28565 11.3609 9.29186 12.3483C9.30428 14.2388 9.30428 16.1293 9.29186 18.0198C9.28565 19.0075 8.47333 19.821 7.48557 19.8276C5.59507 19.8404 3.70456 19.8385 1.81405 19.8284C0.95942 19.8238 0.235974 19.2105 0.0415283 18.3679C0.0318254 18.3256 0.0139721 18.2857 0 18.2445C0 16.2046 0 14.1643 0 12.1243H0.000388115ZM1.24003 15.1846C1.24003 16.0947 1.23886 17.0049 1.24042 17.915C1.24119 18.3388 1.49191 18.5923 1.9138 18.5923C3.73405 18.5934 5.55431 18.5934 7.37457 18.5923C7.80849 18.5923 8.05688 18.3412 8.05727 17.9045C8.05804 16.0909 8.05843 14.2768 8.05727 12.4632C8.05727 12.0281 7.80616 11.7762 7.37419 11.7758C5.56052 11.775 3.74647 11.775 1.93281 11.7758C1.48881 11.7758 1.24119 12.0261 1.2408 12.4736C1.24003 13.3772 1.2408 14.2811 1.2408 15.1846H1.24003Z" fill="white"/>
<path d="M10.7018 15.1888C10.7018 14.2853 10.7006 13.3818 10.7018 12.4782C10.7038 11.3395 11.5006 10.5377 12.635 10.5365C14.4483 10.5345 16.2619 10.5345 18.0752 10.5365C19.1895 10.538 19.9952 11.3387 19.9976 12.4495C20.0007 14.276 20.001 16.1021 19.9976 17.9285C19.9952 19.0273 19.1872 19.8299 18.0849 19.8318C16.2651 19.8346 14.4452 19.8342 12.6253 19.8318C11.5037 19.8303 10.7045 19.0257 10.7022 17.899C10.7003 16.9955 10.7022 16.092 10.7022 15.1884L10.7018 15.1888ZM11.9415 15.1659C11.9415 16.0827 11.9403 16.999 11.9418 17.9157C11.9426 18.3395 12.1933 18.5922 12.6156 18.5926C14.4359 18.5938 16.2561 18.5938 18.0764 18.5926C18.5099 18.5926 18.7583 18.3415 18.7583 17.9041C18.7591 16.0904 18.7595 14.2764 18.7583 12.4627C18.7583 12.028 18.5068 11.7761 18.0744 11.7761C16.2608 11.7754 14.4467 11.7754 12.6331 11.7761C12.1895 11.7761 11.9418 12.0269 11.9415 12.4743C11.9407 13.3717 11.9415 14.269 11.9415 15.1659Z" fill="white"/>
</svg>
