<svg  viewBox="0 0 15 19" fill="none" xmlns="http://www.w3.org/2000/svg">
<path d="M9.17046 0.77445C9.46856 0.903866 9.79603 0.990599 10.059 1.17089C10.622 1.55744 10.9003 2.12154 10.9085 2.81028C10.9113 3.03155 10.9089 3.25316 10.9089 3.50141C10.9741 3.50141 11.0335 3.50141 11.0933 3.50141C12.1559 3.50141 13.2182 3.50107 14.2809 3.50141C14.7002 3.50141 14.9979 3.78141 15 4.17512C15.002 4.57976 14.7056 4.8642 14.2788 4.8642C10.5005 4.8642 6.7218 4.8642 2.94346 4.8642H2.72697V5.04587C2.72697 8.284 2.72629 11.5221 2.72731 14.7603C2.72765 15.7731 3.35732 16.5735 4.34006 16.8063C4.4985 16.8439 4.66582 16.86 4.8287 16.8603C6.60706 16.8641 8.38577 16.8641 10.1641 16.862C11.3743 16.8606 12.272 15.9612 12.2727 14.75C12.2741 12.1368 12.2727 9.52353 12.2737 6.91028C12.2737 6.56505 12.522 6.27481 12.847 6.2311C13.2035 6.18295 13.5194 6.38681 13.6143 6.73203C13.6321 6.79623 13.6358 6.86623 13.6358 6.9335C13.6369 9.58636 13.6396 12.2396 13.6355 14.8924C13.6331 16.5332 12.3297 17.9916 10.6955 18.192C10.5326 18.2122 10.3676 18.2238 10.2037 18.2241C8.4025 18.2265 6.60126 18.2258 4.80036 18.2255C3.11283 18.2248 1.71793 17.0662 1.41061 15.4036C1.37578 15.2151 1.36588 15.0198 1.36588 14.8279C1.36315 11.5785 1.36383 8.32873 1.36383 5.07933C1.36383 5.01274 1.36383 4.94616 1.36383 4.86386C1.12685 4.86386 0.906607 4.86523 0.686702 4.86386C0.290258 4.86147 -0.0020381 4.56679 1.07036e-05 4.17512C0.00205951 3.79473 0.296404 3.50277 0.684994 3.50209C1.7531 3.50073 2.82156 3.50141 3.88967 3.50141C3.95079 3.50141 4.01225 3.50141 4.09079 3.50141C4.09079 3.27263 4.09079 3.05818 4.09079 2.84408C4.09147 1.83915 4.75665 1.01758 5.73769 0.808939C5.7691 0.802109 5.79881 0.78606 5.8292 0.774109C6.94273 0.774109 8.05659 0.774109 9.17012 0.774109L9.17046 0.77445ZM5.45564 3.49048H9.54368C9.54368 3.2477 9.55597 3.01516 9.54095 2.78433C9.51705 2.41896 9.23841 2.14476 8.87236 2.14134C7.95859 2.13281 7.04448 2.13315 6.13072 2.14134C5.75817 2.14476 5.47646 2.42784 5.45768 2.79867C5.44642 3.02438 5.45564 3.25145 5.45564 3.49082V3.49048Z" fill="currentColor"/>
<path d="M5.45422 11.5539C5.45422 12.6391 5.4549 13.7239 5.45387 14.8091C5.45353 15.1578 5.21382 15.4453 4.88772 15.4955C4.53601 15.5494 4.21469 15.3462 4.11566 15.002C4.09722 14.9378 4.0921 14.8682 4.0921 14.8009C4.09108 12.6309 4.09074 10.4609 4.09142 8.29051C4.09142 7.88826 4.37996 7.59323 4.76821 7.59186C5.1667 7.5905 5.45387 7.88484 5.45422 8.2987C5.45524 9.38388 5.45422 10.4687 5.45422 11.5539Z" fill="currentColor"/>
<path d="M8.1817 11.5457C8.1817 12.6363 8.18273 13.727 8.18102 14.818C8.18068 15.1628 7.93175 15.4524 7.60599 15.4965C7.25598 15.5436 6.94593 15.3479 6.84554 15.0099C6.82505 14.9409 6.81925 14.8651 6.81925 14.7923C6.81788 12.6278 6.81788 10.4636 6.81856 8.299C6.81856 7.88514 7.10574 7.59114 7.50423 7.59217C7.89931 7.59353 8.18102 7.88993 8.18136 8.30788C8.18204 9.38726 8.18136 10.4666 8.18136 11.546L8.1817 11.5457Z" fill="currentColor"/>
<path d="M9.54584 11.5457C9.54584 10.4551 9.54481 9.36443 9.54652 8.27344C9.54686 7.92856 9.79579 7.63831 10.1209 7.59495C10.4722 7.54817 10.7816 7.74348 10.8817 8.0812C10.9021 8.15051 10.9083 8.22598 10.9083 8.29871C10.9097 10.4633 10.9097 12.6275 10.909 14.7921C10.909 15.2056 10.6211 15.5006 10.2233 15.4996C9.82926 15.4986 9.54618 15.2004 9.54618 14.7839C9.5455 13.7045 9.54618 12.6251 9.54618 11.5457H9.54584Z" fill="currentColor"/>
</svg>
