<svg width="25" height="25" viewBox="0 0 25 25" fill="none" xmlns="http://www.w3.org/2000/svg">
<path d="M24.6329 12.5C24.6329 5.59644 19.1186 0 12.3164 0C5.51425 0 0 5.59644 0 12.5C0 18.7391 4.50393 23.9104 10.392 24.8481V16.1132H7.26478V12.5H10.392V9.74606C10.392 6.61325 12.2308 4.88281 15.0441 4.88281C16.3916 4.88281 17.8011 5.12694 17.8011 5.12694V8.20312H16.248C14.718 8.20312 14.2409 9.16669 14.2409 10.1552V12.5H17.6568L17.1107 16.1132H14.2409V24.8481C20.1289 23.9104 24.6329 18.7391 24.6329 12.5Z" fill="white"/>
<path d="M17.11 16.1133L17.6561 12.5H14.2402V10.1552C14.2402 9.16669 14.7174 8.20312 16.2474 8.20312H17.8005V5.12694C17.8005 5.12694 16.391 4.88281 15.0435 4.88281C12.2301 4.88281 10.3914 6.61325 10.3914 9.74606V12.5H7.26416V16.1133H10.3914V24.8481C11.0184 24.948 11.6611 25 12.3158 25C12.9705 25 13.6132 24.9479 14.2402 24.8481V16.1133H17.11Z" fill="#4173B8"/>
</svg>
