<svg width="25" height="25" viewBox="0 0 25 25" fill="none" xmlns="http://www.w3.org/2000/svg">
<g opacity="0.2">
<path d="M23.9634 12.9686C23.9634 12.1615 23.8955 11.3886 23.78 10.6362H12.226V15.4173H18.869C18.5498 16.8879 17.7075 18.1396 16.4577 18.9946L17.987 20.2003L20.3226 22.011C22.6253 19.877 23.9634 16.7169 23.9634 12.9686Z" fill="#262424"/>
<path d="M12.2259 25.0004C15.527 25.0004 18.2916 23.8992 20.3157 22.0182L16.4508 19.0018C15.3436 19.761 13.9104 20.2124 12.2259 20.2124C9.01307 20.2124 6.2825 18.0374 5.2976 15.0962L3.57597 16.44L1.31042 18.2083C3.32099 22.2371 7.4508 25.0004 12.2259 25.0004Z" fill="#262424"/>
<path d="M5.29811 15.0959C5.04 14.3367 4.89735 13.5296 4.89735 12.6883C4.89735 11.847 5.03999 11.0399 5.29811 10.2806L3.53793 8.90671L1.31094 7.16846C0.482261 8.83056 0 10.6979 0 12.6883C0 14.6787 0.482261 16.546 1.31094 18.2081L5.29811 15.0959Z" fill="#262424"/>
<path d="M12.2259 5.1644C14.0463 5.1644 15.6833 5.79368 16.9738 7.0317V7.03855L20.404 3.58439C18.2848 1.59397 15.527 0.376465 12.2259 0.376465C7.4508 0.376465 3.321 3.1398 1.31042 7.16851L5.29759 10.2807C6.2825 7.3395 9.01307 5.1644 12.2259 5.1644Z" fill="#262424"/>
</g>
<path d="M24.6318 12.5922C24.6318 11.7851 24.5639 11.0122 24.4484 10.2598H12.8945V15.0409H19.5375C19.2182 16.5115 18.376 17.7631 17.1262 18.6181L18.6555 19.8238L20.9911 21.6345C23.2937 19.5005 24.6318 16.3405 24.6318 12.5922Z" fill="#262424"/>
<path d="M12.8943 24.6239C16.1954 24.6239 18.96 23.5227 20.9841 21.6417L17.1192 18.6253C16.012 19.3845 14.5788 19.836 12.8943 19.836C9.68146 19.836 6.95089 17.6609 5.96599 14.7197L4.24436 16.0635L1.97882 17.8319C3.98938 21.8606 8.11919 24.6239 12.8943 24.6239Z" fill="#262424"/>
<path d="M5.96632 14.7195C5.70821 13.9602 5.56556 13.1531 5.56556 12.3118C5.56556 11.4705 5.70821 10.6634 5.96632 9.90416L4.20614 8.53025L1.97915 6.79199C1.15047 8.4541 0.668213 10.3214 0.668213 12.3118C0.668213 14.3022 1.15047 16.1695 1.97915 17.8316L5.96632 14.7195Z" fill="#262424"/>
<path d="M12.8943 4.78794C14.7147 4.78794 16.3517 5.41721 17.6422 6.65524V6.66208L21.0724 3.20793C18.9532 1.21751 16.1954 0 12.8943 0C8.1192 0 3.9894 2.76333 1.97882 6.79204L5.96599 9.90421C6.9509 6.96304 9.68147 4.78794 12.8943 4.78794Z" fill="#262424"/>
</svg>
