<svg width="32" height="32" viewBox="0 0 32 32" fill="none" xmlns="http://www.w3.org/2000/svg">
<path d="M15.6786 31.3573C24.3019 31.3573 31.3573 24.3019 31.3573 15.6786C31.3573 7.05539 24.3019 0 15.6786 0C7.05539 0 0 7.05539 0 15.6786C0 24.3019 7.05539 31.3573 15.6786 31.3573Z" fill="#FE680A"/>
<path d="M17.617 18.6608C18.0091 18.4581 18.3948 18.256 18.7829 18.0578C20.2043 17.3312 21.8928 17.7845 22.7065 19.1215C23.0588 19.7008 23.3968 20.2884 23.7208 20.8821C24.4852 22.2821 23.9561 23.8572 22.4924 24.5621C21.8494 24.872 21.2063 25.1824 20.5553 25.4773C19.1796 26.1012 17.8089 26.0371 16.565 25.1847C11.4554 21.6839 8.58281 16.9606 7.92883 11.0505C7.84933 10.3312 7.81496 9.61504 8.07723 8.92255C8.41746 8.02546 9.0358 7.35513 9.92152 6.90738C10.5583 6.58558 11.1946 6.26372 11.8349 5.9484C13.2547 5.24928 14.9378 5.74355 15.712 7.08656C16.0346 7.64625 16.3518 8.20896 16.6644 8.77384C17.4113 10.1235 16.9243 11.691 15.5327 12.4216C15.168 12.613 14.7961 12.792 14.4359 12.9905C14.3795 13.0216 14.3237 13.1383 14.3425 13.1935C15.0284 15.2132 16.1023 17.0315 17.5751 18.6405C17.5798 18.6458 17.5883 18.6478 17.617 18.6608Z" stroke="white" stroke-width="1.50347"/>
</svg>
