<svg width="55" height="40" viewBox="0 0 55 40" fill="none" xmlns="http://www.w3.org/2000/svg">
<path d="M0 0H50C52.7614 0 55 2.23858 55 5V35C55 37.7614 52.7614 40 50 40H0V0Z" fill="#FE680A"/>
<path d="M26.2426 10C26.6199 10 26.9976 10 27.3752 10C27.4316 10.0117 27.4876 10.0297 27.5443 10.034C28.5055 10.1092 29.4369 10.324 30.3081 10.7333C33.4656 12.2168 35.2514 14.6911 35.581 18.175C35.732 19.7724 35.4134 21.2989 34.6816 22.7241C34.3744 23.3224 33.985 23.8781 33.6116 24.4881C33.6316 24.5042 33.6977 24.548 33.7529 24.6028C35.0283 25.8761 36.3061 27.1471 37.5738 28.4283C37.7424 28.5989 37.8587 28.8216 37.9996 29.02V29.3714C37.9874 29.3851 37.9702 29.3964 37.9636 29.4124C37.699 30.0585 37.0517 30.1951 36.5562 29.7016C35.408 28.5582 34.2632 27.4109 33.1181 26.2639C32.8931 26.0385 32.672 25.8088 32.4547 25.5873C32.4242 25.5983 32.4109 25.6002 32.4011 25.6073C32.3538 25.6417 32.3076 25.6773 32.261 25.7129C30.1711 27.3154 27.8269 27.9184 25.231 27.4613C21.2215 26.7558 18.1939 23.2985 18.0099 19.2292C17.9305 17.4687 18.3262 15.8154 19.2459 14.3084C20.6207 12.0568 22.61 10.6645 25.2044 10.1538C25.5472 10.0861 25.8963 10.0505 26.2426 10ZM33.9838 18.7999C33.9725 14.8363 30.7347 11.6064 26.7968 11.6306C22.8276 11.6549 19.6396 14.8457 19.6314 18.8023C19.6231 22.7499 22.855 25.9826 26.8089 25.9814C30.7641 25.9802 33.9951 22.7464 33.9838 18.7999Z" fill="white"/>
</svg>
