<svg width="33" height="32" viewBox="0 0 33 32" fill="none" xmlns="http://www.w3.org/2000/svg">
<path d="M16.5799 31.3917C25.2032 31.3917 32.2586 24.3363 32.2586 15.7131C32.2586 7.08981 25.2032 0.0344238 16.5799 0.0344238C7.95666 0.0344238 0.901276 7.08981 0.901276 15.7131C0.901276 24.3363 7.95666 31.3917 16.5799 31.3917Z" fill="#2CA5E0"/>
<path d="M23.5047 10.3564C23.5047 10.7483 23.374 11.271 23.2434 11.6629C22.4594 15.3213 21.8061 18.9797 21.0222 22.638C20.8916 22.8993 20.8916 23.03 20.7609 23.2913C20.6303 23.5526 20.2383 23.6832 19.977 23.5526C19.7157 23.4219 19.585 23.4219 19.4544 23.2913C18.2785 22.3767 17.2332 21.5928 16.0573 20.6782C15.9267 20.5475 15.796 20.5475 15.796 20.6782C15.2734 21.2008 14.7508 21.7234 14.0975 22.3767C13.8362 22.638 13.5749 22.638 13.3136 22.638C13.0523 22.638 13.0523 22.5073 12.9216 22.3767C12.6603 21.3314 12.2683 20.1555 11.8763 18.9796C11.7457 18.5877 11.6151 18.1957 11.4844 17.8038C11.3537 17.6731 11.3537 17.5424 11.2231 17.5424C10.1778 17.2811 9.00192 16.8892 7.82602 16.4972C7.69537 16.3665 7.56473 16.3665 7.43407 16.3665C7.17276 16.1052 7.17275 15.8439 7.30341 15.7133C7.43406 15.5826 7.69537 15.452 7.95669 15.3213C9.39389 14.668 10.9618 14.1454 12.5296 13.4921C15.796 12.1856 19.0624 10.879 22.4594 9.57248H22.5901C22.9821 9.31117 23.5047 9.57245 23.5047 10.3564ZM13.1829 21.5927C13.3136 21.5927 13.3136 21.5927 13.1829 21.5927C13.3136 20.6782 13.4442 19.8942 13.4442 19.1103C13.4442 18.849 13.5749 18.7183 13.7055 18.5877C15.796 16.6279 18.0172 14.668 20.1077 12.5775C20.2383 12.4469 20.3689 12.3162 20.4996 12.1856C20.6303 12.0549 20.6303 12.0549 20.6303 11.9243C20.4996 11.7936 20.4996 11.7936 20.3689 11.7936C20.2383 11.7936 20.1076 11.9243 19.8463 11.9243C17.2332 13.6228 14.6201 15.3213 11.8763 17.0198C11.7457 17.1505 11.7457 17.1505 11.7457 17.2811C12.007 18.3264 12.399 19.3716 12.6603 20.2862C12.9216 20.9395 13.0522 21.3314 13.1829 21.5927Z" fill="white"/>
</svg>
