<svg width="33" height="33" viewBox="0 0 33 33" fill="none" xmlns="http://www.w3.org/2000/svg">
<path d="M16.5799 32.2004C25.2032 32.2004 32.2586 25.145 32.2586 16.5218C32.2586 7.89853 25.2032 0.84314 16.5799 0.84314C7.95669 0.84314 0.901306 7.89853 0.901306 16.5218C0.901306 25.145 7.95669 32.2004 16.5799 32.2004Z" fill="#7C529D"/>
<path d="M25.4645 12.4715C24.9419 10.6424 22.982 8.81323 21.2835 8.42126C18.4091 7.89864 15.404 7.89864 12.5296 8.42126C10.7004 8.81323 8.74063 10.6424 8.34866 12.4715C7.82604 14.954 7.82604 17.4365 8.34866 19.9189C8.74063 21.6174 10.5698 23.4466 12.3989 23.9692V25.9291C12.3989 26.5823 13.3135 26.9743 13.7055 26.4517L15.6653 24.3612C16.1879 24.3612 16.5799 24.3612 16.9719 24.3612C18.4091 24.3612 19.8463 24.2305 21.4142 23.9692C23.2434 23.5773 25.2032 21.7481 25.5951 19.9189C25.9871 17.4365 25.9871 14.954 25.4645 12.4715ZM23.8966 19.527C23.6353 20.7029 22.0674 22.14 20.8915 22.4014C19.3237 22.6627 17.7558 22.7933 16.188 22.7933H16.0573C15.796 23.0547 14.6201 24.2305 14.6201 24.2305L13.0522 25.7984C12.9216 25.9291 12.7909 25.7984 12.7909 25.6677V22.4014C12.7909 22.2707 12.7909 22.2707 12.6603 22.2707C11.4844 22.0094 10.0472 20.5722 9.65521 19.3963C9.13259 17.1752 9.13259 14.8233 9.65521 12.6022C9.91653 11.4263 11.4844 9.98913 12.6603 9.72782C15.404 9.20519 18.1478 9.20519 20.7609 9.72782C21.9368 9.98913 23.374 11.4263 23.766 12.6022C24.2886 14.954 24.2886 17.3058 23.8966 19.527ZM19.977 18.351C19.7157 18.2204 19.4543 17.9591 19.193 17.8284C18.9317 17.6978 18.5397 17.6978 18.2784 17.8284C18.0171 18.0897 17.8865 18.4817 17.4945 18.4817C17.2332 18.4817 17.1026 18.351 16.8413 18.351C15.6654 17.8284 14.8814 16.9138 14.4894 15.7379C14.3588 15.6073 14.3588 15.4766 14.4894 15.2153C14.6201 15.0847 14.6201 15.0847 14.6201 15.0847C14.7508 14.954 14.7508 14.954 14.8814 14.954C15.1427 14.6927 15.2734 14.3007 15.1427 13.9088C14.8814 13.3861 14.4895 12.8635 14.0975 12.3409C13.8362 12.0796 13.5749 12.0796 13.4442 12.2103C13.1829 12.3409 12.7909 12.6022 12.5296 12.8635C12.2683 13.1248 12.007 13.6475 12.2683 14.0394C12.399 14.562 12.6603 14.954 12.7909 15.346C13.3136 16.2606 13.8362 17.1752 14.4894 17.9591C15.796 19.3963 17.2332 20.1802 18.9317 20.9641C19.0624 21.0948 19.1931 21.0948 19.4544 21.0948C19.585 20.9641 19.7157 20.9641 19.977 20.9641C20.4996 20.7028 20.8915 20.3109 21.0222 19.7883C21.1529 19.5269 21.1529 19.2656 20.8915 19.0043C20.4996 18.743 20.2383 18.4817 19.977 18.351ZM16.8413 11.4263C16.7106 11.4263 18.9317 11.557 16.8413 11.4263V11.4263ZM16.8413 11.4263C16.7106 11.4263 16.7106 11.4263 16.7106 11.4263C16.5799 11.4263 16.4493 11.557 16.4493 11.6876C16.4493 11.8183 16.7106 11.9489 16.8413 11.9489C17.1026 11.9489 17.3639 11.9489 17.4945 12.0796C19.1931 12.3409 20.3689 13.7781 20.6303 15.346C20.7609 15.6073 20.7609 15.9993 20.7609 16.2606C20.7609 16.3912 20.8915 16.5219 21.0222 16.5219C21.1529 16.5219 21.2835 16.3912 21.2835 16.2606C21.2835 15.8686 21.1529 15.4766 21.1529 15.2153C20.7609 12.9942 18.9317 11.557 16.8413 11.4263ZM19.585 15.7379C19.585 15.8686 19.585 15.8686 19.585 15.9993C19.7156 16.2606 19.977 16.1299 20.1076 15.9993C20.1076 15.8686 20.1076 15.8686 20.1076 15.8686C20.1076 15.7379 20.1076 15.6073 20.1076 15.4766C20.1076 15.346 20.1076 15.346 20.1076 15.346C19.977 14.3007 19.4543 13.5168 18.5398 13.1248C18.0171 12.8635 17.6252 12.8635 17.1025 12.7329C16.9719 12.7329 16.8413 12.8635 16.8413 12.9942C16.8413 13.1249 16.9719 13.2555 17.1025 13.2555C17.2332 13.2555 17.3639 13.2555 17.4945 13.3861C17.7558 13.5168 18.0171 13.5168 18.4091 13.6475C18.8011 13.9088 19.1931 14.1701 19.4544 14.6927C19.4544 14.8234 19.585 15.346 19.585 15.7379ZM18.8011 15.7379C18.9317 15.7379 18.9317 15.6073 18.9317 15.6073C18.9317 15.6073 18.9317 15.4766 18.9317 15.346C18.8011 14.3007 18.2785 13.9088 17.3639 13.9088C17.2332 13.9088 17.1025 14.0394 17.1025 14.1701C17.1025 14.3007 17.2332 14.4314 17.3639 14.4314C17.4945 14.4314 17.6252 14.4314 17.7558 14.562C17.8865 14.562 18.0171 14.6927 18.0171 14.6927C18.1478 14.8234 18.2784 14.954 18.4091 15.2153C18.4091 15.346 18.4091 15.4766 18.5398 15.4766C18.4091 15.738 18.5398 15.7379 18.8011 15.7379C18.6704 15.7379 18.5398 15.7379 18.8011 15.7379Z" fill="white"/>
</svg>
