<svg width="33" height="32" viewBox="0 0 33 32" fill="none" xmlns="http://www.w3.org/2000/svg">
<path d="M16.5799 31.5831C25.2032 31.5831 32.2586 24.5277 32.2586 15.9045C32.2586 7.28122 25.2032 0.22583 16.5799 0.22583C7.95666 0.22583 0.901276 7.28122 0.901276 15.9045C0.901276 24.5277 7.95666 31.5831 16.5799 31.5831Z" fill="#5BB655"/>
<path d="M6.82747 25.2747C7.00408 24.3028 7.17461 23.3612 7.34616 22.4191C7.43067 21.9557 7.52277 21.4933 7.59513 21.028C7.60981 20.9346 7.57135 20.8179 7.52125 20.733C6.62303 19.2043 6.14786 17.5565 6.12812 15.7949C6.1008 13.3495 6.86087 11.1544 8.4387 9.25722C10.2316 7.10182 12.5543 5.84037 15.3679 5.52252C21.027 4.88286 25.9103 8.68063 26.8611 13.7895C27.8858 19.2962 24.2049 24.5789 18.6071 25.6253C16.1963 26.0763 13.8999 25.744 11.7128 24.6539C11.5949 24.5953 11.436 24.569 11.3059 24.5889C9.89205 24.8054 8.4802 25.0348 7.06733 25.2593C7.00205 25.2698 6.93475 25.2683 6.82747 25.2742V25.2747ZM8.91388 23.2882C9.01154 23.2802 9.06164 23.2807 9.10971 23.2718C9.91179 23.1243 10.7128 22.9693 11.5169 22.8343C11.6495 22.8119 11.8201 22.8382 11.9339 22.9058C13.9014 24.0739 16.0141 24.4488 18.2701 24.0346C23.4049 23.0915 26.5469 17.919 24.9569 13.0351C23.6103 8.90064 19.3009 6.41647 14.8958 7.23592C8.9827 8.33547 5.92267 14.9015 9.00901 19.9384C9.3602 20.5115 9.44876 20.9992 9.27063 21.6115C9.11427 22.1479 9.03482 22.7061 8.91388 23.2887V23.2882Z" fill="white"/>
<path d="M11.6082 13.2324C11.641 12.3136 12.0105 11.5652 12.7341 10.9881C12.9461 10.8187 13.1921 10.7487 13.4668 10.7914C13.5336 10.8018 13.602 10.8227 13.6672 10.8157C14.1131 10.7686 14.3185 11.0025 14.441 11.3923C14.6145 11.9441 14.7967 12.4959 15.0249 13.0268C15.1859 13.4017 15.0862 13.6823 14.8392 13.9525C14.6758 14.1308 14.5062 14.3041 14.3301 14.47C14.1733 14.618 14.1485 14.7729 14.2466 14.9607C15.0022 16.4019 16.1215 17.4707 17.6275 18.1436C17.8097 18.225 17.9706 18.1977 18.1088 18.0512C18.3835 17.7597 18.6694 17.4776 18.9301 17.1747C19.0981 16.9795 19.2777 16.9144 19.5044 17.0351C20.1997 17.4056 20.895 17.7771 21.5802 18.1655C21.6657 18.2136 21.7406 18.3686 21.7345 18.4694C21.6925 19.1597 21.4714 19.7577 20.8146 20.1316C20.0312 20.5781 19.2347 20.6973 18.3481 20.4251C15.9378 19.6847 14.1115 18.235 12.7867 16.1446C12.3369 15.4349 11.8743 14.7327 11.7084 13.8944C11.6648 13.6759 11.6416 13.4539 11.6087 13.2339L11.6082 13.2324Z" fill="white"/>
</svg>
