<svg width="19" height="15" viewBox="0 0 19 15" fill="none" xmlns="http://www.w3.org/2000/svg">
<path d="M8.91958 12.8171C8.89272 12.8171 8.85914 12.8108 8.83227 12.7984C8.7584 12.7673 8.70467 12.6927 8.70467 12.6181V10.2549H2.59968C2.47879 10.2549 2.38477 10.1678 2.38477 10.0559V4.93771C2.38477 4.82577 2.47879 4.73871 2.59968 4.73871H8.70467V2.37552C8.70467 2.29468 8.75168 2.22627 8.83227 2.19518C8.90615 2.16408 9.00018 2.17652 9.06062 2.22627L15.3805 7.34443C15.4275 7.38174 15.4544 7.43771 15.4544 7.49368C15.4544 7.54965 15.4275 7.60562 15.3805 7.64294L9.06062 12.7611C9.02033 12.7984 8.97331 12.8171 8.91958 12.8171ZM2.8146 9.86309H8.91958C9.04047 9.86309 9.1345 9.95015 9.1345 10.0621V12.1827L14.9104 7.4999L9.1345 2.81707V4.93771C9.1345 5.04965 9.04047 5.13672 8.91958 5.13672H2.8146V9.86309Z" fill="white"/>
<path d="M18.7857 15H17.0059C16.885 15 16.791 14.9129 16.791 14.801V0.199005C16.791 0.087065 16.885 0 17.0059 0H18.7857C18.9066 0 19.0006 0.087065 19.0006 0.199005V14.7948C19.0006 14.9067 18.9066 15 18.7857 15ZM17.2276 14.602H18.5708V0.39801H17.2276V14.602Z" fill="white"/>
<path d="M4.32514 3.70709H1.47078C1.34989 3.70709 1.25586 3.62003 1.25586 3.50809C1.25586 3.39615 1.34989 3.30908 1.47078 3.30908H4.32514C4.44603 3.30908 4.54006 3.39615 4.54006 3.50809C4.54006 3.62003 4.44603 3.70709 4.32514 3.70709Z" fill="white"/>
<path d="M3.06928 2.69977H0.214917C0.094026 2.69977 0 2.6127 0 2.50076C0 2.38882 0.094026 2.30176 0.214917 2.30176H3.06928C3.19017 2.30176 3.2842 2.38882 3.2842 2.50076C3.2842 2.6127 3.19017 2.69977 3.06928 2.69977Z" fill="white"/>
<path d="M4.32514 11.6918H1.47078C1.34989 11.6918 1.25586 11.6048 1.25586 11.4928C1.25586 11.3809 1.34989 11.2938 1.47078 11.2938H4.32514C4.44603 11.2938 4.54006 11.3809 4.54006 11.4928C4.54006 11.6048 4.44603 11.6918 4.32514 11.6918Z" fill="white"/>
<path d="M3.06928 12.6996H0.214917C0.094026 12.6996 0 12.6126 0 12.5006C0 12.3887 0.094026 12.3016 0.214917 12.3016H3.06928C3.19017 12.3016 3.2842 12.3887 3.2842 12.5006C3.2842 12.6126 3.19017 12.6996 3.06928 12.6996Z" fill="white"/>
</svg>
