<svg width="26" height="25" viewBox="0 0 26 25" fill="none" xmlns="http://www.w3.org/2000/svg">
<path fill-rule="evenodd" clip-rule="evenodd" d="M25.5259 10.4801L23.3889 8.58521V1.01721C23.3889 0.488259 22.8853 0.058126 22.2659 0.058126H19.9588C19.3394 0.058126 18.8358 0.488259 18.8358 1.01721V4.54545L14.2215 0.44757C13.888 0.151128 13.4797 0 12.9965 0C12.5132 0 12.1049 0.145315 11.7714 0.44757L0.480626 10.4801C-0.00258468 10.9044 -0.131894 11.509 0.140337 12.0553C0.412568 12.6017 1.01148 12.9389 1.70567 12.9389H2.61083V23.541C2.61083 24.3432 3.37308 24.9942 4.31228 24.9942H9.7501V18.0598C9.7501 17.2576 10.5123 16.6066 11.4515 16.6066H14.5482C15.4874 16.6066 16.2496 17.2576 16.2496 18.0598V25H21.6874C22.6266 25 23.3889 24.349 23.3889 23.5469V12.9447H24.2941C24.9882 12.9447 25.5871 12.6075 25.8594 12.0611C26.1316 11.5148 26.0023 10.9103 25.5259 10.4801Z" fill="white"/>
</svg>
