<svg width="52" height="35" viewBox="0 0 52 35" fill="none" xmlns="http://www.w3.org/2000/svg">
<path d="M0 0.032959L46 0.00335761C48.7614 0.00158061 51.0014 2.23872 51.0032 5.00014L51.0191 29.6712C51.0209 32.4327 48.7837 34.6727 46.0223 34.6745L0.0223111 34.7041L0 0.032959Z" fill="#269569"/>
<path d="M24.0057 9.00648C24.3263 9.00627 24.6473 9.00607 24.9683 9.00586C25.0162 9.016 25.0638 9.03158 25.112 9.03528C25.929 9.09987 26.7208 9.28558 27.4614 9.63989C30.1459 10.924 31.6651 13.0677 31.9471 16.0873C32.0764 17.4717 31.8065 18.7951 31.1853 20.0308C30.9245 20.5496 30.5938 21.0314 30.2768 21.5604C30.2938 21.5743 30.35 21.6123 30.397 21.6597C31.4817 22.7627 32.5685 23.8637 33.6466 24.9735C33.79 25.1213 33.8889 25.3142 34.0088 25.4861L34.009 25.7907C33.9987 25.8026 33.9841 25.8124 33.9784 25.8263C33.7539 26.3865 33.2038 26.5052 32.7824 26.0778C31.8059 25.0873 30.8323 24.0934 29.8584 23.0999C29.667 22.9047 29.4789 22.7057 29.2942 22.5138C29.2682 22.5233 29.2569 22.525 29.2486 22.5311C29.2084 22.561 29.1692 22.5919 29.1296 22.6228C27.3543 24.0129 25.3621 24.5369 23.1555 24.1421C19.7474 23.5328 17.1722 20.5377 17.0136 17.0106C16.9451 15.4847 17.2805 14.0514 18.0613 12.7447C19.2286 10.7923 20.9186 9.5844 23.1233 9.14035C23.4146 9.08148 23.7113 9.05042 24.0057 9.00648ZM30.59 16.6298C30.5781 13.1942 27.8245 10.3964 24.4776 10.4196C21.104 10.4428 18.3962 13.2102 18.3914 16.6397C18.3867 20.0614 21.1353 22.8616 24.4959 22.8585C27.8574 22.8553 30.6018 20.0505 30.59 16.6298Z" fill="white"/>
</svg>
