<svg width="64" height="65" viewBox="0 0 64 65" fill="none" xmlns="http://www.w3.org/2000/svg">
<rect y="0.25" width="64" height="64" rx="8" fill="#F2F2F2"/>
<path d="M33.95 23.925H28.1663C27.8116 23.925 27.4751 24.0819 27.247 24.3537L25.7817 26.1H22.2C21.7416 26.1 21.3412 26.2792 21.0067 26.623C20.6752 26.9637 20.5 27.358 20.5 27.8V40.625C20.5 41.0815 20.6736 41.4814 21.0086 41.8164C21.3436 42.1514 21.7435 42.325 22.2 42.325H39.2C39.642 42.325 40.0363 42.1498 40.377 41.8183C40.7208 41.4839 40.9 41.0834 40.9 40.625V30.875C40.9 30.3503 40.4747 29.925 39.95 29.925C39.4253 29.925 39 30.3503 39 30.875V40.425H22.4V28H26.6683L28.4933 25.825H33.95C34.4747 25.825 34.9 25.3997 34.9 24.875C34.9 24.3503 34.4747 23.925 33.95 23.925Z" fill="#737679"/>
<path d="M37.7752 25.825H38.9752V27.025C38.9752 27.5497 39.4005 27.975 39.9252 27.975C40.4499 27.975 40.8752 27.5497 40.8752 27.025V25.825H42.1002C42.6249 25.825 43.0502 25.3997 43.0502 24.875C43.0502 24.3503 42.6249 23.925 42.1002 23.925H40.8752V22.7C40.8752 22.1753 40.4499 21.75 39.9252 21.75C39.4005 21.75 38.9752 22.1753 38.9752 22.7V23.925H37.7752C37.2505 23.925 36.8252 24.3503 36.8252 24.875C36.8252 25.3997 37.2505 25.825 37.7752 25.825Z" fill="#737679"/>
<path d="M27.5211 31.0461C26.6729 31.8942 26.25 32.9545 26.25 34.2125C26.25 35.4705 26.6729 36.5345 27.5204 37.3907C28.3684 38.2474 29.4288 38.675 30.6875 38.675C31.9461 38.675 33.0104 38.2475 33.8664 37.3914C34.7225 36.5354 35.15 35.4711 35.15 34.2125C35.15 32.9538 34.7224 31.8934 33.8657 31.0454C33.0095 30.1979 31.9455 29.775 30.6875 29.775C29.4295 29.775 28.3692 30.1979 27.5211 31.0461ZM30.6875 36.775C29.945 36.775 29.3436 36.531 28.8675 36.0472C28.3906 35.5626 28.15 34.956 28.15 34.2125C28.15 33.469 28.3906 32.8673 28.8664 32.3914C29.3423 31.9156 29.944 31.675 30.6875 31.675C31.431 31.675 32.0376 31.9156 32.5222 32.3925C33.006 32.8686 33.25 33.47 33.25 34.2125C33.25 34.955 33.0059 35.5613 32.5211 36.0461C32.0363 36.5309 31.43 36.775 30.6875 36.775Z" fill="#737679"/>
</svg>
