<svg width="17" height="16" viewBox="0 0 17 16" fill="none" xmlns="http://www.w3.org/2000/svg">
<rect x="0.969727" width="16" height="16" rx="8" fill="black"/>
<g clip-path="url(#clip0_157_4399)">
<path d="M9.12598 10.9063C9.01139 11.0417 8.95931 11.2006 8.96973 11.3829C8.98014 11.5651 9.05827 11.7188 9.2041 11.8438C9.33952 11.9584 9.50098 12.0105 9.68848 12C9.87598 11.9896 10.027 11.9115 10.1416 11.7657L12.5947 8.90629C12.8447 8.65629 12.9697 8.35421 12.9697 8.00004C12.9697 7.64587 12.8447 7.34379 12.5947 7.09379L10.1416 4.23442C10.027 4.08858 9.87598 4.01046 9.68848 4.00004C9.50098 3.98962 9.33952 4.04171 9.2041 4.15629C9.05827 4.28129 8.98014 4.43494 8.96973 4.61723C8.95931 4.79952 9.01139 4.95837 9.12598 5.09379L11.0479 7.34379C11.0374 7.33337 11.0244 7.32817 11.0088 7.32817C10.9932 7.32817 10.9801 7.32817 10.9697 7.32817H5.6416C5.4541 7.32817 5.29525 7.39327 5.16504 7.52348C5.03483 7.65369 4.96973 7.81254 4.96973 8.00004C4.96973 8.18754 5.03483 8.3464 5.16504 8.4766C5.29525 8.60681 5.4541 8.67192 5.6416 8.67192H10.9697C10.9801 8.67192 10.9932 8.67192 11.0088 8.67192C11.0244 8.67192 11.0374 8.66671 11.0479 8.65629L9.12598 10.9063Z" fill="white"/>
</g>
<defs>
<clipPath id="clip0_157_4399">
<rect width="8" height="8" fill="white" transform="matrix(1 0 0 -1 4.96973 12)"/>
</clipPath>
</defs>
</svg>
