<svg width="22.5" height="20.7" viewBox="0 0 25 23" fill="none" xmlns="http://www.w3.org/2000/svg">
  <path d="M3.90625 4.41992C3.84115 4.0944 3.68652 3.83398 3.44238 3.63867C3.19824 3.44336 2.91341 3.3457 2.58789 3.3457H1.36719C0.976562 3.3457 0.651042 3.21549 0.390625 2.95508C0.130208 2.69466 0 2.36914 0 1.97852C0 1.62044 0.130208 1.30306 0.390625 1.02637C0.651042 0.749674 0.976562 0.611328 1.36719 0.611328H2.58789C3.5319 0.611328 4.37826 0.912436 5.12695 1.51465C5.87565 2.11686 6.34766 2.88997 6.54297 3.83398L8.34961 11.793C8.41471 12.1185 8.56934 12.3789 8.81348 12.5742C9.05762 12.7695 9.34245 12.8672 9.66797 12.8672H18.0176C18.278 12.8672 18.5221 12.8021 18.75 12.6719C18.9779 12.5417 19.1406 12.3464 19.2383 12.0859L21.2891 8.0332C21.5169 7.57747 21.5007 7.13802 21.2402 6.71484C20.9798 6.29167 20.5892 6.08008 20.0684 6.08008H10.8887C10.498 6.08008 10.1725 5.94173 9.91211 5.66504C9.65169 5.38835 9.52148 5.07096 9.52148 4.71289C9.52148 4.32227 9.65169 3.99674 9.91211 3.73633C10.1725 3.47591 10.498 3.3457 10.8887 3.3457H22.2656C23.2747 3.3457 24.0479 3.77702 24.585 4.63965C25.1221 5.50228 25.1628 6.38932 24.707 7.30078L21.6797 13.3066C21.3542 14.0228 20.8577 14.5843 20.1904 14.9912C19.5231 15.3981 18.7988 15.6016 18.0176 15.6016H9.66797C8.69141 15.6016 7.83691 15.3005 7.10449 14.6982C6.37207 14.096 5.89193 13.3229 5.66406 12.3789L3.90625 4.41992ZM21.7773 19.6543C21.7773 20.403 21.5088 21.0459 20.9717 21.583C20.4346 22.1201 19.7917 22.3887 19.043 22.3887C18.2943 22.3887 17.6514 22.1201 17.1143 21.583C16.5771 21.0459 16.3086 20.403 16.3086 19.6543C16.3086 18.9056 16.5771 18.2627 17.1143 17.7256C17.6514 17.1885 18.2943 16.9199 19.043 16.9199C19.7917 16.9199 20.4346 17.1885 20.9717 17.7256C21.5088 18.2627 21.7773 18.9056 21.7773 19.6543ZM6.78711 22.3887C7.53581 22.3887 8.17871 22.1201 8.71582 21.583C9.25293 21.0459 9.52148 20.403 9.52148 19.6543C9.52148 18.9056 9.25293 18.2627 8.71582 17.7256C8.17871 17.1885 7.53581 16.9199 6.78711 16.9199C6.03841 16.9199 5.40365 17.1885 4.88281 17.7256C4.36198 18.2627 4.10156 18.9056 4.10156 19.6543C4.10156 20.403 4.36198 21.0459 4.88281 21.583C5.40365 22.1201 6.03841 22.3887 6.78711 22.3887Z" fill="white"/>
</svg>
