<svg width="18" height="18" viewBox="0 0 18 18" fill="none" xmlns="http://www.w3.org/2000/svg">
<g clip-path="url(#clip0_157_3951)">
<path d="M2.8125 3.90234C2.76562 3.66797 2.6543 3.48047 2.47852 3.33984C2.30273 3.19922 2.09766 3.12891 1.86328 3.12891H0.984375C0.703125 3.12891 0.46875 3.03516 0.28125 2.84766C0.09375 2.66016 0 2.42578 0 2.14453C0 1.88672 0.09375 1.6582 0.28125 1.45898C0.46875 1.25977 0.703125 1.16016 0.984375 1.16016H1.86328C2.54297 1.16016 3.15234 1.37695 3.69141 1.81055C4.23047 2.24414 4.57031 2.80078 4.71094 3.48047L6.01172 9.21094C6.05859 9.44531 6.16992 9.63281 6.3457 9.77344C6.52148 9.91406 6.72656 9.98438 6.96094 9.98438H12.9727C13.1602 9.98438 13.3359 9.9375 13.5 9.84375C13.6641 9.75 13.7812 9.60938 13.8516 9.42188L15.3281 6.50391C15.4922 6.17578 15.4805 5.85938 15.293 5.55469C15.1055 5.25 14.8242 5.09766 14.4492 5.09766H7.83984C7.55859 5.09766 7.32422 4.99805 7.13672 4.79883C6.94922 4.59961 6.85547 4.37109 6.85547 4.11328C6.85547 3.83203 6.94922 3.59766 7.13672 3.41016C7.32422 3.22266 7.55859 3.12891 7.83984 3.12891H16.0312C16.7578 3.12891 17.3145 3.43945 17.7012 4.06055C18.0879 4.68164 18.1172 5.32031 17.7891 5.97656L15.6094 10.3008C15.375 10.8164 15.0176 11.2207 14.5371 11.5137C14.0566 11.8066 13.5352 11.9531 12.9727 11.9531H6.96094C6.25781 11.9531 5.64258 11.7363 5.11523 11.3027C4.58789 10.8691 4.24219 10.3125 4.07812 9.63281L2.8125 3.90234ZM15.6797 14.8711C15.6797 15.4102 15.4863 15.873 15.0996 16.2598C14.7129 16.6465 14.25 16.8398 13.7109 16.8398C13.1719 16.8398 12.709 16.6465 12.3223 16.2598C11.9355 15.873 11.7422 15.4102 11.7422 14.8711C11.7422 14.332 11.9355 13.8691 12.3223 13.4824C12.709 13.0957 13.1719 12.9023 13.7109 12.9023C14.25 12.9023 14.7129 13.0957 15.0996 13.4824C15.4863 13.8691 15.6797 14.332 15.6797 14.8711ZM4.88672 16.8398C5.42578 16.8398 5.88867 16.6465 6.27539 16.2598C6.66211 15.873 6.85547 15.4102 6.85547 14.8711C6.85547 14.332 6.66211 13.8691 6.27539 13.4824C5.88867 13.0957 5.42578 12.9023 4.88672 12.9023C4.34766 12.9023 3.89062 13.0957 3.51562 13.4824C3.14062 13.8691 2.95312 14.332 2.95312 14.8711C2.95312 15.4102 3.14062 15.873 3.51562 16.2598C3.89062 16.6465 4.34766 16.8398 4.88672 16.8398Z" fill="white"/>
</g>
<defs>
<clipPath id="clip0_157_3951">
<rect width="18" height="18" fill="white" transform="matrix(1 0 0 -1 0 18)"/>
</clipPath>
</defs>
</svg>
