<svg width="16" height="16" viewBox="0 0 16 16" fill="none" xmlns="http://www.w3.org/2000/svg">
<g clip-path="url(#clip0_157_4358)">
<g clip-path="url(#clip1_157_4358)">
<path fill-rule="evenodd" clip-rule="evenodd" d="M14.4006 12.8005C14.4006 13.0127 14.3163 13.2162 14.1662 13.3662C14.0162 13.5162 13.8127 13.6005 13.6005 13.6005H12.5861C12.7264 13.8438 12.8002 14.1197 12.8001 14.4005C12.8 14.6813 12.726 14.9571 12.5855 15.2003C12.4451 15.4434 12.2431 15.6453 11.9999 15.7857C11.7567 15.9261 11.4808 16 11.2 16C10.9192 16 10.6434 15.9261 10.4002 15.7857C10.157 15.6453 9.95498 15.4434 9.81452 15.2003C9.67406 14.9571 9.60007 14.6813 9.59997 14.4005C9.59988 14.1197 9.67369 13.8438 9.81398 13.6005H7.7859C7.92687 13.845 8.00066 14.1224 7.9998 14.4046C7.99894 14.6868 7.92346 14.9638 7.781 15.2074C7.63855 15.451 7.43421 15.6526 7.18869 15.7918C6.94317 15.9309 6.66521 16.0027 6.38302 15.9997C6.10083 15.9968 5.82443 15.9192 5.58188 15.775C5.33932 15.6307 5.13923 15.4249 5.0019 15.1784C4.86458 14.9318 4.7949 14.6533 4.79994 14.3712C4.80498 14.089 4.88455 13.8132 5.0306 13.5717C4.51918 13.4917 4.04733 13.2485 3.68544 12.8784C3.32355 12.5083 3.09101 12.0311 3.02252 11.518L1.69847 1.60006H0.800031C0.58785 1.60006 0.384359 1.51577 0.234324 1.36574C0.0842887 1.2157 0 1.01221 0 0.80003C0 0.58785 0.0842887 0.384359 0.234324 0.234324C0.384359 0.084289 0.58785 0 0.800031 0H2.40009C2.59395 4.8e-05 2.78119 0.070482 2.92702 0.19821C3.07285 0.325937 3.16734 0.50227 3.19292 0.69443L3.52814 3.20012H15.2006C15.3222 3.20013 15.4422 3.22785 15.5515 3.2812C15.6608 3.33454 15.7565 3.41209 15.8313 3.50797C15.9061 3.60384 15.9581 3.7155 15.9833 3.83448C16.0084 3.95345 16.0062 4.0766 15.9766 4.19456L14.983 8.17072C14.7666 9.03617 14.267 9.8044 13.5639 10.3534C12.8607 10.9024 11.9941 11.2005 11.102 11.2004H4.59378L4.60818 11.306C4.63375 11.4981 4.72812 11.6743 4.87378 11.802C5.01944 11.9297 5.20649 12.0002 5.40021 12.0005H13.6005C13.8127 12.0005 14.0162 12.0848 14.1662 12.2348C14.3163 12.3848 14.4006 12.5883 14.4006 12.8005ZM8.11232 9.45637C8.28171 9.575 8.49048 9.6235 8.69483 9.5916C8.89918 9.5597 9.08323 9.44984 9.20836 9.28516L11.0364 6.88507C11.1582 6.71594 11.2092 6.50597 11.1785 6.29982C11.1479 6.09367 11.038 5.90763 10.8722 5.78129C10.7065 5.65494 10.498 5.59826 10.291 5.62332C10.0841 5.64837 9.89519 5.75317 9.76438 5.91543L8.40033 7.7043L7.6579 7.18428C7.48391 7.06259 7.26871 7.01501 7.05963 7.05199C6.85056 7.08898 6.66474 7.2075 6.54305 7.38149C6.42137 7.55548 6.37378 7.77068 6.41077 7.97975C6.44775 8.18883 6.56627 8.37464 6.74026 8.49633L8.11232 9.45637Z" fill="#43B02A"/>
</g>
</g>
<defs>
<clipPath id="clip0_157_4358">
<rect width="16" height="16" fill="white"/>
</clipPath>
<clipPath id="clip1_157_4358">
<rect width="16" height="17" fill="white" transform="translate(0 -0.5)"/>
</clipPath>
</defs>
</svg>
