<svg width="50" height="50" viewBox="0 0 50 50" fill="none" xmlns="http://www.w3.org/2000/svg">
<rect x="1" y="1" width="48" height="48" rx="24" stroke="#a3aebd" stroke-width="2"/>
<g clip-path="url(#clip0_157_3890)">
<rect width="25" height="20" transform="matrix(1 0 0 -1 12 36)" fill="white"/>
<path d="M29.9688 18.5C30.5185 18.5 31.0538 18.5911 31.5747 18.7734C32.0955 18.9557 32.5295 19.2422 32.8767 19.6328C33.2818 19.9974 33.5856 20.4531 33.7882 21C33.9907 21.5469 34.092 22.1328 34.092 22.7578C34.092 23.3828 33.9473 24.0143 33.658 24.6523C33.3686 25.2904 32.9201 25.9479 32.3125 26.625C31.6181 27.3802 30.7717 28.168 29.7734 28.9883C28.7752 29.8086 27.6829 30.6875 26.4965 31.625C26.2361 31.8073 25.9685 32.0221 25.6936 32.2695C25.4187 32.5169 25.1366 32.7578 24.8472 32.9922C24.7894 33.0703 24.7025 33.1094 24.5868 33.1094C24.4711 33.1094 24.3698 33.0703 24.283 32.9922C24.0226 32.7578 23.726 32.5365 23.3932 32.3281C23.0605 32.1198 22.7639 31.8854 22.5035 31.625C21.3171 30.6875 20.2248 29.8151 19.2266 29.0078C18.2283 28.2005 17.3819 27.4453 16.6875 26.7422C15.9931 25.987 15.5012 25.2904 15.2118 24.6523C14.9225 24.0143 14.7778 23.3828 14.7778 22.7578C14.7778 22.1328 14.8791 21.5469 15.0816 21C15.2841 20.4531 15.588 19.9974 15.9931 19.6328C16.4271 19.2422 16.8828 18.9557 17.3602 18.7734C17.8377 18.5911 18.3513 18.5 18.901 18.5C19.3061 18.5 19.6895 18.5651 20.0512 18.6953C20.4129 18.8255 20.7674 19.0078 21.1146 19.2422C21.3171 19.3724 21.5197 19.5026 21.7222 19.6328C21.9248 19.763 22.0839 19.9323 22.1997 20.1406L23.8924 22.1328C24.0081 22.3151 24.2106 22.4062 24.5 22.4062C24.7894 22.4062 24.9919 22.3151 25.1076 22.1328L26.8003 20.1406C26.9161 19.9323 27.068 19.7435 27.2561 19.5742C27.4442 19.4049 27.6105 19.2552 27.7552 19.125C28.1024 18.9427 28.4497 18.793 28.7969 18.6758C29.1441 18.5586 29.5347 18.5 29.9688 18.5ZM29.9688 16C29.2743 16 28.5943 16.0977 27.9288 16.293C27.2633 16.4883 26.6557 16.8073 26.1059 17.25C25.8166 17.4323 25.5417 17.6471 25.2812 17.8945C25.0208 18.1419 24.7894 18.4219 24.5868 18.7344C24.2975 18.4219 24.0153 18.1419 23.7405 17.8945C23.4656 17.6471 23.1834 17.4323 22.8941 17.25C22.2865 16.8073 21.6571 16.4883 21.0061 16.293C20.355 16.0977 19.6534 16 18.901 16C17.9462 16 17.0492 16.1628 16.2101 16.4883C15.3709 16.8138 14.6186 17.3151 13.9531 17.9922C13.3166 18.6172 12.8319 19.3333 12.4991 20.1406C12.1664 20.9479 12 21.8203 12 22.7578C12 23.6953 12.2098 24.6133 12.6293 25.5117C13.0489 26.4102 13.6638 27.3281 14.474 28.2656C15.2552 29.0729 16.1811 29.8997 17.2517 30.7461C18.3223 31.5924 19.4653 32.5104 20.6806 33.5C21.1146 33.8125 21.5703 34.1576 22.0477 34.5352C22.5252 34.9128 23.0388 35.3229 23.5885 35.7656C23.6753 35.8177 23.7839 35.8698 23.9141 35.9219C24.0443 35.974 24.2106 36 24.4132 36C24.6447 36 24.8328 35.9674 24.9774 35.9023C25.1221 35.8372 25.2668 35.7396 25.4115 35.6094C25.8744 35.2448 26.3519 34.8737 26.8437 34.4961C27.3356 34.1185 27.8275 33.7474 28.3194 33.3828C29.5347 32.4453 30.6777 31.5404 31.7483 30.668C32.8189 29.7956 33.7448 28.9427 34.526 28.1094C35.3362 27.1719 35.9511 26.2604 36.3707 25.375C36.7902 24.4896 37 23.5781 37 22.6406C37 21.7031 36.8336 20.8307 36.5009 20.0234C36.1681 19.2161 35.6834 18.5 35.0469 17.875C34.2946 17.25 33.4988 16.7812 32.6597 16.4688C31.8206 16.1562 30.9236 16 29.9688 16Z" fill="#a3aebd"/>
</g>
<defs>
<clipPath id="clip0_157_3890">
<rect width="25" height="20" fill="white" transform="matrix(1 0 0 -1 12 36)"/>
</clipPath>
</defs>
</svg>
