<svg width="37" height="37" viewBox="0 0 37 37" fill="none" xmlns="http://www.w3.org/2000/svg">
<rect x="1" y="1" width="35" height="35" rx="17.5" stroke="#a3aebd" stroke-width="2"/>
<g clip-path="url(#clip0_157_3954)">
<rect width="18" height="18" transform="matrix(1 0 0 -1 10 28)" fill="white"/>
<path d="M22.9375 12.25C23.3333 12.25 23.7188 12.332 24.0938 12.4961C24.4688 12.6602 24.7812 12.918 25.0312 13.2695C25.3229 13.5977 25.5417 14.0078 25.6875 14.5C25.8333 14.9922 25.9062 15.5195 25.9062 16.082C25.9062 16.6445 25.8021 17.2129 25.5938 17.7871C25.3854 18.3613 25.0625 18.9531 24.625 19.5625C24.125 20.2422 23.5156 20.9512 22.7969 21.6895C22.0781 22.4277 21.2917 23.2188 20.4375 24.0625C20.25 24.2266 20.0573 24.4199 19.8594 24.6426C19.6615 24.8652 19.4583 25.082 19.25 25.293C19.2083 25.3633 19.1458 25.3984 19.0625 25.3984C18.9792 25.3984 18.9062 25.3633 18.8438 25.293C18.6562 25.082 18.4427 24.8828 18.2031 24.6953C17.9635 24.5078 17.75 24.2969 17.5625 24.0625C16.7083 23.2188 15.9219 22.4336 15.2031 21.707C14.4844 20.9805 13.875 20.3008 13.375 19.668C12.875 18.9883 12.5208 18.3613 12.3125 17.7871C12.1042 17.2129 12 16.6445 12 16.082C12 15.5195 12.0729 14.9922 12.2188 14.5C12.3646 14.0078 12.5833 13.5977 12.875 13.2695C13.1875 12.918 13.5156 12.6602 13.8594 12.4961C14.2031 12.332 14.5729 12.25 14.9688 12.25C15.2604 12.25 15.5365 12.3086 15.7969 12.4258C16.0573 12.543 16.3125 12.707 16.5625 12.918C16.7083 13.0352 16.8542 13.1523 17 13.2695C17.1458 13.3867 17.2604 13.5391 17.3438 13.7266L18.5625 15.5195C18.6458 15.6836 18.7917 15.7656 19 15.7656C19.2083 15.7656 19.3542 15.6836 19.4375 15.5195L20.6562 13.7266C20.7396 13.5391 20.849 13.3691 20.9844 13.2168C21.1198 13.0645 21.2396 12.9297 21.3438 12.8125C21.5938 12.6484 21.8438 12.5137 22.0938 12.4082C22.3438 12.3027 22.625 12.25 22.9375 12.25ZM22.9375 10C22.4375 10 21.9479 10.0879 21.4688 10.2637C20.9896 10.4395 20.5521 10.7266 20.1562 11.125C19.9479 11.2891 19.75 11.4824 19.5625 11.7051C19.375 11.9277 19.2083 12.1797 19.0625 12.4609C18.8542 12.1797 18.651 11.9277 18.4531 11.7051C18.2552 11.4824 18.0521 11.2891 17.8438 11.125C17.4062 10.7266 16.9531 10.4395 16.4844 10.2637C16.0156 10.0879 15.5104 10 14.9688 10C14.2812 10 13.6354 10.1465 13.0312 10.4395C12.4271 10.7324 11.8854 11.1836 11.4062 11.793C10.9479 12.3555 10.599 13 10.3594 13.7266C10.1198 14.4531 10 15.2383 10 16.082C10 16.9258 10.151 17.752 10.4531 18.5605C10.7552 19.3691 11.1979 20.1953 11.7812 21.0391C12.3438 21.7656 13.0104 22.5098 13.7812 23.2715C14.5521 24.0332 15.375 24.8594 16.25 25.75C16.5625 26.0312 16.8906 26.3418 17.2344 26.6816C17.5781 27.0215 17.9479 27.3906 18.3438 27.7891C18.4062 27.8359 18.4844 27.8828 18.5781 27.9297C18.6719 27.9766 18.7917 28 18.9375 28C19.1042 28 19.2396 27.9707 19.3438 27.9121C19.4479 27.8535 19.5521 27.7656 19.6562 27.6484C19.9896 27.3203 20.3333 26.9863 20.6875 26.6465C21.0417 26.3066 21.3958 25.9727 21.75 25.6445C22.625 24.8008 23.4479 23.9863 24.2188 23.2012C24.9896 22.416 25.6562 21.6484 26.2188 20.8984C26.8021 20.0547 27.2448 19.2344 27.5469 18.4375C27.849 17.6406 28 16.8203 28 15.9766C28 15.1328 27.8802 14.3477 27.6406 13.6211C27.401 12.8945 27.0521 12.25 26.5938 11.6875C26.0521 11.125 25.4792 10.7031 24.875 10.4219C24.2708 10.1406 23.625 10 22.9375 10Z" fill="#a3aebd"/>
</g>
<defs>
<clipPath id="clip0_157_3954">
<rect width="18" height="18" fill="white" transform="matrix(1 0 0 -1 10 28)"/>
</clipPath>
</defs>
</svg>
