<svg width="20" height="17" viewBox="0 0 20 17" fill="none" xmlns="http://www.w3.org/2000/svg">
<path fill-rule="evenodd" clip-rule="evenodd" d="M16.0264 4.86379C16.0869 4.84795 16.1665 4.87962 16.2461 4.9667C16.2461 4.9667 16.2461 4.9667 19.843 7.88515C20.0531 8.0593 20.0531 8.32318 19.843 8.45248C19.843 8.45248 19.843 8.45248 16.2461 11.4158C16.1665 11.5029 16.0869 11.524 16.0264 11.4976C15.9659 11.4712 15.9277 11.3947 15.9277 11.2838V5.05378C15.9277 4.94559 15.9659 4.87962 16.0264 4.86379Z" fill="#FF0000"/>
<path fill-rule="evenodd" clip-rule="evenodd" d="M9.87231 0H10.127L10.3721 0.0844401C10.3721 0.0844401 10.3721 0.0844399 14.0741 3.13483C14.2332 3.30898 14.1791 3.44092 13.9149 3.44092C13.9149 3.44092 13.9149 3.44092 12.3806 3.44092C12.1164 3.44092 11.9063 3.61508 11.9063 3.8341C11.9063 3.8341 11.9063 3.83409 11.9063 6.09814C11.9063 6.31715 11.6931 6.49131 11.3748 6.49131C11.3748 6.49131 11.3748 6.49131 8.67862 6.49131C8.41442 6.49131 8.20115 6.31715 8.20115 6.09814C8.20115 6.09814 8.20115 6.09814 8.20115 3.8341C8.20115 3.61508 7.99106 3.44092 7.72367 3.44092H6.08434C5.82014 3.44092 5.76603 3.30898 5.92518 3.13483C5.92518 3.13483 5.92519 3.13483 9.63039 0.0844401L9.87231 0Z" fill="#FF0004"/>
<path fill-rule="evenodd" clip-rule="evenodd" d="M4.07286 4.79664C4.1397 4.82303 4.18108 4.89955 4.18108 5.01038V11.3698C4.18108 11.4806 4.1397 11.5465 4.07286 11.5677C4.00919 11.5888 3.91688 11.5677 3.80866 11.5017C3.80866 11.5017 3.80865 11.5017 0.157567 8.4513C-0.0525222 8.322 -0.0525222 8.05813 0.157567 7.88397C0.157567 7.88397 0.157567 7.88397 3.80866 4.87844C3.91688 4.79136 4.00919 4.77025 4.07286 4.79664Z" fill="#FF0000"/>
<path fill-rule="evenodd" clip-rule="evenodd" d="M8.67919 9.80139C8.67919 9.80139 8.67919 9.80139 11.3753 9.80139C11.6936 9.80139 11.9069 9.97555 11.9069 10.1946C11.9069 10.1946 11.9069 10.1946 11.9069 12.5905C11.9069 12.8518 12.117 13.0259 12.3812 13.0259H13.8105C14.0747 13.0259 14.1797 13.1552 13.9696 13.2872C13.9696 13.2872 13.9696 13.2872 10.3726 16.2927C10.2644 16.3798 10.1339 16.4246 10.0002 16.4246C9.86969 16.4246 9.736 16.3798 9.63096 16.2927C9.63096 16.2927 9.63096 16.2927 6.03398 13.2872C5.82071 13.1552 5.92576 13.0259 6.18996 13.0259C6.18996 13.0259 6.18996 13.0259 7.72424 13.0259C7.99163 13.0259 8.20172 12.8518 8.20172 12.5905C8.20172 12.5905 8.20172 12.5905 8.20172 10.1946C8.20172 9.97555 8.41499 9.80139 8.67919 9.80139Z" fill="#FF0000"/>
</svg>
