<svg width="16" height="16" viewBox="0 0 16 16" fill="none" xmlns="http://www.w3.org/2000/svg">
<g clip-path="url(#clip0_157_4386)">
<path d="M4 4.75002C4 4.60419 4.04688 4.4844 4.14062 4.39065C4.23438 4.2969 4.35417 4.25002 4.5 4.25002H11.5C11.6458 4.25002 11.7656 4.2969 11.8594 4.39065C11.9531 4.4844 12 4.60419 12 4.75002C12 4.89586 11.9531 5.01565 11.8594 5.1094C11.7656 5.20315 11.6458 5.25002 11.5 5.25002H4.5C4.35417 5.25002 4.23438 5.20315 4.14062 5.1094C4.04688 5.01565 4 4.89586 4 4.75002ZM5.84375 8.25002C5.69792 8.25002 5.57812 8.2969 5.48438 8.39065C5.39062 8.4844 5.34375 8.60419 5.34375 8.75002C5.34375 8.89586 5.39062 9.01565 5.48438 9.1094C5.57812 9.20315 5.69792 9.25002 5.84375 9.25002H10.1562C10.3021 9.25002 10.4219 9.20315 10.5156 9.1094C10.6094 9.01565 10.6562 8.89586 10.6562 8.75002C10.6562 8.60419 10.6094 8.4844 10.5156 8.39065C10.4219 8.2969 10.3021 8.25002 10.1562 8.25002H5.84375ZM4 0.250025H12C13.1042 0.250025 14.0469 0.64065 14.8281 1.4219C15.6094 2.20315 16 3.14586 16 4.25002V9.25002C16 10.3542 15.6094 11.2969 14.8281 12.0781C14.0469 12.8594 13.1042 13.25 12 13.25H10.3125C10.2083 13.25 10.1094 13.2656 10.0156 13.2969C9.92188 13.3281 9.83333 13.375 9.75 13.4375L6.5625 15.5625C6.22917 15.7917 5.88542 15.8125 5.53125 15.625C5.17708 15.4375 5 15.1459 5 14.75V14.25C5 13.9792 4.90104 13.7448 4.70312 13.5469C4.50521 13.349 4.27083 13.25 4 13.25C2.89583 13.25 1.95312 12.8594 1.17188 12.0781C0.390625 11.2969 0 10.3542 0 9.25002V4.25002C0 3.14586 0.390625 2.20315 1.17188 1.4219C1.95312 0.64065 2.89583 0.250025 4 0.250025ZM12 1.25002H4C3.16667 1.25002 2.45833 1.54169 1.875 2.12502C1.29167 2.70836 1 3.41669 1 4.25002V9.25002C1 10.0834 1.29167 10.7917 1.875 11.375C2.45833 11.9584 3.16667 12.25 4 12.25C4.5625 12.25 5.03646 12.4479 5.42188 12.8438C5.80729 13.2396 6 13.7084 6 14.25V14.75L9.1875 12.5938C9.35417 12.4896 9.53125 12.4063 9.71875 12.3438C9.90625 12.2813 10.1042 12.25 10.3125 12.25H12C12.8333 12.25 13.5417 11.9584 14.125 11.375C14.7083 10.7917 15 10.0834 15 9.25002V4.25002C15 3.41669 14.7083 2.70836 14.125 2.12502C13.5417 1.54169 12.8333 1.25002 12 1.25002Z" fill="#999999"/>
</g>
<defs>
<clipPath id="clip0_157_4386">
<rect width="16" height="16" fill="white" transform="matrix(1 0 0 -1 0 16)"/>
</clipPath>
</defs>
</svg>
