<svg width="14" height="14" viewBox="0 0 14 14" fill="none" xmlns="http://www.w3.org/2000/svg">
<g clip-path="url(#clip0_157_3857)">
<path d="M3.5 4.15623C3.5 4.02862 3.54102 3.9238 3.62305 3.84177C3.70508 3.75974 3.8099 3.71873 3.9375 3.71873H10.0625C10.1901 3.71873 10.2949 3.75974 10.377 3.84177C10.459 3.9238 10.5 4.02862 10.5 4.15623C10.5 4.28383 10.459 4.38865 10.377 4.47068C10.2949 4.55271 10.1901 4.59373 10.0625 4.59373H3.9375C3.8099 4.59373 3.70508 4.55271 3.62305 4.47068C3.54102 4.38865 3.5 4.28383 3.5 4.15623ZM5.11328 7.21873C4.98568 7.21873 4.88086 7.25974 4.79883 7.34177C4.7168 7.4238 4.67578 7.52862 4.67578 7.65623C4.67578 7.78383 4.7168 7.88865 4.79883 7.97068C4.88086 8.05271 4.98568 8.09373 5.11328 8.09373H8.88672C9.01432 8.09373 9.11914 8.05271 9.20117 7.97068C9.2832 7.88865 9.32422 7.78383 9.32422 7.65623C9.32422 7.52862 9.2832 7.4238 9.20117 7.34177C9.11914 7.25974 9.01432 7.21873 8.88672 7.21873H5.11328ZM3.5 0.218726H10.5C11.4661 0.218726 12.291 0.560523 12.9746 1.24412C13.6582 1.92771 14 2.75258 14 3.71873V8.09373C14 9.05987 13.6582 9.88474 12.9746 10.5683C12.291 11.2519 11.4661 11.5937 10.5 11.5937H9.02344C8.93229 11.5937 8.8457 11.6074 8.76367 11.6347C8.68164 11.6621 8.60417 11.7031 8.53125 11.7578L5.74219 13.6172C5.45052 13.8177 5.14974 13.8359 4.83984 13.6719C4.52995 13.5078 4.375 13.2526 4.375 12.9062V12.4687C4.375 12.2317 4.28841 12.0267 4.11523 11.8535C3.94206 11.6803 3.73698 11.5937 3.5 11.5937C2.53385 11.5937 1.70898 11.2519 1.02539 10.5683C0.341797 9.88474 0 9.05987 0 8.09373V3.71873C0 2.75258 0.341797 1.92771 1.02539 1.24412C1.70898 0.560523 2.53385 0.218726 3.5 0.218726ZM10.5 1.09373H3.5C2.77083 1.09373 2.15104 1.34893 1.64062 1.85935C1.13021 2.36977 0.875 2.98956 0.875 3.71873V8.09373C0.875 8.82289 1.13021 9.44268 1.64062 9.9531C2.15104 10.4635 2.77083 10.7187 3.5 10.7187C3.99219 10.7187 4.4069 10.8919 4.74414 11.2383C5.08138 11.5846 5.25 11.9948 5.25 12.4687V12.9062L8.03906 11.0195C8.1849 10.9284 8.33984 10.8554 8.50391 10.8008C8.66797 10.7461 8.84115 10.7187 9.02344 10.7187H10.5C11.2292 10.7187 11.849 10.4635 12.3594 9.9531C12.8698 9.44268 13.125 8.82289 13.125 8.09373V3.71873C13.125 2.98956 12.8698 2.36977 12.3594 1.85935C11.849 1.34893 11.2292 1.09373 10.5 1.09373Z" fill="#00579F"/>
</g>
<defs>
<clipPath id="clip0_157_3857">
<rect width="14" height="14" fill="white" transform="matrix(1 0 0 -1 0 14)"/>
</clipPath>
</defs>
</svg>
