<svg width="9" height="8" viewBox="0 0 9 8" fill="none" xmlns="http://www.w3.org/2000/svg">
<g clip-path="url(#clip0_157_3819)">
<path d="M0.989258 1.21873C0.989258 0.989562 1.09082 0.815082 1.29395 0.695291C1.49707 0.575499 1.7028 0.572895 1.91113 0.687478L6.78613 3.46873C6.98405 3.58331 7.08301 3.76039 7.08301 3.99998C7.08301 4.23956 6.98405 4.41664 6.78613 4.53123L1.91113 7.31248C1.7028 7.42706 1.49707 7.42446 1.29395 7.30467C1.09082 7.18487 0.989258 7.01039 0.989258 6.78123V1.21873ZM0.379883 6.78123C0.379883 7.24998 0.583008 7.60154 0.989258 7.83592C1.39551 8.07029 1.80176 8.07289 2.20801 7.84373L7.08301 5.06248C7.49967 4.82289 7.70801 4.46873 7.70801 3.99998C7.70801 3.53123 7.49967 3.17706 7.08301 2.93748L2.20801 0.156228C1.80176 -0.0729389 1.39551 -0.0703344 0.989258 0.164041C0.583008 0.398416 0.379883 0.749978 0.379883 1.21873V6.78123Z" fill="#D93A3F"/>
</g>
<defs>
<clipPath id="clip0_157_3819">
<rect width="8" height="8" fill="white" transform="matrix(1 0 0 -1 0.379883 8)"/>
</clipPath>
</defs>
</svg>
