<svg width="14" height="7" viewBox="0 0 14 7" fill="none" xmlns="http://www.w3.org/2000/svg">
<path d="M0.384674 0.412301C0.586822 0.157176 0.835296 0.0205016 1.1301 0.00227833C1.4249 -0.015945 1.68179 0.0751715 1.90079 0.275627L6.60073 4.62187L11.3007 0.275627C11.5197 0.0751715 11.7766 -0.015945 12.0714 0.00227833C12.3662 0.0205016 12.6146 0.157176 12.8168 0.412301C13.0021 0.649203 13.0863 0.931663 13.0695 1.25968C13.0526 1.5877 12.9263 1.85194 12.6905 2.05239L8.06631 6.34396C7.66201 6.78132 7.17349 7 6.60073 7C6.02798 7 5.53946 6.78132 5.13516 6.34396L0.511017 2.05239C0.275177 1.85194 0.148834 1.5877 0.131989 1.25968C0.115143 0.931663 0.199371 0.649203 0.384674 0.412301Z" fill="#616161"/>
</svg>
