<svg width="17" height="16" viewBox="0 0 17 16" fill="none" xmlns="http://www.w3.org/2000/svg">
<path d="M7.40602 0.718769C7.61436 0.239602 7.97894 1.90735e-05 8.49977 1.90735e-05C9.02061 1.90735e-05 9.37477 0.239602 9.56227 0.718769L11.281 4.65627L15.4685 5.15627C15.9477 5.21877 16.2706 5.48439 16.4373 5.95314C16.6039 6.42189 16.4998 6.83335 16.1248 7.18752L12.9998 10.25L13.8123 14.5938C13.9164 15.0938 13.7602 15.4896 13.3435 15.7813C12.9269 16.0729 12.4998 16.0938 12.0623 15.8438L8.49977 13.7188L4.93727 15.8438C4.49977 16.0938 4.07269 16.0729 3.65602 15.7813C3.23936 15.4896 3.08311 15.0938 3.18727 14.5938L3.99977 10.25L0.874775 7.18752C0.499775 6.83335 0.395608 6.42189 0.562275 5.95314C0.728941 5.48439 1.05186 5.21877 1.53102 5.15627L5.71852 4.65627L7.40602 0.718769Z" fill="#D93A3F"/>
</svg>
