<svg width="16" height="16" viewBox="0 0 16 16" fill="none" xmlns="http://www.w3.org/2000/svg">
<g clip-path="url(#clip0_157_4390)">
<path d="M8.3125 0.750052C8.45833 0.604219 8.625 0.489635 8.8125 0.406302C9 0.322969 9.19792 0.281302 9.40625 0.281302C9.92708 0.281302 10.3438 0.500052 10.6562 0.937552C10.9688 1.37505 11.0417 1.8438 10.875 2.3438L9.625 6.06255H13.4062C14.3229 6.06255 15.0156 6.45839 15.4844 7.25005C15.9531 8.04172 15.9583 8.8438 15.5 9.6563L12.9062 14.3438C12.6562 14.7605 12.3177 15.0834 11.8906 15.3126C11.4635 15.5417 11.0104 15.6251 10.5312 15.5626L3.15625 14.7501H1.25C0.854167 14.7501 0.515625 14.6094 0.234375 14.3282C-0.046875 14.0469 -0.1875 13.7084 -0.1875 13.3126V7.5313C-0.1875 7.11464 -0.046875 6.76568 0.234375 6.48443C0.515625 6.20318 0.854167 6.06255 1.25 6.06255H2.96875L8.3125 0.750052ZM2.6875 7.0313H1.25C1.125 7.0313 1.01562 7.07818 0.921875 7.17193C0.828125 7.26568 0.78125 7.38547 0.78125 7.5313V13.3126C0.78125 13.4376 0.828125 13.5469 0.921875 13.6407C1.01562 13.7344 1.125 13.7813 1.25 13.7813H2.6875V7.0313ZM3.65625 13.8438L10.625 14.5938C10.9167 14.6355 11.1927 14.5886 11.4531 14.4532C11.7135 14.3178 11.9167 14.1251 12.0625 13.8751L14.6562 9.18755C14.9271 8.70839 14.9219 8.22922 14.6406 7.75005C14.3594 7.27089 13.9479 7.0313 13.4062 7.0313H8.96875C8.88542 7.0313 8.8125 7.01568 8.75 6.98443C8.6875 6.95318 8.625 6.9063 8.5625 6.8438C8.52083 6.7813 8.49479 6.70839 8.48438 6.62505C8.47396 6.54172 8.47917 6.4688 8.5 6.4063L9.96875 2.0313C10.0312 1.8438 10.0052 1.66672 9.89062 1.50005C9.77604 1.33339 9.61458 1.25005 9.40625 1.25005C9.32292 1.25005 9.24479 1.26568 9.17188 1.29693C9.09896 1.32818 9.04167 1.37505 9 1.43755L3.65625 6.75005V13.8438Z" fill="#999999"/>
</g>
<defs>
<clipPath id="clip0_157_4390">
<rect width="16" height="16" fill="white" transform="matrix(1 0 0 -1 0 16)"/>
</clipPath>
</defs>
</svg>
