<svg width="16" height="16" viewBox="0 0 16 16" fill="none" xmlns="http://www.w3.org/2000/svg">
<g clip-path="url(#clip0_157_4392)">
<path d="M7.6875 15.2499C7.54167 15.3958 7.375 15.5104 7.1875 15.5937C7 15.677 6.80208 15.7187 6.59375 15.7187C6.07292 15.7187 5.65625 15.4999 5.34375 15.0624C5.03125 14.6249 4.95833 14.1562 5.125 13.6562L6.375 9.93745H2.59375C1.67708 9.93745 0.984375 9.54161 0.515625 8.74995C0.046875 7.95828 0.041666 7.1562 0.5 6.3437L3.09375 1.6562C3.34375 1.23953 3.68229 0.916614 4.10938 0.687448C4.53646 0.458281 4.98958 0.374948 5.46875 0.437448L12.8438 1.24995L14.75 1.24995C15.1458 1.24995 15.4844 1.39057 15.7656 1.67182C16.0469 1.95307 16.1875 2.29161 16.1875 2.68745V8.4687C16.1875 8.88536 16.0469 9.23432 15.7656 9.51557C15.4844 9.79682 15.1458 9.93745 14.75 9.93745H13.0313L7.6875 15.2499ZM13.3125 8.9687H14.75C14.875 8.9687 14.9844 8.92182 15.0781 8.82807C15.1719 8.73432 15.2188 8.61453 15.2188 8.4687L15.2188 2.68745C15.2188 2.56245 15.1719 2.45307 15.0781 2.35932C14.9844 2.26557 14.875 2.2187 14.75 2.2187L13.3125 2.2187V8.9687ZM12.3438 2.1562L5.375 1.4062C5.08333 1.36453 4.80729 1.41141 4.54688 1.54682C4.28646 1.68224 4.08333 1.87495 3.9375 2.12495L1.34375 6.81245C1.07292 7.29161 1.07813 7.77078 1.35938 8.24995C1.64063 8.72911 2.05208 8.9687 2.59375 8.9687H7.03125C7.11458 8.9687 7.1875 8.98432 7.25 9.01557C7.3125 9.04682 7.375 9.0937 7.4375 9.1562C7.47917 9.2187 7.50521 9.29161 7.51563 9.37495C7.52604 9.45828 7.52083 9.5312 7.5 9.5937L6.03125 13.9687C5.96875 14.1562 5.99479 14.3333 6.10938 14.4999C6.22396 14.6666 6.38542 14.7499 6.59375 14.7499C6.67708 14.7499 6.75521 14.7343 6.82813 14.7031C6.90104 14.6718 6.95833 14.6249 7 14.5624L12.3438 9.24995V2.1562Z" fill="#999999"/>
</g>
<defs>
<clipPath id="clip0_157_4392">
<rect width="16" height="16" fill="white" transform="matrix(-1 0 0 1 16 0)"/>
</clipPath>
</defs>
</svg>
