<svg width="14" height="19" viewBox="0 0 14 19" fill="none" xmlns="http://www.w3.org/2000/svg">
<path d="M13.3907 10.9075C13.3901 10.9073 6.64352 9.48385 6.64352 9.48385C4.6326 9.05955 3.37113 7.19559 3.82607 5.32053C4.28128 3.44548 6.28044 2.26957 8.29136 2.69374C10.3024 3.11807 11.5638 4.98201 11.1088 6.85693C10.8808 7.79568 10.2658 8.5585 9.45604 9.03373C9.45591 9.03373 9.45395 9.03527 9.45319 9.03564C9.42937 9.05158 9.41397 9.07753 9.41397 9.10671C9.41397 9.1476 9.44425 9.18198 9.48516 9.19115C9.48529 9.19127 12.4865 9.82404 12.487 9.82404C12.5584 9.83915 12.6325 9.81345 12.6764 9.7594C12.6767 9.75891 12.6766 9.75928 12.6766 9.75928C13.5034 8.73921 14 7.46642 14 6.08975C14 2.84771 11.2833 0.198217 7.85673 0.0100365C7.82619 0.008461 7.64049 0.00169754 7.57775 0.000864029C6.06059 -0.0213432 4.52233 0.384266 3.18466 1.25772C-0.193449 3.46309 -1.0142 7.80399 1.35088 10.9535L7.35336 18.9463C7.379 18.9789 7.42027 19 7.46658 19C7.51329 19 7.55469 18.9785 7.5802 18.9457C7.5802 18.9457 13.4745 11.1083 13.475 11.1076C13.49 11.0868 13.499 11.0616 13.499 11.0346C13.499 10.9726 13.4528 10.9207 13.3907 10.9075Z" fill="#FFE100"/>
</svg>
