<svg viewBox="0 0 127 51" fill="none" xmlns="http://www.w3.org/2000/svg">
<g clip-path="url(#clip0_22_733)">
<path d="M112.023 22.6399H107.733V31.1715C107.733 33.6037 108.8 34.0559 110.178 34.0559C110.656 34.0559 111.167 33.9742 111.689 33.8886L112.022 37.7123C110.9 37.9531 109.4 38.158 108.422 38.158C105.477 38.158 102.855 36.9164 102.855 32.5575V22.6401H100.377V18.87H102.855V14.716L107.733 13.0518V18.87H112.023V22.6399ZM98.888 37.7658H94.0098V25.6342C94.0098 23.8482 93.3875 22.8608 91.7095 22.8608C90.4428 22.8608 89.6315 23.594 88.7204 24.469V37.7658H83.8311V18.8698H88.5759V20.5343C90.1649 19.2474 91.9874 18.4298 93.9653 18.4298C97.0768 18.4298 98.888 20.7549 98.888 24.3016V37.7658Z" fill="#82A374"/>
<path d="M73.7748 2.78906C71.2969 7.82482 72.3745 12.3856 69.9521 15.2927C68.0186 17.6299 66.2185 17.5509 64.1073 17.5509C63.3627 17.5509 61.9404 17.6299 61.3403 18.1517C60.996 16.8219 60.8403 15.3583 60.8403 13.9615C60.8403 11.5655 61.2848 9.4342 62.7182 7.71254C65.4628 4.41206 70.4299 3.36451 73.7748 2.78906Z" fill="#82A374"/>
<path d="M47.317 37.7667H42.4388V25.6351C42.4388 23.849 41.8165 22.8616 40.1387 22.8616C38.8828 22.8616 38.0605 23.5949 37.1494 24.4698V37.7667H32.2712V18.8707H37.016V20.5351C38.6051 19.2482 40.4275 18.4307 42.3943 18.4307C45.5058 18.4307 47.317 20.7558 47.317 24.3024V37.7667ZM31.4934 18.8709L23.6705 41.7601C22.4704 45.2747 20.0589 47.8553 16.7698 47.8553C15.1253 47.8553 14.2475 47.5971 13.1807 47.3029L13.8696 43.5314C14.7364 43.7642 15.392 43.8646 15.9809 43.8646C17.9476 43.8646 18.9921 41.8563 19.9479 39.0991L20.4035 37.7667L14.3252 18.8707H19.5701L22.4259 28.2371C22.7702 29.3662 22.9703 30.5263 23.1258 31.3395C23.3036 30.5194 23.6482 29.159 23.9927 28.0713L26.9374 18.8709H31.4934Z" fill="#82A374"/>
<path d="M14.2583 31.7271C14.2583 35.841 11.1025 38.1006 7.3577 38.1006C4.91295 38.1006 2.94616 37.6096 0.868164 36.6062L2.20166 32.7826C3.43511 33.382 5.21295 34.0563 6.6688 34.0563C7.8022 34.0563 9.38009 33.889 9.38009 32.2274C9.38009 31.4502 8.9802 31.0501 8.22439 30.7866C7.29094 30.4548 5.85755 30.1565 4.91295 29.8447C2.92402 29.1838 1.27937 27.9263 1.27937 24.4131C1.27937 20.5172 4.03526 18.0957 7.81335 18.0957C10.3135 18.0957 11.8914 18.4904 13.2917 18.9827L12.0471 22.8063C11.4358 22.4665 9.70239 21.9742 8.45779 21.9742C7.11314 21.9742 6.202 22.591 6.202 23.5824C6.202 24.0733 6.45771 24.6914 7.16875 24.9683C7.93555 25.2626 9.14685 25.5301 10.1579 25.7977C12.247 26.3477 14.2583 27.7846 14.2583 31.7273M122.134 32.7252V29.2335C119.879 29.1879 117.756 29.4621 117.756 32.0591C117.756 33.6671 118.89 34.1674 119.745 34.1674C120.757 34.1674 121.534 33.556 122.134 32.7252ZM126.868 37.7662H122.268V36.2732C121.079 37.5454 119.523 38.1582 117.812 38.1582C114.889 38.1582 112.889 36.4552 112.889 32.8924C112.889 26.6287 118.079 25.6547 122.134 25.6347V25.1316C122.134 23.5783 121.646 22.472 119.334 22.472C117.767 22.472 115.989 23.4057 114.823 24.2473L113.623 20.7554C115.701 19.4001 118.267 18.4302 120.701 18.4302C124.446 18.4302 126.868 20.5829 126.868 24.3582V37.7662ZM76.6193 25.7977C76.7082 23.7147 75.8415 22.4171 74.1414 22.4171C72.4968 22.4171 71.5189 23.8713 71.241 25.7977H76.6193ZM81.642 27.628C81.642 28.2501 81.6309 28.8989 81.5976 29.5664H71.1966C71.241 32.3158 72.3744 33.9452 75.7082 33.9452C77.1749 33.9452 78.9529 33.1399 79.7085 32.5032L80.9974 35.995C78.8528 37.3996 76.5416 38.1582 73.9525 38.1582C69.0743 38.1582 66.0406 34.3747 66.0406 28.3463C66.0406 22.219 70.0187 18.4302 74.3191 18.4302C79.6864 18.4302 81.642 22.1978 81.642 27.628ZM60.9959 40.8727C60.9959 39.3301 59.9734 38.7655 58.9289 38.7655H54.6508C53.9951 39.2123 52.995 40.1984 52.995 41.4828C52.995 43.1404 54.8506 44.252 57.0398 44.252C59.3178 44.252 60.9959 42.9945 60.9959 40.8727ZM59.7067 24.6338C59.7067 23.0511 58.9845 21.7521 57.3621 21.7521C55.8841 21.7521 54.973 23.2613 54.973 24.6338C54.973 26.2206 55.7952 27.5155 57.2731 27.5155C58.8956 27.5155 59.7067 26.2124 59.7067 24.6338ZM65.8851 40.0968C65.8851 45.6088 61.318 48.16 56.8176 48.1894C52.8505 48.2108 49.0392 46.8394 49.0392 42.2573C49.0392 40.1155 50.6059 38.6826 51.5617 37.9348C51.0392 37.5709 50.5503 37.2832 50.1393 36.7173C49.7059 36.118 49.3503 35.2417 49.3503 33.7769C49.3503 31.9332 50.706 30.2234 52.3506 29.1237C51.4393 28.5471 50.2283 27.6214 50.2283 24.5229C50.2283 20.4959 53.4061 18.3726 57.5509 18.3726C61.0736 18.3726 64.4517 19.3869 64.4517 24.3582C64.4517 29.1064 60.7513 30.8374 56.9954 30.8374C56.2955 30.8374 55.6732 30.7089 55.0619 30.5645C54.6618 30.8214 53.8617 31.4568 53.8617 32.1714C53.8617 33.6229 55.5064 33.8356 56.262 33.8356H60.129C63.707 33.8356 65.8849 35.928 65.8849 40.0968" fill="#82A374"/>
</g>
<defs>
<clipPath id="clip0_22_733">
<rect width="126" height="50" fill="white" transform="translate(0.868164 0.5)"/>
</clipPath>
</defs>
</svg>
