<svg width="19" height="16" viewBox="0 0 19 16" fill="none" xmlns="http://www.w3.org/2000/svg">
<path d="M19.0001 2.80995C18.8637 3.24425 18.7228 3.67712 18.5922 4.11285C17.9877 6.13114 17.3865 8.1505 16.7834 10.1691C16.6704 10.5472 16.5001 10.6679 16.0874 10.6679C12.8159 10.6679 9.54439 10.6679 6.27289 10.6679C5.82709 10.6679 5.56906 10.8635 5.56869 11.2009C5.56832 11.5369 5.82858 11.7343 6.27251 11.7343C9.5377 11.7343 12.8029 11.7343 16.0684 11.7343C16.5139 11.7343 16.7726 11.9306 16.7726 12.2676C16.7726 12.6043 16.5135 12.8009 16.0688 12.8009C15.8346 12.8009 15.6003 12.8009 15.3181 12.8009C16.361 13.0635 16.8745 13.7583 16.7425 14.6757C16.6369 15.4099 15.8963 16.006 15.0973 15.9999C14.2302 15.9935 13.5353 15.3825 13.4476 14.521C13.3755 13.8128 13.8372 13.0186 14.8798 12.8088H7.50319C7.95716 12.906 8.33528 13.1195 8.60224 13.4882C8.86771 13.8552 8.95025 14.2638 8.87328 14.7056C8.74576 15.437 7.98244 16.0295 7.19868 15.9989C6.30932 15.9639 5.64082 15.3373 5.57203 14.474C5.51031 13.6998 6.10855 12.9926 6.97039 12.8009C6.70418 12.8009 6.43797 12.8034 6.17175 12.8006C5.38427 12.7913 4.75481 12.3552 4.53321 11.6687C4.2986 10.9419 4.62654 10.1684 5.32478 9.80147C5.36717 9.77903 5.40881 9.7548 5.45901 9.72701C4.78976 6.84084 4.12163 3.96 3.45052 1.06706C3.14081 1.06706 2.8389 1.06706 2.53662 1.06706C1.88745 1.06706 1.23791 1.07062 0.588742 1.06563C0.163398 1.06243 -0.109878 0.695107 0.0436768 0.337764C0.134397 0.127206 0.307658 0.00536068 0.545612 0.00429186C1.65879 -0.000695976 2.77198 -0.00212107 3.88516 0.00429186C4.19524 0.00607323 4.38189 0.177085 4.45625 0.49025C4.58489 1.03214 4.70982 1.57475 4.84032 2.13445H5.08014C9.47077 2.13445 13.8618 2.13695 18.2524 2.12982C18.5967 2.12911 18.8521 2.21782 19.0005 2.52564L19.0001 2.80995ZM5.08757 3.20862C5.58319 5.34555 6.07657 7.47251 6.56884 9.59484H15.7989C16.4336 7.46645 17.0671 5.34199 17.7033 3.20862H5.08757ZM7.79208 14.4163C7.80063 14.127 7.55449 13.878 7.25222 13.8698C6.95031 13.8616 6.69042 14.0974 6.68187 14.3871C6.67332 14.6764 6.91945 14.9254 7.22173 14.9336C7.52364 14.9418 7.78353 14.7059 7.79208 14.4163ZM15.6591 14.3974C15.6565 14.107 15.4018 13.8673 15.0991 13.8698C14.7965 13.8723 14.5459 14.1163 14.5485 14.4063C14.5511 14.6963 14.8058 14.9365 15.1084 14.934C15.4111 14.9315 15.6617 14.6874 15.6591 14.3974Z" fill="#D93A3F"/>
</svg>
