<svg width="26" height="26" viewBox="0 0 26 26" fill="none" xmlns="http://www.w3.org/2000/svg">
<mask id="path-1-inside-1_311_1404" fill="white">
<path d="M25.9778 5.22469C25.59 4.80372 25.2021 4.38273 24.8142 3.96176C24.0877 3.17321 23.3612 2.38467 22.6347 1.59612C22.3494 1.28639 22.064 0.976666 21.7786 0.666939C21.6552 0.533003 21.5357 0.387442 21.4061 0.262596C21.2279 0.0909796 20.955 0.123393 20.7311 0.122811C20.5604 0.122353 20.3897 0.121896 20.219 0.121438C19.5853 0.119747 18.9517 0.118055 18.318 0.116364C17.4251 0.113986 16.5321 0.11159 15.6392 0.109212C15.0356 0.107592 14.432 0.105988 13.8283 0.104367C13.484 -0.0384115 13.0597 -0.0301491 12.7166 0.101391C12.6992 0.101338 12.6817 0.101302 12.6643 0.101249C11.7217 0.0987302 10.7791 0.0962113 9.83647 0.0936922C9.10334 0.0917368 8.37021 0.0897812 7.63709 0.0878081C7.26994 0.0868216 6.90276 0.0844436 6.5356 0.0848664C6.51932 0.084884 6.50303 0.0847785 6.48674 0.0847433C6.38592 0.084479 5.95209 0.0777498 5.94012 0.272232C5.92891 0.454524 6.42821 0.459562 6.48674 0.45972C6.96508 0.461006 7.44342 0.462275 7.92177 0.463561C9.07003 0.466626 10.2183 0.469691 11.3665 0.472774C11.6399 0.473496 11.9132 0.474236 12.1866 0.474959C12.1425 0.518277 12.0988 0.562687 12.0552 0.60715C11.6419 1.02811 11.2286 1.44904 10.8152 1.87C10.0882 2.61053 9.36107 3.35106 8.63398 4.09161C7.67641 2.78415 6.71885 1.47672 5.76128 0.169266C5.65909 0.0297281 5.36799 0.0295691 5.23419 0.0316126C5.08292 0.0339379 4.82198 0.0227521 4.7071 0.169266C3.96319 1.11802 3.22467 2.0732 2.48624 3.02842C1.80287 3.9124 1.12031 4.79736 0.43831 5.68298C0.298762 5.86418 0.159228 6.04539 0.0197788 6.2267C-0.11937 6.4076 0.520367 6.46485 0.546872 6.46402C3.68814 6.36673 6.82994 6.28816 9.9722 6.26644C13.1249 6.24465 16.2782 6.27921 19.4292 6.4137C19.541 6.41847 19.6528 6.42337 19.7646 6.42839C19.7965 6.42981 19.8284 6.43128 19.8603 6.43272C19.7282 6.42673 19.9316 6.43607 19.9543 6.43714C20.1774 6.44769 20.4004 6.45878 20.6235 6.4704C21.0682 6.49358 21.5129 6.51892 21.9575 6.54656C22.6571 6.59007 23.3564 6.63973 24.0555 6.69529C22.5332 9.07766 21.0324 11.4808 19.5376 13.8894C17.9718 16.4121 16.412 18.9406 14.8408 21.4583C14.1164 22.6191 13.3894 23.7775 12.6587 24.9323C11.3262 22.8361 10.003 20.7308 8.68208 18.6234C7.17631 16.221 5.67386 13.8154 4.16537 11.4156C3.39983 10.1978 2.63258 8.98155 1.86223 7.76831C2.48285 7.76831 3.10346 7.76831 3.72409 7.76831C5.07446 7.76831 6.42484 7.76831 7.77521 7.76831C7.91997 7.76831 8.06473 7.76831 8.20949 7.76831C8.32457 8.23272 8.43964 8.69712 8.55472 9.16153C8.86571 10.4165 9.17669 11.6715 9.48766 12.9265C9.86604 14.4535 10.2444 15.9805 10.6228 17.5074C10.9478 18.8189 11.2728 20.1305 11.5977 21.442C11.7559 22.0803 11.8946 22.7326 12.0737 23.3627C12.0762 23.3716 12.0782 23.3809 12.0804 23.3899C12.1298 23.5893 12.4976 23.5794 12.627 23.5774C12.7644 23.5753 13.1121 23.594 13.1737 23.3899C13.3281 22.8778 13.4826 22.3657 13.637 21.8536C14.0078 20.6243 14.3786 19.3951 14.7494 18.1658C15.1948 16.6891 15.6401 15.2125 16.0855 13.7358C16.4731 12.451 16.8606 11.1661 17.2481 9.88129C17.3751 9.46018 17.5022 9.03908 17.6292 8.61797C17.6732 8.47193 17.7226 8.32614 17.7661 8.17873C18.7606 8.18998 19.7552 8.20126 20.7498 8.21251C20.915 8.21438 21.0802 8.21625 21.2454 8.21812C21.3461 8.21926 21.78 8.22451 21.792 8.03063C21.8032 7.848 21.3039 7.84381 21.2454 7.84314C20.0865 7.83002 18.9277 7.81689 17.7689 7.80377C17.6037 7.8019 17.4385 7.80003 17.2733 7.79815C17.14 7.79663 16.7863 7.78814 16.7267 7.98564C16.5722 8.49774 16.4178 9.00984 16.2633 9.52194C15.8925 10.7512 15.5217 11.9805 15.151 13.2098C14.7056 14.6864 14.2602 16.1631 13.8148 17.6397C13.4367 18.8932 13.0587 20.1466 12.6806 21.4001C12.4034 20.2815 12.1262 19.1628 11.849 18.0442C11.4707 16.5173 11.0923 14.9903 10.7139 13.4633C10.3889 12.1518 10.0639 10.8403 9.73895 9.52876C9.58078 8.89045 9.44206 8.23813 9.26303 7.60809C9.26049 7.59914 9.25852 7.58989 9.25628 7.58082C9.20722 7.38285 8.82373 7.39333 8.70966 7.39333C7.86316 7.39333 7.01665 7.39333 6.17015 7.39333C4.81978 7.39333 3.4694 7.39333 2.11903 7.39333C1.80755 7.39333 1.49608 7.39333 1.1846 7.39333C1.14644 7.39333 0.5313 7.43207 0.657503 7.63065C2.13643 9.95776 3.60337 12.2964 5.06884 14.6364C6.58196 17.0525 8.09314 19.4705 9.61169 21.8814C10.4492 23.211 11.2889 24.5385 12.1328 25.8619C12.223 26.0033 12.5366 26.0015 12.6599 25.9996C12.7521 25.9982 12.8446 25.9912 12.9358 25.974C12.9952 25.9628 13.1422 25.9325 13.187 25.8619C14.7916 23.3363 16.376 20.7914 17.9561 18.2424C19.5075 15.7395 21.055 13.2329 22.6164 10.7394C23.4825 9.35615 24.353 7.97707 25.2308 6.60502C25.342 6.43121 24.8871 6.37758 24.849 6.37439C21.6832 6.10911 18.5105 5.97333 15.3379 5.91685C12.1686 5.86042 8.99862 5.88486 5.82951 5.9497C4.31083 5.98078 2.79228 6.02131 1.27383 6.06685C1.60007 5.64297 1.92643 5.21921 2.25298 4.79572C3.0308 3.78699 3.80921 2.77896 4.5895 1.77314C4.79856 1.50367 5.00777 1.23439 5.21726 0.965427C6.15491 2.24568 7.09255 3.52593 8.03021 4.80619C8.13241 4.94572 8.42351 4.94588 8.55731 4.94384C8.723 4.9413 8.94952 4.94356 9.0844 4.80619C9.86015 4.0161 10.6359 3.226 11.4116 2.43592C11.7995 2.04087 12.1874 1.64583 12.5753 1.25077C12.766 1.05648 12.9568 0.862196 13.1475 0.667925C13.1769 0.638048 13.2061 0.607396 13.2357 0.577202C13.386 0.758208 13.5187 0.971505 13.655 1.15979C13.8682 1.45431 14.0815 1.74885 14.2948 2.04338C14.7213 2.63243 15.1478 3.22147 15.5743 3.81052C15.8085 4.13403 16.0428 4.45753 16.277 4.78101C16.3782 4.92074 16.6712 4.92071 16.8041 4.91867C16.9668 4.91616 17.2005 4.92074 17.3312 4.78101C17.7915 4.28871 18.2519 3.79641 18.7122 3.30411C19.4392 2.52669 20.1661 1.74928 20.8931 0.971857C21.2318 1.33766 21.5705 1.70346 21.9093 2.06924C22.7272 2.95249 23.5452 3.83573 24.3631 4.71899C24.5499 4.92076 24.7368 5.12252 24.9236 5.3243C25.0821 5.49537 25.4011 5.47745 25.596 5.45524C25.6418 5.45011 26.1055 5.3633 25.9778 5.22469ZM16.8711 4.04601C16.3638 3.34526 15.8564 2.64449 15.3489 1.94374C15.1227 1.63133 14.8965 1.31895 14.6703 1.00654C14.5498 0.840123 14.4301 0.647667 14.2952 0.48056C14.703 0.481652 15.1109 0.482745 15.5187 0.483837C16.7148 0.487025 17.9108 0.490232 19.107 0.49342C19.4666 0.494389 19.8265 0.499181 20.1863 0.500696C19.7867 0.928028 19.3871 1.35536 18.9875 1.78271C18.2821 2.53716 17.5766 3.29159 16.8711 4.04601Z"/>
</mask>
<path d="M25.9778 5.22469C25.59 4.80372 25.2021 4.38273 24.8142 3.96176C24.0877 3.17321 23.3612 2.38467 22.6347 1.59612C22.3494 1.28639 22.064 0.976666 21.7786 0.666939C21.6552 0.533003 21.5357 0.387442 21.4061 0.262596C21.2279 0.0909796 20.955 0.123393 20.7311 0.122811C20.5604 0.122353 20.3897 0.121896 20.219 0.121438C19.5853 0.119747 18.9517 0.118055 18.318 0.116364C17.4251 0.113986 16.5321 0.11159 15.6392 0.109212C15.0356 0.107592 14.432 0.105988 13.8283 0.104367C13.484 -0.0384115 13.0597 -0.0301491 12.7166 0.101391C12.6992 0.101338 12.6817 0.101302 12.6643 0.101249C11.7217 0.0987302 10.7791 0.0962113 9.83647 0.0936922C9.10334 0.0917368 8.37021 0.0897812 7.63709 0.0878081C7.26994 0.0868216 6.90276 0.0844436 6.5356 0.0848664C6.51932 0.084884 6.50303 0.0847785 6.48674 0.0847433C6.38592 0.084479 5.95209 0.0777498 5.94012 0.272232C5.92891 0.454524 6.42821 0.459562 6.48674 0.45972C6.96508 0.461006 7.44342 0.462275 7.92177 0.463561C9.07003 0.466626 10.2183 0.469691 11.3665 0.472774C11.6399 0.473496 11.9132 0.474236 12.1866 0.474959C12.1425 0.518277 12.0988 0.562687 12.0552 0.60715C11.6419 1.02811 11.2286 1.44904 10.8152 1.87C10.0882 2.61053 9.36107 3.35106 8.63398 4.09161C7.67641 2.78415 6.71885 1.47672 5.76128 0.169266C5.65909 0.0297281 5.36799 0.0295691 5.23419 0.0316126C5.08292 0.0339379 4.82198 0.0227521 4.7071 0.169266C3.96319 1.11802 3.22467 2.0732 2.48624 3.02842C1.80287 3.9124 1.12031 4.79736 0.43831 5.68298C0.298762 5.86418 0.159228 6.04539 0.0197788 6.2267C-0.11937 6.4076 0.520367 6.46485 0.546872 6.46402C3.68814 6.36673 6.82994 6.28816 9.9722 6.26644C13.1249 6.24465 16.2782 6.27921 19.4292 6.4137C19.541 6.41847 19.6528 6.42337 19.7646 6.42839C19.7965 6.42981 19.8284 6.43128 19.8603 6.43272C19.7282 6.42673 19.9316 6.43607 19.9543 6.43714C20.1774 6.44769 20.4004 6.45878 20.6235 6.4704C21.0682 6.49358 21.5129 6.51892 21.9575 6.54656C22.6571 6.59007 23.3564 6.63973 24.0555 6.69529C22.5332 9.07766 21.0324 11.4808 19.5376 13.8894C17.9718 16.4121 16.412 18.9406 14.8408 21.4583C14.1164 22.6191 13.3894 23.7775 12.6587 24.9323C11.3262 22.8361 10.003 20.7308 8.68208 18.6234C7.17631 16.221 5.67386 13.8154 4.16537 11.4156C3.39983 10.1978 2.63258 8.98155 1.86223 7.76831C2.48285 7.76831 3.10346 7.76831 3.72409 7.76831C5.07446 7.76831 6.42484 7.76831 7.77521 7.76831C7.91997 7.76831 8.06473 7.76831 8.20949 7.76831C8.32457 8.23272 8.43964 8.69712 8.55472 9.16153C8.86571 10.4165 9.17669 11.6715 9.48766 12.9265C9.86604 14.4535 10.2444 15.9805 10.6228 17.5074C10.9478 18.8189 11.2728 20.1305 11.5977 21.442C11.7559 22.0803 11.8946 22.7326 12.0737 23.3627C12.0762 23.3716 12.0782 23.3809 12.0804 23.3899C12.1298 23.5893 12.4976 23.5794 12.627 23.5774C12.7644 23.5753 13.1121 23.594 13.1737 23.3899C13.3281 22.8778 13.4826 22.3657 13.637 21.8536C14.0078 20.6243 14.3786 19.3951 14.7494 18.1658C15.1948 16.6891 15.6401 15.2125 16.0855 13.7358C16.4731 12.451 16.8606 11.1661 17.2481 9.88129C17.3751 9.46018 17.5022 9.03908 17.6292 8.61797C17.6732 8.47193 17.7226 8.32614 17.7661 8.17873C18.7606 8.18998 19.7552 8.20126 20.7498 8.21251C20.915 8.21438 21.0802 8.21625 21.2454 8.21812C21.3461 8.21926 21.78 8.22451 21.792 8.03063C21.8032 7.848 21.3039 7.84381 21.2454 7.84314C20.0865 7.83002 18.9277 7.81689 17.7689 7.80377C17.6037 7.8019 17.4385 7.80003 17.2733 7.79815C17.14 7.79663 16.7863 7.78814 16.7267 7.98564C16.5722 8.49774 16.4178 9.00984 16.2633 9.52194C15.8925 10.7512 15.5217 11.9805 15.151 13.2098C14.7056 14.6864 14.2602 16.1631 13.8148 17.6397C13.4367 18.8932 13.0587 20.1466 12.6806 21.4001C12.4034 20.2815 12.1262 19.1628 11.849 18.0442C11.4707 16.5173 11.0923 14.9903 10.7139 13.4633C10.3889 12.1518 10.0639 10.8403 9.73895 9.52876C9.58078 8.89045 9.44206 8.23813 9.26303 7.60809C9.26049 7.59914 9.25852 7.58989 9.25628 7.58082C9.20722 7.38285 8.82373 7.39333 8.70966 7.39333C7.86316 7.39333 7.01665 7.39333 6.17015 7.39333C4.81978 7.39333 3.4694 7.39333 2.11903 7.39333C1.80755 7.39333 1.49608 7.39333 1.1846 7.39333C1.14644 7.39333 0.5313 7.43207 0.657503 7.63065C2.13643 9.95776 3.60337 12.2964 5.06884 14.6364C6.58196 17.0525 8.09314 19.4705 9.61169 21.8814C10.4492 23.211 11.2889 24.5385 12.1328 25.8619C12.223 26.0033 12.5366 26.0015 12.6599 25.9996C12.7521 25.9982 12.8446 25.9912 12.9358 25.974C12.9952 25.9628 13.1422 25.9325 13.187 25.8619C14.7916 23.3363 16.376 20.7914 17.9561 18.2424C19.5075 15.7395 21.055 13.2329 22.6164 10.7394C23.4825 9.35615 24.353 7.97707 25.2308 6.60502C25.342 6.43121 24.8871 6.37758 24.849 6.37439C21.6832 6.10911 18.5105 5.97333 15.3379 5.91685C12.1686 5.86042 8.99862 5.88486 5.82951 5.9497C4.31083 5.98078 2.79228 6.02131 1.27383 6.06685C1.60007 5.64297 1.92643 5.21921 2.25298 4.79572C3.0308 3.78699 3.80921 2.77896 4.5895 1.77314C4.79856 1.50367 5.00777 1.23439 5.21726 0.965427C6.15491 2.24568 7.09255 3.52593 8.03021 4.80619C8.13241 4.94572 8.42351 4.94588 8.55731 4.94384C8.723 4.9413 8.94952 4.94356 9.0844 4.80619C9.86015 4.0161 10.6359 3.226 11.4116 2.43592C11.7995 2.04087 12.1874 1.64583 12.5753 1.25077C12.766 1.05648 12.9568 0.862196 13.1475 0.667925C13.1769 0.638048 13.2061 0.607396 13.2357 0.577202C13.386 0.758208 13.5187 0.971505 13.655 1.15979C13.8682 1.45431 14.0815 1.74885 14.2948 2.04338C14.7213 2.63243 15.1478 3.22147 15.5743 3.81052C15.8085 4.13403 16.0428 4.45753 16.277 4.78101C16.3782 4.92074 16.6712 4.92071 16.8041 4.91867C16.9668 4.91616 17.2005 4.92074 17.3312 4.78101C17.7915 4.28871 18.2519 3.79641 18.7122 3.30411C19.4392 2.52669 20.1661 1.74928 20.8931 0.971857C21.2318 1.33766 21.5705 1.70346 21.9093 2.06924C22.7272 2.95249 23.5452 3.83573 24.3631 4.71899C24.5499 4.92076 24.7368 5.12252 24.9236 5.3243C25.0821 5.49537 25.4011 5.47745 25.596 5.45524C25.6418 5.45011 26.1055 5.3633 25.9778 5.22469ZM16.8711 4.04601C16.3638 3.34526 15.8564 2.64449 15.3489 1.94374C15.1227 1.63133 14.8965 1.31895 14.6703 1.00654C14.5498 0.840123 14.4301 0.647667 14.2952 0.48056C14.703 0.481652 15.1109 0.482745 15.5187 0.483837C16.7148 0.487025 17.9108 0.490232 19.107 0.49342C19.4666 0.494389 19.8265 0.499181 20.1863 0.500696C19.7867 0.928028 19.3871 1.35536 18.9875 1.78271C18.2821 2.53716 17.5766 3.29159 16.8711 4.04601Z" fill="#05172F" stroke="#05172F" stroke-width="2000" mask="url(#path-1-inside-1_311_1404)"/>
</svg>
