<svg viewBox="0 0 28 25" fill="none" xmlns="http://www.w3.org/2000/svg">
<mask id="mask0_4_3655" style="mask-type:luminance" maskUnits="userSpaceOnUse" x="0" y="0" width="28" height="25">
<path d="M28 0H0V25H28V0Z" fill="white"/>
</mask>
<g mask="url(#mask0_4_3655)">
<path d="M19.4682 0.00508882L19.5694 0.00644258C24.0997 -0.0491313 27.9525 3.61623 27.9951 8.12296C28.0135 10.0601 27.3229 12.0263 26.0139 13.4838C25.5897 13.9561 25.1011 14.3825 24.6495 14.8302L14.8626 24.4947C14.1479 25.2108 13.7997 25.123 13.1134 24.4504L9.89402 21.2742L2.30555 13.8174C-2.35969 9.20872 0.478743 1.07517 7.09749 0.0940425C9.66416 -0.286404 12.1565 0.56457 13.9924 2.38105C15.4764 0.930485 17.3443 0.0350661 19.4682 0.00508882ZM8.09866 1.69718C7.69696 1.73058 7.29723 1.76815 6.90335 1.85701C2.48912 2.85274 0.270964 7.95074 2.75059 11.6622C3.22797 12.3767 3.89265 12.9515 4.5068 13.5497L14.0073 22.915L18.3753 18.5987L24.0897 12.9653C24.5061 12.5626 24.9227 12.155 25.2361 11.6658C27.331 8.39718 26.0302 4.17811 22.6501 2.41318C20.1243 1.09436 17.4128 1.59751 15.3654 3.45311L14.8757 3.92314C14.6742 4.12378 14.4824 4.34942 14.1942 4.42307L14.1645 4.431C13.5587 4.54873 13.0692 3.85769 12.696 3.50223C11.4289 2.2953 9.85737 1.63616 8.09866 1.69718Z" fill="#D93A3F"/>
</g>
<path d="M8.5618 4.0861L8.86047 4.07721C10.6051 4.0694 11.4268 4.80251 12.5935 5.89211L13.9961 7.21695L15.9458 5.40295C16.5169 4.90723 16.9026 4.58858 17.6246 4.34608C21.7292 2.96767 25.6595 7.42249 23.2836 11.0599C23.099 11.3425 22.861 11.5863 22.6242 11.8264L18.6967 15.5895L16.7909 17.4139C16.2727 17.8985 14.8305 19.3176 14.0921 19.3975C13.0978 19.5053 10.448 16.6798 9.76692 16.0161L5.80802 12.2267C5.43574 11.87 5.03781 11.5451 4.74329 11.1179C2.90956 8.45774 4.67875 4.87278 7.77907 4.18999C8.0395 4.13261 8.29667 4.10992 8.5618 4.0861Z" fill="#D93A3F"/>
</svg>
