<svg width="30" height="28" viewBox="0 0 30 28" fill="none" xmlns="http://www.w3.org/2000/svg">
<path fill-rule="evenodd" clip-rule="evenodd" d="M26.234 12.0204L24.3174 10.1633V2.74597C24.3174 2.22756 23.8657 1.80599 23.3103 1.80599H21.2411C20.6857 1.80599 20.234 2.22756 20.234 2.74597V6.20396L16.0956 2.18768C15.7965 1.89714 15.4303 1.74902 14.9969 1.74902C14.5636 1.74902 14.1974 1.89144 13.8983 2.18768L3.77213 12.0204C3.33876 12.4363 3.22279 13.0288 3.46694 13.5643C3.71109 14.0998 4.24822 14.4302 4.8708 14.4302H5.6826V24.8213C5.6826 25.6074 6.36622 26.2455 7.20854 26.2455H12.0855V19.4491C12.0855 18.663 12.7691 18.0249 13.6114 18.0249H16.3886C17.2309 18.0249 17.9145 18.663 17.9145 19.4491V26.2512H22.7915C23.6338 26.2512 24.3174 25.6131 24.3174 24.8269V14.4359H25.1292C25.7518 14.4359 26.2889 14.1055 26.5331 13.57C26.7772 13.0345 26.6612 12.442 26.234 12.0204Z" fill="#D93A3F"/>
</svg>
