<svg width="100" height="100" viewBox="0 0 100 100" fill="none" xmlns="http://www.w3.org/2000/svg">
<path d="M48.1158 51.3926L1.65532 68.2974C-0.324831 69.0179 -0.592798 71.6091 1.20096 72.6912L45.8431 99.6238C46.6451 100.108 47.659 100.126 48.4793 99.6716L97.2245 72.6685C99.1029 71.6279 98.8724 68.9513 96.8416 68.2228L49.9148 51.3885C49.3344 51.1803 48.6952 51.1817 48.1158 51.3926Z" fill="#EDEEF2"/>
<path d="M50.807 91.5757L81.6242 74.0732C82.3113 73.683 82.779 73.0154 82.8976 72.2559L87.031 45.7759L49.9035 63.5053L47.5723 90.9349L48.7302 91.5825C49.3728 91.9418 50.1669 91.9393 50.807 91.5757Z" fill="#9E0000"/>
<path d="M49.9029 63.5053L49.7831 90.1165C49.779 91.028 48.7524 91.5942 47.9335 91.1366L25.4607 78.5777L15.6868 73.111C14.8725 72.6555 14.3463 71.8405 14.2824 70.936L12.5566 46.4966L49.9029 63.5053Z" fill="#C40000"/>
<path d="M12.9346 42.2093L49.1659 26.9541L87.0651 42.3444L52.0643 63.4309L12.9346 42.2093Z" fill="#9E0000"/>
<path d="M11.2519 34.665L49.3258 20.5396L49.014 33.0391L10.1157 46.4982L9.74769 36.8604C9.71083 35.8944 10.3151 35.0125 11.2519 34.665Z" fill="#E00B0B"/>
<path d="M49.3256 20.5396L89.7681 35.0586C90.4772 35.3131 90.9205 35.9942 90.8493 36.7196L90.6028 39.231L87.2416 47.6987L49.0138 33.0392L49.3256 20.5396Z" fill="#C40000"/>
<path d="M89.4784 17.8366L84.3276 45.6786C84.1714 46.529 83.3287 47.0983 82.4454 46.9478L71.5663 45.0833L57.9284 42.7478C57.045 42.5974 56.4538 41.7796 56.6169 40.9293L61.7609 13.0872C63.0587 13.3096 64.2955 12.4788 64.5265 11.2358L66.6126 11.5957L87.5485 15.1806C87.3175 16.4235 88.1805 17.6141 89.4784 17.8366Z" fill="#0087D9"/>
<path d="M74.3501 12.9172L65.6263 44.0648L61.0059 43.273L69.7296 12.1255L74.3501 12.9172Z" fill="#53B4F0"/>
<path d="M83.4234 14.4724L74.6996 45.6199L67.9707 44.4669L76.6944 13.3193L83.4234 14.4724Z" fill="#53B4F0"/>
<path d="M71.5663 45.0831L57.9284 42.7477C57.045 42.5972 56.4538 41.7795 56.6169 40.9291L61.7609 13.0871C63.0587 13.3094 64.2955 12.4786 64.5265 11.2357C64.7576 9.98624 63.8877 8.79556 62.5967 8.57311L63.4393 4.02002L65.5458 4.3864L66.6126 11.5955L71.5663 45.0831Z" fill="#0059AA"/>
<path d="M74.9387 18.1606C74.3492 17.236 73.4688 16.6692 72.2878 16.4668C71.0984 16.2629 70.0689 16.5025 69.1994 17.1855C68.3216 17.867 67.7661 18.8617 67.5246 20.1681C67.283 21.4745 67.4479 22.5926 68.0275 23.5239C68.5987 24.4537 69.4791 25.0206 70.6686 25.2244C71.8497 25.4268 72.8776 25.1952 73.7623 24.5232C74.647 23.8511 75.2124 22.8499 75.4569 21.5274C75.7014 20.2049 75.5282 19.0853 74.9387 18.1606ZM72.5973 23.1588C72.156 23.5824 71.6088 23.7382 70.9638 23.6276C70.344 23.5214 69.8944 23.1949 69.6184 22.6316C69.3407 22.0767 69.2817 21.3677 69.4427 20.4968C69.6023 19.634 69.9133 18.98 70.3728 18.5513C70.8323 18.1225 71.3727 17.9572 71.9926 18.0634C72.6376 18.1739 73.0939 18.5101 73.3562 19.0542C73.627 19.5998 73.6761 20.3154 73.5136 21.1944C73.3496 22.0814 73.0485 22.7286 72.5973 23.1588Z" fill="white"/>
<path d="M63.8541 38.1458C63.4702 38.08 63.1648 37.8279 63.0561 37.4873C62.9554 37.171 63.0402 36.8562 63.2894 36.6235L80.6957 20.307C80.9248 20.0918 81.2585 19.9971 81.588 20.0536C81.9774 20.1204 82.2761 20.3666 82.3862 20.7114C82.4869 21.0277 82.4021 21.3425 82.1528 21.5759L64.7465 37.8923C64.5174 38.1076 64.1837 38.2022 63.8541 38.1458Z" fill="white"/>
<path d="M78.549 33.4081C77.961 32.4754 77.0806 31.9086 75.8912 31.7048C74.7101 31.5024 73.6806 31.742 72.8028 32.4235C71.925 33.105 71.3695 34.0996 71.1279 35.406C70.8864 36.7123 71.0513 37.8304 71.6309 38.7617C72.2106 39.693 73.0909 40.2598 74.272 40.4622C75.4614 40.666 76.4909 40.4264 77.3771 39.7464C78.2549 39.0648 78.8188 38.0716 79.0603 36.7653C79.3019 35.4589 79.1286 34.3394 78.549 33.4081ZM76.1953 38.3792C75.7442 38.8094 75.2038 38.9746 74.5672 38.8656C73.939 38.7579 73.4811 38.4299 73.2104 37.8844C72.9412 37.3307 72.8836 36.6138 73.0461 35.7347C73.2086 34.8557 73.5197 34.2019 73.9693 33.7797C74.4204 33.3496 74.9678 33.1938 75.596 33.3015C76.2325 33.4106 76.6806 33.7452 76.9498 34.2988C77.2274 34.8539 77.2766 35.5694 77.117 36.4323C76.956 37.3032 76.6549 37.9505 76.1953 38.3792Z" fill="white"/>
<path d="M91.7888 5.35461L90.3143 13.3225C89.0164 13.1001 87.7797 13.931 87.5487 15.1805L66.6127 11.5956L64.5266 11.2357C64.7577 9.98629 63.8879 8.79562 62.5968 8.57316L63.4394 4.02008L64.0714 0.605271C64.1461 0.206219 64.5402 -0.0554543 64.9479 0.0100295L91.1773 4.5042C91.585 4.57616 91.8568 4.95556 91.7888 5.35461Z" fill="#0059AA"/>
<path d="M64.5265 11.2357C64.7575 9.98624 63.8877 8.79556 62.5967 8.57311L63.4393 4.02002L65.5458 4.3864L66.6126 11.5955L64.5265 11.2357Z" fill="#003B70"/>
<path d="M77.3689 2.14189L74.35 12.9178L69.7295 12.126L72.7485 1.3501L77.3689 2.14189Z" fill="#0087D9"/>
<path d="M86.4422 3.69652L83.4233 14.4724L76.6943 13.3194L79.7133 2.54346L86.4422 3.69652Z" fill="#0087D9"/>
<path d="M66.7131 7.81073C66.5192 7.65173 66.3835 7.45011 66.3058 7.20588C66.2281 6.9617 66.2165 6.69218 66.271 6.3974L66.4724 5.30835C66.5269 5.01358 66.6344 4.7645 66.7948 4.56105C66.9553 4.35763 67.155 4.21305 67.3942 4.12732C67.6333 4.04159 67.8955 4.02314 68.181 4.07204C68.4172 4.11254 68.6256 4.19846 68.806 4.32979C68.9865 4.46118 69.1269 4.62744 69.2272 4.82861C69.3275 5.02977 69.3796 5.25176 69.3834 5.4946L68.7909 5.39307C68.7778 5.26318 68.7383 5.14235 68.6722 5.03058C68.6061 4.91885 68.5212 4.82687 68.4175 4.75462C68.3138 4.68243 68.2015 4.63595 68.0806 4.61521C67.9123 4.58639 67.7577 4.60026 67.6166 4.65678C67.4755 4.71334 67.3569 4.80613 67.2609 4.93514C67.1649 5.06421 67.0996 5.22246 67.0649 5.40985L66.8636 6.4989C66.8292 6.68453 66.8339 6.85425 66.8776 7.00818C66.9213 7.16211 66.9993 7.2886 67.1117 7.38761C67.224 7.48668 67.3643 7.5506 67.5326 7.57942C67.6554 7.60048 67.7776 7.59606 67.8992 7.5662C68.0207 7.5363 68.1324 7.4804 68.2344 7.39837C68.3363 7.31633 68.4175 7.21199 68.478 7.08528L69.0705 7.18681C68.9799 7.41345 68.851 7.60444 68.6838 7.75977C68.5166 7.91511 68.3248 8.02446 68.1083 8.08778C67.8919 8.15114 67.6664 8.16272 67.4321 8.12255C67.1466 8.07368 66.907 7.96977 66.7131 7.81073Z" fill="white"/>
<path d="M70.1986 8.40927C70.0017 8.25073 69.8637 8.05058 69.7845 7.80893C69.7054 7.56724 69.6927 7.30089 69.7466 7.00971L69.9545 5.88517C70.0083 5.59406 70.1156 5.34818 70.2765 5.14771C70.4374 4.94717 70.6387 4.80521 70.8803 4.72177C71.1219 4.63836 71.3864 4.62122 71.6737 4.67048C71.961 4.71971 72.2031 4.82363 72.4 4.9822C72.5968 5.14081 72.7348 5.34089 72.814 5.58254C72.8931 5.8242 72.9058 6.09062 72.852 6.38173L72.6441 7.50627C72.5903 7.79741 72.4829 8.04326 72.322 8.24376C72.1611 8.44427 71.9599 8.58629 71.7182 8.6697C71.4766 8.75318 71.2121 8.77025 70.9248 8.72102C70.6375 8.67176 70.3954 8.56791 70.1986 8.40927ZM71.4961 8.13883C71.6391 8.08732 71.7587 7.99988 71.8546 7.87644C71.9506 7.75306 72.015 7.60217 72.048 7.42381L72.263 6.26106C72.296 6.08277 72.2895 5.91974 72.2437 5.77203C72.1979 5.62431 72.117 5.5025 72.0012 5.40663C71.8854 5.31076 71.7424 5.24822 71.5723 5.21908C71.4022 5.18994 71.2456 5.20112 71.1025 5.25261C70.9593 5.30412 70.8399 5.39162 70.7439 5.515C70.6479 5.63841 70.5835 5.7893 70.5505 5.9676L70.3355 7.13034C70.3026 7.30871 70.309 7.47173 70.3548 7.61941C70.4006 7.76713 70.4815 7.8889 70.5973 7.98481C70.7132 8.08071 70.8561 8.14321 71.0263 8.17236C71.1964 8.20153 71.353 8.19035 71.4961 8.13883Z" fill="white"/>
<path d="M73.8361 9.04101C73.641 8.88839 73.5072 8.69181 73.4347 8.4513C73.3622 8.21079 73.3547 7.93492 73.4122 7.62375L73.8805 5.09082L74.4588 5.18993L73.987 7.74197C73.9335 8.03131 73.9677 8.26806 74.0897 8.45228C74.2116 8.6365 74.4105 8.75222 74.6865 8.79955C74.9643 8.84718 75.1939 8.80485 75.3754 8.67261C75.5568 8.54036 75.6742 8.32959 75.7277 8.04027L76.1996 5.48824L76.7779 5.58735L76.3097 8.12028C76.2521 8.43144 76.1462 8.68785 75.9919 8.8895C75.8376 9.09115 75.6411 9.23115 75.4024 9.30942C75.1637 9.38776 74.8912 9.40065 74.585 9.34818C74.2807 9.29601 74.031 9.19366 73.8361 9.04101Z" fill="white"/>
<path d="M77.6849 5.74268L78.2633 5.84179L77.5295 9.81042L76.9512 9.71131L77.6849 5.74268ZM77.6314 7.69339L78.9498 7.91931C79.0745 7.9407 79.1893 7.93128 79.2943 7.89108C79.3992 7.85088 79.4873 7.78334 79.5584 7.68851C79.6296 7.59372 79.6776 7.47901 79.7025 7.34431C79.7277 7.20782 79.7239 7.08326 79.6912 6.97064C79.6583 6.85803 79.6 6.76494 79.5161 6.69144C79.4322 6.61794 79.3279 6.57048 79.2031 6.54909L77.8847 6.3232L77.9826 5.7937L79.2812 6.01619C79.5268 6.05829 79.734 6.14585 79.9024 6.27894C80.0709 6.41197 80.1895 6.57925 80.2586 6.78067C80.3276 6.98216 80.3398 7.20386 80.295 7.44584C80.2503 7.68786 80.1595 7.89144 80.0227 8.05669C79.8858 8.2219 79.7147 8.33854 79.509 8.40654C79.3034 8.47461 79.0777 8.4875 78.832 8.4454L77.5335 8.22288L77.6314 7.69339Z" fill="white"/>
<path d="M81.14 10.2843C80.9431 10.1258 80.8051 9.92562 80.7259 9.68397C80.6468 9.44231 80.6341 9.17593 80.688 8.88475L80.8959 7.76021C80.9497 7.4691 81.057 7.22322 81.2179 7.02272C81.3788 6.82218 81.5801 6.68022 81.8217 6.59678C82.0633 6.51337 82.3278 6.49623 82.6151 6.54546C82.9024 6.59468 83.1445 6.69863 83.3414 6.85718C83.5383 7.01578 83.6762 7.21587 83.7554 7.45752C83.8346 7.69918 83.8473 7.96559 83.7934 8.2567L83.5855 9.38125C83.5317 9.67239 83.4243 9.91823 83.2634 10.1187C83.1025 10.3192 82.9013 10.4613 82.6596 10.5447C82.418 10.6282 82.1535 10.6452 81.8662 10.596C81.5789 10.5468 81.3369 10.4429 81.14 10.2843ZM82.4375 10.0139C82.5806 9.96236 82.7001 9.87489 82.7961 9.75148C82.892 9.62807 82.9565 9.47721 82.9894 9.29885L83.2044 8.1361C83.2374 7.95781 83.2309 7.79475 83.1852 7.64707C83.1393 7.49939 83.0585 7.37755 82.9427 7.28167C82.8268 7.18577 82.6838 7.12327 82.5137 7.09412C82.3436 7.06498 82.187 7.07616 82.0439 7.12768C81.9008 7.1792 81.7813 7.26669 81.6853 7.39007C81.5894 7.51349 81.5249 7.66437 81.492 7.84267L81.277 9.00542C81.244 9.18378 81.2505 9.34677 81.2963 9.49448C81.3421 9.6422 81.4229 9.76398 81.5388 9.85985C81.6546 9.95572 81.7976 10.0182 81.9677 10.0474C82.1378 10.0765 82.2944 10.0654 82.4375 10.0139Z" fill="white"/>
<path d="M84.9354 6.98486L85.4599 7.07475L86.9085 10.4881L86.8273 10.5474L87.4076 7.40851L87.9803 7.50664L87.2471 11.4726L86.7169 11.3817L85.2654 8.01576L85.3466 7.95646L84.7748 11.0489L84.2021 10.9508L84.9354 6.98486Z" fill="white"/>
<path d="M46.7776 43.5395L33.5677 46.8104L23.307 49.3552C22.4644 49.5645 21.6014 49.0739 21.384 48.2562L14.2559 21.5982C15.4994 21.2907 16.2468 20.0739 15.9274 18.8832L35.348 14.0685L37.971 13.4209C38.2904 14.618 39.5543 15.331 40.791 15.0302L47.9191 41.6816C48.1366 42.4993 47.627 43.3301 46.7776 43.5395Z" fill="#02B21B"/>
<path d="M25.3331 16.5522L30.6768 47.528L26.2529 48.6236L20.9092 17.6479L25.3331 16.5522Z" fill="#4CC600"/>
<path d="M34.0208 14.4004L39.3645 45.3761L32.9218 46.9718L27.5781 15.996L34.0208 14.4004Z" fill="#4CC600"/>
<path d="M46.7782 43.5393L33.5684 46.8102L35.3487 14.0683L35.8176 5.40692L37.9988 4.56299L39.6364 10.7057C38.3997 11.0132 37.6522 12.23 37.9716 13.4207C38.291 14.6177 39.5549 15.3308 40.7916 15.0299L47.9197 41.6814C48.1372 42.4991 47.6276 43.3299 46.7782 43.5393Z" fill="#029617"/>
<path d="M28.0547 20.966C27.1447 20.3765 26.1273 20.2168 24.9964 20.4969C23.8576 20.779 23.0465 21.3915 22.5631 22.3344C22.0717 23.2793 21.9971 24.3762 22.3314 25.627C22.6656 26.8778 23.2808 27.8039 24.1848 28.4032C25.0809 29.0045 26.0983 29.1641 27.2372 28.882C28.368 28.602 29.1811 27.9971 29.6826 27.058C30.1842 26.1188 30.2647 25.0123 29.9263 23.746C29.5879 22.4797 28.9648 21.5556 28.0547 20.966ZM28.0785 26.3027C27.8654 26.8495 27.4461 27.2002 26.8286 27.3532C26.2351 27.5002 25.7 27.3858 25.2192 26.9944C24.7405 26.6109 24.3907 26.006 24.1679 25.1721C23.9472 24.346 23.9482 23.646 24.1752 23.0876C24.4022 22.5292 24.8115 22.1726 25.4049 22.0257C26.0225 21.8727 26.5677 21.9929 27.0283 22.3728C27.497 22.7506 27.8407 23.3653 28.0656 24.2068C28.2926 25.0561 28.2975 25.7464 28.0785 26.3027Z" fill="white"/>
<path d="M26.6244 42.9745C26.2568 43.0656 25.8806 42.9611 25.6414 42.7018C25.4195 42.4609 25.3625 42.1491 25.4855 41.8461L34.0538 20.6278C34.1663 20.3481 34.4221 20.1345 34.7377 20.0563C35.1105 19.964 35.4784 20.0659 35.7205 20.3285C35.9424 20.5694 35.9993 20.8812 35.8765 21.1847L27.3083 42.4031C27.1957 42.6828 26.9399 42.8964 26.6244 42.9745Z" fill="white"/>
<path d="M37.6499 33.0647C36.7378 32.4674 35.7203 32.3078 34.5815 32.5898C33.4506 32.8699 32.6395 33.4824 32.1481 34.4273C31.6567 35.3722 31.5821 36.469 31.9163 37.7198C32.2506 38.9706 32.8657 39.8966 33.7698 40.4959C34.6738 41.0952 35.6913 41.2548 36.8221 40.9747C37.961 40.6927 38.7721 40.0802 39.2716 39.1333C39.763 38.1884 39.8456 37.0896 39.5113 35.8387C39.1771 34.588 38.5539 33.664 37.6499 33.0647ZM37.6514 38.3822C37.4323 38.9386 37.0231 39.2951 36.4136 39.446C35.8121 39.595 35.269 39.4826 34.8003 39.1048C34.3296 38.7191 33.9778 38.1066 33.7529 37.265C33.528 36.4234 33.5291 35.7234 33.7501 35.1747C33.9692 34.6184 34.3885 34.2675 34.99 34.1186C35.5995 33.9676 36.1366 34.0897 36.6073 34.4753C37.0861 34.859 37.4299 35.4734 37.6507 36.2996C37.8735 37.1335 37.8784 37.8238 37.6514 38.3822Z" fill="white"/>
<path d="M37.9715 13.4212L35.3486 14.0689L15.928 18.8836C15.6086 17.6865 14.3447 16.9669 13.1012 17.2743L11.0627 9.6466C10.9607 9.26711 11.1986 8.88117 11.5927 8.78304L36.7008 2.56176C37.095 2.46369 37.4959 2.69256 37.5978 3.07205L37.9988 4.56363L39.6364 10.7063C38.3996 11.0138 37.6521 12.2306 37.9715 13.4212Z" fill="#029617"/>
<path d="M37.9716 13.4207L35.3486 14.0683L35.8175 5.40692L37.9988 4.56299L39.6364 10.7057C38.3997 11.0132 37.6522 12.23 37.9716 13.4207Z" fill="#027312"/>
<path d="M23.4845 5.83545L25.3325 16.5523L20.9085 17.6479L19.0605 6.93111L23.4845 5.83545Z" fill="#02B21B"/>
<path d="M32.1732 3.68359L34.0212 14.4004L27.5784 15.9961L25.7305 5.27928L32.1732 3.68359Z" fill="#02B21B"/>
<path d="M16.4254 15.0219C16.187 14.9566 15.9822 14.8308 15.8109 14.6447C15.6397 14.4587 15.5163 14.2245 15.4409 13.9423L15.1622 12.8996C15.0868 12.6173 15.0775 12.3549 15.1342 12.1124C15.1909 11.8699 15.3072 11.6641 15.483 11.4952C15.6588 11.3263 15.8833 11.208 16.1566 11.1403C16.3828 11.0843 16.6033 11.0794 16.8183 11.1255C17.0332 11.1717 17.2273 11.2643 17.4005 11.4034C17.5737 11.5426 17.713 11.7189 17.8183 11.9324L17.2509 12.0729C17.1849 11.963 17.0991 11.8714 16.9937 11.7981C16.8882 11.7249 16.7745 11.6764 16.6524 11.6528C16.5303 11.6292 16.4113 11.6317 16.2956 11.6604C16.1345 11.7003 16.0033 11.7727 15.9021 11.8776C15.8008 11.9826 15.7348 12.1109 15.7039 12.2624C15.6731 12.4141 15.6816 12.5796 15.7296 12.7591L16.0082 13.8018C16.0557 13.9795 16.131 14.128 16.2343 14.2473C16.3376 14.3666 16.4598 14.4483 16.6008 14.4923C16.7418 14.5364 16.8929 14.5384 17.0539 14.4985C17.1716 14.4694 17.2779 14.4179 17.373 14.3442C17.4681 14.2705 17.5436 14.1776 17.5995 14.0653C17.6553 13.953 17.6835 13.829 17.6838 13.6933L18.2512 13.5528C18.266 13.7887 18.232 14.008 18.1491 14.2106C18.0662 14.4132 17.9423 14.5846 17.7772 14.7248C17.6121 14.8651 17.4173 14.963 17.1929 15.0186C16.9197 15.0862 16.6638 15.0874 16.4254 15.0219Z" fill="white"/>
<path d="M19.7637 14.1967C19.5228 14.1328 19.3166 14.0093 19.1451 13.826C18.9736 13.6428 18.8507 13.4118 18.7762 13.1331L18.4884 12.0563C18.414 11.7776 18.4059 11.5181 18.4642 11.2779C18.5226 11.0378 18.6412 10.8339 18.8202 10.666C18.9992 10.4981 19.2262 10.3801 19.5013 10.312C19.7764 10.2439 20.0344 10.2418 20.2752 10.3056C20.5161 10.3696 20.7223 10.493 20.8938 10.6762C21.0653 10.8595 21.1883 11.0905 21.2627 11.3692L21.5505 12.446C21.625 12.7247 21.633 12.9842 21.5746 13.2243C21.5163 13.4644 21.3977 13.6685 21.2187 13.8363C21.0397 14.0042 20.8127 14.1221 20.5376 14.1902C20.2625 14.2584 20.0046 14.2605 19.7637 14.1967ZM20.7993 13.4526C20.9044 13.3513 20.9735 13.2274 21.0067 13.0807C21.0399 12.9342 21.0336 12.7755 20.988 12.6048L20.6905 11.4915C20.6449 11.3207 20.5708 11.1789 20.4682 11.0659C20.3657 10.9529 20.243 10.8765 20.1002 10.8366C19.9573 10.7967 19.8045 10.797 19.6416 10.8373C19.4788 10.8777 19.3447 10.9485 19.2397 11.0497C19.1345 11.151 19.0654 11.2749 19.0322 11.4215C18.9991 11.5681 19.0053 11.7268 19.0509 11.8975L19.3484 13.0108C19.394 13.1816 19.4681 13.3235 19.5707 13.4364C19.6733 13.5494 19.7959 13.6258 19.9387 13.6657C20.0815 13.7055 20.2344 13.7053 20.3973 13.6649C20.5601 13.6246 20.6941 13.5538 20.7993 13.4526Z" fill="white"/>
<path d="M23.249 13.3417C23.0122 13.2824 22.8113 13.1604 22.6461 12.9756C22.4809 12.7908 22.3586 12.5494 22.2789 12.2515L21.6309 9.82625L22.1846 9.6891L22.8376 12.1326C22.9116 12.4096 23.0412 12.606 23.2265 12.7217C23.4118 12.8374 23.6366 12.8626 23.9008 12.7971C24.1668 12.7313 24.3524 12.6045 24.4576 12.4168C24.5627 12.2292 24.5783 11.9968 24.5043 11.7198L23.8514 9.27631L24.4051 9.13916L25.0532 11.5644C25.1328 11.8623 25.1466 12.1305 25.0946 12.3691C25.0426 12.6077 24.9273 12.8081 24.7487 12.9703C24.5702 13.1325 24.3343 13.2499 24.0411 13.3225C23.7498 13.3946 23.4857 13.4011 23.249 13.3417Z" fill="white"/>
<path d="M25.2744 8.9241L25.8282 8.78695L26.8436 12.5868L26.2898 12.724L25.2744 8.9241ZM26.0455 10.6724L27.3077 10.3598C27.4272 10.3302 27.5249 10.2772 27.601 10.2008C27.677 10.1244 27.7267 10.0303 27.7499 9.91869C27.7731 9.80705 27.7675 9.68681 27.7331 9.55784C27.6982 9.42717 27.6425 9.31834 27.5662 9.23137C27.4899 9.14439 27.3992 9.08467 27.294 9.05215C27.1889 9.01971 27.0766 9.01824 26.9571 9.04784L25.6949 9.36047L25.5594 8.85348L26.8026 8.54556C27.0379 8.4873 27.2581 8.48432 27.4631 8.53663C27.6681 8.58896 27.8434 8.69095 27.9891 8.84242C28.1347 8.994 28.2385 9.18564 28.3004 9.41732C28.3623 9.64906 28.3674 9.86465 28.3155 10.0642C28.2637 10.2638 28.161 10.4336 28.0075 10.5738C27.8539 10.714 27.6595 10.8132 27.4242 10.8715L26.181 11.1794L26.0455 10.6724Z" fill="white"/>
<path d="M30.2383 11.6019C29.9974 11.5381 29.7912 11.4145 29.6197 11.2313C29.4482 11.0481 29.3253 10.8171 29.2508 10.5383L28.9631 9.46158C28.8886 9.18287 28.8805 8.92335 28.9388 8.68324C28.9972 8.44312 29.1158 8.23914 29.2948 8.07125C29.4738 7.90345 29.7008 7.78543 29.9759 7.7173C30.251 7.64917 30.509 7.64704 30.7498 7.71089C30.9907 7.77484 31.1969 7.89835 31.3684 8.08152C31.5399 8.26475 31.6629 8.49575 31.7374 8.77449L32.0251 9.85125C32.0996 10.13 32.1076 10.3895 32.0493 10.6296C31.9909 10.8697 31.8723 11.0738 31.6933 11.2416C31.5143 11.4095 31.2873 11.5275 31.0122 11.5956C30.7371 11.6637 30.4792 11.6658 30.2383 11.6019ZM31.2739 10.8578C31.379 10.7566 31.4481 10.6326 31.4813 10.486C31.5145 10.3395 31.5083 10.1808 31.4626 10.01L31.1651 8.89673C31.1195 8.72599 31.0454 8.58413 30.9429 8.47112C30.8403 8.35817 30.7176 8.28173 30.5748 8.24186C30.432 8.20202 30.2791 8.20228 30.1163 8.24261C29.9534 8.28294 29.8194 8.35372 29.7143 8.45499C29.6092 8.55626 29.5401 8.68023 29.5069 8.82676C29.4737 8.97343 29.4799 9.1321 29.5256 9.30281L29.8231 10.4161C29.8687 10.5869 29.9428 10.7288 30.0453 10.8416C30.1479 10.9547 30.2705 11.0311 30.4134 11.071C30.5562 11.1108 30.7091 11.1106 30.872 11.0702C31.0348 11.0299 31.1687 10.9591 31.2739 10.8578Z" fill="white"/>
<path d="M32.2158 7.20503L32.7181 7.08064L35.433 9.54004L35.386 9.6241L34.5829 6.61872L35.1313 6.48291L36.146 10.2802L35.6384 10.4059L32.9407 7.98953L32.9877 7.90547L33.7789 10.8664L33.2305 11.0022L32.2158 7.20503Z" fill="white"/>
<path d="M66.0398 17.7822L67.1451 47.6481C67.1789 48.5608 66.4375 49.3273 65.4895 49.3599L39.192 50.262C38.244 50.2945 37.4477 49.5807 37.414 48.668L36.3086 18.8021C37.697 18.7545 38.784 17.6307 38.7345 16.2941L63.4346 15.4468C63.4841 16.7834 64.6514 17.8298 66.0398 17.7822Z" fill="#FFB200"/>
<path d="M49.2743 15.9321L47.4477 49.9784L42.4912 50.1484L44.3179 16.1022L49.2743 15.9321Z" fill="#FFD83C"/>
<path d="M59.0087 15.5981L57.182 49.6444L49.9639 49.892L51.7905 15.8458L59.0087 15.5981Z" fill="#FFD83C"/>
<path d="M51.0927 21.223C50.2703 20.3938 49.23 19.9964 47.9631 20.0398C46.6872 20.0836 45.6788 20.5512 44.9381 21.4428C44.1884 22.3347 43.844 23.4812 43.8958 24.8825C43.9477 26.2838 44.376 27.4039 45.1897 28.2421C45.9945 29.0806 47.0348 29.478 48.3107 29.4342C49.5777 29.3907 50.5863 28.9316 51.3453 28.0482C52.1043 27.1646 52.4574 26.0093 52.4049 24.5906C52.3525 23.1719 51.9152 22.0523 51.0927 21.223ZM49.8269 26.8876C49.4687 27.4197 48.9392 27.6976 48.2474 27.7214C47.5825 27.7442 47.0427 27.5029 46.6275 26.98C46.2126 26.466 45.9881 25.7461 45.9535 24.8119C45.9192 23.8864 46.0897 23.1442 46.4655 22.603C46.8413 22.0618 47.3616 21.7754 48.0265 21.7526C48.7183 21.7288 49.2674 21.9785 49.6639 22.4846C50.0696 22.9903 50.2854 23.7192 50.3204 24.6621C50.3556 25.6136 50.1938 26.3467 49.8269 26.8876Z" fill="white"/>
<path d="M44.2515 44.2412C43.8396 44.2553 43.466 44.0601 43.275 43.7315C43.098 43.4263 43.1131 43.0829 43.3168 42.7892L57.5359 22.2092C57.723 21.9379 58.0459 21.7687 58.3994 21.7566C58.8171 21.7423 59.1825 21.9328 59.3758 22.2656C59.5528 22.5708 59.5378 22.9142 59.3341 23.2086L45.115 43.7885C44.928 44.0599 44.605 44.229 44.2515 44.2412Z" fill="white"/>
<path d="M58.3412 36.2046C57.5185 35.3666 56.4782 34.9693 55.2023 35.013C53.9353 35.0565 52.927 35.5241 52.1772 36.416C51.4275 37.3078 51.0831 38.4542 51.135 39.8556C51.1868 41.2569 51.6151 42.3768 52.4289 43.215C53.2426 44.0533 54.283 44.4506 55.5499 44.4072C56.8258 44.3634 57.8342 43.8958 58.5929 43.0036C59.3426 42.1118 59.696 40.965 59.6441 39.5637C59.5923 38.1623 59.155 37.0428 58.3412 36.2046ZM57.0564 41.8438C56.6896 42.3847 56.1694 42.671 55.4865 42.6944C54.8126 42.7176 54.2639 42.4766 53.8583 41.9709C53.4524 41.4563 53.2275 40.728 53.1926 39.785C53.1577 38.8421 53.3282 38.1001 53.6953 37.5677C54.0622 37.0269 54.5917 36.7489 55.2656 36.7258C55.9485 36.7024 56.4885 36.9523 56.8944 37.4667C57.3093 37.9809 57.5252 38.7096 57.5595 39.6352C57.5941 40.5695 57.4323 41.3026 57.0564 41.8438Z" fill="white"/>
<path d="M65.5442 4.38661L65.8607 12.9381C64.4723 12.9858 63.3853 14.1095 63.4348 15.4463L38.7347 16.2936C38.6852 14.9568 37.518 13.9104 36.1295 13.958L35.813 5.40648C35.7973 4.98244 36.1429 4.62522 36.5832 4.61011L64.717 3.64502C65.1574 3.62995 65.5285 3.96257 65.5442 4.38661Z" fill="#FF8800"/>
<path d="M49.9076 4.15332L49.2748 15.9323L44.3184 16.1023L44.9512 4.32334L49.9076 4.15332Z" fill="#FFB200"/>
<path d="M59.641 3.81982L59.0082 15.5988L51.79 15.8464L52.4228 4.06743L59.641 3.81982Z" fill="#FFB200"/>
<path d="M40.1988 12.2987C39.9618 12.1759 39.775 11.9966 39.6384 11.7609C39.5018 11.5252 39.4276 11.2493 39.4159 10.9331L39.3727 9.76482C39.361 9.44859 39.4145 9.16824 39.5334 8.92377C39.6523 8.6793 39.8253 8.48723 40.0526 8.3475C40.2798 8.20777 40.5466 8.13267 40.8527 8.12217C41.1061 8.11347 41.3413 8.15772 41.5581 8.2548C41.7748 8.35195 41.9582 8.49371 42.1082 8.68009C42.2582 8.8665 42.3632 9.0847 42.4232 9.33476L41.7876 9.35658C41.7441 9.22519 41.6754 9.10881 41.5813 9.00747C41.4872 8.90617 41.3783 8.82927 41.2546 8.77681C41.1308 8.72438 41.004 8.7004 40.8743 8.70485C40.6938 8.71103 40.5372 8.75846 40.4045 8.84703C40.2718 8.93561 40.1707 9.05687 40.1013 9.2107C40.0319 9.36456 40.0008 9.54201 40.0083 9.74304L40.0515 10.9113C40.0589 11.1104 40.1029 11.2848 40.1836 11.4344C40.2642 11.5841 40.374 11.6981 40.5129 11.7764C40.6518 11.8547 40.8115 11.8908 40.992 11.8846C41.1237 11.8801 41.249 11.8493 41.3677 11.7925C41.4863 11.7356 41.5889 11.654 41.6753 11.5474C41.7617 11.4409 41.8215 11.3157 41.8548 11.1719L42.4904 11.1501C42.449 11.4036 42.3599 11.6285 42.223 11.8247C42.0861 12.021 41.9132 12.1749 41.7042 12.2867C41.4952 12.3984 41.2649 12.4586 41.0135 12.4672C40.7073 12.4777 40.4358 12.4216 40.1988 12.2987Z" fill="white"/>
<path d="M43.9377 12.1722C43.6976 12.0505 43.5089 11.8733 43.3714 11.6405C43.2338 11.4077 43.1593 11.1352 43.1477 10.8229L43.1031 9.61661C43.0915 9.30434 43.1457 9.02736 43.2657 8.78577C43.3857 8.54421 43.5608 8.3545 43.7913 8.21659C44.0216 8.07876 44.2909 8.00451 44.5991 7.99394C44.9073 7.98338 45.1814 8.03895 45.4214 8.16069C45.6614 8.28247 45.8501 8.45969 45.9877 8.69241C46.1252 8.92517 46.1997 9.19774 46.2113 9.51001L46.256 10.7163C46.2675 11.0286 46.2133 11.3056 46.0933 11.5471C45.9733 11.7887 45.7982 11.9784 45.5678 12.1163C45.3374 12.2542 45.0681 12.3284 44.7599 12.339C44.4517 12.3496 44.1777 12.294 43.9377 12.1722ZM45.2158 11.6153C45.3517 11.5315 45.4551 11.4156 45.5257 11.2676C45.5964 11.1196 45.6282 10.9499 45.6211 10.7586L45.5749 9.51129C45.5679 9.32 45.5236 9.15296 45.4422 9.01012C45.3608 8.86734 45.2491 8.75875 45.1074 8.68446C44.9656 8.61018 44.8034 8.57616 44.6209 8.58241C44.4384 8.58866 44.2792 8.63373 44.1433 8.71753C44.0073 8.80137 43.904 8.91729 43.8333 9.0653C43.7627 9.21334 43.7309 9.383 43.738 9.57429L43.7841 10.8216C43.7912 11.0129 43.8355 11.1799 43.9169 11.3228C43.9983 11.4656 44.1099 11.5741 44.2517 11.6484C44.3935 11.7227 44.5557 11.7567 44.7381 11.7505C44.9207 11.7442 45.0799 11.6992 45.2158 11.6153Z" fill="white"/>
<path d="M47.8421 12.047C47.6053 11.931 47.4217 11.7565 47.2913 11.5235C47.1609 11.2905 47.0895 11.0072 47.0771 10.6734L46.9766 7.95624L47.597 7.93498L47.6983 10.6726C47.7098 10.9829 47.7997 11.2202 47.9682 11.3845C48.1367 11.5488 48.369 11.6258 48.665 11.6156C48.963 11.6054 49.1905 11.5126 49.3475 11.3372C49.5044 11.1617 49.5771 10.9189 49.5656 10.6085L49.4643 7.8709L50.0847 7.84961L50.1853 10.5667C50.1977 10.9005 50.1474 11.1881 50.0345 11.4294C49.9217 11.6708 49.7509 11.8574 49.5223 11.9893C49.2938 12.1214 49.0152 12.1929 48.6868 12.2042C48.3603 12.2154 48.0788 12.163 47.8421 12.047Z" fill="white"/>
<path d="M51.0576 7.8162L51.6781 7.79491L51.8356 12.0521L51.2152 12.0734L51.0576 7.8162ZM51.4524 9.84309L52.8666 9.79458C53.0004 9.79 53.1168 9.75569 53.216 9.69171C53.3151 9.62773 53.3905 9.53912 53.4421 9.42595C53.4938 9.31281 53.517 9.184 53.5116 9.03956C53.5062 8.89315 53.4735 8.76529 53.4136 8.65591C53.3537 8.54656 53.272 8.46289 53.1684 8.4049C53.0647 8.34687 52.946 8.32018 52.8122 8.32476L51.398 8.37327L51.377 7.80524L52.7699 7.75745C53.0334 7.74843 53.2676 7.79461 53.4723 7.89608C53.6771 7.99751 53.8383 8.14493 53.9561 8.33827C54.0739 8.53165 54.1376 8.75813 54.1472 9.01774C54.1569 9.27739 54.11 9.50714 54.0068 9.70709C53.9035 9.90707 53.7536 10.0642 53.5568 10.1784C53.3601 10.2926 53.1299 10.3543 52.8663 10.3633L51.4734 10.4111L51.4524 9.84309Z" fill="white"/>
<path d="M55.6739 11.7694C55.4339 11.6477 55.2452 11.4704 55.1077 11.2377C54.9701 11.0049 54.8956 10.7324 54.8841 10.4201L54.8394 9.21378C54.8279 8.9015 54.882 8.62452 55.002 8.38293C55.122 8.14134 55.2971 7.95166 55.5276 7.81376C55.7579 7.67592 56.0272 7.60167 56.3354 7.59111C56.6436 7.58054 56.9177 7.63612 57.1577 7.75786C57.3977 7.87964 57.5864 8.05686 57.724 8.28958C57.8615 8.52234 57.936 8.79491 57.9476 9.10718L57.9922 10.3135C58.0038 10.6258 57.9496 10.9027 57.8296 11.1443C57.7096 11.3859 57.5344 11.5756 57.3041 11.7135C57.0737 11.8514 56.8044 11.9256 56.4962 11.9362C56.188 11.9467 55.9139 11.8912 55.6739 11.7694ZM56.9521 11.2125C57.088 11.1287 57.1914 11.0128 57.262 10.8647C57.3327 10.7167 57.3645 10.5471 57.3574 10.3558L57.3112 9.10846C57.3042 8.91717 57.2599 8.75013 57.1785 8.60729C57.0971 8.46451 56.9854 8.35592 56.8437 8.28163C56.7018 8.20735 56.5397 8.17333 56.3573 8.17958C56.1748 8.18583 56.0155 8.2309 55.8796 8.3147C55.7436 8.3985 55.6403 8.51446 55.5697 8.66247C55.499 8.81051 55.4672 8.98017 55.4743 9.17145L55.5204 10.4188C55.5275 10.6101 55.5718 10.7771 55.6532 10.9199C55.7346 11.0628 55.8462 11.1713 55.988 11.2456C56.1298 11.3199 56.292 11.3539 56.4744 11.3476C56.6569 11.3413 56.8161 11.2963 56.9521 11.2125Z" fill="white"/>
<path d="M58.8341 7.54956L59.3968 7.53027L61.6809 10.7471L61.6108 10.8257L61.4862 7.45857L62.1005 7.4375L62.258 11.6918L61.6893 11.7113L59.4131 8.54405L59.4831 8.46542L59.6059 11.7828L58.9916 11.8039L58.8341 7.54956Z" fill="white"/>
<path d="M90.8646 36.5922L89.7094 48.3544C89.6891 48.5638 89.5599 48.7405 89.3697 48.8385L72.2255 57.5065C72.2187 57.513 72.2119 57.513 72.2119 57.513L58.6215 64.3819L58.6147 64.3885L51.1197 68.1762C50.3246 68.5753 49.3801 68.5622 48.5987 68.1435L47.3076 67.4566L48.2725 54.1571L49.2374 54.6019C50.3247 55.0991 51.6022 55.086 52.6758 54.5495C52.6758 54.5495 52.6826 54.5495 52.6962 54.543L57.6227 52.0898L89.9473 35.9969C90.3889 35.7745 90.9122 36.1147 90.8646 36.5922Z" fill="#C40000"/>
<path d="M50.882 66.2839C50.8804 66.5815 51.1835 66.789 51.4765 66.6943L58.6137 64.3878L51.1187 68.1755C50.3237 68.5746 49.3791 68.5615 48.5977 68.1428L47.3066 67.4558L48.2716 54.1563L49.2365 54.6012C50.3237 55.0984 51.6012 55.0853 52.6748 54.5488C52.6748 54.5488 52.6816 54.5488 52.6952 54.5423L57.6217 52.0891C58.8041 52.0368 59.6127 51.9976 59.6127 51.9976C59.6127 51.9976 52.6069 54.5291 51.7303 56.2301C50.986 57.6686 50.8929 64.2471 50.882 66.2839Z" fill="#E00B0B"/>
<path d="M50.6236 55.6808L49.9033 67.8487C49.8829 68.2935 49.3733 68.5617 48.9656 68.3459L41.7355 64.4665H41.7287L32.3854 59.4554H32.3786L10.4641 47.7129C10.2739 47.6082 10.1515 47.412 10.1448 47.2026L9.76427 36.9188C9.74385 36.461 10.2467 36.1469 10.6748 36.3562L46.961 53.5416L50.2499 55.0986C50.2634 55.1052 50.2703 55.1052 50.2703 55.1052C50.5013 55.2098 50.6372 55.4388 50.6236 55.6808Z" fill="#E00B0B"/>
<path d="M32.3786 59.4559L10.4641 47.7134C10.2739 47.6087 10.1515 47.4125 10.1448 47.2031L9.76427 36.9193C9.74385 36.4614 10.2467 36.1474 10.6748 36.3567L50.2499 55.0991C49.2578 54.7 13.1619 40.2556 12.9376 44.2396C12.7201 48.2105 31.6923 59.0569 32.3786 59.4559Z" fill="#FF0F0F"/>
<path d="M90.8647 36.5922L89.7096 48.3544C89.6892 48.5638 89.5601 48.7405 89.3698 48.8385L72.2256 57.5065C72.674 57.2383 87.5419 48.2368 86.4411 45.1948C85.3403 42.1462 53.5796 54.2094 52.6963 54.543L89.9474 35.9969C90.3891 35.7745 90.9123 36.1147 90.8647 36.5922Z" fill="#E00B0B"/>
<path d="M50.6235 55.6805L49.9032 67.8484C49.8828 68.2932 49.3732 68.5615 48.9655 68.3456L41.7354 64.4663L47.7674 66.5267C48.3886 66.7389 49.0461 66.3184 49.0769 65.6845C49.1786 63.5876 49.3624 59.4368 49.3256 57.5057C49.2752 54.8623 41.7354 51.8013 41.7354 51.8013C41.7354 51.8013 46.5939 53.5544 46.9608 53.5414L50.2497 55.0984C50.2633 55.105 50.2701 55.105 50.2701 55.105C50.5011 55.2096 50.637 55.4386 50.6235 55.6805Z" fill="#FF0F0F"/>
<path d="M25.4604 78.5772L15.7705 73.1541C18.9982 66.874 24.978 55.3276 25.1886 55.3276C25.4129 55.465 26.5205 56.3155 26.5205 56.3155C26.5205 56.3155 28.0766 70.5047 25.4604 78.5772Z" fill="#9E0000"/>
<path d="M34.5927 47.6801C33.6142 47.6408 32.7444 47.7128 31.963 47.8894C26.9821 49.0015 25.6978 54.3397 24.8008 62.0001C24.5154 64.4599 24.264 67.1682 23.9515 70.0532C22.7487 81.0892 13.6839 85.2237 10.6804 86.2965C10.1029 86.5059 9.45052 86.4208 8.93408 86.0871L4.40853 83.1106C3.07664 82.2341 3.38246 80.2715 4.91817 79.8136C13.3102 77.3212 17.4892 67.6588 18.5153 56.1321C18.5221 56.0995 18.5221 56.0602 18.5221 56.0144C18.5969 55.1966 18.6512 54.3724 18.692 53.5415C19.0182 46.7446 22.0895 44.4091 23.8835 43.6176C24.6513 43.284 25.1881 43.2251 25.1881 43.2251L34.5927 47.6801Z" fill="#FFB200"/>
<path d="M52.8887 67.2797L67.7449 63.0801V81.9562L71.6567 79.7345V56.8667L52.8887 67.2797Z" fill="#660000"/>
<path d="M83.6348 67.5416C83.6348 67.5416 93.1584 70.5854 95.2329 75.0376C97.3074 79.4898 92.3115 66.0203 84.7335 60.5024L83.6348 67.5416Z" fill="#FF8800"/>
<path d="M82.6964 89.6528L76.3498 94.3761C76.1459 94.5266 75.8741 94.5789 75.6295 94.5069L68.481 92.5051C67.7878 92.3088 67.3733 91.6416 67.5025 90.9677C68.8683 83.8044 69.643 77.2887 69.9487 71.689C69.9487 71.689 69.9487 71.689 69.9487 71.6824C70.5807 60.4043 69.3236 52.8485 67.2647 51.2065C66.6123 50.6831 65.926 50.3495 65.2464 50.1532V50.1467C63.038 49.4925 60.9451 50.2645 60.4219 50.4869L69.9895 45.6721C69.9895 45.6721 73.2851 44.8804 75.8877 46.6141C76.3226 46.9019 76.7371 47.2618 77.1109 47.7C79.7542 50.8008 79.992 56.8258 79.8969 63.4332C79.8833 64.2378 79.8221 65.1994 79.7134 66.2527C79.7066 66.305 79.7066 66.3312 79.7066 66.3312C79.0203 72.9385 76.7439 83.3792 76.1595 85.9959C76.0848 86.3361 76.3022 86.6763 76.6556 86.7679L82.4111 88.2856C83.0566 88.4557 83.2264 89.2604 82.6964 89.6528Z" fill="#FF8800"/>
<path d="M95.6548 83.9611C82.2956 87.9059 69.6633 79.3034 58.6008 77.681C57.9145 77.5763 57.235 77.5044 56.5622 77.4585C45.5744 76.7651 43.8621 87.1405 39.3908 90.8628C39.0782 91.1244 38.7792 91.3665 38.4871 91.589C35.4768 93.9439 33.6761 94.5131 32.7316 94.6047C32.3103 94.6439 31.889 94.5197 31.556 94.2645L28.0836 91.6216C27.1187 90.8824 27.3022 89.4236 28.4234 88.933C30.5571 88.0105 32.2763 86.192 34.0974 84.0789V84.0724C37.2775 80.3696 40.7363 75.7903 47.1441 73.6055C48.7886 73.0493 50.8543 72.8008 53.1986 72.7812C67.4073 72.6372 91.6525 80.6183 92.8281 75.0381C94.1191 68.9149 85.8018 61.431 84.8301 60.5806C86.5153 61.8889 109.327 79.9248 95.6548 83.9611Z" fill="#FFB200"/>
<path d="M31.9633 47.8895C26.9824 49.0016 25.6981 54.3398 24.8012 62.0002C23.7139 64.6955 22.8577 66.3833 23.4693 63.0796C24.5089 57.4667 23.6052 53.3911 21.7297 52.7238C19.8611 52.0566 18.5156 56.1322 18.5156 56.1322C18.5224 56.0995 18.5224 56.0603 18.5224 56.0144C18.5972 55.1967 18.6515 54.3724 18.6923 53.5416C19.0185 46.7447 22.0899 44.4092 23.8838 43.6177C26.6427 44.527 30.183 46.7185 31.9633 47.8895Z" fill="#FFD83C"/>
<path d="M79.8965 63.4333C79.883 64.2379 79.8218 65.1996 79.7131 66.2528C79.7674 65.2715 80.2567 55.485 76.7639 55.7989C73.1353 56.126 70.03 71.29 69.9484 71.6826C70.5803 60.4044 69.3232 52.8486 67.2643 51.2066C66.6119 50.6833 65.9256 50.3496 65.2461 50.1533V50.1468C65.2461 50.1468 71.7491 46.1171 75.8873 46.6143C76.3222 46.9021 76.7367 47.2619 77.1105 47.7002C79.7539 50.801 79.9917 56.826 79.8965 63.4333Z" fill="#FFB200"/>
<path d="M58.6011 77.6811C57.9148 77.5764 57.2353 77.5044 56.5625 77.4586C45.5747 76.7651 43.8624 87.1405 39.3911 90.8628C39.0785 91.1245 38.7795 91.3665 38.4873 91.589C41.5791 88.0433 43.0333 81.6585 41.3005 80.9193C39.4319 80.1146 34.0977 84.0789 34.0977 84.0789V84.0725C37.2778 80.3697 40.7365 75.7904 47.1444 73.6055C48.7888 73.0494 50.8545 72.8008 53.1989 72.7812C59.2806 73.8671 58.6011 77.6811 58.6011 77.6811Z" fill="#FFD83C"/>
</svg>
