<svg  viewBox="0 0 27 30" fill="none" xmlns="http://www.w3.org/2000/svg">
<path d="M13.2712 0.00448133C13.3941 0.000325449 13.517 -0.000937592 13.6399 0.000682653C13.7629 0.00233036 13.8857 0.00686121 14.0085 0.014285C14.1312 0.0217089 14.2538 0.0319981 14.3762 0.0451706C14.4985 0.0583614 14.6206 0.0744266 14.7424 0.0933477C14.8641 0.112296 14.9855 0.134092 15.1064 0.158734C15.2273 0.183377 15.3477 0.210857 15.4676 0.241174C15.5875 0.271492 15.7067 0.30462 15.8253 0.340559C15.944 0.376479 16.0618 0.415172 16.179 0.456667C16.2492 0.48174 16.3191 0.507755 16.3888 0.534705C16.4584 0.561654 16.5278 0.589536 16.5969 0.618362C16.6659 0.647206 16.7346 0.676975 16.803 0.70764C16.8714 0.738333 16.9395 0.769951 17.0072 0.802466C17.0749 0.835017 17.1422 0.868457 17.2092 0.902802C17.2762 0.937148 17.3427 0.972391 17.4089 1.00854C17.4751 1.04471 17.5409 1.08175 17.6063 1.11967C17.6717 1.15761 17.7367 1.19642 17.8012 1.23611C17.8658 1.27581 17.9299 1.31636 17.9935 1.35777C18.0572 1.39918 18.1204 1.44146 18.1831 1.48459C18.2458 1.52772 18.3081 1.57171 18.3698 1.61653C18.4316 1.66134 18.4928 1.70698 18.5536 1.75346C18.6144 1.79991 18.6746 1.84719 18.7344 1.89528C18.7941 1.9434 18.8533 1.99231 18.9119 2.04201C18.9706 2.0917 19.0287 2.14218 19.0862 2.19345C19.1438 2.24474 19.2008 2.29679 19.2572 2.3496C19.3136 2.40241 19.3694 2.45598 19.4247 2.51031C19.4799 2.56463 19.5346 2.61969 19.5886 2.6755C19.6426 2.7313 19.6961 2.78782 19.7489 2.84506C19.8017 2.90229 19.8538 2.96025 19.9054 3.01891C19.9569 3.07756 20.0078 3.13693 20.058 3.19698C20.1083 3.25701 20.1578 3.3177 20.2067 3.37908C20.2556 3.44044 20.3039 3.50247 20.3514 3.56517C20.399 3.62783 20.4458 3.69113 20.492 3.75509C20.5381 3.81905 20.5836 3.88361 20.6283 3.94878C20.6731 4.01395 20.7171 4.07972 20.7604 4.14607C20.8037 4.21246 20.8463 4.2794 20.8881 4.3469C20.93 4.41443 20.9711 4.48251 21.0115 4.55116C21.0518 4.61977 21.0914 4.68893 21.1303 4.75863C21.1691 4.82834 21.2072 4.89856 21.2445 4.9693C21.2818 5.04001 21.3183 5.11124 21.354 5.18297C21.3898 5.25467 21.4247 5.32686 21.4589 5.39952C21.4917 5.47024 21.5238 5.5414 21.555 5.613C21.5863 5.6846 21.6168 5.75663 21.6464 5.82906C21.6761 5.9015 21.7049 5.97433 21.733 6.04756C21.761 6.12081 21.7882 6.19441 21.8146 6.26837C21.841 6.34235 21.8666 6.41669 21.8914 6.49138C21.9161 6.56605 21.94 6.64106 21.9631 6.71642C21.9862 6.79174 22.0085 6.86738 22.0299 6.94334C22.0513 7.01927 22.0718 7.0955 22.0915 7.17202C22.1112 7.24853 22.1301 7.3253 22.1481 7.40233C22.1661 7.47935 22.1833 7.55662 22.1996 7.63412C22.2158 7.71163 22.2312 7.78935 22.2458 7.86728C22.2604 7.94519 22.274 8.0233 22.2869 8.10161C22.2997 8.17991 22.3117 8.25838 22.3227 8.33702C22.3338 8.41564 22.344 8.49441 22.3534 8.57333C22.3627 8.65222 22.3711 8.73125 22.3787 8.8104C22.3863 8.88952 22.393 8.96875 22.3988 9.04808C22.4046 9.12741 22.4095 9.2068 22.4136 9.28625C22.4176 9.36574 22.4208 9.44524 22.4231 9.52477C22.4254 9.60432 22.4268 9.68389 22.4272 9.76347C22.4278 9.84305 22.4274 9.92263 22.4262 10.0022C22.4249 10.0818 22.4228 10.1613 22.4197 10.2409C22.4167 10.3204 22.4128 10.3998 22.408 10.4793C22.4032 10.5587 22.3975 10.638 22.391 10.7172C22.3844 10.7965 22.377 10.8756 22.3687 10.9547C22.3604 11.0337 22.3512 11.1127 22.3411 11.1915C22.331 11.2703 22.3201 11.3489 22.3083 11.4274C22.2965 11.5059 22.2838 11.5842 22.2702 11.6624C22.2567 11.7405 22.2423 11.8185 22.227 11.8963C22.2117 11.974 22.1956 12.0515 22.1785 12.1288C22.1615 12.2062 22.1437 12.2832 22.125 12.36C22.1062 12.4369 22.0866 12.5134 22.0662 12.5897C22.0458 12.666 22.0246 12.7419 22.0024 12.8177L23.9495 12.8095C24.3884 12.8097 24.8529 12.7778 25.2835 12.8831C25.323 12.8928 25.3623 12.9037 25.4013 12.9159C25.4403 12.9281 25.479 12.9414 25.5174 12.9559C25.5557 12.9704 25.5937 12.9861 25.6313 13.003C25.6688 13.0199 25.706 13.0379 25.7426 13.057C25.7793 13.0762 25.8155 13.0964 25.8511 13.1178C25.8868 13.1392 25.9219 13.1616 25.9565 13.1851C25.991 13.2087 26.025 13.2332 26.0583 13.2589C26.0916 13.2845 26.1243 13.3111 26.1563 13.3387C26.6194 13.7435 26.9144 14.3025 26.9834 14.9546C27.0518 15.6006 26.91 16.2369 26.5407 16.7471C26.1402 17.3005 25.5883 17.5869 24.9619 17.6629C24.7975 18.2159 24.5855 18.7651 24.3998 19.311L23.0842 23.1578L22.1325 25.9748C21.9816 26.4201 21.8545 26.896 21.6688 27.3239C21.6179 27.4416 21.5626 27.5567 21.5029 27.6691C21.4431 27.7815 21.3792 27.8909 21.311 27.9972C21.2428 28.1035 21.1706 28.2064 21.0945 28.3058C21.0184 28.4052 20.9385 28.5008 20.855 28.5926C20.8232 28.6284 20.7908 28.6637 20.7579 28.6984C20.725 28.7331 20.6917 28.7672 20.6579 28.8007C20.624 28.8342 20.5897 28.8671 20.5548 28.8994C20.5201 28.9317 20.4848 28.9633 20.4491 28.9943C20.4134 29.0253 20.3772 29.0557 20.3407 29.0854C20.3041 29.1152 20.2671 29.1443 20.2296 29.1727C20.1922 29.2011 20.1544 29.2289 20.1161 29.256C20.0779 29.283 20.0393 29.3094 20.0003 29.3351C19.9614 29.3608 19.922 29.3858 19.8823 29.4101C19.8426 29.4344 19.8026 29.458 19.7622 29.4809C19.7218 29.5038 19.6811 29.5259 19.6401 29.5474C19.5991 29.5688 19.5577 29.5895 19.5161 29.6094C19.4745 29.6294 19.4326 29.6486 19.3905 29.6671C19.3483 29.6856 19.3059 29.7033 19.2632 29.7202C19.2205 29.7372 19.1776 29.7534 19.1344 29.7688C19.0913 29.7843 19.0479 29.7989 19.0044 29.8128C18.1672 30.071 17.1344 29.9867 16.2619 29.9874L13.6986 29.9907H10.5635C9.93425 29.9906 9.2788 30.03 8.65407 29.9368C8.55874 29.9228 8.46396 29.9052 8.36972 29.8838C8.27548 29.8625 8.18204 29.8375 8.0894 29.8089C7.99673 29.7802 7.90509 29.748 7.81448 29.7123C7.72384 29.6765 7.63444 29.6373 7.54629 29.5945C7.49812 29.5708 7.45035 29.5461 7.40299 29.5204C7.35562 29.4948 7.30866 29.4682 7.26211 29.4407C7.21558 29.4132 7.16951 29.3848 7.1239 29.3555C7.07826 29.3262 7.0331 29.296 6.98842 29.2649C6.94376 29.2338 6.8996 29.2019 6.85595 29.1691C6.81228 29.1363 6.76917 29.1026 6.72659 29.0681C6.684 29.0336 6.64198 28.9983 6.60054 28.9621C6.55907 28.926 6.51819 28.889 6.47791 28.8513C6.43762 28.8135 6.39795 28.775 6.35886 28.7356C6.31982 28.6963 6.28138 28.6562 6.24359 28.6154C6.20581 28.5746 6.16868 28.533 6.1322 28.4907C6.09575 28.4484 6.05996 28.4054 6.02486 28.3618C5.98977 28.3181 5.95537 28.2737 5.92168 28.2287C5.888 28.1836 5.85504 28.1379 5.8228 28.0916C5.79056 28.0452 5.75907 27.9983 5.72833 27.9507C5.69758 27.9031 5.66758 27.855 5.63838 27.8062C5.26318 27.1768 5.04478 26.4373 4.80899 25.7337L4.31287 24.29L2.01824 17.6629C1.50292 17.5951 1.03172 17.3905 0.658502 16.9797C0.632414 16.9506 0.606985 16.9208 0.582215 16.8903C0.557429 16.8598 0.533325 16.8287 0.509931 16.7969C0.486528 16.7651 0.463849 16.7326 0.441887 16.6996C0.419925 16.6666 0.398712 16.6329 0.378249 16.5987C0.357769 16.5646 0.338047 16.5298 0.319091 16.4945C0.300159 16.4593 0.28201 16.4235 0.264643 16.3872C0.247284 16.351 0.230724 16.3142 0.214979 16.2771C0.199235 16.2399 0.184322 16.2023 0.17024 16.1643C0.156159 16.1264 0.142918 16.088 0.130524 16.0493C0.118156 16.0106 0.106635 15.9716 0.095971 15.9322C0.0853071 15.8929 0.0755242 15.8533 0.0666142 15.8134C0.0577042 15.7736 0.0496757 15.7335 0.0425197 15.6932C0.0353884 15.6529 0.0291466 15.6124 0.0237941 15.5717C0.0184415 15.5311 0.0139861 15.4903 0.0104287 15.4494C0.00687131 15.4085 0.00422836 15.3676 0.00249907 15.3265C0.00076978 15.2855 -6.22528e-05 15.2444 3.62502e-06 15.2034C0.00164233 14.5814 0.244336 13.9684 0.640929 13.5318C0.674263 13.4956 0.70861 13.4606 0.74397 13.4268C0.77933 13.3931 0.815653 13.3606 0.852932 13.3295C0.890186 13.2983 0.928312 13.2686 0.96732 13.2402C1.00633 13.2118 1.04612 13.1849 1.0867 13.1593C1.12728 13.1338 1.16855 13.1098 1.21052 13.0873C1.25251 13.0647 1.29511 13.0437 1.33831 13.0243C1.38151 13.0048 1.42524 12.9869 1.46948 12.9706C1.51373 12.9543 1.55841 12.9396 1.60353 12.9266C2.05641 12.7974 2.71199 12.8432 3.18822 12.8453L5.0623 12.8551C4.83765 11.987 4.68611 11.1357 4.65258 10.2297C4.64971 10.1496 4.64771 10.0694 4.6466 9.98926C4.64551 9.90907 4.64529 9.82887 4.64595 9.74864C4.64664 9.66846 4.64819 9.58828 4.65064 9.50812C4.65307 9.42795 4.6564 9.34784 4.66062 9.26778C4.66483 9.18772 4.66994 9.10773 4.67593 9.02782C4.6819 8.94788 4.68876 8.86805 4.69654 8.78832C4.70429 8.70858 4.71291 8.62896 4.72241 8.54945C4.73193 8.46995 4.74232 8.39059 4.75358 8.31136C4.76486 8.23213 4.777 8.15309 4.79001 8.07421C4.80305 7.99531 4.81693 7.91662 4.83167 7.83812C4.84643 7.7596 4.86206 7.6813 4.87856 7.60321C4.89503 7.52515 4.91238 7.44731 4.93061 7.36971C4.94882 7.29211 4.96787 7.21476 4.98779 7.13765C5.00773 7.06058 5.02851 6.98378 5.05013 6.90727C5.07175 6.83075 5.09422 6.75454 5.11753 6.67863C5.14084 6.60272 5.16498 6.52716 5.18995 6.45193C5.21493 6.37668 5.24073 6.30179 5.26737 6.22725C5.29401 6.15271 5.32146 6.07854 5.34973 6.00476C5.37801 5.93098 5.4071 5.85759 5.43702 5.7846C5.46691 5.71161 5.49762 5.63903 5.52913 5.56687C5.56062 5.49473 5.59291 5.42303 5.62602 5.35176C5.6591 5.28049 5.69297 5.20968 5.72762 5.13934C5.76228 5.069 5.79771 4.99915 5.83392 4.92977C5.87013 4.86039 5.90709 4.79152 5.94482 4.72313C5.98255 4.65477 6.02103 4.58694 6.06027 4.51965C6.09949 4.45233 6.13945 4.38556 6.18017 4.31935C6.22087 4.25312 6.26229 4.18747 6.30444 4.12239C6.34662 4.0573 6.3895 3.99279 6.43308 3.92886C6.47665 3.86496 6.52093 3.80165 6.56593 3.73894C6.61091 3.67622 6.65658 3.61414 6.70295 3.5527C6.7493 3.49125 6.79633 3.43044 6.84404 3.37026C6.89175 3.31008 6.94011 3.25057 6.98912 3.19173C7.03015 3.14232 7.07165 3.09337 7.11359 3.04489C7.15552 2.99642 7.19788 2.9484 7.2407 2.90087C7.28351 2.85335 7.32674 2.80632 7.3704 2.75977C7.41406 2.71318 7.45813 2.66711 7.50263 2.62155C7.54713 2.57598 7.59204 2.53093 7.63736 2.48638C7.68268 2.4418 7.7284 2.39774 7.77451 2.3542C7.82061 2.31067 7.86711 2.26765 7.91402 2.22518C7.96091 2.18268 8.00819 2.14071 8.05583 2.09928C8.10349 2.05784 8.15152 2.01694 8.19992 1.97659C8.24831 1.93622 8.29707 1.89641 8.3462 1.85714C8.39532 1.81788 8.4448 1.77918 8.49463 1.74104C8.54446 1.70286 8.59462 1.66527 8.64511 1.62823C8.69562 1.59121 8.74647 1.55475 8.79764 1.51889C8.84881 1.483 8.90031 1.44768 8.95213 1.41293C9.00391 1.3782 9.05604 1.34407 9.10849 1.31051C9.16092 1.27695 9.21364 1.24399 9.26666 1.21161C9.31968 1.17921 9.37299 1.14743 9.42661 1.11625C9.48022 1.08508 9.53411 1.05449 9.58827 1.0245C9.64243 0.994543 9.69685 0.965186 9.75153 0.936434C9.80623 0.907663 9.86119 0.879524 9.9164 0.852016C9.97161 0.824481 10.0271 0.797587 10.0827 0.771325C10.1384 0.745034 10.1944 0.719376 10.2505 0.694349C10.3067 0.669322 10.3631 0.644936 10.4197 0.621172C10.4763 0.597418 10.5331 0.574304 10.5901 0.551831C10.6471 0.52934 10.7043 0.50749 10.7617 0.486298C10.8192 0.465098 10.8768 0.444547 10.9346 0.424637C10.9924 0.404728 11.0503 0.385468 11.1085 0.366849C11.1666 0.348257 11.2249 0.330316 11.2834 0.313015C11.3418 0.295714 11.4005 0.279071 11.4592 0.263089C11.518 0.247106 11.5769 0.231783 11.6359 0.217118C11.695 0.202453 11.7542 0.188448 11.8135 0.175101C11.8728 0.161782 11.9322 0.149114 11.9917 0.137113C12.416 0.0550477 12.8414 0.0234391 13.2712 0.00448133Z" fill="#D93A3F"/>
<path d="M2.18123 14.4208L17.1585 14.4223L21.8342 14.4246C22.4698 14.4193 23.1054 14.418 23.7411 14.4209C24.0975 14.4198 24.4598 14.4016 24.8157 14.4211C24.9719 14.4296 25.1272 14.4683 25.2636 14.5561C25.4395 14.6693 25.5595 14.8563 25.6097 15.0743C25.6127 15.0875 25.6155 15.1007 25.618 15.1139C25.6204 15.1272 25.6225 15.1405 25.6244 15.1539C25.6262 15.1673 25.6277 15.1808 25.6289 15.1943C25.6301 15.2078 25.631 15.2213 25.6316 15.2348C25.6321 15.2483 25.6324 15.2619 25.6323 15.2754C25.6322 15.289 25.6318 15.3025 25.6311 15.3161C25.6304 15.3296 25.6294 15.3431 25.6281 15.3566C25.6268 15.37 25.6251 15.3835 25.6231 15.3968C25.6212 15.4102 25.6189 15.4235 25.6163 15.4368C25.6137 15.45 25.6108 15.4632 25.6076 15.4762C25.6044 15.4893 25.6009 15.5023 25.5971 15.5152C25.5933 15.528 25.5892 15.5408 25.5847 15.5534C25.5803 15.566 25.5756 15.5785 25.5706 15.5909C25.5656 15.6033 25.5603 15.6155 25.5548 15.6275C25.5492 15.6396 25.5434 15.6515 25.5372 15.6632C25.5311 15.6749 25.5247 15.6864 25.518 15.6978C25.3902 15.916 25.2026 16.0174 24.9798 16.0658C24.4053 16.0822 23.8273 16.0679 23.2524 16.0668L20.034 16.0597L11.6263 16.0644L5.28279 16.0658L3.25228 16.0642C2.91202 16.0647 2.56419 16.0854 2.22464 16.0649C2.06195 16.0551 1.90836 16.0087 1.77394 15.903C1.76382 15.895 1.75389 15.8868 1.74414 15.8783C1.73441 15.8698 1.72488 15.861 1.71554 15.852C1.7062 15.8429 1.69708 15.8336 1.6882 15.824C1.67929 15.8144 1.67061 15.8046 1.66215 15.7945C1.6537 15.7845 1.64548 15.7741 1.6375 15.7636C1.62953 15.7531 1.62181 15.7423 1.61433 15.7313C1.60684 15.7203 1.59962 15.7092 1.59267 15.6978C1.58569 15.6864 1.579 15.6748 1.57257 15.663C1.56615 15.6512 1.56 15.6393 1.55412 15.6271C1.54826 15.615 1.54268 15.6027 1.53737 15.5903C1.53206 15.5778 1.52704 15.5653 1.5223 15.5525C1.51758 15.5398 1.51316 15.527 1.50904 15.514C1.5049 15.501 1.50107 15.4879 1.49756 15.4747C1.49403 15.4615 1.49081 15.4482 1.48789 15.4348C1.48497 15.4214 1.48237 15.4079 1.4801 15.3944C1.4778 15.3809 1.47581 15.3673 1.47415 15.3536C1.47246 15.34 1.4711 15.3264 1.47005 15.3128C1.469 15.2991 1.46825 15.2855 1.46779 15.2718C1.46736 15.2581 1.46723 15.2444 1.46742 15.2307C1.4676 15.2169 1.4681 15.2033 1.46892 15.1896C1.46972 15.1759 1.47084 15.1623 1.47227 15.1486C1.47369 15.135 1.47542 15.1215 1.47747 15.1079C1.47952 15.0944 1.48187 15.081 1.48451 15.0676C1.48715 15.0542 1.4901 15.0409 1.49336 15.0277C1.49662 15.0144 1.50017 15.0013 1.50403 14.9883C1.50788 14.9753 1.51202 14.9624 1.51647 14.9496C1.52092 14.9368 1.52564 14.9241 1.53065 14.9116C1.53566 14.8991 1.54095 14.8867 1.54651 14.8745C1.55209 14.8623 1.55795 14.8502 1.56407 14.8383C1.57018 14.8264 1.57656 14.8147 1.58321 14.8032C1.58987 14.7916 1.59678 14.7803 1.60395 14.7691C1.61114 14.758 1.61855 14.747 1.62621 14.7363C1.77027 14.5334 1.95596 14.4462 2.18123 14.4208Z" fill="#FEFEFE"/>
<path d="M13.3895 1.63721C14.2465 1.62338 15.0853 1.7559 15.8951 2.07169C17.8158 2.82064 19.3828 4.33889 20.264 6.38439C20.2856 6.43555 20.3066 6.48696 20.3272 6.53859C20.3478 6.59024 20.3679 6.64211 20.3875 6.69421C20.4071 6.74632 20.4263 6.79864 20.4449 6.85119C20.4636 6.90373 20.4817 6.95647 20.4994 7.00943C20.5171 7.06238 20.5343 7.11554 20.551 7.16888C20.5677 7.22222 20.5839 7.27575 20.5996 7.32948C20.6153 7.3832 20.6306 7.4371 20.6453 7.49117C20.66 7.54524 20.6742 7.59947 20.6879 7.65385C20.7016 7.70826 20.7148 7.76281 20.7275 7.81749C20.7402 7.87218 20.7524 7.92701 20.7641 7.982C20.7758 8.03696 20.7869 8.09206 20.7976 8.1473C20.8083 8.20251 20.8184 8.25785 20.828 8.31332C20.8377 8.36877 20.8468 8.42432 20.8555 8.48C20.8641 8.53567 20.8722 8.59143 20.8797 8.64728C20.8873 8.70315 20.8944 8.75909 20.9009 8.81509C20.9075 8.87111 20.9135 8.9272 20.919 8.98335C20.9245 9.0395 20.9295 9.09571 20.934 9.15196C20.9385 9.20824 20.9424 9.26455 20.9459 9.32091C20.9493 9.37726 20.9522 9.43366 20.9546 9.4901C20.957 9.54653 20.9588 9.60297 20.9602 9.65942C20.9615 9.71589 20.9623 9.77236 20.9626 9.82884C20.9629 9.88534 20.9627 9.94182 20.962 9.99829C20.9612 10.0548 20.96 10.1112 20.9582 10.1677C20.9564 10.2242 20.954 10.2806 20.9512 10.337C20.9484 10.3934 20.945 10.4497 20.9411 10.5061C20.9373 10.5624 20.9329 10.6186 20.9279 10.6749C20.923 10.7311 20.9176 10.7872 20.9117 10.8433C20.9057 10.8995 20.8992 10.9555 20.8922 11.0114C20.8853 11.0674 20.8777 11.1232 20.8697 11.179C20.8617 11.2348 20.8531 11.2905 20.8441 11.3461C20.835 11.4016 20.8254 11.4571 20.8154 11.5125C20.8053 11.5678 20.7947 11.6231 20.7836 11.6782C20.7056 12.0715 20.5945 12.4506 20.4744 12.8302C19.7032 12.8593 18.9241 12.8358 18.1519 12.8363L13.6986 12.8378L6.58675 12.8443C6.32181 11.9587 6.1407 11.0837 6.11104 10.1486C6.10896 10.0816 6.10762 10.0146 6.107 9.94755C6.10641 9.8805 6.10655 9.81346 6.10742 9.74642C6.10828 9.67937 6.10989 9.61236 6.11223 9.54536C6.11456 9.47837 6.11762 9.41141 6.12142 9.34449C6.12523 9.27758 6.12977 9.21072 6.13506 9.14393C6.14032 9.07714 6.14632 9.01044 6.15307 8.94383C6.15981 8.87719 6.16727 8.81066 6.17546 8.74425C6.18366 8.67782 6.1926 8.61151 6.20226 8.54533C6.21189 8.47915 6.22227 8.4131 6.23339 8.3472C6.24449 8.2813 6.2563 8.21556 6.26883 8.14998C6.28139 8.08441 6.29465 8.019 6.30861 7.95378C6.3226 7.88856 6.3373 7.82354 6.3527 7.75873C6.3681 7.69389 6.38423 7.62928 6.40107 7.5649C6.41788 7.50052 6.43541 7.43637 6.45363 7.37246C6.47186 7.30856 6.49079 7.24491 6.51043 7.18151C6.53005 7.11811 6.55036 7.05499 6.57137 6.99212C6.5924 6.92928 6.6141 6.86673 6.63647 6.80447C6.65885 6.74222 6.68192 6.68027 6.70568 6.61865C6.72942 6.55699 6.75384 6.49569 6.77892 6.43473C6.80401 6.37376 6.82977 6.31313 6.8562 6.25286C6.88261 6.19259 6.90968 6.1327 6.9374 6.07315C6.96515 6.01364 6.99355 5.95448 7.02257 5.8957C7.0516 5.83694 7.08127 5.77858 7.11157 5.72063C7.1419 5.66266 7.17286 5.60511 7.20444 5.54799C7.23602 5.49085 7.26821 5.43417 7.30102 5.37794C7.33383 5.32169 7.36727 5.26589 7.40133 5.21054C7.43537 5.1552 7.47001 5.10033 7.50526 5.04592C7.5405 4.99152 7.57635 4.93759 7.61278 4.88415C7.64921 4.83071 7.68623 4.77777 7.72383 4.72534C7.76142 4.67291 7.79959 4.621 7.83832 4.56961C7.87703 4.51822 7.91631 4.46736 7.95616 4.41703C7.99601 4.36671 8.03641 4.31693 8.07735 4.26769C8.11178 4.22701 8.14658 4.18673 8.18176 4.14684C8.21691 4.10692 8.25243 4.06739 8.28829 4.02827C8.32415 3.98916 8.36037 3.95045 8.39694 3.91212C8.43349 3.8738 8.47039 3.8359 8.50764 3.79841C8.54487 3.7609 8.58244 3.72381 8.62032 3.68714C8.65824 3.65048 8.69647 3.61424 8.73502 3.57841C8.77358 3.5426 8.81245 3.5072 8.85164 3.47222C8.89083 3.43727 8.93033 3.40274 8.97013 3.36865C9.00993 3.33456 9.05004 3.30092 9.09043 3.2677C9.13084 3.23452 9.17156 3.20178 9.21254 3.16946C9.25353 3.13716 9.29481 3.10532 9.3364 3.07394C9.37796 3.04256 9.41979 3.01163 9.4619 2.98117C9.50402 2.95069 9.54642 2.92071 9.58907 2.8912C9.63172 2.86167 9.67464 2.83262 9.71781 2.80405C9.76099 2.77548 9.80442 2.74739 9.8481 2.71978C9.89177 2.69217 9.93571 2.66505 9.97989 2.6384C10.024 2.61175 10.0684 2.5856 10.1131 2.55994C10.1577 2.53428 10.2026 2.50914 10.2476 2.48449C10.2927 2.45982 10.338 2.43565 10.3836 2.41199C10.4291 2.38834 10.4748 2.36517 10.5207 2.34251C10.5666 2.31986 10.6128 2.29773 10.6591 2.2761C10.7054 2.25447 10.752 2.23336 10.7987 2.21276C10.8454 2.19216 10.8923 2.1721 10.9393 2.15255C10.9864 2.13297 11.0336 2.11392 11.081 2.09541C11.1284 2.07689 11.176 2.05891 11.2237 2.04146C11.2715 2.02402 11.3194 2.00708 11.3674 1.99067C11.4154 1.97425 11.4636 1.95839 11.5119 1.94307C11.5602 1.92772 11.6087 1.91291 11.6573 1.89865C11.7059 1.88439 11.7546 1.87068 11.8034 1.8575C11.8522 1.8443 11.9012 1.83165 11.9502 1.81955C11.9993 1.80744 12.0484 1.7959 12.0977 1.7849C12.147 1.77388 12.1963 1.76341 12.2457 1.75349C12.6255 1.67984 13.0047 1.65157 13.3895 1.63721Z" fill="#FEFEFE"/>
<path d="M13.5141 5.45479C13.616 5.3252 13.7204 5.19667 13.8339 5.07943C13.8615 5.05058 13.8897 5.02253 13.9186 4.99528C13.9475 4.968 13.977 4.94154 14.007 4.91591C14.0371 4.89031 14.0677 4.86554 14.0989 4.8416C14.1301 4.81769 14.1618 4.79467 14.1941 4.77253C14.2263 4.75037 14.259 4.72913 14.2922 4.70882C14.3254 4.68848 14.359 4.66909 14.3931 4.65066C14.4271 4.63219 14.4616 4.6147 14.4965 4.59819C14.5313 4.58165 14.5665 4.56609 14.6021 4.55153C14.6376 4.53697 14.6735 4.5234 14.7096 4.51084C14.7458 4.49827 14.7822 4.48673 14.8189 4.47619C14.8556 4.46568 14.8925 4.45618 14.9296 4.4477C14.9667 4.43921 15.004 4.43178 15.0415 4.4254C15.0789 4.41899 15.1165 4.41364 15.1542 4.40932C15.1919 4.40504 15.2297 4.4018 15.2675 4.3996C15.3053 4.3974 15.3432 4.39626 15.3811 4.39618C15.419 4.3961 15.4568 4.39707 15.4947 4.39911C15.5329 4.40133 15.5711 4.4046 15.6092 4.40891C15.6473 4.4132 15.6852 4.41851 15.7231 4.42487C15.761 4.43125 15.7987 4.43864 15.8362 4.44706C15.8737 4.45547 15.911 4.46489 15.9481 4.47532C15.9853 4.48576 16.0221 4.49719 16.0587 4.50963C16.0954 4.52207 16.1317 4.53549 16.1677 4.5499C16.2037 4.56431 16.2394 4.57969 16.2748 4.59603C16.3101 4.61239 16.3451 4.6297 16.3797 4.64797C16.4142 4.6662 16.4484 4.68538 16.4822 4.70549C16.5159 4.7256 16.5492 4.74661 16.582 4.76851C16.6148 4.79042 16.6472 4.81322 16.679 4.8369C16.7108 4.86056 16.7421 4.88508 16.7728 4.91046C16.8036 4.93581 16.8337 4.962 16.8633 4.98902C16.8929 5.01602 16.9219 5.04381 16.9502 5.07238C16.9786 5.10098 17.0063 5.13031 17.0334 5.1604C17.0605 5.19046 17.0869 5.22127 17.1126 5.2528C17.1377 5.28282 17.162 5.31349 17.1857 5.34482C17.2094 5.37617 17.2323 5.40816 17.2546 5.44079C17.2768 5.47341 17.2983 5.50661 17.3191 5.5404C17.3398 5.57422 17.3598 5.60857 17.379 5.64347C17.3983 5.67838 17.4167 5.71378 17.4344 5.7497C17.452 5.78562 17.4688 5.82199 17.4849 5.85885C17.5009 5.8957 17.5161 5.93297 17.5304 5.97066C17.5448 6.00835 17.5583 6.0464 17.571 6.08483C17.5836 6.12326 17.5955 6.16201 17.6064 6.20109C17.6173 6.24016 17.6274 6.27953 17.6365 6.31916C17.6457 6.3588 17.654 6.39866 17.6614 6.43876C17.6688 6.47885 17.6753 6.51912 17.6809 6.55957C17.6865 6.60002 17.6912 6.64059 17.695 6.6813C17.6988 6.72203 17.7016 6.76282 17.7036 6.80367C17.7056 6.84455 17.7066 6.88545 17.7068 6.92639C17.7069 6.96731 17.7062 7.00822 17.7045 7.04911C17.6293 8.59464 16.2271 10.1604 15.2454 11.1396C14.9128 11.4717 14.5805 11.7969 14.2202 12.0916C13.9889 12.2808 13.7446 12.4489 13.5094 12.6319C13.2143 12.429 12.9305 12.208 12.6581 11.9691C11.4532 10.917 9.52752 8.98634 9.34499 7.19463C9.2809 6.56604 9.47059 5.90927 9.82542 5.41913C10.2376 4.84981 10.8088 4.48836 11.4632 4.40937C11.6035 4.38506 11.7694 4.39664 11.9105 4.41427C12.5704 4.49662 13.107 4.88487 13.5141 5.45479Z" fill="#05172F"/>
<path d="M13.5165 6.51899C13.7782 6.01943 14.1063 5.53681 14.5724 5.25669C14.9852 5.00853 15.455 4.96438 15.9027 5.11775C15.9307 5.12723 15.9585 5.13747 15.9861 5.14849C16.0136 5.15951 16.0409 5.1713 16.0679 5.18386C16.0949 5.19642 16.1217 5.20972 16.1481 5.22375C16.1745 5.23782 16.2006 5.25259 16.2263 5.2681C16.252 5.28359 16.2774 5.29981 16.3024 5.31677C16.3274 5.33369 16.352 5.35131 16.3762 5.36961C16.4004 5.3879 16.4242 5.40687 16.4476 5.42652C16.4709 5.44616 16.4938 5.46643 16.5163 5.48735C16.5387 5.50828 16.5606 5.5298 16.5821 5.55194C16.6035 5.57407 16.6245 5.59681 16.6449 5.62014C16.6653 5.64346 16.6852 5.66734 16.7045 5.69175C16.7239 5.71619 16.7427 5.74115 16.7609 5.76663C16.7791 5.79211 16.7967 5.81808 16.8138 5.84455C16.8308 5.87101 16.8472 5.89794 16.8631 5.92532C16.8789 5.95273 16.894 5.98054 16.9086 6.00875C16.9232 6.03699 16.9371 6.06562 16.9503 6.09465C17.1572 6.54023 17.1739 7.03116 17.0373 7.50515C16.969 6.96369 16.8112 6.55219 16.4067 6.21372C16.3841 6.19467 16.361 6.17626 16.3375 6.15847C16.3141 6.14069 16.2903 6.12356 16.266 6.10707C16.2418 6.0906 16.2172 6.0748 16.1923 6.05965C16.1674 6.04453 16.1421 6.0301 16.1166 6.01635C16.091 6.00262 16.0651 5.98959 16.039 5.97725C16.0128 5.96494 15.9864 5.95336 15.9598 5.94249C15.9331 5.9316 15.9062 5.92146 15.8791 5.91207C15.852 5.90267 15.8247 5.89402 15.7972 5.88612C15.7697 5.87824 15.742 5.8711 15.7142 5.86472C15.6864 5.85834 15.6585 5.85271 15.6304 5.84785C15.6023 5.84302 15.5742 5.83894 15.546 5.83566C15.5177 5.83234 15.4894 5.82981 15.4611 5.82806C15.4327 5.82631 15.4043 5.82535 15.3759 5.82518C15.3475 5.82497 15.3191 5.82556 15.2908 5.82693C15.2624 5.82829 15.2341 5.83043 15.2058 5.83334C15.1775 5.83628 15.1493 5.83998 15.1212 5.84444C14.5703 5.93383 14.1502 6.322 13.8298 6.80876C13.7186 6.97775 13.6176 7.15536 13.5153 7.33107C13.1654 6.7192 12.7852 6.05285 12.102 5.87847C12.0741 5.87128 12.0461 5.86486 12.018 5.85921C11.9899 5.85354 11.9616 5.84867 11.9332 5.84458C11.9049 5.84048 11.8764 5.83718 11.8479 5.83467C11.8194 5.83213 11.7908 5.83038 11.7623 5.82942C11.7337 5.82849 11.7051 5.82834 11.6765 5.82897C11.6479 5.8296 11.6193 5.83102 11.5908 5.83322C11.5623 5.83543 11.5338 5.83841 11.5054 5.84218C11.477 5.84596 11.4487 5.85051 11.4205 5.85586C11.3923 5.86118 11.3642 5.86728 11.3363 5.87417C11.3084 5.88106 11.2806 5.8887 11.253 5.89712C11.2254 5.90555 11.1981 5.91473 11.1709 5.92466C11.1437 5.93457 11.1168 5.94523 11.0901 5.95665C11.0634 5.96808 11.037 5.98023 11.0108 5.99309C10.9847 6.00596 10.9588 6.01954 10.9333 6.03385C10.9077 6.04814 10.8825 6.06313 10.8576 6.07883C10.8328 6.09451 10.8082 6.11087 10.7841 6.12792C10.4043 6.39667 10.1522 6.7905 10.058 7.27962C10.0413 7.36609 10.0304 7.45195 10.0208 7.53967C10.0172 7.57314 10.0194 7.55985 10.0085 7.59396C9.89802 7.24918 9.8605 6.91192 9.93749 6.55332C9.9446 6.52148 9.95241 6.48986 9.9609 6.45845C9.9694 6.42707 9.97858 6.39592 9.98845 6.36499C9.99831 6.33409 10.0089 6.30347 10.0201 6.27312C10.0312 6.24278 10.0431 6.21276 10.0556 6.18309C10.0682 6.15337 10.0813 6.12403 10.0951 6.09506C10.1089 6.06606 10.1233 6.03746 10.1384 6.00923C10.1534 5.98104 10.1691 5.95327 10.1853 5.92592C10.2016 5.89854 10.2185 5.87162 10.2359 5.84519C10.2534 5.81874 10.2714 5.79278 10.2899 5.76731C10.3085 5.74182 10.3277 5.71687 10.3473 5.69243C10.367 5.66799 10.3872 5.64408 10.4079 5.62073C10.4286 5.59738 10.4498 5.5746 10.4716 5.55238C10.4933 5.53019 10.5155 5.50859 10.5381 5.48757C10.5608 5.46657 10.5839 5.44619 10.6074 5.42644C10.631 5.40669 10.6549 5.38757 10.6793 5.36911C10.7037 5.35065 10.7285 5.33285 10.7536 5.31573C10.7781 5.29919 10.8028 5.28333 10.8279 5.26813C10.853 5.25297 10.8785 5.23847 10.9042 5.22467C10.93 5.21087 10.956 5.19778 10.9824 5.18543C11.0087 5.17304 11.0353 5.16139 11.0621 5.15048C11.089 5.13956 11.116 5.12938 11.1433 5.11993C11.1706 5.11048 11.1981 5.1018 11.2258 5.09387C11.2535 5.08591 11.2813 5.07874 11.3093 5.07233C11.3373 5.0659 11.3655 5.06024 11.3937 5.05535C11.422 5.05046 11.4503 5.04636 11.4788 5.04304C11.5072 5.0397 11.5357 5.03713 11.5642 5.03537C11.5928 5.03357 11.6213 5.03256 11.6499 5.03233C11.6785 5.03213 11.7071 5.03269 11.7356 5.03404C11.7642 5.03539 11.7927 5.0375 11.8212 5.04038C11.8497 5.04327 11.8781 5.04695 11.9064 5.0514C11.9347 5.05586 11.9629 5.06108 11.9909 5.06706C12.019 5.07303 12.047 5.07978 12.0747 5.08731C12.7513 5.26859 13.1738 5.89033 13.5165 6.51899Z" fill="#FEFEFE"/>
<path d="M13.5157 7.33113C13.6181 7.15542 13.719 6.9778 13.8302 6.80881C14.1507 6.32205 14.5707 5.93389 15.1216 5.84449C15.1498 5.84004 15.1779 5.83634 15.2062 5.8334C15.2345 5.83049 15.2628 5.82835 15.2912 5.82698C15.3196 5.82562 15.348 5.82503 15.3764 5.82523C15.4047 5.82541 15.4331 5.82637 15.4615 5.82812C15.4898 5.82987 15.5181 5.8324 15.5464 5.83571C15.5746 5.83901 15.6028 5.84307 15.6309 5.84791C15.6589 5.85277 15.6869 5.85839 15.7147 5.86478C15.7425 5.87116 15.7701 5.87829 15.7976 5.88617C15.8251 5.89407 15.8524 5.90272 15.8796 5.91212C15.9066 5.92151 15.9335 5.93167 15.9602 5.94255C15.9869 5.95342 16.0133 5.965 16.0394 5.97731C16.0656 5.98965 16.0914 6.00267 16.117 6.0164C16.1426 6.03015 16.1678 6.0446 16.1927 6.05971C16.2177 6.07486 16.2422 6.09066 16.2664 6.10713C16.2907 6.12361 16.3145 6.14075 16.338 6.15853C16.3615 6.1763 16.3845 6.19472 16.4072 6.21377C16.8116 6.55225 16.9695 6.96374 17.0378 7.50521C16.6874 8.9773 14.631 11.0559 13.5176 11.859C12.3571 10.9379 10.455 9.14286 10.009 7.59403C10.0199 7.55991 10.0176 7.57321 10.0213 7.53974C10.0308 7.45202 10.0418 7.36615 10.0584 7.27968C10.1527 6.79057 10.4048 6.39674 10.7845 6.12798C10.8087 6.11094 10.8332 6.09457 10.8581 6.0789C10.883 6.0632 10.9082 6.04821 10.9337 6.03392C10.9593 6.01961 10.9851 6.00601 11.0113 5.99315C11.0374 5.98028 11.0638 5.96813 11.0905 5.95672C11.1172 5.94532 11.1442 5.93466 11.1714 5.92473C11.1985 5.9148 11.2259 5.90561 11.2535 5.89718C11.281 5.88877 11.3088 5.88113 11.3367 5.87423C11.3647 5.86734 11.3927 5.86124 11.4209 5.85593C11.4491 5.85058 11.4774 5.84602 11.5058 5.84225C11.5342 5.83848 11.5627 5.83549 11.5912 5.83329C11.6197 5.83108 11.6483 5.82966 11.6769 5.82903C11.7055 5.8284 11.7341 5.82856 11.7627 5.82949C11.7913 5.83045 11.8198 5.8322 11.8483 5.83474C11.8769 5.83724 11.9053 5.84055 11.9337 5.84465C11.962 5.84872 11.9903 5.8536 12.0184 5.85928C12.0466 5.86493 12.0746 5.87134 12.1025 5.87854C12.7856 6.05291 13.1659 6.71926 13.5157 7.33113Z" fill="#F7343B"/>
<path d="M3.6243 17.6521L17.8226 17.6421L21.2593 17.6436C21.9833 17.6423 22.7091 17.6291 23.4329 17.6471L20.7822 25.4531C20.4433 26.4651 20.2439 27.2141 19.3884 27.858C19.0353 28.1238 18.6105 28.3135 18.1863 28.373C17.788 28.4288 17.3592 28.3951 16.9566 28.3943L14.7517 28.3933L10.8387 28.3953L9.77833 28.3939C9.43542 28.3931 9.0875 28.4048 8.74938 28.3306C7.99772 28.1657 7.29004 27.6372 6.86543 26.9285C6.64085 26.5536 6.51459 26.0949 6.37129 25.6754C6.22032 25.2297 6.06625 24.7853 5.90908 24.3423L4.45002 20.1295C4.18599 19.3656 3.89942 18.6065 3.653 17.8359C3.63144 17.7685 3.61135 17.7236 3.6243 17.6521Z" fill="#FEFEFE"/>
<path d="M13.2777 18.4643C13.3215 18.458 13.3655 18.4556 13.4096 18.4533C13.7325 18.4363 14.0884 18.5194 14.3291 18.7743C14.5192 18.9755 14.5634 19.196 14.566 19.476C14.5809 21.0609 14.5662 22.6476 14.5656 24.2326L14.5668 25.6162C14.5678 25.8984 14.5859 26.1967 14.5507 26.4765C14.5291 26.6473 14.4537 26.7996 14.3431 26.9203C14.191 27.0864 14.0065 27.1576 13.7967 27.1596C13.4969 27.1621 13.1136 27.2145 12.8458 27.0443C12.6732 26.9346 12.5419 26.7383 12.4932 26.5242C12.4332 26.2603 12.4675 25.7438 12.4669 25.4521L12.4647 23.2719L12.4634 20.7486C12.4632 20.3025 12.4433 19.8428 12.469 19.3979C12.4798 19.2118 12.502 19.0597 12.5957 18.9015C12.7565 18.6301 13.0043 18.5229 13.2777 18.4643Z" fill="#D93A3F"/>
<path d="M17.4949 18.4477C17.807 18.4349 18.1419 18.5079 18.381 18.7467C18.5711 18.9366 18.6079 19.1375 18.6147 19.4077C18.6282 19.9392 18.6137 20.4759 18.613 21.0078L18.6141 24.0101L18.6182 25.5366C18.6206 25.8541 18.6447 26.1908 18.6081 26.5061C18.5887 26.673 18.5315 26.8026 18.4228 26.9231C18.214 27.1543 17.957 27.164 17.6817 27.1619C17.3756 27.1693 17.0453 27.2063 16.7834 26.9913C16.6485 26.8806 16.5346 26.6691 16.5142 26.4823C16.4787 26.1563 16.505 25.7951 16.505 25.4661L16.5058 23.3664L16.5053 20.762C16.5044 20.3017 16.477 19.8179 16.511 19.3603C16.5253 19.1687 16.5553 19.0217 16.667 18.8678C16.8726 18.5845 17.1816 18.4802 17.4949 18.4477Z" fill="#D93A3F"/>
<path d="M9.35329 18.4467L9.37499 18.4447C9.69663 18.4184 10.0598 18.5293 10.3038 18.7701C10.4677 18.9318 10.5488 19.1409 10.5583 19.3824C10.5771 19.8646 10.5588 20.3565 10.5588 20.8397L10.5604 23.719L10.5613 25.4741C10.5615 25.7851 10.5838 26.1184 10.5485 26.4258C10.5273 26.6097 10.4781 26.7499 10.3603 26.8875C10.168 27.1119 9.92525 27.1576 9.66021 27.1601C9.35286 27.1651 8.99293 27.2126 8.72525 27.0091C8.569 26.8903 8.43734 26.6608 8.40785 26.4519C8.36311 26.135 8.39363 25.766 8.39335 25.4426L8.39308 23.3937L8.39414 20.7271C8.39445 20.2732 8.36605 19.7942 8.40566 19.3438C8.42152 19.1633 8.4529 19.0187 8.55721 18.8735C8.75301 18.6011 9.05328 18.4894 9.35329 18.4467Z" fill="#D93A3F"/>
</svg>
