<svg width="27" height="30" viewBox="0 0 27 30" fill="none" xmlns="http://www.w3.org/2000/svg">
<path fill-rule="evenodd" clip-rule="evenodd" d="M6.56371 24.2527C6.23409 24.2527 5.97607 24.0081 5.97607 23.6956C5.97607 23.3831 6.23402 23.1385 6.56371 23.1385H12.3104C12.3248 22.663 12.3678 22.2145 12.4681 21.7663H6.56371C6.23409 21.7663 5.97607 21.5082 5.97607 21.2092C5.97607 20.8968 6.23402 20.6522 6.56371 20.6522H12.8264C13.027 20.163 13.2707 19.7011 13.5717 19.2799H6.56371C6.23409 19.2799 5.97607 19.0218 5.97607 18.7229C5.97607 18.4104 6.23402 18.1522 6.56371 18.1522H14.5462C15.9075 16.875 17.7993 16.087 19.863 16.087C20.7086 16.087 21.5111 16.2092 22.2563 16.4402V2.59513C22.2563 1.16853 21.0238 0 19.5191 0H2.73722C1.23246 0 0 1.16853 0 2.59513V25.4619C0 26.8886 1.23246 28.0434 2.73729 28.0434H14.2595C13.2707 27.0108 12.5972 25.7065 12.3822 24.2527H6.56371ZM11.121 2.43213C15.0764 2.43213 18.2866 5.47559 18.2866 9.22558C18.2866 12.9619 15.0764 16.0055 11.121 16.0055C7.1799 16.0055 3.96967 12.9619 3.96967 9.22558C3.96967 5.47559 7.1799 2.43213 11.121 2.43213Z" fill="#D93A3F"/>
<path fill-rule="evenodd" clip-rule="evenodd" d="M11.1208 15.5976C13.6287 15.5976 15.8071 14.3068 16.968 12.3911C16.3661 11.3991 15.5062 10.5839 14.4744 10.0269C13.7434 11.0459 12.5253 11.7117 11.1209 11.7117C9.73078 11.7117 8.49825 11.0459 7.78177 10.0269C6.74995 10.5839 5.89008 11.3991 5.28816 12.3911C6.44889 14.3068 8.62723 15.5976 11.1208 15.5976Z" fill="#D93A3F"/>
<path fill-rule="evenodd" clip-rule="evenodd" d="M11.1211 11.3048C13.1274 11.3048 14.7469 9.76949 14.7469 7.88089C14.7469 5.99236 13.1274 4.45703 11.1211 4.45703C9.12906 4.45703 7.5096 5.99236 7.5096 7.88089C7.5096 9.76949 9.12906 11.3048 11.1211 11.3048Z" fill="#D93A3F"/>
<path fill-rule="evenodd" clip-rule="evenodd" d="M19.863 16.4951C15.9362 16.4951 12.7404 19.5114 12.7404 23.2478C12.7404 26.9843 15.9362 30.0006 19.863 30.0006C23.8041 30.0006 27 26.9843 27 23.2478C27 19.5114 23.8042 16.4951 19.863 16.4951ZM23.7468 26.169C23.7468 26.8619 23.1449 27.4326 22.3997 27.4326H17.3265C16.5955 27.4326 15.9937 26.862 15.9937 26.169V23.8184C15.9937 23.1256 16.5956 22.5548 17.3265 22.5548H17.3838V21.4136C17.3838 20.7614 17.6705 20.1772 18.1148 19.756C18.559 19.3212 19.1896 19.063 19.8631 19.063C20.5511 19.063 21.1673 19.3212 21.6259 19.756C22.0702 20.1772 22.3569 20.7614 22.3569 21.4136V22.5548H22.3999C23.1451 22.5548 23.7469 23.1256 23.7469 23.8184V26.169H23.7468Z" fill="#D93A3F"/>
<path fill-rule="evenodd" clip-rule="evenodd" d="M19.8628 20.1899C19.5189 20.1899 19.1893 20.3258 18.96 20.5568C18.7307 20.7742 18.5873 21.0731 18.5873 21.4127V22.554H21.1526V21.4127C21.1526 21.0731 21.0093 20.7741 20.78 20.5568C20.5365 20.3258 20.2211 20.1899 19.8628 20.1899Z" fill="#D93A3F"/>
<path fill-rule="evenodd" clip-rule="evenodd" d="M19.863 23.981C19.2897 23.981 18.8024 24.4429 18.8024 25C18.8024 25.5434 19.2897 26.0054 19.863 26.0054C20.4506 26.0054 20.9235 25.5434 20.9235 25C20.9235 24.4429 20.4506 23.981 19.863 23.981Z" fill="#D93A3F"/>
</svg>
