<svg  viewBox="0 0 29 19" fill="none" xmlns="http://www.w3.org/2000/svg">
<path d="M28.8567 9.08356C27.5181 7.47448 25.8988 5.61701 24.0359 4.03838C22.1031 2.40066 20.1521 1.27147 18.0715 0.586299C16.8899 0.197141 15.6868 0 14.4956 0C12.8096 0 11.0949 0.394585 9.39927 1.1732C7.64642 1.97804 5.9928 3.08918 4.3436 4.57042C3.02606 5.75387 1.69028 7.19203 0.139472 9.09683C-0.0462603 9.32471 -0.0465364 9.66835 0.138919 9.89654C2.49733 12.8021 5.44776 16.0194 9.45151 17.8491C11.1223 18.613 12.8207 19 14.4992 19C16.0356 19 17.587 18.6756 19.111 18.0357C20.9647 17.2571 22.7106 16.1336 24.4483 14.6014C25.8388 13.3751 27.1994 11.9219 28.86 9.88988C29.0479 9.65961 29.0465 9.31205 28.8567 9.08356ZM18.8553 14.2502C17.692 15.519 16.1453 16.2177 14.5 16.2177C12.8547 16.2177 11.308 15.519 10.1447 14.2502C8.98138 12.9812 8.34071 11.2943 8.34071 9.49985C8.34071 7.70565 8.98138 6.0188 10.1447 4.74977C11.308 3.48102 12.8547 2.78225 14.5 2.78225C16.1453 2.78225 17.692 3.48102 18.8553 4.74977C20.0186 6.01883 20.6593 7.70568 20.6593 9.49985C20.6593 11.2943 20.0186 12.9812 18.8553 14.2502Z" fill="#D93A3F"/>
<path d="M14.5 3.98877C11.7132 3.98877 9.44629 6.46147 9.44629 9.50061C9.44629 12.54 11.7132 15.0127 14.5 15.0127C17.2868 15.0127 19.5538 12.54 19.5538 9.50061C19.5538 6.4615 17.2868 3.98877 14.5 3.98877ZM14.5 12.8828C12.7903 12.8828 11.3992 11.3656 11.3992 9.50061C11.3992 7.63591 12.7903 6.11877 14.5 6.11877C16.2098 6.11877 17.6008 7.63591 17.6008 9.50061C17.6008 11.3656 16.2098 12.8828 14.5 12.8828Z" fill="#D93A3F"/>
<path d="M14.5001 7.32373C13.3998 7.32373 12.5049 8.30009 12.5049 9.49982C12.5049 10.6998 13.3998 11.6762 14.5001 11.6762C15.6004 11.6762 16.4954 10.6998 16.4954 9.49982C16.4954 8.30006 15.6004 7.32373 14.5001 7.32373Z" fill="#D93A3F"/>
</svg>
