<svg width="199.8" height="55.8" viewBox="0 0 222 62" fill="none" xmlns="http://www.w3.org/2000/svg">
  <path d="M0 33.6508V2.3096H23.4801C25.6358 2.3096 27.1987 2.78879 28.1687 3.74717C29.1388 4.70907 29.6238 6.25235 29.6238 8.38756V12.214C29.6484 12.8711 29.5554 13.5269 29.3505 14.1413C29.1455 14.7557 28.833 15.3156 28.432 15.7868C27.6329 16.6853 26.4596 17.2561 24.9075 17.4887C26.276 17.6273 27.559 18.3098 28.5336 19.4177C29.4194 20.5328 29.8843 22.0031 29.8271 23.5085V27.5147C29.8271 29.6076 29.1619 31.1544 27.8315 32.155C26.5011 33.1557 24.4809 33.6543 21.7709 33.6508H0ZM20.8101 7.4098H6.27306V14.8831H20.8101C21.9141 14.8831 22.6578 14.7139 23.1198 14.3545C23.3425 14.1491 23.5173 13.8837 23.6285 13.5822C23.7398 13.2806 23.784 12.9522 23.7573 12.6263V9.66129C23.7818 9.33769 23.7369 9.01213 23.6267 8.71283C23.5164 8.41352 23.344 8.14949 23.1244 7.94361C22.6809 7.5895 21.9095 7.4098 20.8101 7.4098ZM20.8101 20.0414H6.27306V28.0167H20.8101C21.9834 28.0167 22.7918 27.8036 23.2353 27.3772C23.6741 26.9544 23.8958 26.2304 23.8958 25.1997V22.8267C23.8958 21.8014 23.6833 21.0773 23.2584 20.6651C22.8334 20.2528 22.0204 20.0414 20.8101 20.0414Z" fill="white"/>
  <path d="M36.8994 33.6508L52.3973 2.3096H58.541L74.2468 33.6508H67.0775L63.7932 26.78H46.4291L43.2464 33.6508H36.8994ZM49.1638 21.1407H61.174L55.2336 8.39285L49.1638 21.1407Z" fill="white"/>
  <path d="M87.7998 33.6508V19.6239L73.5723 2.3096H82.0719L91.4768 14.3598L100.9 2.3096H108.393L94.2299 19.4495V33.6508H87.7998Z" fill="white"/>
  <path d="M115.816 33.6508V2.3096H122.191V27.7525H142.742V33.6508H115.816Z" fill="white"/>
  <path d="M145.897 33.6508L161.372 2.29379H167.515L183.221 33.635L176.057 33.6508L172.768 26.7801H155.408L152.225 33.6508H145.897ZM158.138 21.1249H170.148L164.231 8.3929L158.138 21.1249Z" fill="white"/>
  <path d="M192.381 33.6508V2.3096H215.806C217.983 2.3096 219.559 2.78879 220.536 3.74717C221.51 4.70907 222 6.25235 222 8.38757V15.3852C222 17.4992 221.512 19.0319 220.536 19.9833C219.559 20.9346 217.983 21.4191 215.806 21.4367H198.649V33.6508H192.381ZM212.983 7.75334H198.663V16.0405H212.983C214.069 16.0405 214.831 15.8608 215.237 15.512C215.644 15.1632 215.856 14.5025 215.856 13.5512V10.1951C215.884 9.84835 215.843 9.49891 215.736 9.17303C215.628 8.84715 215.458 8.55331 215.237 8.31357C214.822 7.92776 214.069 7.75334 212.983 7.75334Z" fill="white"/>
<path d="M85.0098 0.000213623L91.4814 8.29267L97.967 0.000213623H85.0098Z" fill="#D93A3F"/>
<path d="M49.6844 52.536C49.6844 53.6886 49.4763 54.6846 49.0601 55.5241C48.6439 56.3636 48.0729 57.0111 47.3472 57.4664C46.6216 57.9217 45.7927 58.1494 44.8607 58.1494C43.9287 58.1494 43.0998 57.9217 42.3742 57.4664C41.6485 57.0111 41.0775 56.3636 40.6613 55.5241C40.2451 54.6846 40.037 53.6886 40.037 52.536C40.037 51.3834 40.2451 50.3874 40.6613 49.5479C41.0775 48.7084 41.6485 48.0609 42.3742 47.6056C43.0998 47.1503 43.9287 46.9226 44.8607 46.9226C45.7927 46.9226 46.6216 47.1503 47.3472 47.6056C48.0729 48.0609 48.6439 48.7084 49.0601 49.5479C49.4763 50.3874 49.6844 51.3834 49.6844 52.536ZM48.4038 52.536C48.4038 51.5898 48.2455 50.7912 47.9289 50.1402C47.6158 49.4892 47.1907 48.9965 46.6536 48.6621C46.12 48.3277 45.5224 48.1605 44.8607 48.1605C44.199 48.1605 43.5996 48.3277 43.0625 48.6621C42.5289 48.9965 42.1038 49.4892 41.7872 50.1402C41.4742 50.7912 41.3176 51.5898 41.3176 52.536C41.3176 53.4822 41.4742 54.2809 41.7872 54.9318C42.1038 55.5828 42.5289 56.0755 43.0625 56.4099C43.5996 56.7443 44.199 56.9115 44.8607 56.9115C45.5224 56.9115 46.12 56.7443 46.6536 56.4099C47.1907 56.0755 47.6158 55.5828 47.9289 54.9318C48.2455 54.2809 48.4038 53.4822 48.4038 52.536ZM57.5058 53.0696V58H56.2465V49.804H57.4631V51.0846H57.5698C57.7619 50.6684 58.0536 50.334 58.4449 50.0815C58.8362 49.8254 59.3414 49.6973 59.9603 49.6973C60.5153 49.6973 61.0008 49.8111 61.417 50.0388C61.8332 50.2629 62.1569 50.6044 62.3882 51.0633C62.6194 51.5186 62.735 52.0949 62.735 52.7921V58H61.4757V52.8775C61.4757 52.2336 61.3085 51.7321 60.9741 51.3728C60.6398 51.0099 60.1809 50.8285 59.5975 50.8285C59.1955 50.8285 58.8362 50.9157 58.5196 51.09C58.2066 51.2643 57.9593 51.5186 57.7779 51.853C57.5965 52.1874 57.5058 52.5929 57.5058 53.0696ZM70.8032 47.072V58H69.5439V47.072H70.8032ZM77.6175 58V49.804H78.8767V58H77.6175ZM78.2578 48.438C78.0123 48.438 77.8007 48.3544 77.6228 48.1872C77.4485 48.02 77.3613 47.819 77.3613 47.5843C77.3613 47.3495 77.4485 47.1485 77.6228 46.9813C77.8007 46.8141 78.0123 46.7305 78.2578 46.7305C78.5032 46.7305 78.7131 46.8141 78.8874 46.9813C79.0653 47.1485 79.1542 47.3495 79.1542 47.5843C79.1542 47.819 79.0653 48.02 78.8874 48.1872C78.7131 48.3544 78.5032 48.438 78.2578 48.438ZM86.9503 53.0696V58H85.691V49.804H86.9076V51.0846H87.0143C87.2064 50.6684 87.4981 50.334 87.8894 50.0815C88.2807 49.8254 88.7858 49.6973 89.4048 49.6973C89.9597 49.6973 90.4453 49.8111 90.8615 50.0388C91.2777 50.2629 91.6014 50.6044 91.8326 51.0633C92.0639 51.5186 92.1795 52.0949 92.1795 52.7921V58H90.9202V52.8775C90.9202 52.2336 90.753 51.7321 90.4186 51.3728C90.0842 51.0099 89.6253 50.8285 89.0419 50.8285C88.64 50.8285 88.2807 50.9157 87.9641 51.09C87.651 51.2643 87.4038 51.5186 87.2224 51.853C87.041 52.1874 86.9503 52.5929 86.9503 53.0696ZM102.425 58.1707C101.635 58.1707 100.954 57.9964 100.381 57.6478C99.8119 57.2957 99.3726 56.8048 99.0631 56.1751C98.7572 55.5419 98.6042 54.8056 98.6042 53.966C98.6042 53.1265 98.7572 52.3866 99.0631 51.7463C99.3726 51.1024 99.803 50.6008 100.354 50.2416C100.909 49.8787 101.557 49.6973 102.297 49.6973C102.724 49.6973 103.145 49.7684 103.561 49.9107C103.977 50.053 104.356 50.2842 104.698 50.6044C105.039 50.921 105.311 51.3408 105.514 51.8637C105.717 52.3866 105.818 53.0305 105.818 53.7953V54.3289H99.5006V53.2403H104.538C104.538 52.7779 104.445 52.3653 104.26 52.0024C104.079 51.6396 103.819 51.3532 103.481 51.1433C103.147 50.9334 102.752 50.8285 102.297 50.8285C101.795 50.8285 101.361 50.953 100.995 51.202C100.632 51.4475 100.353 51.7676 100.157 52.1625C99.9613 52.5574 99.8635 52.9807 99.8635 53.4324V54.1581C99.8635 54.7771 99.9702 55.3018 100.184 55.7322C100.401 56.1591 100.701 56.4846 101.085 56.7087C101.47 56.9293 101.916 57.0395 102.425 57.0395C102.756 57.0395 103.054 56.9933 103.321 56.9008C103.592 56.8048 103.825 56.6625 104.02 56.4739C104.216 56.2818 104.367 56.0435 104.474 55.7589L105.69 56.1004C105.562 56.5131 105.347 56.8759 105.045 57.1889C104.742 57.4984 104.369 57.7403 103.924 57.9146C103.479 58.0854 102.98 58.1707 102.425 58.1707ZM127.123 49.804C127.059 49.2633 126.799 48.8435 126.344 48.5447C125.888 48.2459 125.33 48.0965 124.668 48.0965C124.184 48.0965 123.761 48.1748 123.398 48.3313C123.039 48.4878 122.758 48.703 122.555 48.9769C122.356 49.2509 122.256 49.5621 122.256 49.9107C122.256 50.2024 122.326 50.4532 122.464 50.6631C122.607 50.8694 122.788 51.0419 123.009 51.1807C123.229 51.3159 123.46 51.4279 123.702 51.5168C123.944 51.6022 124.167 51.6716 124.369 51.7249L125.479 52.0238C125.764 52.0985 126.08 52.2016 126.429 52.3332C126.781 52.4649 127.117 52.6445 127.437 52.8722C127.761 53.0963 128.028 53.3844 128.238 53.7366C128.448 54.0888 128.553 54.521 128.553 55.0332C128.553 55.6237 128.398 56.1573 128.088 56.634C127.782 57.1107 127.334 57.4895 126.744 57.7706C126.157 58.0516 125.444 58.1921 124.604 58.1921C123.821 58.1921 123.144 58.0658 122.571 57.8132C122.002 57.5607 121.554 57.2085 121.226 56.7567C120.903 56.305 120.72 55.7803 120.677 55.1826H122.043C122.078 55.5953 122.217 55.9368 122.459 56.2071C122.704 56.4739 123.014 56.6731 123.387 56.8048C123.765 56.9328 124.17 56.9968 124.604 56.9968C125.109 56.9968 125.563 56.915 125.965 56.7514C126.367 56.5842 126.685 56.353 126.92 56.0577C127.155 55.7589 127.272 55.4103 127.272 55.0119C127.272 54.649 127.171 54.3538 126.968 54.1261C126.765 53.8984 126.498 53.7135 126.167 53.5712C125.837 53.4289 125.479 53.3044 125.095 53.1977L123.75 52.8135C122.897 52.568 122.221 52.2176 121.723 51.7623C121.225 51.307 120.976 50.7111 120.976 49.9748C120.976 49.3629 121.141 48.8293 121.472 48.374C121.806 47.9151 122.254 47.5594 122.817 47.3068C123.382 47.0507 124.014 46.9226 124.711 46.9226C125.415 46.9226 126.041 47.0489 126.589 47.3015C127.137 47.5505 127.571 47.892 127.891 48.326C128.215 48.7599 128.385 49.2526 128.403 49.804H127.123ZM138.63 49.804V50.8712H134.382V49.804H138.63ZM135.62 47.8404H136.88V55.6522C136.88 56.0079 136.931 56.2747 137.034 56.4526C137.141 56.6269 137.276 56.7443 137.44 56.8048C137.607 56.8617 137.783 56.8901 137.968 56.8901C138.107 56.8901 138.221 56.883 138.31 56.8688C138.399 56.851 138.47 56.8368 138.523 56.8261L138.779 57.9573C138.694 57.9893 138.575 58.0213 138.422 58.0534C138.269 58.0889 138.075 58.1067 137.84 58.1067C137.484 58.1067 137.136 58.0302 136.794 57.8773C136.456 57.7243 136.175 57.4913 135.951 57.1783C135.731 56.8652 135.62 56.4704 135.62 55.9937V47.8404ZM148.273 58.1707C147.534 58.1707 146.884 57.9947 146.326 57.6425C145.771 57.2903 145.337 56.7976 145.024 56.1644C144.714 55.5312 144.56 54.7913 144.56 53.9447C144.56 53.0909 144.714 52.3457 145.024 51.7089C145.337 51.0722 145.771 50.5777 146.326 50.2255C146.884 49.8734 147.534 49.6973 148.273 49.6973C149.013 49.6973 149.661 49.8734 150.216 50.2255C150.774 50.5777 151.208 51.0722 151.518 51.7089C151.831 52.3457 151.987 53.0909 151.987 53.9447C151.987 54.7913 151.831 55.5312 151.518 56.1644C151.208 56.7976 150.774 57.2903 150.216 57.6425C149.661 57.9947 149.013 58.1707 148.273 58.1707ZM148.273 57.0395C148.836 57.0395 149.298 56.8955 149.661 56.6073C150.024 56.3192 150.292 55.9403 150.467 55.4708C150.641 55.0012 150.728 54.4925 150.728 53.9447C150.728 53.3969 150.641 52.8864 150.467 52.4133C150.292 51.9402 150.024 51.5578 149.661 51.2661C149.298 50.9744 148.836 50.8285 148.273 50.8285C147.711 50.8285 147.249 50.9744 146.886 51.2661C146.523 51.5578 146.255 51.9402 146.08 52.4133C145.906 52.8864 145.819 53.3969 145.819 53.9447C145.819 54.4925 145.906 55.0012 146.08 55.4708C146.255 55.9403 146.523 56.3192 146.886 56.6073C147.249 56.8955 147.711 57.0395 148.273 57.0395ZM158.417 58V49.804H159.634V51.0419H159.719C159.869 50.6364 160.139 50.3074 160.53 50.0548C160.922 49.8022 161.363 49.6759 161.854 49.6759C161.946 49.6759 162.062 49.6777 162.2 49.6813C162.339 49.6848 162.444 49.6902 162.515 49.6973V50.9779C162.473 50.9672 162.375 50.9512 162.222 50.9299C162.072 50.905 161.914 50.8925 161.747 50.8925C161.349 50.8925 160.993 50.9761 160.68 51.1433C160.37 51.307 160.125 51.5346 159.943 51.8263C159.766 52.1145 159.677 52.4435 159.677 52.8135V58H158.417ZM171.703 58.1707C170.913 58.1707 170.232 57.9964 169.659 57.6478C169.09 57.2957 168.651 56.8048 168.341 56.1751C168.035 55.5419 167.882 54.8056 167.882 53.966C167.882 53.1265 168.035 52.3866 168.341 51.7463C168.651 51.1024 169.081 50.6008 169.632 50.2416C170.187 49.8787 170.835 49.6973 171.575 49.6973C172.002 49.6973 172.423 49.7684 172.839 49.9107C173.255 50.053 173.634 50.2842 173.976 50.6044C174.317 50.921 174.589 51.3408 174.792 51.8637C174.995 52.3866 175.096 53.0305 175.096 53.7953V54.3289H168.779V53.2403H173.816C173.816 52.7779 173.723 52.3653 173.538 52.0024C173.357 51.6396 173.097 51.3532 172.759 51.1433C172.425 50.9334 172.03 50.8285 171.575 50.8285C171.073 50.8285 170.639 50.953 170.273 51.202C169.91 51.4475 169.631 51.7676 169.435 52.1625C169.239 52.5574 169.141 52.9807 169.141 53.4324V54.1581C169.141 54.7771 169.248 55.3018 169.462 55.7322C169.679 56.1591 169.979 56.4846 170.363 56.7087C170.748 56.9293 171.194 57.0395 171.703 57.0395C172.034 57.0395 172.332 56.9933 172.599 56.9008C172.87 56.8048 173.103 56.6625 173.298 56.4739C173.494 56.2818 173.645 56.0435 173.752 55.7589L174.968 56.1004C174.84 56.5131 174.625 56.8759 174.323 57.1889C174.02 57.4984 173.647 57.7403 173.202 57.9146C172.757 58.0854 172.258 58.1707 171.703 58.1707Z" fill="white"/>
</svg>