<svg width="134" height="24" viewBox="0 0 134 24" fill="none" xmlns="http://www.w3.org/2000/svg">
<path d="M0 23.9992V1.64648H14.1727C15.4738 1.64648 16.4172 1.98825 17.0027 2.67177C17.5883 3.35781 17.881 4.45848 17.881 5.98133V8.7104C17.8959 9.17899 17.8397 9.64673 17.716 10.0849C17.5923 10.5231 17.4037 10.9225 17.1617 11.2585C16.6793 11.8993 15.9711 12.3064 15.0342 12.4723C15.8603 12.5711 16.6347 13.0579 17.223 13.8481C17.7576 14.6434 18.0382 15.692 18.0037 16.7657V19.6229C18.0037 21.1156 17.6022 22.2188 16.7992 22.9325C15.9962 23.6461 14.7768 24.0017 13.141 23.9992H0ZM12.5611 5.28399H3.78644V10.614H12.5611C13.2274 10.614 13.6764 10.4933 13.9552 10.237C14.0896 10.0905 14.1951 9.90124 14.2623 9.68616C14.3294 9.47107 14.3561 9.23685 14.34 9.00442V6.88977C14.3547 6.65897 14.3277 6.42678 14.2611 6.21331C14.1946 5.99984 14.0905 5.81153 13.958 5.6647C13.6903 5.41215 13.2247 5.28399 12.5611 5.28399ZM12.5611 14.2929H3.78644V19.981H12.5611C13.2693 19.981 13.7572 19.829 14.0249 19.5249C14.2898 19.2233 14.4236 18.7069 14.4236 17.9719V16.2794C14.4236 15.5482 14.2953 15.0317 14.0388 14.7377C13.7823 14.4437 13.2916 14.2929 12.5611 14.2929Z" fill="white"/>
<path d="M22.2725 23.9992L31.6271 1.64648H35.3355L44.8155 23.9992H40.4881L38.5057 19.099H28.0247L26.1036 23.9992H22.2725ZM29.6753 15.077H36.9248L33.3391 5.9851L29.6753 15.077Z" fill="white"/>
<path d="M52.9962 23.9992V13.9951L44.4084 1.64648H49.5388L55.2156 10.2408L60.9037 1.64648H65.4262L56.8774 13.8708V23.9992H52.9962Z" fill="white"/>
<path d="M69.9069 23.9992V1.64648H73.7547V19.7925H86.1596V23.9992H69.9069Z" fill="white"/>
<path d="M88.0641 23.9998L97.4047 1.63574H101.113L110.593 23.9885L106.269 23.9998L104.283 19.0995H93.8051L91.884 23.9998H88.0641ZM95.4529 15.0662H102.702L99.1306 5.98567L95.4529 15.0662Z" fill="white"/>
<path d="M116.122 23.9992V1.64648H130.261C131.575 1.64648 132.527 1.98825 133.116 2.67177C133.704 3.35781 134 4.45848 134 5.98133V10.9721C134 12.4798 133.705 13.573 133.116 14.2515C132.527 14.93 131.575 15.2755 130.261 15.2881H119.905V23.9992H116.122ZM128.557 5.529H119.914V11.4395H128.557C129.213 11.4395 129.673 11.3113 129.918 11.0625C130.163 10.8137 130.292 10.3426 130.292 9.66407V7.27048C130.308 7.02318 130.283 6.77395 130.219 6.54153C130.154 6.30911 130.051 6.09954 129.918 5.92856C129.667 5.65339 129.213 5.529 128.557 5.529Z" fill="white"/>
<path d="M51.3121 0L55.2185 5.91424L59.1332 0H51.3121Z" fill="#D93A3F"/>
</svg>
