<svg width="40" height="40" viewBox="0 0 40 40" fill="none" xmlns="http://www.w3.org/2000/svg">
<g clip-path="url(#clip0_981_4335)">
<rect width="40" height="40" rx="8" fill="#F4EBE7"/>
<path fill-rule="evenodd" clip-rule="evenodd" d="M13.9407 12.642C11.6065 13.2632 9.95432 13.9849 8.18883 15.1547C5.33149 17.0482 3.0258 19.5786 1.53447 22.4577C-0.0102878 25.4402 1.7784e-06 25.3684 1.7784e-06 33.1781V39.9927L2.57239 39.9963C3.98721 39.9983 12.2396 40 20.911 40C29.5825 40 37.425 39.9983 38.3387 39.9963L40 39.9927L39.9569 32.8025L39.9135 25.6123L38.6688 25.3165C37.9842 25.1539 36.9264 24.7961 36.3182 24.5217C35.7099 24.2471 35.1686 24.0664 35.1149 24.1201C35.0615 24.1739 35.0177 24.5092 35.0177 24.8653C35.0177 26.0512 34.5031 27.8941 33.725 29.4946C32.3778 32.2659 29.6119 34.6392 26.6002 35.6077C23.314 36.6646 19.2675 36.1024 16.3646 34.1857C12.9245 31.9145 10.9063 28.178 10.9051 24.0789C10.9046 21.9772 11.2458 20.5279 12.212 18.5286C12.8329 17.244 13.2098 16.7261 14.4056 15.5143C15.8142 14.0866 16.8419 13.44 19.4174 12.3609C19.737 12.2269 19.0078 12.086 17.75 12.0833C16.4922 12.0807 15.4108 12.2508 13.9407 12.642ZM21.3259 20.9683C20.0832 21.5657 19.2514 22.831 19.2514 24.1243C19.2514 25.3287 19.9911 26.4307 20.7847 26.9579C21.6959 27.5633 23.236 27.6718 24.1609 27.1955C25.3649 26.5758 26.0558 25.4938 26.0558 24.2281C26.0558 23.479 26.0422 23.4564 25.7523 23.7198C25.2668 24.1609 24.318 24.0768 23.9104 23.5565C23.7213 23.3151 23.6494 22.9958 23.6494 22.7458C23.6494 22.2024 23.9813 21.8293 24.5325 21.6424L24.8941 21.4961L24.4339 21.1373C23.7324 20.5796 22.1699 20.5626 21.3259 20.9683Z" fill="#173858"/>
<path fill-rule="evenodd" clip-rule="evenodd" d="M0 8.99913V18.1649L2.05411 15.8816C3.09245 14.8001 4.53328 13.4879 5.25594 12.9656C10.6154 9.09112 17.0702 7.76942 22.9046 9.35177C25.4153 10.0325 29.1879 12.2305 29.8282 13.385C29.9391 13.585 30.0324 14.0791 30.0357 14.4829C30.0435 15.4658 29.4538 16.2534 28.521 16.5056C28.3353 16.5558 28.205 16.5948 28.0721 16.6094C27.69 16.6514 27.2858 16.492 25.4772 15.82C23.97 15.2599 21.7188 15.2892 20.1822 15.8888C19.5522 16.1348 18.768 16.5017 18.4395 16.7046C16.7866 17.7251 15.3404 19.6053 14.7618 21.4859C14.3535 22.813 14.3144 25.1862 14.681 26.3803C15.6803 29.634 18.4888 32.0366 21.8717 32.5317C24.5882 32.9292 26.9326 32.1187 28.9627 30.0804C30.8788 28.1565 31.6425 26.1113 31.4903 23.3113C31.3779 21.246 31.6637 20.4834 32.7329 19.9961C33.6881 19.5608 34.469 19.5829 35.359 20.0704C37.2437 21.1025 38.8083 21.8246 39.3776 21.9251L40 22.035V11.0174V0H20.083H0V8.99913ZM28.1575 22.2044C27.5485 20.5429 26.1773 19.2022 24.5995 18.7254C23.4876 18.3894 21.5014 18.4486 20.4651 18.8487C19.3079 19.2953 18.1054 20.4154 17.5044 21.6063C17.0676 22.4722 16.9295 23.1644 16.9295 24.1263C16.9295 25.0882 17.0729 25.7044 17.4762 26.5291C18.0798 27.7632 19.4531 29.027 20.7059 29.5015C21.9246 29.9631 23.8934 29.8968 25.1185 29.3528C26.2531 28.8492 27.601 27.4087 28.0559 26.2136C28.4989 25.0494 28.5444 23.2594 28.1575 22.2044Z" fill="#81AECB"/>
</g>
<rect x="0.75" y="0.75" width="38.5" height="38.5" rx="7.25" stroke="#F4EBE7" stroke-width="1.5"/>
<defs>
<clipPath id="clip0_981_4335">
<rect width="40" height="40" rx="8" fill="white"/>
</clipPath>
</defs>
</svg>
