<svg width="80" height="45" viewBox="10 18 80 38" fill="none" xmlns="http://www.w3.org/2000/svg">
  <path d="M90.3876 50.5534V50.5713C90.3876 51.5912 89.8493 52.4187 89.183 52.4187H15.5183C13.5828 52.4187 12.0137 50.0365 12.0137 47.0976V46.9835L70.5919 46.9368H71.2296L90.3581 46.9203C90.359 47.0192 90.3858 50.2015 90.3876 50.5534Z" fill="#413028"/>
<path d="M90.3876 50.5534V50.5713C90.3876 51.5912 89.8493 52.4187 89.183 52.4187H15.5183C13.5828 52.4187 12.0137 50.0365 12.0137 47.0976V46.9835L70.5919 46.9368H71.2296L90.3581 46.9203C90.359 47.0192 90.3858 50.2015 90.3876 50.5534Z" fill="#413028"/>
<path d="M12.7345 47.6254H10.5057C10.0339 47.6254 9.65137 47.2396 9.65137 46.7637V46.507C9.65137 46.0312 10.0339 45.6454 10.5057 45.6454H12.7345V47.6254Z" fill="#F4930B"/>
<path d="M70.2669 44.8734H10.6514V47.9791C10.6514 48.1198 10.7645 48.2339 10.904 48.2339H20.6243L25.2806 46.5536L29.9605 48.2339H38.6549L42.6039 46.4781L48.0106 48.2339H70.2669V44.8734Z" fill="#4F3B33"/>
<path d="M42.7484 59.9052C46.043 59.9052 48.7137 57.2119 48.7137 53.8894C48.7137 50.5669 46.043 47.8735 42.7484 47.8735C39.4539 47.8735 36.7832 50.5669 36.7832 53.8894C36.7832 57.2119 39.4539 59.9052 42.7484 59.9052Z" fill="#2D1E18"/>
<path d="M45.5262 56.6921C47.0612 55.1442 47.0612 52.6344 45.5262 51.0865C43.9913 49.5385 41.5027 49.5385 39.9677 51.0864C38.4328 52.6344 38.4328 55.1442 39.9677 56.6921C41.5027 58.2401 43.9913 58.2401 45.5262 56.6921Z" fill="#D6D6D6"/>
<path d="M44.3385 55.4937C45.217 54.6078 45.217 53.1713 44.3385 52.2853C43.46 51.3994 42.0356 51.3994 41.1571 52.2853C40.2786 53.1713 40.2786 54.6078 41.1571 55.4937C42.0356 56.3797 43.46 56.3797 44.3385 55.4937Z" fill="#2D1E18"/>
<path d="M42.749 54.5522C43.1119 54.5522 43.4062 54.2555 43.4062 53.8894C43.4062 53.5234 43.1119 53.2267 42.749 53.2267C42.386 53.2267 42.0918 53.5234 42.0918 53.8894C42.0918 54.2555 42.386 54.5522 42.749 54.5522Z" fill="#EDECEB"/>
<path d="M41.9054 52.8709C41.9825 52.7058 41.9121 52.5089 41.7483 52.4312C41.5845 52.3536 41.3893 52.4245 41.3123 52.5897C41.2353 52.7549 41.3056 52.9518 41.4694 53.0294C41.6332 53.1071 41.8284 53.0361 41.9054 52.8709Z" fill="#EDECEB"/>
<path d="M43.7958 52.3903C43.8084 52.2082 43.6723 52.0503 43.4917 52.0376C43.3112 52.0249 43.1546 52.1622 43.142 52.3443C43.1294 52.5263 43.2655 52.6843 43.4461 52.697C43.6266 52.7097 43.7832 52.5724 43.7958 52.3903Z" fill="#EDECEB"/>
<path d="M44.5174 54.2998C44.6847 54.2303 44.7646 54.0372 44.6957 53.8684C44.6268 53.6996 44.4352 53.6191 44.2679 53.6886C44.1005 53.7581 44.0207 53.9513 44.0896 54.1201C44.1585 54.2888 44.35 54.3693 44.5174 54.2998Z" fill="#EDECEB"/>
<path d="M43.1538 55.8278C43.331 55.7906 43.4447 55.6155 43.4078 55.4368C43.3708 55.2581 43.1972 55.1435 43.02 55.1807C42.8429 55.218 42.7292 55.393 42.7661 55.5717C42.803 55.7504 42.9766 55.8651 43.1538 55.8278Z" fill="#EDECEB"/>
<path d="M41.6387 54.6677C41.6781 54.4896 41.5668 54.313 41.3902 54.2732C41.2135 54.2335 41.0384 54.3457 40.999 54.5239C40.9597 54.702 41.0709 54.8786 41.2476 54.9183C41.4242 54.9581 41.5993 54.8458 41.6387 54.6677Z" fill="#EDECEB"/>
<path d="M50.4072 53.298H49.1691C49.1691 49.9253 46.2954 47.1814 42.7632 47.1814C39.2309 47.1814 36.3572 49.9253 36.3572 53.298H35.1191C35.1191 49.3065 38.5483 46.0592 42.7632 46.0592C46.9781 46.0592 50.4072 49.3065 50.4072 53.298Z" fill="#4F3B33"/>
<path d="M91.5032 47.6874H90.3877V44.4313H91.5032C92.3948 44.4313 93.1176 45.1602 93.1176 46.0593C93.1176 46.9585 92.3948 47.6874 91.5032 47.6874Z" fill="white"/>
<path d="M91.7822 50.2743H90.3789V48.5121H91.7822C92.2138 48.5121 92.5638 48.865 92.5638 49.3003V49.486C92.5638 49.9214 92.2138 50.2743 91.7822 50.2743Z" fill="white"/>
<path d="M91.6913 51.0351V51.0484C91.6913 51.805 91.0837 52.4188 90.3315 52.4188H69.0537C69.1619 51.0688 69.26 49.7137 69.3449 48.3525C69.7756 41.4658 69.8757 34.4263 69.2984 27.1664C69.1831 25.7206 70.3084 24.4807 71.7472 24.4807H85.6452C87.2012 24.4807 88.5591 25.5472 88.9392 27.0696L90.9441 35.0798C91.4052 36.9213 91.5872 43.8202 91.6579 48.3402C91.659 48.4136 91.6883 50.7741 91.6913 51.0351Z" fill="#D4010B"/>
<path d="M71.1777 16.2237V24.1072C71.1777 24.3135 71.3435 24.4806 71.548 24.4806H85.2315C83.9219 17.5446 73.7624 16.0862 71.5869 15.8524C71.3682 15.8288 71.1777 16.0019 71.1777 16.2237Z" fill="#D4010B"/>
<path d="M75.8603 40.6305H72.9066C72.8039 40.6305 72.7207 40.5466 72.7207 40.443V39.7996C72.7207 39.696 72.8039 39.6121 72.9066 39.6121H74.9408C75.4736 39.6121 75.9055 40.0476 75.9055 40.5849C75.9055 40.6101 75.8853 40.6305 75.8603 40.6305Z" fill="#413028"/>
<path d="M88.5799 38.9215L84.7174 38.0782L83.6088 37.836L82.6347 37.6234L80.1482 37.0804L73.8113 35.6967L73.7559 27.2848H83.2445C85.6725 27.2848 87.7781 28.828 88.3197 31.0044L89.9376 37.507C90.1449 38.3403 89.4126 39.1034 88.5799 38.9215Z" fill="#019DBD"/>
<path d="M82.9058 24.8277H71.3797C70.7655 24.8277 70.2676 24.3255 70.2676 23.7061C70.2676 23.0866 70.7655 22.5845 71.3797 22.5845H82.9058C83.5201 22.5845 84.018 23.0866 84.018 23.7061C84.018 24.3255 83.5201 24.8277 82.9058 24.8277Z" fill="#D4010B"/>
<path d="M90.0339 51.0932H87.9102C87.8266 51.0932 87.7588 51.0249 87.7588 50.9405V50.3282C87.7588 50.2439 87.8266 50.1755 87.9102 50.1755H90.0339C90.1176 50.1755 90.1853 50.2439 90.1853 50.3282V50.9405C90.1853 51.0249 90.1175 51.0932 90.0339 51.0932Z" fill="#F4930B"/>
<g opacity="0.64">
<path d="M82.6347 37.6234L80.1482 37.0804L77.916 27.2848H80.2789L82.6347 37.6234Z" fill="white"/>
<path d="M84.7172 38.0782L83.6085 37.8361L81.2041 27.2848H82.2579L84.7172 38.0782Z" fill="white"/>
</g>
<path d="M88.8256 39.0097C88.7396 39.0097 88.6527 39.0004 88.5663 38.9815L73.7976 35.7567C73.7699 35.7506 73.75 35.7259 73.7498 35.6972L73.6943 27.2853C73.6943 27.269 73.7006 27.2533 73.712 27.2417C73.7234 27.2302 73.7389 27.2236 73.7551 27.2236H83.2438C84.4308 27.2236 85.5959 27.5984 86.5245 28.279C87.4543 28.9604 88.1125 29.9231 88.3778 30.9896L89.9957 37.4922C90.0983 37.9042 89.9845 38.3325 89.6916 38.6377C89.4602 38.8788 89.149 39.0097 88.8256 39.0097ZM88.592 38.8618C88.9623 38.9427 89.3408 38.827 89.6043 38.5525C89.8678 38.2779 89.9701 37.8927 89.8779 37.522L88.26 31.0194C87.7218 28.8566 85.6591 27.3461 83.2438 27.3461H73.8162L73.8709 35.6473L88.592 38.8618Z" fill="#413028"/>
<path d="M85.2314 24.5419H74.0432C74.0096 24.5419 73.9824 24.5145 73.9824 24.4807C73.9824 24.4468 74.0096 24.4194 74.0432 24.4194H85.2314C85.265 24.4194 85.2922 24.4468 85.2922 24.4807C85.2922 24.5145 85.265 24.5419 85.2314 24.5419Z" fill="#413028"/>
<path d="M89.9731 41.672H80.3732C80.3397 41.672 80.3125 41.6445 80.3125 41.6107C80.3125 41.5769 80.3397 41.5494 80.3732 41.5494H89.9731C90.0066 41.5494 90.0338 41.5769 90.0338 41.6107C90.0338 41.6445 90.0066 41.672 89.9731 41.672Z" fill="#413028"/>
<path d="M85.0109 52.4188H69.8857L73.0984 45.7911H83.3101L85.0109 52.4188Z" fill="#413028"/>
<path d="M69.0537 52.4188H70.4673L72.1735 49.1304C72.9784 47.5791 74.5709 46.6069 76.307 46.6069H79.0619C80.7895 46.6069 82.3758 47.5698 83.1844 49.1095L84.9225 52.4188H86.545L84.9672 47.4857C84.4692 45.9288 83.0323 44.8735 81.4101 44.8735H74.8554C73.3885 44.8735 72.0572 45.7389 71.4514 47.0862L69.0537 52.4188Z" fill="#4F3B33"/>
<path d="M77.5902 59.9052C80.8847 59.9052 83.5555 57.2119 83.5555 53.8894C83.5555 50.5669 80.8847 47.8735 77.5902 47.8735C74.2957 47.8735 71.625 50.5669 71.625 53.8894C71.625 57.2119 74.2957 59.9052 77.5902 59.9052Z" fill="#2D1E18"/>
<path d="M80.368 56.6922C81.903 55.1443 81.903 52.6345 80.368 51.0866C78.8331 49.5386 76.3445 49.5386 74.8095 51.0866C73.2746 52.6345 73.2746 55.1443 74.8095 56.6922C76.3445 58.2402 78.8331 58.2402 80.368 56.6922Z" fill="#D6D6D6"/>
<path d="M79.1793 55.4938C80.0578 54.6079 80.0578 53.1714 79.1793 52.2855C78.3008 51.3995 76.8764 51.3995 75.9979 52.2855C75.1194 53.1714 75.1194 54.6079 75.9979 55.4938C76.8764 56.3798 78.3008 56.3798 79.1793 55.4938Z" fill="#2D1E18"/>
<path d="M77.5898 54.5522C77.9528 54.5522 78.247 54.2555 78.247 53.8894C78.247 53.5234 77.9528 53.2267 77.5898 53.2267C77.2268 53.2267 76.9326 53.5234 76.9326 53.8894C76.9326 54.2555 77.2268 54.5522 77.5898 54.5522Z" fill="#EDECEB"/>
<path d="M76.5265 53.0498C76.7015 53.0035 76.8061 52.8227 76.7601 52.6462C76.7141 52.4697 76.5349 52.3642 76.3599 52.4106C76.1849 52.457 76.0803 52.6377 76.1263 52.8142C76.1723 52.9908 76.3515 53.0962 76.5265 53.0498Z" fill="#EDECEB"/>
<path d="M78.3516 52.6913C78.5312 52.6687 78.6586 52.5036 78.6362 52.3225C78.6138 52.1414 78.4501 52.0128 78.2705 52.0354C78.0909 52.058 77.9635 52.2231 77.9858 52.4042C78.0082 52.5854 78.172 52.7139 78.3516 52.6913Z" fill="#EDECEB"/>
<path d="M79.482 54.2141C79.6029 54.0783 79.5918 53.8693 79.4572 53.7474C79.3225 53.6254 79.1153 53.6366 78.9944 53.7724C78.8734 53.9082 78.8846 54.1172 79.0192 54.2391C79.1539 54.3611 79.3611 54.3499 79.482 54.2141Z" fill="#EDECEB"/>
<path d="M78.2473 55.4254C78.2888 55.6031 78.1797 55.7811 78.0035 55.8229C77.8273 55.8647 77.6509 55.7546 77.6094 55.577C77.5679 55.3993 77.6771 55.2214 77.8532 55.1795C78.0294 55.1377 78.2059 55.2478 78.2473 55.4254Z" fill="#EDECEB"/>
<path d="M76.4866 54.5214C76.5281 54.6991 76.4189 54.877 76.2428 54.9189C76.0666 54.9607 75.8901 54.8506 75.8486 54.6729C75.8072 54.4953 75.9163 54.3173 76.0925 54.2755C76.2686 54.2336 76.4451 54.3437 76.4866 54.5214Z" fill="#EDECEB"/>
<path d="M32.5976 53.298H31.3596C31.3596 49.9253 28.4858 47.1814 24.9536 47.1814C21.4214 47.1814 18.5476 49.9253 18.5476 53.298H17.3096C17.3096 49.3065 20.7387 46.0592 24.9536 46.0592C29.1685 46.0592 32.5976 49.3065 32.5976 53.298Z" fill="#4F3B33"/>
<path d="M24.9447 59.9052C28.2392 59.9052 30.91 57.2119 30.91 53.8894C30.91 50.5669 28.2392 47.8735 24.9447 47.8735C21.6502 47.8735 18.9795 50.5669 18.9795 53.8894C18.9795 57.2119 21.6502 59.9052 24.9447 59.9052Z" fill="#2D1E18"/>
<path d="M27.7225 56.6921C29.2575 55.1442 29.2575 52.6344 27.7225 51.0864C26.1876 49.5385 23.699 49.5385 22.164 51.0864C20.6291 52.6344 20.6291 55.1442 22.164 56.6921C23.699 58.2401 26.1876 58.2401 27.7225 56.6921Z" fill="#D6D6D6"/>
<path d="M26.5348 55.4934C27.4133 54.6074 27.4133 53.1709 26.5348 52.285C25.6563 51.399 24.2319 51.399 23.3534 52.285C22.4749 53.1709 22.4749 54.6074 23.3534 55.4934C24.2319 56.3793 25.6563 56.3793 26.5348 55.4934Z" fill="#2D1E18"/>
<path d="M24.9433 54.5522C25.3063 54.5522 25.6005 54.2555 25.6005 53.8894C25.6005 53.5234 25.3063 53.2267 24.9433 53.2267C24.5804 53.2267 24.2861 53.5234 24.2861 53.8894C24.2861 54.2555 24.5804 54.5522 24.9433 54.5522Z" fill="#EDECEB"/>
<path d="M24.1194 52.6535C24.1609 52.8311 24.0517 53.0091 23.8756 53.0509C23.6994 53.0928 23.5229 52.9827 23.4815 52.805C23.44 52.6274 23.5491 52.4494 23.7253 52.4076C23.9015 52.3657 24.0779 52.4758 24.1194 52.6535Z" fill="#EDECEB"/>
<path d="M25.9456 52.5302C26.0349 52.3714 25.9796 52.1697 25.8222 52.0797C25.6647 51.9897 25.4648 52.0454 25.3755 52.2042C25.2862 52.363 25.3415 52.5647 25.4989 52.6547C25.6564 52.7447 25.8564 52.689 25.9456 52.5302Z" fill="#EDECEB"/>
<path d="M26.9085 53.9162C26.95 54.0938 26.8408 54.2718 26.6646 54.3136C26.4885 54.3555 26.312 54.2454 26.2705 54.0677C26.229 53.89 26.3382 53.7121 26.5144 53.6703C26.6906 53.6284 26.867 53.7385 26.9085 53.9162Z" fill="#EDECEB"/>
<path d="M25.3491 55.8281C25.5263 55.7908 25.64 55.6157 25.6031 55.4371C25.5661 55.2584 25.3925 55.1437 25.2154 55.181C25.0382 55.2182 24.9245 55.3933 24.9614 55.572C24.9984 55.7507 25.1719 55.8653 25.3491 55.8281Z" fill="#EDECEB"/>
<path d="M23.8372 54.5213C23.8787 54.6989 23.7695 54.8769 23.5933 54.9187C23.4172 54.9606 23.2407 54.8505 23.1992 54.6728C23.1577 54.4951 23.2669 54.3172 23.4431 54.2754C23.6192 54.2335 23.7957 54.3436 23.8372 54.5213Z" fill="#EDECEB"/>
<path d="M65.2932 54.0698H53.9768C53.6029 54.0698 53.2998 53.7641 53.2998 53.3871V48.5327C53.2998 48.1556 53.6029 47.85 53.9768 47.85H65.2932C65.6671 47.85 65.9702 48.1556 65.9702 48.5327V53.3871C65.9702 53.7641 65.6671 54.0698 65.2932 54.0698Z" fill="#D6D6D6"/>
<path d="M64.1083 47.85H63.1777V54.0698H64.1083V47.85Z" fill="#413028"/>
<path d="M56.0917 47.85H55.1611V54.0698H56.0917V47.85Z" fill="#413028"/>
<path d="M68.9332 44.8734H10.6523V13.6114C10.6523 12.7441 11.3494 12.0411 12.2094 12.0411H67.3762C68.2361 12.0411 68.9332 12.7441 68.9332 13.6114L68.9332 44.8734Z" fill="#EAA15E"/>
<path d="M24.7069 30.7003H15.8239C15.7413 30.7003 15.7003 30.5993 15.7592 30.5409L18.5648 27.7587C18.6015 27.7222 18.6015 27.6625 18.5648 27.626L15.7592 24.8438C15.7003 24.7854 15.7413 24.6844 15.8239 24.6844H24.7069C24.7578 24.6844 24.7991 24.7261 24.7991 24.7775V30.6073C24.7991 30.6587 24.7578 30.7003 24.7069 30.7003Z" fill="white"/>
<path d="M63.2374 31.9821H25.2217V32.2271H63.2374V31.9821Z" fill="white"/>
<path d="M63.2374 23.1016H25.2217V23.3466H63.2374V23.1016Z" fill="white"/>
<path d="M69.5359 44.6921L10.6533 44.7753L10.6536 44.9713L69.5362 44.8882L69.5359 44.6921Z" fill="white"/>
<path d="M28.1534 31.0568V29.5312H28.4347C28.5313 29.4432 28.6222 29.3189 28.7074 29.1584C28.794 28.9964 28.8672 28.7805 28.9268 28.5107C28.9879 28.2393 29.0284 27.8949 29.0483 27.4773L29.142 25.6364H31.733V29.5312H32.2358V31.0483H31.733V30H28.6562V31.0568H28.1534ZM29.0653 29.5312H31.2301V26.1051H29.6193L29.5511 27.4773C29.5341 27.7955 29.5043 28.0838 29.4616 28.3423C29.419 28.5994 29.3643 28.8274 29.2976 29.0263C29.2308 29.2237 29.1534 29.392 29.0653 29.5312ZM36.7161 27.8182C36.7161 28.2784 36.633 28.6761 36.4668 29.0114C36.3006 29.3466 36.0726 29.6051 35.7828 29.7869C35.4931 29.9688 35.1621 30.0597 34.79 30.0597C34.4178 30.0597 34.0868 29.9688 33.7971 29.7869C33.5073 29.6051 33.2793 29.3466 33.1131 29.0114C32.9469 28.6761 32.8638 28.2784 32.8638 27.8182C32.8638 27.358 32.9469 26.9602 33.1131 26.625C33.2793 26.2898 33.5073 26.0312 33.7971 25.8494C34.0868 25.6676 34.4178 25.5767 34.79 25.5767C35.1621 25.5767 35.4931 25.6676 35.7828 25.8494C36.0726 26.0312 36.3006 26.2898 36.4668 26.625C36.633 26.9602 36.7161 27.358 36.7161 27.8182ZM36.2047 27.8182C36.2047 27.4403 36.1415 27.1214 36.0151 26.8615C35.8901 26.6016 35.7203 26.4048 35.5059 26.2713C35.2928 26.1378 35.0542 26.071 34.79 26.071C34.5257 26.071 34.2864 26.1378 34.0719 26.2713C33.8588 26.4048 33.6891 26.6016 33.5627 26.8615C33.4377 27.1214 33.3752 27.4403 33.3752 27.8182C33.3752 28.196 33.4377 28.5149 33.5627 28.7749C33.6891 29.0348 33.8588 29.2315 34.0719 29.3651C34.2864 29.4986 34.5257 29.5653 34.79 29.5653C35.0542 29.5653 35.2928 29.4986 35.5059 29.3651C35.7203 29.2315 35.8901 29.0348 36.0151 28.7749C36.1415 28.5149 36.2047 28.196 36.2047 27.8182ZM41.1159 27H40.5875C40.5563 26.848 40.5016 26.7145 40.4235 26.5994C40.3468 26.4844 40.253 26.3878 40.1422 26.3097C40.0328 26.2301 39.9114 26.1705 39.7779 26.1307C39.6444 26.0909 39.5051 26.071 39.3603 26.071C39.0961 26.071 38.8567 26.1378 38.6422 26.2713C38.4292 26.4048 38.2594 26.6016 38.133 26.8615C38.008 27.1214 37.9455 27.4403 37.9455 27.8182C37.9455 28.196 38.008 28.5149 38.133 28.7749C38.2594 29.0348 38.4292 29.2315 38.6422 29.3651C38.8567 29.4986 39.0961 29.5653 39.3603 29.5653C39.5051 29.5653 39.6444 29.5455 39.7779 29.5057C39.9114 29.4659 40.0328 29.407 40.1422 29.3288C40.253 29.2493 40.3468 29.152 40.4235 29.0369C40.5016 28.9205 40.5563 28.7869 40.5875 28.6364H41.1159C41.0762 28.8594 41.0037 29.0589 40.8986 29.2351C40.7935 29.4112 40.6628 29.5611 40.5066 29.6847C40.3503 29.8068 40.1749 29.8999 39.9803 29.9638C39.7871 30.0277 39.5804 30.0597 39.3603 30.0597C38.9881 30.0597 38.6571 29.9688 38.3674 29.7869C38.0776 29.6051 37.8496 29.3466 37.6834 29.0114C37.5172 28.6761 37.4341 28.2784 37.4341 27.8182C37.4341 27.358 37.5172 26.9602 37.6834 26.625C37.8496 26.2898 38.0776 26.0312 38.3674 25.8494C38.6571 25.6676 38.9881 25.5767 39.3603 25.5767C39.5804 25.5767 39.7871 25.6087 39.9803 25.6726C40.1749 25.7365 40.3503 25.8303 40.5066 25.9538C40.6628 26.076 40.7935 26.2251 40.8986 26.4013C41.0037 26.576 41.0762 26.7756 41.1159 27ZM41.7312 26.1051V25.6364H45.0039V26.1051H43.6317V30H43.1033V26.1051H41.7312ZM45.4886 30H44.9347L46.5369 25.6364H47.0824L48.6847 30H48.1307L46.8267 26.3267H46.7926L45.4886 30ZM45.6932 28.2955H47.9261V28.7642H45.6932V28.2955ZM49.3643 30V25.6364H50.8899C51.1939 25.6364 51.4446 25.6889 51.642 25.794C51.8395 25.8977 51.9865 26.0376 52.0831 26.2138C52.1797 26.3885 52.228 26.5824 52.228 26.7955C52.228 26.983 52.1946 27.1378 52.1278 27.2599C52.0625 27.3821 51.9759 27.4787 51.8679 27.5497C51.7614 27.6207 51.6456 27.6733 51.5206 27.7074V27.75C51.6541 27.7585 51.7884 27.8054 51.9233 27.8906C52.0582 27.9759 52.1712 28.098 52.2621 28.2571C52.353 28.4162 52.3984 28.6108 52.3984 28.8409C52.3984 29.0597 52.3487 29.2564 52.2493 29.4311C52.1499 29.6058 51.9929 29.7443 51.7784 29.8466C51.5639 29.9489 51.2848 30 50.9411 30H49.3643ZM49.8928 29.5312H50.9411C51.2862 29.5312 51.5313 29.4645 51.6761 29.331C51.8224 29.196 51.8956 29.0327 51.8956 28.8409C51.8956 28.6932 51.858 28.5568 51.7827 28.4318C51.7074 28.3054 51.6001 28.2045 51.4609 28.1293C51.3217 28.0526 51.157 28.0142 50.9666 28.0142H49.8928V29.5312ZM49.8928 27.554H50.8729C51.032 27.554 51.1754 27.5227 51.3033 27.4602C51.4325 27.3977 51.5348 27.3097 51.6101 27.196C51.6868 27.0824 51.7251 26.9489 51.7251 26.7955C51.7251 26.6037 51.6584 26.4411 51.5249 26.3075C51.3913 26.1726 51.1797 26.1051 50.8899 26.1051H49.8928V27.554ZM55.832 30L54.332 27.9972H53.7951V30H53.2667V25.6364H53.7951V27.5284H54.0252L55.7724 25.6364H56.4031L54.6388 27.554L56.4627 30H55.832ZM57.3246 30H56.7706L58.3729 25.6364H58.9183L60.5206 30H59.9666L58.6626 26.3267H58.6286L57.3246 30ZM57.5291 28.2955H59.7621V28.7642H57.5291V28.2955Z" fill="white"/>
<path d="M98.7452 60H2.04932C2.00159 60 1.96289 59.961 1.96289 59.9128C1.96289 59.8647 2.00159 59.8257 2.04932 59.8257H98.7452C98.7929 59.8257 98.8316 59.8647 98.8316 59.9128C98.8316 59.961 98.7929 60 98.7452 60Z" fill="#2D1E18"/>
</svg>
