<svg width="133" height="40" viewBox="0 0 133 40" fill="none" xmlns="http://www.w3.org/2000/svg">
<path fill-rule="evenodd" clip-rule="evenodd" d="M58.2217 6.72009C58.2217 6.72009 58.2217 6.72009 61.0191 6.72009C62.0384 6.72009 62.5519 7.14009 62.5519 8.08827C62.5519 8.08827 62.5519 8.08827 62.5519 11.4483C62.5519 11.4483 62.5519 11.4483 68.0318 11.4483C68.0318 11.4483 68.0318 11.4483 68.0318 8.08827C68.0318 7.14009 68.5376 6.72009 69.6873 6.72009C69.6873 6.72009 69.6873 6.72009 72.3621 6.72009C72.3621 6.72009 72.3621 6.72009 72.3621 8.92827C72.3621 8.92827 72.3621 8.92827 71.2201 8.92827L71.0898 9.03645C71.0898 9.03645 71.0898 9.03645 71.0898 18.4928C71.0898 18.4928 71.0898 18.4928 68.0318 18.4928C68.0318 18.4928 68.0318 18.4928 68.0318 13.7646C68.0318 13.7646 68.0318 13.7646 62.5519 13.7646C62.5519 13.7646 62.5519 13.7646 62.5519 18.4928C62.5519 18.4928 62.5519 18.4928 59.4939 18.4928C59.4939 18.4928 59.4939 18.4928 59.4939 9.03645C59.4939 9.03645 59.4939 8.92827 59.3636 8.92827C59.3636 8.92827 59.3636 8.92827 58.2217 8.92827C58.2217 8.92827 58.2217 8.92827 58.2217 6.72009Z" fill="#E9151C"/>
<path fill-rule="evenodd" clip-rule="evenodd" d="M80.3853 6.51025L80.4543 6.51662V8.94116L80.3853 8.92843C78.0937 8.92843 76.308 10.5066 76.308 12.5048C76.308 14.6048 78.0937 16.2848 80.3853 16.2848L80.4543 16.272V18.6966L80.3853 18.7029C76.308 18.7029 72.9971 15.973 72.9971 12.5048C72.9971 9.13843 76.308 6.51025 80.3853 6.51025Z" fill="#E9151C"/>
<path fill-rule="evenodd" clip-rule="evenodd" d="M80.4551 6.51624L81.8729 6.63078C85.2375 7.17805 87.7744 9.55805 87.7744 12.5044C87.7744 15.5335 85.2375 18.0089 81.8729 18.5753L80.4551 18.6962V16.2717L82.0109 15.9917C83.5131 15.4189 84.5937 14.0762 84.5937 12.5044C84.5937 11.0026 83.5131 9.74259 82.0109 9.20805L80.4551 8.94078V6.51624Z" fill="#E9151C"/>
<path fill-rule="evenodd" clip-rule="evenodd" d="M88.4102 6.72009C88.4102 6.72009 88.4102 6.72009 92.6791 6.72009H94.7178V8.92827H94.5262C94.2732 8.92827 93.7597 8.92827 92.7404 8.92827C92.7404 8.92827 92.7404 8.92827 92.7404 11.3464C92.7404 11.3464 92.7404 11.3464 93.6065 11.3464H94.7178V13.4464H94.0663C93.7444 13.4464 93.3152 13.4464 92.7404 13.4464C92.7404 13.4464 92.7404 13.4464 92.7404 16.0746C92.7404 16.1828 92.7404 16.1828 92.8707 16.1828C92.8707 16.1828 92.8707 16.1828 93.7827 16.1828H94.7178V18.4928H94.4495C93.9897 18.4928 93.0623 18.4928 91.2152 18.4928C90.1959 18.4928 89.6901 18.0728 89.6901 17.1246V8.92827C89.6901 8.92827 89.6901 8.92827 88.4102 8.92827C88.4102 8.92827 88.4102 8.92827 88.4102 6.72009Z" fill="#E9151C"/>
<path fill-rule="evenodd" clip-rule="evenodd" d="M94.7173 6.72009H94.7786C97.5837 6.72009 99.2391 7.98009 99.2391 9.87645C99.2391 11.0283 98.603 11.7664 97.9669 12.2946C99.1165 12.7146 99.8753 13.7646 99.8753 14.9164C99.8753 17.1246 97.8366 18.4928 94.9089 18.4928C94.9089 18.4928 94.9089 18.4928 94.8552 18.4928H94.7173V16.1828H95.0315C96.0508 16.1828 96.6946 15.6546 96.6946 14.8146C96.6946 13.9746 96.0508 13.4464 95.0315 13.4464C95.0315 13.4464 95.0315 13.4464 94.7479 13.4464H94.7173V11.3464H94.7786C95.6753 11.3464 96.1811 10.8183 96.1811 10.0864C96.1811 9.34827 95.6753 8.92827 94.7786 8.92827C94.7786 8.92827 94.7786 8.92827 94.7479 8.92827H94.7173V6.72009Z" fill="#E9151C"/>
<path fill-rule="evenodd" clip-rule="evenodd" d="M105.738 6.72009C105.738 6.72009 105.738 6.72009 107.026 6.72009H107.263V10.0864C107.141 10.2964 107.011 10.6083 107.011 10.9264C107.011 10.9264 107.011 10.9264 105.991 13.3446C105.991 13.3446 105.991 13.3446 107.072 13.3446H107.263V15.5464H106.574C106.183 15.5464 105.738 15.5464 105.232 15.5464C105.232 15.5464 105.232 15.5464 104.336 17.4428C104.083 18.1746 103.577 18.4928 102.558 18.4928C102.558 18.4928 102.558 18.4928 100.642 18.4928C100.642 18.4928 100.642 18.4928 100.642 16.1828C100.642 16.1828 100.642 16.1828 101.278 16.1828C101.538 16.1828 101.538 16.1828 101.661 16.0746C101.661 16.0746 101.661 16.0746 105.738 6.72009Z" fill="#E9151C"/>
<path fill-rule="evenodd" clip-rule="evenodd" d="M107.264 6.72009H108.797C108.797 6.72009 108.797 6.72009 112.874 16.0746C112.996 16.1828 112.996 16.1828 113.249 16.1828C113.249 16.1828 113.249 16.1828 113.763 16.1828C113.763 16.1828 113.763 16.1828 113.763 18.4928C113.763 18.4928 113.763 18.4928 111.977 18.4928C110.958 18.4928 110.452 18.1746 110.191 17.3346C110.191 17.3346 110.191 17.3346 109.302 15.5464C109.302 15.5464 109.302 15.5464 107.586 15.5464H107.264V13.3446H108.536C108.536 13.3446 108.536 13.3446 107.524 10.9264C107.524 10.6083 107.394 10.2964 107.264 10.0864V6.72009Z" fill="#E9151C"/>
<path fill-rule="evenodd" clip-rule="evenodd" d="M58.2217 21.8527C58.2217 21.8527 58.2217 21.8527 69.3041 21.8527C70.3234 21.8527 70.9595 22.2727 70.9595 23.2208C70.9595 23.2208 70.9595 23.2208 70.9595 31.2072C70.9595 31.309 70.9595 31.309 71.0898 31.309C71.0898 31.309 71.0898 31.309 72.1091 31.309C72.1091 31.309 72.1091 31.309 72.1091 33.6254C72.1091 33.6254 72.1091 33.6254 69.4343 33.6254C68.2847 33.6254 67.7789 33.2054 67.7789 32.2572C67.7789 32.2572 67.7789 32.2572 67.7789 24.169C67.7789 24.169 67.7789 24.0608 67.6486 24.0608C67.6486 24.0608 67.6486 24.0608 62.5519 24.0608C62.5519 24.0608 62.5519 24.0608 62.5519 33.6254C62.5519 33.6254 62.5519 33.6254 59.4939 33.6254C59.4939 33.6254 59.4939 33.6254 59.4939 24.0608C59.4939 24.0608 59.4939 24.0608 58.2217 24.0608C58.2217 24.0608 58.2217 24.0608 58.2217 21.8527Z" fill="#E9151C"/>
<path fill-rule="evenodd" clip-rule="evenodd" d="M80.1333 21.6428L80.1946 21.6492V24.0737L80.1333 24.061C77.8341 24.061 76.056 25.6392 76.056 27.6374C76.056 29.7373 77.8341 31.4173 80.1333 31.4173L80.1946 31.4046V33.8292L80.1333 33.8355C76.056 33.8355 72.8677 31.0992 72.8677 27.6374C72.8677 24.271 76.056 21.6428 80.1333 21.6428Z" fill="#E9151C"/>
<path fill-rule="evenodd" clip-rule="evenodd" d="M80.1938 21.6488L81.6577 21.7634C85.0836 22.3106 87.5208 24.6906 87.5208 27.637C87.5208 30.6661 85.0836 33.1415 81.6577 33.7079L80.1938 33.8288V31.4042L81.811 31.1242C83.3362 30.5515 84.3402 29.2088 84.3402 27.637C84.3402 26.1352 83.3362 24.8752 81.811 24.3406L80.1938 24.0733V21.6488Z" fill="#E9151C"/>
<path fill-rule="evenodd" clip-rule="evenodd" d="M88.1567 21.8527C88.1567 21.8527 88.1567 21.8527 90.9618 21.8527C91.9812 21.8527 92.487 22.2727 92.487 23.2208C92.487 23.2208 92.487 23.2208 92.487 31.2072C92.487 31.309 92.487 31.309 92.6173 31.309C92.6173 31.309 92.6173 31.309 96.3114 31.309C96.3114 31.309 96.3114 31.309 96.3114 21.8527C96.3114 21.8527 96.3114 21.8527 99.3694 21.8527C99.3694 21.8527 99.3694 21.8527 99.3694 31.309C99.3694 31.309 99.3694 31.309 103.064 31.309C103.194 31.309 103.194 31.309 103.194 31.2072C103.194 31.2072 103.194 31.2072 103.194 23.2208C103.194 22.2727 103.7 21.8527 104.719 21.8527C104.719 21.8527 104.719 21.8527 107.524 21.8527C107.524 21.8527 107.524 21.8527 107.524 24.0608C107.524 24.0608 107.524 24.0608 106.374 24.0608C106.244 24.0608 106.244 24.169 106.244 24.169C106.244 24.169 106.244 24.169 106.244 32.2572C106.244 33.2054 105.738 33.6254 104.719 33.6254C104.719 33.6254 104.719 33.6254 91.0844 33.6254C89.9425 33.6254 89.429 33.2054 89.429 32.2572C89.429 32.2572 89.429 32.2572 89.429 24.169C89.429 24.169 89.429 24.0608 89.3064 24.0608C89.3064 24.0608 89.3064 24.0608 88.1567 24.0608C88.1567 24.0608 88.1567 24.0608 88.1567 21.8527Z" fill="#E9151C"/>
<path fill-rule="evenodd" clip-rule="evenodd" d="M109.939 21.8527C109.939 21.8527 109.939 21.8527 119.496 21.8527C120.646 21.8527 121.029 22.2727 121.029 23.1127C121.029 23.1127 121.029 23.1127 121.029 25.1108H118.224C118.224 25.1108 118.224 25.1108 118.224 24.169C118.224 24.0608 118.224 24.0608 118.093 24.0608C118.093 24.0608 118.093 24.0608 116.315 24.0608C116.315 24.0608 116.315 24.0608 116.315 33.6254C116.315 33.6254 116.315 33.6254 113.25 33.6254C113.25 33.6254 113.25 33.6254 113.25 24.0608C113.25 24.0608 113.25 24.0608 111.472 24.0608C111.341 24.0608 111.341 24.0608 111.341 24.169C111.341 24.169 111.341 24.169 111.341 25.1108C111.341 25.1108 111.341 25.1108 108.536 25.1108C108.536 25.1108 108.536 25.1108 108.536 23.1127C108.536 22.2727 108.919 21.8527 109.939 21.8527Z" fill="#E9151C"/>
<path fill-rule="evenodd" clip-rule="evenodd" d="M124.976 21.8527C124.976 21.8527 124.976 21.8527 126.263 21.8527H126.501V25.219C126.37 25.429 126.248 25.7408 126.248 26.059C126.248 26.059 126.248 26.059 125.228 28.4772C125.228 28.4772 125.228 28.4772 126.301 28.4772H126.501V30.679H125.811C125.42 30.679 124.976 30.679 124.462 30.679C124.462 30.679 124.462 30.679 123.573 32.4672C123.32 33.3072 122.807 33.6254 121.787 33.6254C121.787 33.6254 121.787 33.6254 119.879 33.6254C119.879 33.6254 119.879 33.6254 119.879 31.309C119.879 31.309 119.879 31.309 120.515 31.309C120.776 31.309 120.776 31.309 120.898 31.2072C120.898 31.2072 120.898 31.2072 124.976 21.8527Z" fill="#E9151C"/>
<path fill-rule="evenodd" clip-rule="evenodd" d="M126.5 21.8527H128.025C128.025 21.8527 128.025 21.8527 132.11 31.2072C132.233 31.309 132.233 31.309 132.493 31.309H132.999C132.999 31.309 132.999 31.309 132.999 33.6254C132.999 33.6254 132.999 33.6254 131.213 33.6254C130.194 33.6254 129.688 33.3072 129.428 32.4672C129.428 32.4672 129.428 32.4672 128.539 30.679C128.539 30.679 128.539 30.679 126.822 30.679H126.5V28.4772H127.772C127.772 28.4772 127.772 28.4772 126.753 26.059C126.753 25.7408 126.63 25.429 126.5 25.219V21.8527Z" fill="#E9151C"/>
<path fill-rule="evenodd" clip-rule="evenodd" d="M38.5852 11.7281C38.7309 11.6899 38.9225 11.7663 39.1141 11.9763C39.1141 11.9763 39.1141 11.9763 47.7746 19.0144C48.2804 19.4344 48.2804 20.0708 47.7746 20.3826C47.7746 20.3826 47.7746 20.3826 39.1141 27.529C38.9225 27.739 38.7309 27.7899 38.5852 27.7262C38.4396 27.6626 38.3477 27.478 38.3477 27.2108V12.1863C38.3477 11.9254 38.4396 11.7663 38.5852 11.7281Z" fill="#E9151C"/>
<path fill-rule="evenodd" clip-rule="evenodd" d="M23.7707 0H24.3838L24.974 0.203637C24.974 0.203637 24.974 0.203636 33.8874 7.55998C34.2706 7.97998 34.1403 8.29816 33.5042 8.29816C33.5042 8.29816 33.5042 8.29816 29.81 8.29816C29.1739 8.29816 28.6681 8.71816 28.6681 9.24634C28.6681 9.24634 28.6681 9.24634 28.6681 14.7063C28.6681 15.2345 28.1546 15.6545 27.3882 15.6545C27.3882 15.6545 27.3882 15.6545 20.8966 15.6545C20.2605 15.6545 19.747 15.2345 19.747 14.7063C19.747 14.7063 19.747 14.7063 19.747 9.24634C19.747 8.71816 19.2412 8.29816 18.5974 8.29816H14.6503C14.0142 8.29816 13.8839 7.97998 14.2671 7.55998C14.2671 7.55998 14.2671 7.55998 23.1882 0.203637L23.7707 0Z" fill="#E9151C"/>
<path fill-rule="evenodd" clip-rule="evenodd" d="M9.80629 11.5691C9.96724 11.6327 10.0669 11.8173 10.0669 12.0845V27.4209C10.0669 27.6881 9.96724 27.8472 9.80629 27.8981C9.65301 27.949 9.43075 27.8981 9.17017 27.739C9.17017 27.739 9.17017 27.739 0.379376 20.3827C-0.126459 20.0709 -0.126459 19.4345 0.379376 19.0145C0.379376 19.0145 0.379377 19.0145 9.17017 11.7664C9.43075 11.5564 9.65301 11.5055 9.80629 11.5691Z" fill="#E9151C"/>
<path fill-rule="evenodd" clip-rule="evenodd" d="M20.896 23.6411C20.896 23.6411 20.896 23.6411 27.3875 23.6411C28.1539 23.6411 28.6674 24.0611 28.6674 24.5893C28.6674 24.5893 28.6674 24.5893 28.6674 30.3675C28.6674 30.9975 29.1733 31.4175 29.8094 31.4175H33.2506C33.8867 31.4175 34.1397 31.7293 33.6338 32.0475C33.6338 32.0475 33.6338 32.0475 24.9733 39.2956C24.7127 39.5056 24.3985 39.6138 24.0766 39.6138C23.7624 39.6138 23.4405 39.5056 23.1876 39.2956C23.1876 39.2956 23.1876 39.2956 14.5271 32.0475C14.0136 31.7293 14.2665 31.4175 14.9026 31.4175C14.9026 31.4175 14.9026 31.4175 18.5967 31.4175C19.2405 31.4175 19.7464 30.9975 19.7464 30.3675C19.7464 30.3675 19.7464 30.3675 19.7464 24.5893C19.7464 24.0611 20.2599 23.6411 20.896 23.6411Z" fill="#E9151C"/>
</svg>
