<svg width="37" height="43" viewBox="0 0 37 43" fill="none" xmlns="http://www.w3.org/2000/svg">
<path d="M33.5678 12.3567H28.2002L29.891 10.1824H32.7787C33.2148 10.1824 33.5678 10.5147 33.5678 10.9247V12.3567Z" fill="#163249"/>
<path d="M29.745 27.623C29.745 29.4185 31.2976 30.8792 33.2064 30.8792H36.0055V39.2337C36.0055 39.6563 35.6399 40 35.1907 40H2.39581C1.07478 40 0 38.9892 0 37.7466V12.7145C0 11.316 1.20502 10.1824 2.69176 10.1824H9.10698L7.41644 12.3567H3.98677C3.56254 12.3567 3.17881 12.5184 2.9006 12.7799C2.62282 13.0414 2.45098 13.4027 2.45098 13.8013C2.45098 14.5994 3.13854 15.2463 3.98677 15.2463H35.1907C35.6399 15.2463 36.0055 15.59 36.0055 16.0126V24.3673H33.2064C31.2976 24.3673 29.745 25.8276 29.745 27.623Z" fill="#163249"/>
<path d="M36.2756 24.9277H33.1285C31.5796 24.9277 30.3193 26.1351 30.3193 27.6188C30.3193 29.1028 31.5796 30.3102 33.1285 30.3102H36.2756C36.6749 30.3102 36.9999 29.9989 36.9999 29.6164V25.6216C36.9999 25.239 36.6749 24.9277 36.2756 24.9277ZM33.1732 28.5475C32.6388 28.5475 32.2041 28.131 32.2041 27.6191C32.2041 27.1069 32.6388 26.6904 33.1732 26.6904C33.7079 26.6904 34.1426 27.1069 34.1426 27.6191C34.1426 28.131 33.7079 28.5475 33.1732 28.5475Z" fill="#163249"/>
<path d="M26.9476 9.24874C26.8648 8.70688 26.9973 8.16692 27.3212 7.71901L19.6977 2.27905C19.3427 2.70431 18.8403 2.98071 18.2749 3.05975C17.7568 3.13251 17.24 3.03186 16.7976 2.7756L7.36133 14.9108H12.4888C12.2618 14.0189 12.4076 13.094 12.9778 12.3604C14.0847 10.9368 16.3722 10.7747 18.0873 11.9985C19.1386 12.749 19.7307 13.8462 19.7761 14.9108H24.2838L27.6791 10.5445C27.2825 10.2094 27.0248 9.75538 26.9476 9.24874ZM22.9306 8.62134C22.5189 9.15082 21.5469 9.12418 20.7591 8.56199C19.9716 8 19.6668 7.1153 20.0781 6.58602C20.4899 6.05674 21.4618 6.08317 22.2498 6.64556C23.0372 7.20756 23.3419 8.09228 22.9306 8.62134Z" fill="#4AA589"/>
<path d="M29.8894 9.62273L25.7774 14.9109H24.7814L28.2404 10.4626C28.1796 10.429 28.1203 10.3917 28.0629 10.3506C27.2488 9.76974 27.0805 8.66674 27.6868 7.88686C27.7523 7.80277 27.8241 7.7256 27.9009 7.6562L19.5942 1.7285C19.5467 1.81909 19.4902 1.90696 19.4248 1.99105C18.8184 2.7709 17.6668 2.93217 16.853 2.35131C16.8044 2.31693 16.7584 2.28022 16.7144 2.24184L6.86294 14.9109H5.86719L17.0843 0.485008C17.4991 -0.0484665 18.2868 -0.158771 18.8436 0.238624L29.6322 7.93743C30.189 8.33478 30.3042 9.08906 29.8894 9.62273Z" fill="#4AA589"/>
</svg>
