<svg
   enable-background="new 0 0 512 512"
   width="40"
   height="40"
   viewBox="0 0 512 512"
   xmlns="http://www.w3.org/2000/svg"
   xmlns:xlink="http://www.w3.org/1999/xlink">
   <linearGradient id="SVGID_1_" gradientUnits="userSpaceOnUse" x1="93.389" x2="418.613" y1="93.388" y2="418.612">
      <stop offset="0" stop-color="#05ade4"/>
      <stop offset="1" stop-color="#803de7"/>
   </linearGradient>
   <g id="Backup" display="none">
    <g display="inline"><g stroke="#000" stroke-linecap="round" stroke-linejoin="round" stroke-miterlimit="10" stroke-width="8"><path d="m153.515 401.682c-47.349-33.379-75.618-87.838-75.618-145.682 0-87.969 64.114-161.236 148.064-175.555v15.875c0 6.608 4.682 9.312 10.407 6.008l73.527-42.451c5.724-3.305 5.724-8.712 0-12.016l-73.526-42.451c-5.726-3.304-10.407-.602-10.407 6.006v20.422c-110.556 14.737-196.126 109.64-196.126 224.162 0 73.449 35.885 142.592 95.989 184.962 4.207 2.965 9.04 4.391 13.823 4.391 7.55 0 14.983-3.548 19.661-10.187 7.647-10.846 5.053-25.839-5.794-33.484z" fill="#01d0fb"/><path d="m482.164 256c0-73.445-35.882-142.59-95.985-184.96-10.844-7.646-25.836-5.054-33.483 5.795-7.647 10.847-5.054 25.84 5.792 33.485 47.349 33.378 75.617 87.838 75.617 145.68 0 87.969-64.116 161.235-148.066 175.555v-15.874c0-6.608-4.682-9.313-10.408-6.009l-73.526 42.453c-5.724 3.304-5.724 8.71 0 12.015l73.526 42.451c5.726 3.303 10.408.601 10.408-6.008v-20.421c110.555-14.737 196.125-109.638 196.125-224.162z" fill="#6fd7a3"/></g><g><g><path d="m256 380.685 107.98-62.343v-124.684l-107.98 62.342z" fill="#ffcebf"/><path d="m189.794 250.357 26.566 15.337v-32.581l107.98-62.342-26.566-15.337-107.98 62.342z" fill="#935b50"/><path d="m216.36 233.113v32.581l-26.566-15.337v-32.581l107.98-62.342-41.774-24.119-107.98 62.343 41.773 24.116-41.773-24.116v124.684l107.98 62.343v-124.685l-39.639-22.885 39.639 22.885 107.98-62.342-39.64-22.887z" fill="#ffcebf"/></g><g style="fill:none;stroke:#000;stroke-width:8;stroke-linecap:round;stroke-linejoin:round;stroke-miterlimit:10"><path d="m148.02 193.658 107.98-62.343 107.98 62.343v124.684l-107.98 62.343-107.98-62.343z"/><path d="m363.98 193.658-107.98 62.342"/><path d="m297.774 155.434-107.98 62.342"/><path d="m324.34 170.771-107.98 62.342"/><path d="m216.361 233.115 39.639 22.885"/><path d="m148.02 193.658 41.773 24.116"/><path d="m256 380.685v-124.685"/><path d="m216.36 233.113v32.581l-26.566-15.337v-32.581"/></g></g></g></g><g id="Main" display="none"><g display="inline"><g stroke="#000" stroke-linecap="round" stroke-linejoin="round" stroke-miterlimit="10" stroke-width="8"><path d="m153.515 401.682c-47.349-33.379-75.618-87.838-75.618-145.682 0-87.969 64.114-161.236 148.064-175.555v15.875c0 6.608 4.682 9.312 10.407 6.008l73.527-42.451c5.724-3.305 5.724-8.712 0-12.016l-73.526-42.451c-5.726-3.304-10.407-.602-10.407 6.006v20.422c-110.556 14.737-196.126 109.64-196.126 224.162 0 73.449 35.885 142.592 95.989 184.962 4.207 2.965 9.04 4.391 13.823 4.391 7.55 0 14.983-3.548 19.661-10.187 7.647-10.846 5.053-25.839-5.794-33.484z" fill="#01d0fb"/><path d="m482.164 256c0-73.445-35.882-142.59-95.985-184.96-10.844-7.646-25.836-5.054-33.483 5.795-7.647 10.847-5.054 25.84 5.792 33.485 47.349 33.378 75.617 87.838 75.617 145.68 0 87.969-64.116 161.235-148.066 175.555v-15.874c0-6.608-4.682-9.313-10.408-6.009l-73.526 42.453c-5.724 3.304-5.724 8.71 0 12.015l73.526 42.451c5.726 3.303 10.408.601 10.408-6.008v-20.421c110.555-14.737 196.125-109.638 196.125-224.162z" fill="#6fd7a3"/></g><g><g><path d="m256 380.685 107.98-62.343v-124.684l-107.98 62.342z" fill="#ffcebf"/><path d="m189.794 250.357 26.566 15.337v-32.581l107.98-62.342-26.566-15.337-107.98 62.342z" fill="#935b50"/><path d="m216.36 233.113v32.581l-26.566-15.337v-32.581l107.98-62.342-41.774-24.119-107.98 62.343 41.773 24.116-41.773-24.116v124.684l107.98 62.343v-124.685l-39.639-22.885 39.639 22.885 107.98-62.342-39.64-22.887z" fill="#ffcebf"/></g><g style="fill:none;stroke:#000;stroke-width:8;stroke-linecap:round;stroke-linejoin:round;stroke-miterlimit:10"><path d="m148.02 193.658 107.98-62.343 107.98 62.343v124.684l-107.98 62.343-107.98-62.343z"/><path d="m363.98 193.658-107.98 62.342"/><path d="m297.774 155.434-107.98 62.342"/><path d="m324.34 170.771-107.98 62.342"/><path d="m216.361 233.115 39.639 22.885"/><path d="m148.02 193.658 41.773 24.116"/><path d="m256 380.685v-124.685"/><path d="m216.36 233.113v32.581l-26.566-15.337v-32.581"/></g></g></g></g><g id="Shadow"><g><g><path d="m153.515 401.682c-47.349-33.379-75.618-87.838-75.618-145.682 0-87.969 64.114-161.236 148.064-175.555v15.875c0 6.608 4.682 9.312 10.407 6.008l73.527-42.451c5.724-3.305 5.724-8.712 0-12.016l-73.526-42.451c-5.726-3.304-10.407-.602-10.407 6.006v20.422c-110.556 14.737-196.126 109.64-196.126 224.162 0 73.449 35.885 142.592 95.989 184.962 4.207 2.965 9.04 4.391 13.823 4.391 7.55 0 14.983-3.548 19.661-10.187 7.647-10.846 5.053-25.839-5.794-33.484z" fill="#01d0fb"/><path d="m482.164 256c0-73.445-35.882-142.59-95.985-184.96-10.844-7.646-25.836-5.054-33.483 5.795-7.647 10.847-5.054 25.84 5.792 33.485 47.349 33.378 75.617 87.838 75.617 145.68 0 87.969-64.116 161.235-148.066 175.555v-15.874c0-6.608-4.682-9.313-10.408-6.009l-73.526 42.453c-5.724 3.304-5.724 8.71 0 12.015l73.526 42.451c5.726 3.303 10.408.601 10.408-6.008v-20.421c110.555-14.737 196.125-109.638 196.125-224.162z" fill="#6fd7a3"/></g><g><g><path d="m256 380.685 107.98-62.343v-124.684l-107.98 62.342z" fill="#ffcebf"/><path d="m189.794 250.357 26.566 15.337v-32.581l107.98-62.342-26.566-15.337-107.98 62.342z" fill="#935b50"/><path d="m216.36 233.113v32.581l-26.566-15.337v-32.581l107.98-62.342-41.774-24.119-107.98 62.343 41.773 24.116-41.773-24.116v124.684l107.98 62.343v-124.685l-39.639-22.885 39.639 22.885 107.98-62.342-39.64-22.887z" fill="#ffcebf"/></g></g></g></g><g id="Line" display="none"><g style="display:inline;fill:none;stroke:#000;stroke-width:8;stroke-linecap:round;stroke-linejoin:round;stroke-miterlimit:10"><path d="m148.02 193.658 107.98-62.343 107.98 62.343v124.684l-107.98 62.343-107.98-62.343z"/><path d="m363.98 193.658-107.98 62.342"/><path d="m297.774 155.434-107.98 62.342"/><path d="m324.34 170.771-107.98 62.342"/><path d="m216.361 233.115 39.639 22.885"/><path d="m148.02 193.658 41.773 24.116"/><path d="m256 380.685v-124.685"/><path d="m216.36 233.113v32.581l-26.566-15.337v-32.581"/></g></g><g id="Base"><path d="m144.648 431.354c-3.101 0-6.088-.95-8.638-2.747-57.716-40.688-92.174-107.083-92.174-177.607 0-108.397 80.958-200.931 188.314-215.24 4.453-.593 7.811-4.428 7.811-8.921v-16.849l67.34 38.879-67.34 38.879v-12.303c0-2.657-1.165-5.165-3.196-6.878-1.622-1.369-3.682-2.123-5.802-2.123-.51 0-1.024.044-1.527.131-42.974 7.33-82.34 29.771-110.836 63.189-28.827 33.805-44.703 76.861-44.703 121.236 0 60.765 29.694 117.976 79.433 153.038 3.281 2.313 5.464 5.765 6.149 9.72.685 3.956-.213 7.942-2.526 11.224-2.812 3.99-7.411 6.372-12.305 6.372z" fill="#62dbfb"/><path d="m214.699 453.132 67.339-38.88v12.304c0 2.657 1.165 5.165 3.196 6.878 1.622 1.369 3.682 2.122 5.802 2.122.509 0 1.022-.044 1.524-.13 42.977-7.331 82.344-29.772 110.84-63.19 28.828-33.805 44.704-76.861 44.704-121.235 0-60.765-29.694-117.975-79.431-153.036-3.281-2.313-5.464-5.764-6.149-9.72s.213-7.942 2.527-11.223c2.813-3.991 7.412-6.373 12.304-6.373 3.102 0 6.089.95 8.637 2.748 57.715 40.687 92.171 107.081 92.171 177.604 0 108.397-80.958 200.931-188.314 215.24-4.453.593-7.811 4.428-7.811 8.921v16.85z" fill="#9be69d"/><path d="m270 256.196 89.98-51.95v103.9l-89.98 51.95z" fill="#ffdfcf"/><path d="m203.794 240.161v-22.189l98.98-57.146 8.565 4.945-94.48 54.548c-.126.073-.27.166-.406.261-.118.076-.233.153-.346.235-.134.096-.267.201-.399.31-.219.18-.373.311-.52.45-.128.121-.254.249-.378.38-.13.139-.239.266-.347.396-.183.22-.314.387-.438.563-.06.083-.134.194-.211.315-.085.122-.166.248-.242.379-.068.118-.139.256-.205.394-.061.116-.127.248-.189.384-.089.196-.173.408-.252.625-.055.148-.115.321-.168.495-.052.17-.099.34-.141.515-.054.228-.094.444-.129.663-.032.192-.059.38-.077.571-.011.105-.019.223-.026.347-.016.168-.025.338-.025.512v16.993z" fill="#ab695d"/><g fill="#ffdfcf"><path d="m171.02 188.658 89.98-51.951 23.775 13.727-89.98 51.949z"/><path d="m239.359 228.113 89.981-51.949 21.64 12.494-89.98 51.95z"/><path d="m162.02 308.146v-103.9l23.775 13.726v27.385c0 3.205 1.724 6.191 4.5 7.794l26.566 15.338c1.367.789 2.923 1.206 4.5 1.206 1.578 0 3.135-.417 4.501-1.207 2.774-1.601 4.499-4.588 4.499-7.793v-16.992l21.639 12.493v103.9z"/></g></g><g id="Blue" display="none"><path d="m33.836 256c0 72.148 35.25 140.071 94.293 181.693 3.397 2.395 7.38 3.661 11.519 3.661 6.518 0 12.645-3.174 16.391-8.491 3.083-4.374 4.279-9.685 3.367-14.957s-3.823-9.873-8.195-12.954c-48.411-34.128-77.314-89.811-77.314-148.952 0-43.187 15.451-85.09 43.507-117.992 27.737-32.528 66.051-54.371 107.884-61.506 1.159-.201 2.351.125 3.252.886s1.42 1.879 1.42 3.057v15.875c0 1.276.231 3.417 1.783 3.417.715 0 1.647-.311 2.625-.875l73.526-42.45c1.692-.978 2.293-1.982 2.293-2.544 0-.563-.601-1.566-2.292-2.543l-73.526-42.451c-.977-.563-1.91-.874-2.625-.874-1.551 0-1.782 2.141-1.782 3.417v20.422c0 2.005-1.484 3.7-3.472 3.965-109.83 14.639-192.654 109.303-192.654 220.196z" display="inline" fill="#fff"/><path d="m352.598 94.096c.912 5.272 3.822 9.873 8.195 12.954 48.41 34.126 77.312 89.809 77.312 148.95 0 43.187-15.452 85.09-43.508 117.991-27.738 32.527-66.052 54.371-107.885 61.507-1.161.2-2.352-.126-3.252-.886-.901-.76-1.42-1.878-1.42-3.057v-15.874c0-1.277-.232-3.419-1.784-3.419-.715 0-1.647.311-2.625.875l-73.525 42.452c-1.692.977-2.293 1.98-2.293 2.543s.601 1.566 2.293 2.543l73.526 42.452c.976.563 1.909.874 2.625.874.608 0 .866-.218 1.055-.453.462-.576.728-1.656.728-2.965v-20.421c0-2.005 1.484-3.7 3.472-3.965 109.828-14.64 192.652-109.304 192.652-220.197 0-72.147-35.249-140.069-94.29-181.691-3.397-2.396-7.38-3.661-11.519-3.661-6.515 0-12.643 3.174-16.39 8.491-3.084 4.373-4.279 9.685-3.367 14.957z" display="inline" fill="#fff"/><path d="m260 258.309v115.447l99.98-57.723v-115.447z" display="inline" fill="#9bc9ff"/><path d="m193.794 248.047 18.565 10.719v-25.653c0-.045.012-.086.013-.131.003-.088.007-.174.016-.262.008-.083.022-.166.036-.249.015-.095.03-.188.052-.281.019-.079.041-.156.064-.233s.051-.153.08-.229c.034-.092.067-.184.107-.272.037-.082.08-.159.123-.238.018-.034.027-.071.047-.104s.047-.06.067-.093c.047-.077.093-.153.146-.226.056-.08.119-.153.181-.229.052-.062.103-.124.158-.183.056-.059.112-.117.171-.172.069-.065.143-.125.217-.186.065-.053.128-.106.196-.155.072-.052.146-.099.221-.146.038-.023.067-.054.106-.076l101.98-58.878-18.565-10.719-103.98 60.033v27.963z" display="inline" fill="#fff"/><g fill="#9bc9ff"><path d="m156.02 193.658 33.775 19.499 99.98-57.723-33.775-19.5z" display="inline"/><path d="m256 251.381 99.98-57.723-31.64-18.268-99.981 57.723z" display="inline"/><path d="m252 258.309-31.64-18.267v25.652c0 1.429-.762 2.75-2 3.464-.619.357-1.31.536-2 .536s-1.381-.179-2-.536l-26.565-15.337c-1.238-.715-2-2.035-2-3.464v-30.272l-33.775-19.499v115.447l99.98 57.723z" display="inline"/></g></g><g id="Glyph" display="none"><path d="m225.538 28.701c2.052-.273 3.584-2.023 3.584-4.093v-21.081c0-1.317.239-3.527 1.84-3.527.738 0 1.701.321 2.709.902l75.899 43.821c1.747 1.008 2.367 2.044 2.367 2.625s-.62 1.617-2.367 2.626l-75.897 43.819c-1.009.582-1.971.903-2.709.903-1.602 0-1.841-2.21-1.841-3.528v-16.386c0-1.216-.537-2.371-1.466-3.156-.93-.785-2.16-1.121-3.357-.914-43.182 7.365-82.732 29.913-111.364 63.49-28.963 33.963-44.913 77.218-44.913 121.798 0 61.049 29.834 118.528 79.807 153.756 4.513 3.181 7.518 7.93 8.459 13.372s-.292 10.925-3.476 15.439c-3.866 5.488-10.191 8.765-16.919 8.765-4.272 0-8.383-1.307-11.89-3.779-60.947-42.964-97.334-113.078-97.334-187.553 0-114.47 85.495-212.188 198.868-227.299zm130.176 60.173c.941 5.442 3.945 10.191 8.459 13.372 49.972 35.227 79.806 92.706 79.806 153.754 0 44.58-15.95 87.834-44.912 121.797-28.632 33.577-68.183 56.125-111.365 63.491-1.199.207-2.427-.13-3.357-.914-.93-.785-1.466-1.939-1.466-3.156v-16.386c0-1.318-.239-3.529-1.842-3.529-.738 0-1.701.321-2.709.903l-75.897 43.821c-1.747 1.009-2.367 2.044-2.367 2.625s.62 1.617 2.367 2.625l75.898 43.821c1.007.581 1.97.901 2.709.901.628 0 .895-.225 1.089-.467.478-.594.751-1.71.751-3.061v-21.08c0-2.07 1.532-3.82 3.583-4.093 113.374-15.11 198.869-112.828 198.869-227.298 0-74.475-36.386-144.587-97.331-187.552-3.507-2.473-7.619-3.779-11.891-3.779-6.726 0-13.051 3.277-16.919 8.765-3.183 4.514-4.417 9.997-3.475 15.44zm-95.585 169.51v119.171l103.206-59.585v-119.172zm-68.341-10.593 19.164 11.064v-26.48c0-.046.012-.089.014-.135.003-.09.007-.18.016-.27.008-.086.023-.171.037-.256.016-.098.031-.195.054-.29.02-.082.042-.161.066-.24s.053-.158.082-.236c.035-.095.069-.19.111-.281.039-.084.083-.165.126-.246.019-.035.028-.073.049-.108.02-.035.048-.062.069-.096.049-.079.096-.158.151-.233.058-.082.122-.158.187-.236.053-.064.106-.128.163-.188.058-.061.115-.121.176-.178.072-.067.147-.129.224-.192.067-.054.132-.109.202-.16.074-.054.15-.102.228-.15.039-.024.07-.056.109-.079l105.27-60.777-19.164-11.065-107.334 61.969zm-38.993-56.145 34.865 20.128 103.205-59.585-34.865-20.128zm103.205 59.586 103.205-59.586-32.661-18.856-103.206 59.585zm-4.129 7.152-32.661-18.856v26.479c0 1.476-.787 2.838-2.065 3.576-.638.369-1.352.554-2.064.554s-1.426-.185-2.064-.553l-27.422-15.832c-1.278-.738-2.064-2.101-2.064-3.576v-31.249l-34.864-20.128v119.171l103.206 59.585v-119.171z" display="inline"/></g><g id="Outline"><path d="m123.521 444.232c4.753 3.351 10.33 5.122 16.127 5.122 9.116 0 17.688-4.442 22.93-11.882 4.314-6.119 5.987-13.552 4.71-20.93-1.276-7.377-5.35-13.816-11.469-18.129-46.287-32.631-73.922-85.87-73.922-142.413 0-83.543 58.62-154.607 140.064-170.751v11.071c0 6.723 4.023 11.417 9.783 11.417 2.158 0 4.386-.654 6.624-1.946l73.527-42.451c4-2.31 6.293-5.762 6.293-9.473 0-3.71-2.294-7.163-6.293-9.47l-73.527-42.451c-2.238-1.292-4.466-1.946-6.624-1.946-5.76 0-9.782 4.694-9.782 11.417v16.947c-112.059 16.678-196.126 113.921-196.126 227.636 0 74.746 36.518 145.112 97.685 188.232zm106.44-412.393v-20.422c0-1.276.231-3.417 1.782-3.417.715 0 1.648.311 2.625.874l73.527 42.452c1.692.977 2.292 1.98 2.292 2.543s-.601 1.567-2.293 2.544l-73.526 42.45c-.978.564-1.91.875-2.625.875-1.552 0-1.783-2.141-1.783-3.417v-15.876c0-1.178-.52-2.297-1.42-3.057s-2.093-1.086-3.252-.886c-41.833 7.135-80.147 28.979-107.884 61.506-28.055 32.902-43.507 74.805-43.507 117.992 0 59.141 28.902 114.824 77.313 148.952 4.372 3.082 7.283 7.682 8.195 12.954s-.283 10.583-3.367 14.957c-3.746 5.316-9.873 8.491-16.391 8.491-4.138 0-8.121-1.266-11.519-3.661-59.042-41.622-94.292-109.545-94.292-181.693 0-110.893 82.823-205.557 192.653-220.196 1.988-.265 3.472-1.96 3.472-3.965z"/><path d="m356.183 113.589c46.287 32.629 73.921 85.867 73.921 142.411 0 83.542-58.621 154.606-140.066 170.75v-11.069c0-6.723-4.023-11.419-9.784-11.419-2.158 0-4.386.654-6.624 1.946l-73.526 42.452c-4 2.308-6.293 5.76-6.293 9.471s2.293 7.164 6.293 9.472l73.527 42.452c2.237 1.29 4.465 1.945 6.623 1.945h.001c2.919 0 5.509-1.223 7.292-3.443 1.629-2.028 2.49-4.786 2.49-7.975v-16.946c112.06-16.678 196.127-113.921 196.127-227.636 0-74.745-36.516-145.111-97.68-188.229-4.753-3.351-10.33-5.123-16.128-5.123-9.113 0-17.685 4.442-22.929 11.881-4.314 6.12-5.988 13.553-4.711 20.93 1.275 7.378 5.348 13.817 11.467 18.13zm16.172-42.941c4.139 0 8.122 1.266 11.519 3.661 59.041 41.622 94.29 109.543 94.29 181.691 0 110.893-82.823 205.557-192.653 220.196-1.987.265-3.472 1.96-3.472 3.965v20.421c0 1.309-.265 2.389-.728 2.965-.189.235-.447.453-1.055.453-.716 0-1.649-.311-2.625-.874l-73.526-42.452c-1.692-.977-2.293-1.981-2.293-2.543 0-.563.601-1.566 2.293-2.543l73.525-42.452c.977-.564 1.909-.875 2.625-.875 1.552 0 1.784 2.142 1.784 3.419v15.874c0 1.179.52 2.297 1.42 3.057s2.091 1.086 3.252.886c41.833-7.136 80.147-28.979 107.885-61.507 28.057-32.901 43.508-74.805 43.508-117.991 0-59.141-28.902-114.823-77.312-148.95-4.373-3.082-7.283-7.682-8.195-12.954s.284-10.584 3.367-14.957c3.748-5.316 9.876-8.49 16.391-8.49z"/><path d="m254.377 384.334c.029.013.056.029.085.042.212.088.43.152.651.202.058.013.117.024.176.035.235.042.472.072.71.072s.475-.029.71-.072c.06-.011.118-.021.176-.035.221-.05.439-.114.651-.202.029-.012.056-.029.085-.042.128-.057.255-.114.377-.185l107.98-62.342c1.238-.715 2-2.035 2-3.464v-124.685c0-.14-.013-.278-.027-.416-.004-.033-.002-.066-.007-.099-.029-.228-.083-.449-.15-.665-.018-.057-.037-.112-.058-.168-.162-.451-.402-.868-.712-1.233-.038-.045-.076-.089-.116-.132-.154-.167-.319-.325-.502-.464-.025-.019-.053-.034-.079-.053-.113-.082-.227-.163-.349-.233l-107.978-62.344c-1.237-.715-2.763-.715-4 0l-107.98 62.343c-.121.07-.234.15-.346.231-.027.02-.056.035-.082.055-.182.139-.346.296-.5.462-.041.044-.079.089-.118.135-.153.182-.296.371-.415.576-.001.001-.002.002-.002.003s-.001.003-.002.004c-.118.204-.21.422-.291.645-.021.058-.041.115-.06.174-.066.215-.12.435-.149.662-.004.035-.003.069-.007.104-.014.136-.027.272-.027.411v124.685c0 1.429.762 2.75 2 3.464l107.979 62.344c.123.071.25.129.377.185zm61.963-213.563-101.98 58.878c-.039.022-.068.053-.106.076-.075.047-.149.094-.221.146-.068.049-.131.102-.196.155-.074.061-.147.121-.217.186-.059.056-.115.113-.171.172-.055.059-.106.121-.158.183-.063.076-.125.149-.181.229-.053.073-.099.149-.146.226-.02.033-.047.06-.067.093s-.029.07-.047.104c-.043.079-.085.157-.123.238-.041.088-.074.18-.107.272-.028.076-.056.152-.08.229s-.045.154-.064.233c-.022.092-.037.186-.052.281-.014.083-.028.165-.036.249-.009.087-.013.174-.016.262-.001.044-.013.086-.013.131v25.653l-18.565-10.719v-27.962l103.98-60.033zm39.64 22.887-99.98 57.723-31.641-18.268 99.98-57.723zm-95.98 180.098v-115.447l99.98-57.723v115.447zm-70.205-160.599-33.775-19.499 99.98-57.724 33.775 19.5zm-37.775-12.571 33.775 19.499v30.272c0 1.429.762 2.75 2 3.464l26.565 15.337c.619.357 1.31.536 2 .536s1.381-.179 2-.536c1.238-.714 2-2.035 2-3.464v-25.652l31.64 18.267v115.447l-99.98-57.724z"/></g><g id="Gradient" display="none"><path d="m123.521 444.232c4.753 3.351 10.33 5.122 16.127 5.122 9.116 0 17.688-4.442 22.93-11.882 4.314-6.119 5.987-13.552 4.71-20.93-1.276-7.377-5.35-13.816-11.469-18.129-46.287-32.631-73.922-85.87-73.922-142.413 0-83.543 58.62-154.607 140.064-170.751v11.071c0 6.723 4.023 11.417 9.783 11.417 2.158 0 4.386-.654 6.624-1.946l73.527-42.451c4-2.31 6.293-5.762 6.293-9.473 0-3.71-2.294-7.163-6.293-9.47l-73.527-42.451c-2.238-1.292-4.466-1.946-6.624-1.946-5.76 0-9.782 4.694-9.782 11.417v16.947c-112.059 16.678-196.126 113.921-196.126 227.636 0 74.746 36.518 145.112 97.685 188.232zm106.44-412.393v-20.422c0-1.276.231-3.417 1.782-3.417.715 0 1.648.311 2.625.874l73.527 42.452c1.692.977 2.292 1.98 2.292 2.543s-.601 1.567-2.293 2.544l-73.526 42.45c-.978.564-1.91.875-2.625.875-1.552 0-1.783-2.141-1.783-3.417v-15.876c0-1.178-.52-2.297-1.42-3.057s-2.093-1.086-3.252-.886c-41.833 7.135-80.147 28.979-107.884 61.506-28.055 32.902-43.507 74.805-43.507 117.992 0 59.141 28.902 114.824 77.313 148.952 4.372 3.082 7.283 7.682 8.195 12.954s-.283 10.583-3.367 14.957c-3.746 5.316-9.873 8.491-16.391 8.491-4.138 0-8.121-1.266-11.519-3.661-59.042-41.622-94.292-109.545-94.292-181.693 0-110.893 82.823-205.557 192.653-220.196 1.988-.265 3.472-1.96 3.472-3.965zm126.222 81.75c46.287 32.629 73.921 85.867 73.921 142.411 0 83.542-58.621 154.606-140.066 170.75v-11.069c0-6.723-4.023-11.419-9.784-11.419-2.158 0-4.386.654-6.624 1.946l-73.526 42.452c-4 2.308-6.293 5.76-6.293 9.471s2.293 7.164 6.293 9.472l73.527 42.452c2.237 1.29 4.465 1.945 6.623 1.945h.001c2.919 0 5.509-1.223 7.292-3.443 1.629-2.028 2.49-4.786 2.49-7.975v-16.946c112.06-16.678 196.127-113.921 196.127-227.636 0-74.745-36.516-145.111-97.68-188.229-4.753-3.351-10.33-5.123-16.128-5.123-9.113 0-17.685 4.442-22.929 11.881-4.314 6.12-5.988 13.553-4.711 20.93 1.275 7.378 5.348 13.817 11.467 18.13zm16.172-42.941c4.139 0 8.122 1.266 11.519 3.661 59.041 41.622 94.29 109.543 94.29 181.691 0 110.893-82.823 205.557-192.653 220.196-1.987.265-3.472 1.96-3.472 3.965v20.421c0 1.309-.265 2.389-.728 2.965-.189.235-.447.453-1.055.453-.716 0-1.649-.311-2.625-.874l-73.526-42.452c-1.692-.977-2.293-1.981-2.293-2.543 0-.563.601-1.566 2.293-2.543l73.525-42.452c.977-.564 1.909-.875 2.625-.875 1.552 0 1.784 2.142 1.784 3.419v15.874c0 1.179.52 2.297 1.42 3.057s2.091 1.086 3.252.886c41.833-7.136 80.147-28.979 107.885-61.507 28.057-32.901 43.508-74.805 43.508-117.991 0-59.141-28.902-114.823-77.312-148.95-4.373-3.082-7.283-7.682-8.195-12.954s.284-10.584 3.367-14.957c3.748-5.316 9.876-8.49 16.391-8.49zm-117.978 313.686c.029.013.056.029.085.042.212.088.43.152.651.202.058.013.117.024.176.035.235.042.472.072.71.072s.475-.029.71-.072c.06-.011.118-.021.176-.035.221-.05.439-.114.651-.202.029-.012.056-.029.085-.042.128-.057.255-.114.377-.185l107.98-62.342c1.238-.715 2-2.035 2-3.464v-124.685c0-.14-.013-.278-.027-.416-.004-.033-.002-.066-.007-.099-.029-.228-.083-.449-.15-.665-.018-.057-.037-.112-.058-.168-.162-.451-.402-.868-.712-1.233-.038-.045-.076-.089-.116-.132-.154-.167-.319-.325-.502-.464-.025-.019-.053-.034-.079-.053-.113-.082-.227-.163-.349-.233l-107.978-62.344c-1.237-.715-2.763-.715-4 0l-107.98 62.343c-.121.07-.234.15-.346.231-.027.02-.056.035-.082.055-.182.139-.346.296-.5.462-.041.044-.079.089-.118.135-.153.182-.296.371-.415.576-.001.001-.002.002-.002.003s-.001.003-.002.004c-.118.204-.21.422-.291.645-.021.058-.041.115-.06.174-.066.215-.12.435-.149.662-.004.035-.003.069-.007.104-.014.136-.027.272-.027.411v124.685c0 1.429.762 2.75 2 3.464l107.979 62.344c.123.071.25.129.377.185zm61.963-213.563-101.98 58.878c-.039.022-.068.053-.106.076-.075.047-.149.094-.221.146-.068.049-.131.102-.196.155-.074.061-.147.121-.217.186-.059.056-.115.113-.171.172-.055.059-.106.121-.158.183-.063.076-.125.149-.181.229-.053.073-.099.149-.146.226-.02.033-.047.06-.067.093s-.029.07-.047.104c-.043.079-.085.157-.123.238-.041.088-.074.18-.107.272-.028.076-.056.152-.08.229s-.045.154-.064.233c-.022.092-.037.186-.052.281-.014.083-.028.165-.036.249-.009.087-.013.174-.016.262-.001.044-.013.086-.013.131v25.653l-18.565-10.719v-27.962l103.98-60.033zm39.64 22.887-99.98 57.723-31.641-18.268 99.98-57.723zm-95.98 180.098v-115.447l99.98-57.723v115.447zm-70.205-160.599-33.775-19.499 99.98-57.724 33.775 19.5zm-37.775-12.571 33.775 19.499v30.272c0 1.429.762 2.75 2 3.464l26.565 15.337c.619.357 1.31.536 2 .536s1.381-.179 2-.536c1.238-.714 2-2.035 2-3.464v-25.652l31.64 18.267v115.447l-99.98-57.724z" display="inline" fill="url(#SVGID_1_)"/></g><g id="Outline_Blue" display="none" fill="#57a4ff"><path d="m123.521 444.232c4.753 3.351 10.33 5.122 16.127 5.122 9.116 0 17.688-4.442 22.93-11.882 4.314-6.119 5.987-13.552 4.71-20.93-1.276-7.377-5.35-13.816-11.469-18.129-46.287-32.631-73.922-85.87-73.922-142.413 0-83.543 58.62-154.607 140.064-170.751v11.071c0 6.723 4.023 11.417 9.783 11.417 2.158 0 4.386-.654 6.624-1.946l73.527-42.451c4-2.31 6.293-5.762 6.293-9.473 0-3.71-2.294-7.163-6.293-9.47l-73.527-42.451c-2.238-1.292-4.466-1.946-6.624-1.946-5.76 0-9.782 4.694-9.782 11.417v16.947c-112.059 16.678-196.126 113.921-196.126 227.636 0 74.746 36.518 145.112 97.685 188.232zm106.44-412.393v-20.422c0-1.276.231-3.417 1.782-3.417.715 0 1.648.311 2.625.874l73.527 42.452c1.692.977 2.292 1.98 2.292 2.543s-.601 1.567-2.293 2.544l-73.526 42.45c-.978.564-1.91.875-2.625.875-1.552 0-1.783-2.141-1.783-3.417v-15.876c0-1.178-.52-2.297-1.42-3.057s-2.093-1.086-3.252-.886c-41.833 7.135-80.147 28.979-107.884 61.506-28.055 32.902-43.507 74.805-43.507 117.992 0 59.141 28.902 114.824 77.313 148.952 4.372 3.082 7.283 7.682 8.195 12.954s-.283 10.583-3.367 14.957c-3.746 5.316-9.873 8.491-16.391 8.491-4.138 0-8.121-1.266-11.519-3.661-59.042-41.622-94.292-109.545-94.292-181.693 0-110.893 82.823-205.557 192.653-220.196 1.988-.265 3.472-1.96 3.472-3.965z" display="inline"/><path d="m356.183 113.589c46.287 32.629 73.921 85.867 73.921 142.411 0 83.542-58.621 154.606-140.066 170.75v-11.069c0-6.723-4.023-11.419-9.784-11.419-2.158 0-4.386.654-6.624 1.946l-73.526 42.452c-4 2.308-6.293 5.76-6.293 9.471s2.293 7.164 6.293 9.472l73.527 42.452c2.237 1.29 4.465 1.945 6.623 1.945h.001c2.919 0 5.509-1.223 7.292-3.443 1.629-2.028 2.49-4.786 2.49-7.975v-16.946c112.06-16.678 196.127-113.921 196.127-227.636 0-74.745-36.516-145.111-97.68-188.229-4.753-3.351-10.33-5.123-16.128-5.123-9.113 0-17.685 4.442-22.929 11.881-4.314 6.12-5.988 13.553-4.711 20.93 1.275 7.378 5.348 13.817 11.467 18.13zm16.172-42.941c4.139 0 8.122 1.266 11.519 3.661 59.041 41.622 94.29 109.543 94.29 181.691 0 110.893-82.823 205.557-192.653 220.196-1.987.265-3.472 1.96-3.472 3.965v20.421c0 1.309-.265 2.389-.728 2.965-.189.235-.447.453-1.055.453-.716 0-1.649-.311-2.625-.874l-73.526-42.452c-1.692-.977-2.293-1.981-2.293-2.543 0-.563.601-1.566 2.293-2.543l73.525-42.452c.977-.564 1.909-.875 2.625-.875 1.552 0 1.784 2.142 1.784 3.419v15.874c0 1.179.52 2.297 1.42 3.057s2.091 1.086 3.252.886c41.833-7.136 80.147-28.979 107.885-61.507 28.057-32.901 43.508-74.805 43.508-117.991 0-59.141-28.902-114.823-77.312-148.95-4.373-3.082-7.283-7.682-8.195-12.954s.284-10.584 3.367-14.957c3.748-5.316 9.876-8.49 16.391-8.49z" display="inline"/><path d="m254.377 384.334c.029.013.056.029.085.042.212.088.43.152.651.202.058.013.117.024.176.035.235.042.472.072.71.072s.475-.029.71-.072c.06-.011.118-.021.176-.035.221-.05.439-.114.651-.202.029-.012.056-.029.085-.042.128-.057.255-.114.377-.185l107.98-62.342c1.238-.715 2-2.035 2-3.464v-124.685c0-.14-.013-.278-.027-.416-.004-.033-.002-.066-.007-.099-.029-.228-.083-.449-.15-.665-.018-.057-.037-.112-.058-.168-.162-.451-.402-.868-.712-1.233-.038-.045-.076-.089-.116-.132-.154-.167-.319-.325-.502-.464-.025-.019-.053-.034-.079-.053-.113-.082-.227-.163-.349-.233l-107.978-62.344c-1.237-.715-2.763-.715-4 0l-107.98 62.343c-.121.07-.234.15-.346.231-.027.02-.056.035-.082.055-.182.139-.346.296-.5.462-.041.044-.079.089-.118.135-.153.182-.296.371-.415.576-.001.001-.002.002-.002.003s-.001.003-.002.004c-.118.204-.21.422-.291.645-.021.058-.041.115-.06.174-.066.215-.12.435-.149.662-.004.035-.003.069-.007.104-.014.136-.027.272-.027.411v124.685c0 1.429.762 2.75 2 3.464l107.979 62.344c.123.071.25.129.377.185zm61.963-213.563-101.98 58.878c-.039.022-.068.053-.106.076-.075.047-.149.094-.221.146-.068.049-.131.102-.196.155-.074.061-.147.121-.217.186-.059.056-.115.113-.171.172-.055.059-.106.121-.158.183-.063.076-.125.149-.181.229-.053.073-.099.149-.146.226-.02.033-.047.06-.067.093s-.029.07-.047.104c-.043.079-.085.157-.123.238-.041.088-.074.18-.107.272-.028.076-.056.152-.08.229s-.045.154-.064.233c-.022.092-.037.186-.052.281-.014.083-.028.165-.036.249-.009.087-.013.174-.016.262-.001.044-.013.086-.013.131v25.653l-18.565-10.719v-27.962l103.98-60.033zm39.64 22.887-99.98 57.723-31.641-18.268 99.98-57.723zm-95.98 180.098v-115.447l99.98-57.723v115.447zm-70.205-160.599-33.775-19.499 99.98-57.724 33.775 19.5zm-37.775-12.571 33.775 19.499v30.272c0 1.429.762 2.75 2 3.464l26.565 15.337c.619.357 1.31.536 2 .536s1.381-.179 2-.536c1.238-.714 2-2.035 2-3.464v-25.652l31.64 18.267v115.447l-99.98-57.724z" display="inline"/></g></svg>