<svg width="138" height="35" viewBox="0 0 138 35" fill="none" xmlns="http://www.w3.org/2000/svg">
<path d="M24.255 20.0927C24.2541 20.0924 12.0337 17.4702 12.0337 17.4702C8.39121 16.6886 6.10627 13.255 6.93032 9.80099C7.75485 6.34694 11.376 4.18079 15.0185 4.96216C18.6612 5.74382 20.9459 9.17738 20.1218 12.6312C19.7089 14.3605 18.5948 15.7657 17.1281 16.6411C17.1279 16.6411 17.1243 16.6439 17.1229 16.6446C17.0798 16.674 17.0519 16.7218 17.0519 16.7755C17.0519 16.8508 17.1067 16.9142 17.1808 16.9311C17.1811 16.9313 22.6172 18.0969 22.6182 18.0969C22.7475 18.1247 22.8818 18.0774 22.9613 17.9778C22.9617 17.9769 22.9615 17.9776 22.9615 17.9776C24.4592 16.0985 25.3588 13.7539 25.3588 11.218C25.3588 5.24578 20.438 0.365139 14.2312 0.018486C14.1759 0.0155869 13.8395 0.00312424 13.7259 0.00159073C10.9778 -0.0393181 8.19147 0.707859 5.7685 2.31686C-0.350402 6.37937 -1.83706 14.3758 2.4469 20.1776L13.3194 34.9011C13.3659 34.9611 13.4406 35 13.5245 35C13.6091 35 13.6841 34.9604 13.7303 34.9C13.7303 34.9 24.4069 20.4627 24.4079 20.4613C24.435 20.4231 24.4512 20.3767 24.4512 20.3269C24.4512 20.2127 24.3675 20.1171 24.255 20.0927Z" fill="#FFDA47"/>
<path d="M34.7181 6.89395C34.8489 6.89395 34.9356 6.93503 34.9789 7.01747L38.6042 12.8837H38.7777L41.8605 7.09951C41.9254 6.95528 42.056 6.89395 42.2296 6.89395H44.4438C44.6393 6.89395 44.7475 7.07925 44.6606 7.22308L38.2783 17.9272C38.2133 18.0505 38.0833 18.1125 37.9093 18.1125H35.7385C35.4997 18.1125 35.4781 17.9683 35.5651 17.8036L37.2798 15.0246L32.1567 7.16152C32.0696 7.01747 32.135 6.89395 32.2868 6.89395H34.7181Z" fill="#FFDA47"/>
<path d="M48.4678 6.89395C48.6633 6.89395 48.7718 6.99659 48.7718 7.18194V11.5843L53.6567 7.05837C53.7868 6.95528 53.9821 6.89395 54.2209 6.89395H56.8694C57.0648 6.89395 57.1302 7.05837 56.9778 7.2026L51.7892 11.8136L57.3036 17.8036C57.4555 17.9474 57.369 18.1125 57.1736 18.1125H54.5684C54.3296 18.1125 54.1562 18.0505 54.0254 17.9063L49.8943 13.2857L48.7718 14.2756V17.8241C48.7718 18.0095 48.6633 18.1125 48.4678 18.1125H46.5576C46.3621 18.1125 46.2539 18.0095 46.2539 17.8241V7.18194C46.2539 6.99659 46.3621 6.89395 46.5576 6.89395H48.4678Z" fill="#FFDA47"/>
<path d="M64.5065 12.8635C65.8307 12.8635 66.5903 12.0814 66.5903 10.9905C66.5903 9.91993 65.8307 9.15853 64.5065 9.15853H61.3583V12.8635H64.5065ZM64.5065 6.89395C67.1327 6.89395 69.1079 8.68472 69.1079 10.9905C69.1079 13.3782 67.1327 15.1279 64.5065 15.1279H61.3583V17.8243C61.3583 18.0095 61.2497 18.1125 61.0547 18.1125H59.1439C58.9486 18.1125 58.8398 18.0095 58.8398 17.8243V7.18217C58.8398 6.99681 58.9486 6.89395 59.1439 6.89395H64.5065Z" fill="#FFDA47"/>
<path d="M80.9738 6.89395C81.1688 6.89395 81.278 6.99659 81.278 7.18194V17.8241C81.278 18.0095 81.1688 18.1125 80.9738 18.1125H79.0628C78.8684 18.1125 78.7592 18.0095 78.7592 17.8241V9.13742H73.5055V17.8241C73.5055 18.0095 73.3969 18.1125 73.2019 18.1125H71.2915C71.0959 18.1125 70.9873 18.0095 70.9873 17.8241V7.18194C70.9873 6.99659 71.0959 6.89395 71.2915 6.89395H80.9738Z" fill="#FFDA47"/>
<path d="M86.0594 12.5132C86.0594 14.5511 87.5786 16.0328 89.7494 16.0328C91.8992 16.0328 93.4191 14.5511 93.4191 12.5132C93.4191 10.4341 91.8992 8.97272 89.7494 8.97272C87.5786 8.97272 86.0594 10.4341 86.0594 12.5132ZM89.7494 6.72874C93.1581 6.72874 95.9589 9.21958 95.9589 12.5132C95.9589 15.8272 93.1581 18.277 89.7494 18.277C86.3198 18.277 83.5195 15.8272 83.5195 12.5132C83.5195 9.21958 86.3198 6.72874 89.7494 6.72874Z" fill="#FFDA47"/>
<path d="M104.387 15.8689V7.18172C104.387 6.99681 104.495 6.89395 104.691 6.89395H106.558C106.753 6.89395 106.862 6.99681 106.862 7.18172V15.8689H110.574V7.18172C110.574 6.99681 110.682 6.89395 110.878 6.89395H112.745C112.941 6.89395 113.049 6.99681 113.049 7.18172V17.8241C113.049 18.0095 112.941 18.1125 112.745 18.1125H98.5039C98.3521 18.1125 98.1997 18.0095 98.1997 17.8241V7.18172C98.1997 6.99681 98.3077 6.89395 98.5039 6.89395H100.371C100.566 6.89395 100.675 6.99681 100.675 7.18172V15.8689H104.387Z" fill="#FFDA47"/>
<path d="M125.11 6.89395C125.305 6.89395 125.414 6.99659 125.414 7.18194V8.86985C125.414 9.05521 125.305 9.1579 125.11 9.1579H121.333V17.8241C121.333 18.0095 121.223 18.1125 121.028 18.1125H119.118C118.923 18.1125 118.814 18.0095 118.814 17.8241V9.1579H115.037C114.842 9.1579 114.732 9.05521 114.732 8.86985V7.18194C114.732 6.99659 114.842 6.89395 115.037 6.89395H125.11Z" fill="#FFDA47"/>
<path d="M129.406 13.7282H133.53L131.62 9.11745H131.381L129.406 13.7282ZM134.399 15.8895H128.494L127.669 17.8654C127.604 18.0303 127.474 18.1125 127.3 18.1125H125.151C124.934 18.1125 124.869 18.0095 124.934 17.8243L130.057 7.05883C130.1 6.95574 130.187 6.89395 130.34 6.89395H132.814C132.966 6.89395 133.053 6.95574 133.096 7.05883L137.981 17.783C138.046 17.9481 137.938 18.1125 137.742 18.1125H135.68C135.463 18.1125 135.31 18.0095 135.224 17.8243L134.399 15.8895Z" fill="#FFDA47"/>
<path d="M33.8271 27.7302V22.9261H37.1605V23.4794H34.4968V27.7302H33.8271Z" fill="#FFDA47"/>
<path d="M38.8012 25.3211C38.8012 26.5223 39.4919 27.2981 40.5674 27.2981C41.6287 27.2981 42.3195 26.5152 42.3195 25.3211C42.3195 24.1337 41.6287 23.3645 40.5532 23.3645C39.3567 23.3645 38.8012 24.2954 38.8012 25.3211ZM42.9893 25.2873C42.9893 26.6979 42.1701 27.8446 40.5604 27.8446C38.9367 27.8446 38.1318 26.6706 38.1318 25.2738C38.1318 23.7763 39.0789 22.8112 40.5532 22.8112C42.1272 22.8112 42.9893 23.8568 42.9893 25.2873Z" fill="#FFDA47"/>
<path d="M48.23 27.7314H47.5606V23.4807H45.6874L45.5878 26.1862C45.5522 27.1514 45.1816 27.8328 44.4127 27.8328C44.2699 27.8328 44.0564 27.7854 43.9282 27.7381V27.1983C44.021 27.2525 44.2132 27.2661 44.2913 27.2661C44.6545 27.2661 44.9185 27.0769 44.9539 25.8555L45.0465 22.9273H48.23V27.7314Z" fill="#FFDA47"/>
<path d="M50.4794 25.3211C50.4794 26.5223 51.1701 27.2981 52.2457 27.2981C53.3068 27.2981 53.9977 26.5152 53.9977 25.3211C53.9977 24.1337 53.3068 23.3645 52.2314 23.3645C51.0349 23.3645 50.4794 24.2954 50.4794 25.3211ZM54.6671 25.2873C54.6671 26.6979 53.8484 27.8446 52.2387 27.8446C50.6147 27.8446 49.8096 26.6706 49.8096 25.2738C49.8096 23.7763 50.7572 22.8112 52.2314 22.8112C53.8055 22.8112 54.6671 23.8568 54.6671 25.2873Z" fill="#FFDA47"/>
<path d="M56.8973 27.1971H58.2365C58.9129 27.1971 59.5753 27.1569 59.5753 26.3134C59.5753 25.4767 58.799 25.4833 58.1226 25.4833H56.8973V27.1971ZM56.8973 24.984H58.101C58.6708 24.984 59.3547 24.9435 59.3547 24.2217C59.3547 23.4994 58.7632 23.4659 58.1653 23.4659H56.8973V24.984ZM58.4074 22.9261C59.2479 22.9261 60.0237 23.2434 60.0237 24.1271C60.0237 24.5993 59.7321 25.0044 59.2762 25.1593C59.903 25.2947 60.2517 25.7396 60.2517 26.3741C60.2517 27.4806 59.2975 27.7302 58.3291 27.7302H56.2422V22.9261H58.4074Z" fill="#FFDA47"/>
<path d="M65.8681 27.7302H65.1985V25.4833H62.5207V27.7302H61.8511V22.9261H62.5207V24.9298H65.1985V22.9261H65.8681V27.7302Z" fill="#FFDA47"/>
<path d="M69.6069 23.5332L68.7309 25.7534H70.4692L69.6069 23.5332ZM71.9788 27.7302H71.2312L70.6684 26.2594H68.5389L67.9623 27.7302H67.2495L69.2439 22.9261H69.9987L71.9788 27.7302Z" fill="#FFDA47"/>
<path d="M80.2363 27.7302H79.5667V23.4794H76.8888V27.7302H76.2192V22.9261H80.2363V27.7302Z" fill="#FFDA47"/>
<path d="M82.4909 25.3211C82.4909 26.5223 83.1815 27.2981 84.2567 27.2981C85.3181 27.2981 86.0087 26.5152 86.0087 25.3211C86.0087 24.1337 85.3181 23.3645 84.2429 23.3645C83.0459 23.3645 82.4909 24.2954 82.4909 25.3211ZM86.6783 25.2873C86.6783 26.6979 85.8593 27.8446 84.2501 27.8446C82.6259 27.8446 81.8213 26.6706 81.8213 25.2738C81.8213 23.7763 82.7681 22.8112 84.2429 22.8112C85.8167 22.8112 86.6783 23.8568 86.6783 25.2873Z" fill="#FFDA47"/>
<path d="M88.2534 22.9261H88.923V27.1771H91.1736V22.9261H91.8427V27.1771H94.0933V22.9261H94.7629V27.7302H88.2534V22.9261Z" fill="#FFDA47"/>
<path d="M100.263 23.4794H98.5608V27.7302H97.8912V23.4794H96.189V22.9261H100.263V23.4794Z" fill="#FFDA47"/>
<path d="M102.855 23.5332L101.98 25.7534H103.718L102.855 23.5332ZM105.228 27.7302H104.48L103.917 26.2594H101.787L101.211 27.7302H100.498L102.492 22.9261H103.247L105.228 27.7302Z" fill="#FFDA47"/>
<path d="M111.448 24.856L113.67 27.7302H112.816L110.978 25.2876L110.138 26.0436V27.7302H109.468V22.9261H110.138V25.308L112.709 22.9261H113.585L111.448 24.856Z" fill="#FFDA47"/>
<path d="M115.751 25.2269H117.039C117.688 25.2269 118.187 25.0582 118.187 24.35C118.187 23.5805 117.609 23.4726 116.947 23.4726H115.751V25.2269ZM117.168 22.9261C118.137 22.9261 118.856 23.3105 118.856 24.3093C118.856 25.3958 118.115 25.7601 117.125 25.7601H115.751V27.7302H115.081V22.9261H117.168Z" fill="#FFDA47"/>
<path d="M121.819 23.5332L120.943 25.7534H122.681L121.819 23.5332ZM124.191 27.7302H123.444L122.881 26.2594H120.751L120.174 27.7302H119.462L121.456 22.9261H122.211L124.191 27.7302Z" fill="#FFDA47"/>
<path d="M126.917 22.5145H126.275V21.8331H126.917V22.5145ZM126.254 27.7302H125.585V22.9261H126.254V27.7302ZM125.57 22.5145H124.93V21.8331H125.57V22.5145Z" fill="#FFDA47"/>
<path d="M132.124 27.7302H131.455V25.4833H128.777V27.7302H128.107V22.9261H128.777V24.9298H131.455V22.9261H132.124V27.7302Z" fill="#FFDA47"/>
<path d="M133.965 22.9261H134.634V26.9948H134.648L137.134 22.9261H137.981V27.7302H137.312V23.6479H137.298L134.805 27.7302H133.965V22.9261Z" fill="#FFDA47"/>
</svg>
