<svg width="193" height="26" viewBox="0 0 193 26" fill="none" xmlns="http://www.w3.org/2000/svg">
<path d="M0 25.8434V2.02905H20.4129C22.287 2.02905 23.6457 2.39316 24.489 3.12138C25.3324 3.85227 25.754 5.02492 25.754 6.64735V9.55487C25.7754 10.0541 25.6946 10.5524 25.5164 11.0193C25.3382 11.4861 25.0665 11.9116 24.7179 12.2696C24.0232 12.9523 23.0031 13.386 21.6538 13.5627C22.8436 13.6681 23.9589 14.1867 24.8063 15.0286C25.5763 15.8758 25.9805 16.993 25.9307 18.1369V21.1809C25.9307 22.7712 25.3524 23.9465 24.1959 24.7069C23.0393 25.4672 21.283 25.8461 18.927 25.8434H0ZM18.0917 5.9044H5.45361V11.5829H18.0917C19.0515 11.5829 19.698 11.4544 20.0996 11.1813C20.2933 11.0252 20.4452 10.8236 20.5419 10.5944C20.6386 10.3653 20.6771 10.1157 20.6538 9.86811V7.61518C20.6751 7.3693 20.6362 7.12192 20.5403 6.8945C20.4444 6.66707 20.2945 6.46645 20.1036 6.31001C19.7181 6.04095 19.0475 5.9044 18.0917 5.9044ZM18.0917 15.5024H5.45361V21.5624H18.0917C19.1117 21.5624 19.8145 21.4005 20.2 21.0765C20.5815 20.7552 20.7743 20.2051 20.7743 19.422V17.6188C20.7743 16.8397 20.5896 16.2895 20.2201 15.9763C19.8506 15.6631 19.1438 15.5024 18.0917 15.5024Z" fill="black"/>
<path d="M32.0791 25.8434L45.5525 2.02905H50.8936L64.5477 25.8434H58.315L55.4597 20.6227H40.3639L37.597 25.8434H32.0791ZM42.7413 16.3377H53.1827L48.0182 6.65136L42.7413 16.3377Z" fill="black"/>
<path d="M76.3304 25.8434V15.1852L63.9614 2.02905H71.3507L79.5271 11.1853L87.7195 2.02905H94.2334L81.9206 15.0527V25.8434H76.3304Z" fill="black"/>
<path d="M100.687 25.8434V2.02905H106.229V21.3616H124.096V25.8434H100.687Z" fill="black"/>
<path d="M126.839 25.8432L140.292 2.01685H145.633L159.287 25.8312L153.058 25.8432L150.199 20.6226H135.107L132.34 25.8432H126.839ZM137.481 16.3255H147.922L142.778 6.65121L137.481 16.3255Z" fill="black"/>
<path d="M167.25 25.8434V2.02905H187.615C189.508 2.02905 190.878 2.39316 191.727 3.12138C192.574 3.85228 193 5.02492 193 6.64735V11.9644C193 13.5708 192.576 14.7354 191.727 15.4583C190.878 16.1811 189.508 16.5492 187.615 16.5626H172.7V25.8434H167.25ZM185.161 6.16544H172.712V12.4624H185.161C186.105 12.4624 186.767 12.3258 187.121 12.0608C187.474 11.7957 187.659 11.2938 187.659 10.5709V8.02079C187.683 7.75732 187.647 7.4918 187.554 7.24418C187.461 6.99656 187.313 6.77329 187.121 6.59113C186.759 6.29797 186.105 6.16544 185.161 6.16544Z" fill="black"/>
<path d="M73.9048 0.27417L79.5311 6.57513L85.1694 0.27417H73.9048Z" fill="#D93A3F"/>
</svg>
