<svg  width="80" height="110" viewBox="30 30 90 100" fill="none" xmlns="http://www.w3.org/2000/svg">
<path fill-rule="evenodd" clip-rule="evenodd" d="M64.3862 61.7181C63.6201 62.5952 63.1899 63.7851 63.1899 65.0256V104.539C63.1899 107.122 65.0188 109.217 67.275 109.217H87.5325C89.7886 109.217 91.6179 107.122 91.6179 104.539V65.0256C91.6179 63.7851 91.1873 62.5952 90.4213 61.7181L80.2924 50.1216C78.6971 48.2948 76.1104 48.2948 74.5151 50.1216L64.3862 61.7181ZM77.4039 62.5074C79.0298 62.5074 80.3479 60.9983 80.3479 59.1367C80.3479 57.2748 79.0298 55.7657 77.4039 55.7657C75.7776 55.7657 74.4596 57.2748 74.4596 59.1367C74.4596 60.9983 75.7776 62.5074 77.4039 62.5074Z" fill="#D05A59"/>
<path fill-rule="evenodd" clip-rule="evenodd" d="M80.2924 50.1217C80.0278 49.8187 79.7358 49.5659 79.4255 49.3633C79.1041 49.569 78.802 49.8285 78.5288 50.1413L69.2877 60.7294C68.5222 61.6065 68.092 62.7957 68.092 64.0355V91.2491C68.092 99.0525 73.6172 105.378 80.4326 105.378H90.6599C90.9724 105.378 91.2769 105.338 91.5695 105.262C91.6014 105.026 91.6179 104.785 91.6179 104.539V65.0256C91.6179 63.7852 91.1874 62.5956 90.4213 61.7182L80.2924 50.1217ZM77.4039 62.5075C79.0299 62.5075 80.3479 60.9984 80.3479 59.1368C80.3479 57.2749 79.0299 55.7658 77.4039 55.7658C75.7777 55.7658 74.4596 57.2749 74.4596 59.1368C74.4596 60.9984 75.7777 62.5075 77.4039 62.5075Z" fill="#EC6564"/>
<path d="M78.1491 87.636V86.8306C78.1491 86.2734 78.2491 85.7636 78.4487 85.3012C78.6529 84.8338 78.9486 84.4609 79.3353 84.1825C79.7266 83.8988 80.2001 83.7573 80.7564 83.7573C81.3212 83.7573 81.795 83.8988 82.1775 84.1825C82.5599 84.4609 82.8487 84.8338 83.0444 85.3012C83.2397 85.7636 83.3376 86.2734 83.3376 86.8306V87.636C83.3376 88.1929 83.2376 88.7052 83.0377 89.1729C82.8423 89.6353 82.551 90.0082 82.1643 90.2915C81.7819 90.5703 81.3127 90.7093 80.7564 90.7093C80.1915 90.7093 79.7155 90.5703 79.3288 90.2915C78.9421 90.0082 78.6486 89.6353 78.4487 89.1729C78.2491 88.7052 78.1491 88.1929 78.1491 87.636ZM79.4788 86.8306V87.636C79.4788 88.0985 79.5745 88.5138 79.7655 88.8818C79.9569 89.2448 80.2872 89.4264 80.7564 89.4264C81.2127 89.4264 81.5341 89.2448 81.7211 88.8818C81.9122 88.5138 82.0079 88.0985 82.0079 87.636V86.8306C82.0079 86.3678 81.9165 85.9553 81.734 85.5922C81.5515 85.2243 81.2256 85.0403 80.7564 85.0403C80.3 85.0403 79.9719 85.2243 79.772 85.5922C79.5766 85.9553 79.4788 86.3678 79.4788 86.8306ZM71.5002 78.8937V78.0879C71.5002 77.5311 71.6002 77.0212 71.8002 76.5588C72.0044 76.0912 72.2997 75.7183 72.6867 75.4398C73.0777 75.1565 73.5515 75.0146 74.1075 75.0146C74.6724 75.0146 75.1462 75.1565 75.5286 75.4398C75.911 75.7183 76.1999 76.0912 76.3956 76.5588C76.5912 77.0212 76.689 77.5311 76.689 78.0879V78.8937C76.689 79.4506 76.5891 79.9629 76.3891 80.4302C76.1935 80.8926 75.9024 81.2658 75.5157 81.5492C75.1333 81.8276 74.6638 81.967 74.1075 81.967C73.5426 81.967 73.067 81.8276 72.68 81.5492C72.2933 81.2658 72.0001 80.8926 71.8002 80.4302C71.6002 79.9629 71.5002 79.4506 71.5002 78.8937ZM72.8299 78.0879V78.8937C72.8299 79.3561 72.9256 79.7711 73.1167 80.1395C73.308 80.5025 73.6383 80.6837 74.1075 80.6837C74.5638 80.6837 74.8855 80.5025 75.0723 80.1395C75.2637 79.7711 75.359 79.3561 75.359 78.8937V78.0879C75.359 77.6255 75.2679 77.2126 75.0855 76.8496C74.9027 76.4816 74.577 76.2976 74.1075 76.2976C73.6512 76.2976 73.3234 76.4816 73.1234 76.8496C72.9278 77.2126 72.8299 77.6255 72.8299 78.0879ZM71.9958 90.5004L81.1734 75.2236H82.6598L73.4819 90.5004H71.9958Z" fill="#F6F8FE"/>
<path fill-rule="evenodd" clip-rule="evenodd" d="M66.1836 50.5444C65.1001 50.5444 64.0611 51.0374 63.2951 51.9145L38.8915 79.8548C37.2959 81.6817 37.2959 84.6429 38.8915 86.4698L53.2155 102.87C54.8108 104.696 57.3976 104.696 58.9928 102.87L83.3965 74.9295C84.1628 74.0524 84.5931 72.8625 84.5931 71.622V55.2219C84.5931 52.6388 82.7641 50.5444 80.508 50.5444H66.1836ZM74.9009 61.6413C76.0509 62.958 77.9148 62.958 79.0648 61.6413C80.2145 60.325 80.2145 58.1906 79.0648 56.8743C77.9148 55.5579 76.0509 55.5579 74.9009 56.8743C73.7512 58.1906 73.7512 60.325 74.9009 61.6413Z" fill="url(#paint0_linear_4_4128)"/>
<path fill-rule="evenodd" clip-rule="evenodd" d="M84.5931 55.222C84.5931 54.7933 84.5428 54.3783 84.4487 53.9837C84.0942 53.8692 83.7203 53.8081 83.3339 53.8081L70.2604 53.8134C69.1773 53.8137 68.1389 54.3067 67.3732 55.1834L50.566 74.4264C45.7467 79.9441 45.7467 88.8901 50.566 94.4074L57.7978 102.687C58.0189 102.94 58.2587 103.159 58.5126 103.341C58.6807 103.201 58.8414 103.044 58.9932 102.87L83.3968 74.9295C84.1629 74.0525 84.5931 72.8626 84.5931 71.6221V55.222ZM74.9009 61.6414C76.0509 62.9581 77.9151 62.9581 79.0648 61.6414C80.2145 60.3251 80.2145 58.1907 79.0648 56.8744C77.9151 55.558 76.0509 55.558 74.9009 56.8744C73.7512 58.1907 73.7512 60.3251 74.9009 61.6414Z" fill="url(#paint1_linear_4_4128)"/>
<path d="M59.9085 80.0138L60.4063 79.444C60.7503 79.0504 61.1358 78.7705 61.5627 78.6055C61.9957 78.4401 62.4352 78.4159 62.8804 78.5321C63.3322 78.6483 63.7548 78.9313 64.1479 79.3818C64.5475 79.839 64.7947 80.3228 64.89 80.833C64.9885 81.3393 64.9624 81.8371 64.8121 82.3259C64.6646 82.8111 64.419 83.2507 64.0752 83.6447L63.5775 84.2142C63.2334 84.6081 62.8464 84.8893 62.4165 85.0582C61.9926 85.2268 61.5563 85.2549 61.1079 85.1421C60.6654 85.0294 60.2477 84.7478 59.8543 84.2977C59.4547 83.8402 59.2044 83.3568 59.1029 82.8466C59.0045 82.3329 59.0275 81.8319 59.1716 81.3431C59.3191 80.8505 59.5648 80.4074 59.9085 80.0138ZM61.3465 80.5205L60.8488 81.0903C60.5633 81.4172 60.3744 81.7883 60.2824 82.2033C60.1934 82.6149 60.3149 83.0106 60.6467 83.3905C60.9693 83.7598 61.3088 83.8918 61.6651 83.7865C62.0276 83.6812 62.3518 83.4649 62.6373 83.1377L63.135 82.5682C63.4205 82.2409 63.6109 81.8754 63.706 81.4709C63.8041 81.0629 63.6873 80.669 63.3555 80.2891C63.0329 79.9197 62.6872 79.7842 62.3186 79.8825C61.9562 79.9808 61.632 80.1936 61.3465 80.5205ZM60.6065 68.4493L61.1042 67.8794C61.4483 67.4855 61.8338 67.206 62.2607 67.041C62.6937 66.8756 63.1331 66.8514 63.5784 66.9676C64.0301 67.0835 64.4527 67.3668 64.8459 67.8173C65.2455 68.2744 65.4926 68.7582 65.588 69.2684C65.6864 69.7747 65.6604 70.2726 65.5101 70.7613C65.3626 71.2466 65.117 71.6862 64.7732 72.0801L64.2755 72.6496C63.9317 73.0436 63.5447 73.3248 63.1144 73.4937C62.6906 73.6622 62.2542 73.6903 61.8059 73.5776C61.3634 73.4649 60.9457 73.1833 60.5522 72.7332C60.1526 72.2757 59.9024 71.7922 59.8009 71.282C59.7025 70.7684 59.7255 70.2673 59.8696 69.7786C60.0171 69.286 60.2627 68.8429 60.6065 68.4493ZM62.0445 68.9559L61.5471 69.5258C61.2612 69.8527 61.0723 70.2238 60.9803 70.6388C60.8914 71.0503 61.0128 71.446 61.3447 71.8259C61.6673 72.1953 62.0068 72.3273 62.3631 72.222C62.7256 72.1166 63.0497 71.9003 63.3352 71.5731L63.833 71.0036C64.1185 70.6764 64.3089 70.3109 64.404 69.9064C64.5021 69.4984 64.3853 69.1044 64.0534 68.7245C63.7308 68.3552 63.3852 68.2196 63.0166 68.318C62.6541 68.4163 62.33 68.629 62.0445 68.9559ZM53.7884 77.0575L69.7133 73.6854L70.7642 74.8886L54.8393 78.2607L53.7884 77.0575Z" fill="#F6F8FE"/>
<path d="M77.1083 59.1146C78.3665 60.5555 80.2574 60.559 81.938 59.9727C83.6734 59.3667 85.5284 58.0395 87.1482 56.1849C88.7677 54.3307 89.9272 52.2065 90.4562 50.2199C90.9687 48.2958 90.9653 46.1308 89.7071 44.6899C88.4485 43.2493 86.5576 43.2454 84.8771 43.8321C83.1419 44.4378 81.2866 45.7653 79.6671 47.6195C78.9507 48.4397 78.7514 48.7343 78.6134 48.9625C79.0712 49.1455 79.3135 49.2887 79.7327 49.5945C79.8554 49.3663 80.1421 48.9625 80.4911 48.563C83.5148 45.1007 87.2721 43.7893 88.883 45.6333C90.4937 47.4777 89.348 51.7795 86.3242 55.2415C83.3002 58.7038 79.5429 60.0155 77.9323 58.1711C77.4422 57.6104 77.2073 56.8222 77.2027 55.8994C76.7231 55.8851 76.3419 55.9605 76.0411 56.069C76.0714 57.2021 76.379 58.28 77.1083 59.1146Z" fill="#7B85A1"/>
<defs>
<linearGradient id="paint0_linear_4_4128" x1="61.1439" y1="50.5444" x2="61.1439" y2="104.24" gradientUnits="userSpaceOnUse">
<stop offset="0.5" stop-color="#EB5125"/>
<stop offset="1" stop-color="#8A4C4B"/>
</linearGradient>
<linearGradient id="paint1_linear_4_4128" x1="65.7723" y1="53.8081" x2="65.7723" y2="103.341" gradientUnits="userSpaceOnUse">
<stop stop-color="#CAB6B6"/>
<stop offset="0.075" stop-color="#E76F71"/>
<stop offset="0.625" stop-color="#DC4449"/>
<stop offset="0.965" stop-color="#DA3F43"/>
<stop offset="1" stop-color="#D93A3F"/>
</linearGradient>
</defs>
</svg>
