<svg width="64" height="59" viewBox="0 0 64 59" fill="none" xmlns="http://www.w3.org/2000/svg">
<mask id="mask0_4_4136" style="mask-type:luminance" maskUnits="userSpaceOnUse" x="0" y="0" width="64" height="59">
<path d="M64 0H0V59H64V0Z" fill="white"/>
</mask>
<g mask="url(#mask0_4_4136)">
<path d="M44.4985 0.0117167L44.7299 0.0149115C55.0848 -0.116243 63.8913 8.53401 63.9885 19.1699C64.0307 23.7415 62.4522 28.3817 59.4601 31.8214C58.4907 32.936 57.3737 33.9423 56.3416 34.9989L33.9716 57.8071C32.338 59.4972 31.5421 59.2901 29.9733 57.7025L22.6147 50.2068L5.26966 32.6088C-5.39374 21.7323 1.0941 2.5371 16.2227 0.221647C22.0893 -0.676207 27.7862 1.33209 31.9824 5.619C35.3746 2.19565 39.6439 0.082463 44.4985 0.0117167ZM18.5111 4.00506C17.5929 4.08387 16.6792 4.17253 15.7789 4.38225C5.68925 6.73218 0.619181 18.7635 6.28689 27.5224C7.37805 29.2088 8.89733 30.5651 10.3011 31.977L32.0166 54.079L42.0006 43.8927L55.0619 30.5978C56.0138 29.6474 56.9659 28.6856 57.6823 27.5309C62.4706 19.817 59.4975 9.86004 51.7714 5.69481C45.9983 2.58241 39.8005 3.76982 35.1207 8.14905L34.0013 9.25832C33.5409 9.73183 33.1025 10.2643 32.4436 10.4382L32.3757 10.4569C30.9913 10.7347 29.8722 9.10385 29.0192 8.26498C26.123 5.41663 22.531 3.86104 18.5111 4.00506Z" fill="url(#paint0_linear_4_4136)"/>
</g>
<path d="M19.5686 9.64319L20.2512 9.62222C24.239 9.60378 26.117 11.3339 28.7838 13.9054L31.9898 17.032L36.4463 12.751C37.7516 11.5811 38.6332 10.8291 40.2836 10.2567C49.6654 7.0037 58.6491 17.5171 53.2183 26.1013C52.7964 26.7683 52.2525 27.3438 51.7113 27.9102L42.734 36.7913L38.378 41.0968C37.1936 42.2404 33.897 45.5895 32.2091 45.7782C29.9366 46.0326 23.8798 39.3644 22.3231 37.7981L13.2742 28.8549C12.4233 28.0131 11.5137 27.2465 10.8405 26.2382C6.64916 19.9603 10.693 11.4998 17.7795 9.88837C18.3747 9.75297 18.9626 9.6994 19.5686 9.64319Z" fill="url(#paint1_linear_4_4136)"/>
<defs>
<linearGradient id="paint0_linear_4_4136" x1="31.9979" y1="0.0112305" x2="31.9979" y2="58.9867" gradientUnits="userSpaceOnUse">
<stop stop-color="#CAB6B6"/>
<stop offset="0.06" stop-color="#D29D92"/>
<stop offset="0.23" stop-color="#EC5125"/>
<stop offset="0.3652" stop-color="#E75D36"/>
<stop offset="0.72" stop-color="#DF4137"/>
<stop offset="0.7501" stop-color="#EC5125"/>
<stop offset="1" stop-color="#D93A3F"/>
</linearGradient>
<linearGradient id="paint1_linear_4_4136" x1="32.0026" y1="9.62207" x2="32.0026" y2="45.7853" gradientUnits="userSpaceOnUse">
<stop stop-color="#CAB6B6"/>
<stop offset="0.06" stop-color="#D29D92"/>
<stop offset="0.23" stop-color="#EC5125"/>
<stop offset="0.3652" stop-color="#E75D36"/>
<stop offset="0.72" stop-color="#DF4137"/>
<stop offset="0.7501" stop-color="#EC5125"/>
<stop offset="1" stop-color="#D93A3F"/>
</linearGradient>
</defs>
</svg>
