<svg width="66" height="75" viewBox="0 0 66 75" fill="none" xmlns="http://www.w3.org/2000/svg">
<path fill-rule="evenodd" clip-rule="evenodd" d="M16.0441 60.6308C15.2383 60.6308 14.6076 60.0195 14.6076 59.2382C14.6076 58.4569 15.2382 57.8455 16.0441 57.8455H30.0911C30.1262 56.6567 30.2314 55.5356 30.4765 54.4149H16.0441C15.2383 54.4149 14.6076 53.7696 14.6076 53.0223C14.6076 52.2413 15.2382 51.6296 16.0441 51.6296H31.3524C31.8426 50.4068 32.4383 49.252 33.174 48.199H16.0441C15.2383 48.199 14.6076 47.5537 14.6076 46.8066C14.6076 46.0252 15.2382 45.3799 16.0441 45.3799H35.556C38.8837 42.187 43.5078 40.2168 48.5523 40.2168C50.6192 40.2168 52.5808 40.5225 54.4024 41.1V6.48773C54.4024 2.92128 51.3897 0 47.7117 0H6.69073C3.01257 0 0 2.92128 0 6.48773V63.6539C0 67.2206 3.01257 70.1075 6.69091 70.1075H34.8554C32.4383 67.526 30.792 64.2653 30.2665 60.6308H16.0441ZM27.1838 6.08023C36.8522 6.08023 44.6989 13.6888 44.6989 23.0636C44.6989 32.4043 36.8522 40.0132 27.1838 40.0132C17.5502 40.0132 9.7033 32.4043 9.7033 23.0636C9.7033 13.6888 17.5502 6.08023 27.1838 6.08023Z" fill="url(#paint0_linear_4_4143)"/>
<path fill-rule="evenodd" clip-rule="evenodd" d="M27.183 38.9935C33.3131 38.9935 38.638 35.7666 41.4755 30.9773C40.0042 28.4975 37.9024 26.4595 35.3803 25.0669C33.5935 27.6144 30.616 29.279 27.1832 29.279C23.7852 29.279 20.7724 27.6144 19.0211 25.0669C16.499 26.4595 14.3971 28.4975 12.9258 30.9773C15.7631 35.7666 21.0877 38.9935 27.183 38.9935Z" fill="url(#paint1_linear_4_4143)"/>
<path fill-rule="evenodd" clip-rule="evenodd" d="M27.1815 28.2613C32.0857 28.2613 36.0442 24.423 36.0442 19.7016C36.0442 14.9804 32.0857 11.1421 27.1815 11.1421C22.3122 11.1421 18.3537 14.9804 18.3537 19.7016C18.3537 24.423 22.3122 28.2613 27.1815 28.2613Z" fill="url(#paint2_linear_4_4143)"/>
<path fill-rule="evenodd" clip-rule="evenodd" d="M48.5546 41.2368C38.9561 41.2368 31.1444 48.7775 31.1444 58.1184C31.1444 67.4594 38.9561 74.9999 48.5546 74.9999C58.1881 74.9999 65.9999 67.4594 65.9999 58.1184C65.9999 48.7774 58.1882 41.2368 48.5546 41.2368ZM58.048 65.4211C58.048 67.1534 56.5767 68.58 54.7552 68.58H42.3544C40.5677 68.58 39.0966 67.1536 39.0966 65.4211V59.5448C39.0966 57.8127 40.5679 56.3859 42.3544 56.3859H42.4945V53.5328C42.4945 51.9023 43.1952 50.4418 44.2813 49.3888C45.3672 48.3019 46.9084 47.6565 48.5549 47.6565C50.2364 47.6565 51.7428 48.3019 52.8638 49.3888C53.9497 50.4418 54.6505 51.9023 54.6505 53.5328V56.3859H54.7556C56.5772 56.3859 58.0483 57.8127 58.0483 59.5448V65.4211H58.048Z" fill="url(#paint3_linear_4_4143)"/>
<path fill-rule="evenodd" clip-rule="evenodd" d="M48.5525 50.4741C47.7119 50.4741 46.9061 50.8138 46.3457 51.3913C45.7851 51.9348 45.4348 52.6819 45.4348 53.5311V56.3842H51.7052V53.5311C51.7052 52.6819 51.3549 51.9346 50.7945 51.3913C50.1992 50.8138 49.4284 50.4741 48.5525 50.4741Z" fill="url(#paint4_linear_4_4143)"/>
<path fill-rule="evenodd" clip-rule="evenodd" d="M48.5523 59.9512C47.1511 59.9512 45.96 61.106 45.96 62.4986C45.96 63.8573 47.151 65.0121 48.5523 65.0121C49.9887 65.0121 51.1446 63.8573 51.1446 62.4986C51.1446 61.106 49.9887 59.9512 48.5523 59.9512Z" fill="url(#paint5_linear_4_4143)"/>
<defs>
<linearGradient id="paint0_linear_4_4143" x1="27.2012" y1="0" x2="27.2012" y2="70.1075" gradientUnits="userSpaceOnUse">
<stop stop-color="#CAB6B6"/>
<stop offset="0.75" stop-color="#EC5125"/>
<stop offset="1" stop-color="#D93A3F"/>
</linearGradient>
<linearGradient id="paint1_linear_4_4143" x1="27.2007" y1="25.0669" x2="27.2007" y2="38.9935" gradientUnits="userSpaceOnUse">
<stop stop-color="#CAB6B6"/>
<stop offset="0.75" stop-color="#EC5125"/>
<stop offset="1" stop-color="#D93A3F"/>
</linearGradient>
<linearGradient id="paint2_linear_4_4143" x1="27.199" y1="11.1421" x2="27.199" y2="28.2613" gradientUnits="userSpaceOnUse">
<stop stop-color="#CAB6B6"/>
<stop offset="0.75" stop-color="#EC5125"/>
<stop offset="1" stop-color="#D93A3F"/>
</linearGradient>
<linearGradient id="paint3_linear_4_4143" x1="48.5722" y1="41.2368" x2="48.5722" y2="74.9999" gradientUnits="userSpaceOnUse">
<stop stop-color="#CAB6B6"/>
<stop offset="0.75" stop-color="#EC5125"/>
<stop offset="1" stop-color="#D93A3F"/>
</linearGradient>
<linearGradient id="paint4_linear_4_4143" x1="48.57" y1="50.4741" x2="48.57" y2="56.3842" gradientUnits="userSpaceOnUse">
<stop stop-color="#CAB6B6"/>
<stop offset="0.75" stop-color="#EC5125"/>
<stop offset="1" stop-color="#D93A3F"/>
</linearGradient>
<linearGradient id="paint5_linear_4_4143" x1="48.5523" y1="59.9512" x2="48.5523" y2="65.0121" gradientUnits="userSpaceOnUse">
<stop stop-color="#CAB6B6"/>
<stop offset="0.75" stop-color="#EC5125"/>
<stop offset="1" stop-color="#D93A3F"/>
</linearGradient>
</defs>
</svg>
