<svg width="75" height="75" viewBox="0 0 75 75" fill="none" xmlns="http://www.w3.org/2000/svg">
<path d="M37.7365 40.2999C35.4019 40.2999 34.1201 41.2765 32.6552 44.1911C32.3805 44.7251 31.6175 44.7251 31.3429 44.1911C29.8932 41.2765 28.6114 40.2999 26.2615 40.2999C23.4995 40.2999 21.2564 42.543 21.2564 45.305C21.2564 49.2572 24.3388 51.9886 28.2299 55.4525C29.4507 56.5359 30.702 57.6499 31.9837 58.9011C33.2655 57.6499 34.5168 56.5359 35.7376 55.4525C39.6287 52.0039 42.7111 49.2724 42.7111 45.305C42.7416 42.543 40.4985 40.2999 37.7365 40.2999ZM48.6928 21.1799H44.0387V28.3213C44.0387 30.1372 42.5585 31.6173 40.7426 31.6173C38.9268 31.6173 37.4466 30.1372 37.4466 28.3213V21.1799H24.6287V28.3213C24.6287 30.1372 23.1486 31.6173 21.3327 31.6173C19.5168 31.6173 18.0366 30.1372 18.0366 28.3213V21.1799H13.2452C12.4364 21.1799 11.765 21.7903 11.6887 22.599L7.15669 67.8584C7.06513 68.8045 7.78232 69.5827 8.71315 69.5827H54.8423L50.1424 22.4922C50.0814 21.7445 49.4558 21.1799 48.6928 21.1799ZM36.7294 56.5359C35.3561 57.7414 33.9522 59.008 32.5178 60.4271C32.2279 60.717 31.7701 60.717 31.4802 60.4271C30.0458 58.9927 28.6419 57.7414 27.2686 56.5359C23.2554 52.9805 19.8067 49.9133 19.8067 45.305C19.8067 41.7343 22.706 38.835 26.2767 38.835C29.1302 38.835 30.7325 40.1931 32.0143 42.3294C33.2961 40.1931 34.8983 38.835 37.7518 38.835C41.3225 38.835 44.2218 41.7343 44.2218 45.305C44.2065 49.9133 40.7426 52.9805 36.7294 56.5359ZM21.3327 30.1524C22.3398 30.1524 23.1638 29.3284 23.1638 28.3213V16.9683C23.1638 12.6346 26.704 9.09443 31.0377 9.09443C35.3713 9.09443 38.9115 12.6346 38.9115 16.9683V28.3213C38.9115 29.3284 39.7355 30.1524 40.7426 30.1524C41.7498 30.1524 42.5738 29.3284 42.5738 28.3213V16.9683C42.5738 10.7424 37.233 5.43217 31.0377 5.43217C24.6897 5.43217 19.5016 10.6204 19.5016 16.9683V28.3213C19.5016 29.3284 20.3256 30.1524 21.3327 30.1524ZM41.3988 9.10969C45.9614 8.74346 49.8983 12.3905 49.8983 16.953V19.6997H53.5606V16.953C53.5606 8.98761 45.6104 3.41793 38.1638 6.07306C39.3846 6.89707 40.4985 7.93471 41.3988 9.10969ZM67.8434 67.8584L63.3266 22.5837C63.2503 21.775 62.5789 21.1646 61.7701 21.1646H58.1689L62.3195 62.6855L67.8281 68.3315C67.8586 68.1941 67.8586 68.0415 67.8434 67.8584ZM57.2076 69.5827H66.2869C66.5005 69.5827 66.6989 69.5522 66.882 69.4759L61.6633 64.1199L57.2076 69.5827ZM56.6887 21.1799H51.2259C51.4242 21.5308 51.5616 21.9276 51.6073 22.3549L56.2157 68.484L60.8545 62.7923L56.6887 21.1799Z" fill="url(#paint0_linear_4_4120)"/>
<defs>
<linearGradient id="paint0_linear_4_4120" x1="37.5011" y1="5.40333" x2="37.5011" y2="69.5827" gradientUnits="userSpaceOnUse">
<stop stop-color="#CAB6B6"/>
<stop offset="0.5" stop-color="#EC5125"/>
<stop offset="1" stop-color="#D93A3F"/>
</linearGradient>
</defs>
</svg>
