<svg width="60" height="61" viewBox="0 0 60 61" fill="none" xmlns="http://www.w3.org/2000/svg">
  <g filter="url(#filter0_d_157_4219)">
    <rect x="10" y="10.5" width="40" height="40" rx="20" fill="white" shape-rendering="crispEdges"/>
    <g clip-path="url(#clip0_157_4219)">
      <path d="M29.7656 34.8594C29.9375 35.0625 30.0156 35.3008 30 35.5742C29.9844 35.8477 29.8672 36.0781 29.6484 36.2656C29.4453 36.4375 29.2031 36.5156 28.9219 36.5C28.6406 36.4844 28.4141 36.3672 28.2422 36.1484L24.5625 31.8594C24.1875 31.4844 24 31.0312 24 30.5C24 29.9688 24.1875 29.5156 24.5625 29.1406L28.2422 24.8516C28.4141 24.6328 28.6406 24.5156 28.9219 24.5C29.2031 24.4844 29.4453 24.5625 29.6484 24.7344C29.8672 24.9219 29.9844 25.1523 30 25.4258C30.0156 25.6992 29.9375 25.9375 29.7656 26.1406L26.8828 29.5156C26.8984 29.5 26.918 29.4922 26.9414 29.4922C26.9648 29.4922 26.9844 29.4922 27 29.4922H34.9922C35.2734 29.4922 35.5117 29.5898 35.707 29.7852C35.9023 29.9805 36 30.2188 36 30.5C36 30.7812 35.9023 31.0195 35.707 31.2148C35.5117 31.4102 35.2734 31.5078 34.9922 31.5078H27C26.9844 31.5078 26.9648 31.5078 26.9414 31.5078C26.918 31.5078 26.8984 31.5 26.8828 31.4844L29.7656 34.8594Z" fill="#616161"/>
    </g>
  </g>
  <defs>
    <filter id="filter0_d_157_4219" x="0" y="0.5" width="60" height="60" filterUnits="userSpaceOnUse" color-interpolation-filters="sRGB">
      <feFlood flood-opacity="0" result="BackgroundImageFix"/>
      <feColorMatrix in="SourceAlpha" type="matrix" values="0 0 0 0 0 0 0 0 0 0 0 0 0 0 0 0 0 0 127 0" result="hardAlpha"/>
      <feOffset/>
      <feGaussianBlur stdDeviation="5"/>
      <feComposite in2="hardAlpha" operator="out"/>
      <feColorMatrix type="matrix" values="0 0 0 0 0 0 0 0 0 0 0 0 0 0 0 0 0 0 0.15 0"/>
      <feBlend mode="normal" in2="BackgroundImageFix" result="effect1_dropShadow_157_4219"/>
      <feBlend mode="normal" in="SourceGraphic" in2="effect1_dropShadow_157_4219" result="shape"/>
    </filter>
    <clipPath id="clip0_157_4219">
      <rect width="12" height="12" fill="white" transform="matrix(-1 0 0 1 36 24.5)"/>
    </clipPath>
  </defs>
</svg>
